<?xml version="1.0" encoding="UTF-8"?>
<svg xmlns="http://www.w3.org/2000/svg" version="1.2" baseProfile="tiny-ps"
     viewBox="0 0 72 72" width="500" height="500">
  <title>Bago</title>
  <g fill="#5C4BFD">
  <rect x="13" y="0" width="46" height="1"/>
  <rect x="12" y="1" width="50" height="1"/>
  <rect x="12" y="2" width="53" height="1"/>
  <rect x="12" y="3" width="55" height="1"/>
  <rect x="12" y="4" width="56" height="1"/>
  <rect x="12" y="5" width="57" height="1"/>
  <rect x="12" y="6" width="58" height="1"/>
  <rect x="11" y="7" width="59" height="1"/>
  <rect x="11" y="8" width="60" height="1"/>
  <rect x="11" y="9" width="29" height="1"/>
  <rect x="42" y="9" width="29" height="1"/>
  <rect x="11" y="10" width="29" height="1"/>
  <rect x="43" y="10" width="29" height="1"/>
  <rect x="11" y="11" width="29" height="1"/>
  <rect x="44" y="11" width="28" height="1"/>
  <rect x="10" y="12" width="30" height="1"/>
  <rect x="46" y="12" width="26" height="1"/>
  <rect x="47" y="13" width="25" height="1"/>
  <rect x="48" y="14" width="24" height="1"/>
  <rect x="50" y="15" width="22" height="1"/>
  <rect x="51" y="16" width="21" height="1"/>
  <rect x="52" y="17" width="20" height="1"/>
  <rect x="54" y="18" width="18" height="1"/>
  <rect x="55" y="19" width="17" height="1"/>
  <rect x="55" y="20" width="16" height="1"/>
  <rect x="54" y="21" width="17" height="1"/>
  <rect x="52" y="22" width="18" height="1"/>
  <rect x="51" y="23" width="19" height="1"/>
  <rect x="50" y="24" width="19" height="1"/>
  <rect x="49" y="25" width="20" height="1"/>
  <rect x="48" y="26" width="20" height="1"/>
  <rect x="8" y="27" width="32" height="1"/>
  <rect x="47" y="27" width="20" height="1"/>
  <rect x="8" y="28" width="32" height="1"/>
  <rect x="45" y="28" width="21" height="1"/>
  <rect x="7" y="29" width="33" height="1"/>
  <rect x="44" y="29" width="21" height="1"/>
  <rect x="7" y="30" width="33" height="1"/>
  <rect x="43" y="30" width="20" height="1"/>
  <rect x="7" y="31" width="33" height="1"/>
  <rect x="42" y="31" width="20" height="1"/>
  <rect x="7" y="32" width="33" height="1"/>
  <rect x="41" y="32" width="18" height="1"/>
  <rect x="7" y="33" width="49" height="1"/>
  <rect x="7" y="34" width="47" height="1"/>
  <rect x="6" y="35" width="52" height="1"/>
  <rect x="6" y="36" width="55" height="1"/>
  <rect x="6" y="37" width="56" height="1"/>
  <rect x="6" y="38" width="58" height="1"/>
  <rect x="6" y="39" width="59" height="1"/>
  <rect x="5" y="40" width="61" height="1"/>
  <rect x="5" y="41" width="61" height="1"/>
  <rect x="5" y="42" width="21" height="1"/>
  <rect x="27" y="42" width="40" height="1"/>
  <rect x="5" y="43" width="19" height="1"/>
  <rect x="27" y="43" width="40" height="1"/>
  <rect x="5" y="44" width="18" height="1"/>
  <rect x="27" y="44" width="41" height="1"/>
  <rect x="5" y="45" width="17" height="1"/>
  <rect x="28" y="45" width="40" height="1"/>
  <rect x="4" y="46" width="16" height="1"/>
  <rect x="46" y="46" width="22" height="1"/>
  <rect x="4" y="47" width="15" height="1"/>
  <rect x="46" y="47" width="22" height="1"/>
  <rect x="4" y="48" width="14" height="1"/>
  <rect x="46" y="48" width="22" height="1"/>
  <rect x="4" y="49" width="12" height="1"/>
  <rect x="46" y="49" width="22" height="1"/>
  <rect x="4" y="50" width="11" height="1"/>
  <rect x="46" y="50" width="22" height="1"/>
  <rect x="3" y="51" width="11" height="1"/>
  <rect x="47" y="51" width="21" height="1"/>
  <rect x="3" y="52" width="10" height="1"/>
  <rect x="47" y="52" width="21" height="1"/>
  <rect x="3" y="53" width="10" height="1"/>
  <rect x="47" y="53" width="21" height="1"/>
  <rect x="3" y="54" width="12" height="1"/>
  <rect x="47" y="54" width="20" height="1"/>
  <rect x="3" y="55" width="13" height="1"/>
  <rect x="47" y="55" width="20" height="1"/>
  <rect x="3" y="56" width="14" height="1"/>
  <rect x="47" y="56" width="20" height="1"/>
  <rect x="2" y="57" width="16" height="1"/>
  <rect x="48" y="57" width="18" height="1"/>
  <rect x="2" y="58" width="17" height="1"/>
  <rect x="48" y="58" width="18" height="1"/>
  <rect x="2" y="59" width="18" height="1"/>
  <rect x="48" y="59" width="17" height="1"/>
  <rect x="2" y="60" width="20" height="1"/>
  <rect x="27" y="60" width="38" height="1"/>
  <rect x="2" y="61" width="21" height="1"/>
  <rect x="27" y="61" width="37" height="1"/>
  <rect x="2" y="62" width="22" height="1"/>
  <rect x="27" y="62" width="36" height="1"/>
  <rect x="1" y="63" width="24" height="1"/>
  <rect x="27" y="63" width="35" height="1"/>
  <rect x="1" y="64" width="25" height="1"/>
  <rect x="28" y="64" width="33" height="1"/>
  <rect x="1" y="65" width="59" height="1"/>
  <rect x="1" y="66" width="58" height="1"/>
  <rect x="1" y="67" width="56" height="1"/>
  <rect x="0" y="68" width="56" height="1"/>
  <rect x="0" y="69" width="53" height="1"/>
  <rect x="0" y="70" width="51" height="1"/>
  <rect x="0" y="71" width="46" height="1"/>
  </g>
</svg>