<svg xmlns="http://www.w3.org/2000/svg" width="1240" height="800" viewBox="0 0 1240 800" font-family="'Plus Jakarta Sans','Plus Jakarta Sans Variable',-apple-system,'Segoe UI',Roboto,sans-serif"><defs><linearGradient id="cvG" x1="0" y1="0" x2="1" y2="1"><stop offset="0" stop-color="#6E5BFF"/><stop offset="0.55" stop-color="#3A2E8F"/><stop offset="1" stop-color="#171231"/></linearGradient></defs><rect width="1240" height="800" fill="#171231"/><rect x="0" y="0" width="1240" height="800" rx="0" ry="0" fill="url(#cvG)"/><circle cx="1050" cy="120" r="280" fill="#FFFFFF" fill-opacity="0.05"/><circle cx="150" cy="720" r="240" fill="#FFFFFF" fill-opacity="0.05"/><circle cx="1080" cy="660" r="150" fill="#DFFF00" fill-opacity="0.06"/><g transform="translate(96,96) scale(0.7)"><path d="M4 6 H56 L56 0 L78 19 L56 38 L56 32 H26 V44 H4 Z" fill="#FFFFFF"/><path d="M96 94 H44 L44 100 L22 81 L44 62 L44 68 H74 V56 H96 Z" fill="#FFFFFF"/></g><text x="190" y="150" font-family="'Plus Jakarta Sans','Plus Jakarta Sans Variable',-apple-system,'Segoe UI',Roboto,sans-serif" font-size="56" font-weight="800" letter-spacing="-1.6" text-anchor="start" fill="#FFFFFF">Bago</text><text x="96" y="368.8" font-family="'Plus Jakarta Sans','Plus Jakarta Sans Variable',-apple-system,'Segoe UI',Roboto,sans-serif" font-size="86" font-weight="800" letter-spacing="-2.6" text-anchor="start" fill="#FFFFFF">Mobile App</text><text x="96" y="454.8" font-family="'Plus Jakarta Sans','Plus Jakarta Sans Variable',-apple-system,'Segoe UI',Roboto,sans-serif" font-size="86" font-weight="800" letter-spacing="-2.6" text-anchor="start" fill="#DFFF00">Design System</text><text x="98" y="522.8" font-family="'Plus Jakarta Sans','Plus Jakarta Sans Variable',-apple-system,'Segoe UI',Roboto,sans-serif" font-size="21" font-weight="500" letter-spacing="-0.4" text-anchor="start" fill="rgba(255,255,255,0.78)">A complete UI design file recreated from the Bago Flutter codebase —</text><text x="98" y="552.8" font-family="'Plus Jakarta Sans','Plus Jakarta Sans Variable',-apple-system,'Segoe UI',Roboto,sans-serif" font-size="21" font-weight="500" letter-spacing="-0.4" text-anchor="start" fill="rgba(255,255,255,0.78)">every screen, component, colour and type style, ready for Figma.</text><rect x="98" y="600" width="211" height="44" rx="22" ry="22" fill="rgba(255,255,255,0.12)"/><rect x="98" y="600" width="211" height="44" rx="22" ry="22" fill="none" stroke="rgba(255,255,255,0.22)" stroke-width="1"/><text x="203.5" y="625" font-family="'Plus Jakarta Sans','Plus Jakarta Sans Variable',-apple-system,'Segoe UI',Roboto,sans-serif" font-size="15" font-weight="700" letter-spacing="-0.4" text-anchor="middle" fill="#FFFFFF">58 screen artboards</text><rect x="323" y="600" width="121" height="44" rx="22" ry="22" fill="rgba(255,255,255,0.12)"/><rect x="323" y="600" width="121" height="44" rx="22" ry="22" fill="none" stroke="rgba(255,255,255,0.22)" stroke-width="1"/><text x="383.5" y="625" font-family="'Plus Jakarta Sans','Plus Jakarta Sans Variable',-apple-system,'Segoe UI',Roboto,sans-serif" font-size="15" font-weight="700" letter-spacing="-0.4" text-anchor="middle" fill="#FFFFFF">60+ icons</text><rect x="458" y="600" width="193" height="44" rx="22" ry="22" fill="rgba(255,255,255,0.12)"/><rect x="458" y="600" width="193" height="44" rx="22" ry="22" fill="none" stroke="rgba(255,255,255,0.22)" stroke-width="1"/><text x="554.5" y="625" font-family="'Plus Jakarta Sans','Plus Jakarta Sans Variable',-apple-system,'Segoe UI',Roboto,sans-serif" font-size="15" font-weight="700" letter-spacing="-0.4" text-anchor="middle" fill="#FFFFFF">Plus Jakarta Sans</text><rect x="665" y="600" width="175" height="44" rx="22" ry="22" fill="rgba(255,255,255,0.12)"/><rect x="665" y="600" width="175" height="44" rx="22" ry="22" fill="none" stroke="rgba(255,255,255,0.22)" stroke-width="1"/><text x="752.5" y="625" font-family="'Plus Jakarta Sans','Plus Jakarta Sans Variable',-apple-system,'Segoe UI',Roboto,sans-serif" font-size="15" font-weight="700" letter-spacing="-0.4" text-anchor="middle" fill="#FFFFFF">Primary #5C4BFD</text><rect x="854" y="600" width="184" height="44" rx="22" ry="22" fill="rgba(255,255,255,0.12)"/><rect x="854" y="600" width="184" height="44" rx="22" ry="22" fill="none" stroke="rgba(255,255,255,0.22)" stroke-width="1"/><text x="946" y="625" font-family="'Plus Jakarta Sans','Plus Jakarta Sans Variable',-apple-system,'Segoe UI',Roboto,sans-serif" font-size="15" font-weight="700" letter-spacing="-0.4" text-anchor="middle" fill="#FFFFFF">iPhone 390 × 844</text><text x="96" y="731.2" font-family="'Plus Jakarta Sans','Plus Jakarta Sans Variable',-apple-system,'Segoe UI',Roboto,sans-serif" font-size="14" font-weight="800" letter-spacing="2.4" text-anchor="start" fill="rgba(255,255,255,0.5)">P2P INTERNATIONAL LOGISTICS PLATFORM</text></svg>