<svg xmlns="http://www.w3.org/2000/svg" width="390" height="844" viewBox="0 0 390 844" font-family="'Plus Jakarta Sans','Plus Jakarta Sans Variable',-apple-system,'Segoe UI',Roboto,sans-serif"><defs><filter id="footShadow" x="-20%" y="-60%" width="140%" height="220%"><feGaussianBlur stdDeviation="6"/></filter><linearGradient id="footShadow" x1="0" y1="0" x2="0" y2="1"><stop offset="0" stop-color="#000" stop-opacity="0"/><stop offset="1" stop-color="#000" stop-opacity="0.06"/></linearGradient><radialGradient id="splashGlow"><stop offset="0" stop-color="#fff" stop-opacity="0.22"/><stop offset="1" stop-color="#fff" stop-opacity="0"/></radialGradient></defs><rect width="390" height="844" fill="#5C4BFD"/><g><text x="26" y="33" font-family="'Plus Jakarta Sans','Plus Jakarta Sans Variable',-apple-system,'Segoe UI',Roboto,sans-serif" font-size="15" font-weight="700" letter-spacing="0" text-anchor="start" fill="#FFFFFF">9:41</text><rect x="312" y="23" width="4" height="4" rx="1.2" ry="1.2" fill="#FFFFFF"/><rect x="318" y="20.6" width="4" height="6.4" rx="1.2" ry="1.2" fill="#FFFFFF"/><rect x="324" y="18.2" width="4" height="8.8" rx="1.2" ry="1.2" fill="#FFFFFF"/><rect x="330" y="15.8" width="4" height="11.2" rx="1.2" ry="1.2" fill="#FFFFFF"/><path d="M340 22 a8 8 0 0 1 11 0" fill="none" stroke="#FFFFFF" stroke-width="2" stroke-linecap="round" stroke-linejoin="round"/><path d="M342.6 25 a4.2 4.2 0 0 1 5.8 0" fill="none" stroke="#FFFFFF" stroke-width="2" stroke-linecap="round" stroke-linejoin="round"/><circle cx="345.5" cy="28" r="1.4" fill="#FFFFFF"/><rect x="360" y="19" width="20" height="10" rx="3" ry="3" fill="none" fill-opacity="0.45" stroke="#FFFFFF" stroke-width="1.2"/><rect x="362.5" y="21.2" width="13" height="5.6" rx="1.4" ry="1.4" fill="#FFFFFF"/><path d="M381 22 v4" fill="none" fill-opacity="0.45" stroke="#FFFFFF" stroke-width="1.8" stroke-linecap="round" stroke-linejoin="round"/></g><circle cx="195" cy="400" r="150" fill="#FFFFFF" fill-opacity="0.05"/><circle cx="195" cy="400" r="96" fill="#FFFFFF" fill-opacity="0.07"/><circle cx="195" cy="400" r="60" fill="url(#splashGlow)"/><g transform="translate(117.91,376) scale(0.44)"><path d="M4 6 H56 L56 0 L78 19 L56 38 L56 32 H26 V44 H4 Z" fill="#FFFFFF"/><path d="M96 94 H44 L44 100 L22 81 L44 62 L44 68 H74 V56 H96 Z" fill="#FFFFFF"/></g><text x="170.71" y="411.2" font-family="'Plus Jakarta Sans','Plus Jakarta Sans Variable',-apple-system,'Segoe UI',Roboto,sans-serif" font-size="42.24" font-weight="800" letter-spacing="-1.0" text-anchor="start" fill="#FFFFFF">Bago</text><text x="195" y="480.4" font-family="'Plus Jakarta Sans','Plus Jakarta Sans Variable',-apple-system,'Segoe UI',Roboto,sans-serif" font-size="13" font-weight="600" letter-spacing="-0.4" text-anchor="middle" fill="#FFFFFF" fill-opacity="0.7">P2P International Logistics</text><circle cx="356" cy="80" r="18" fill="#FFFFFF" fill-opacity="0.16"/><g transform="translate(347,71) scale(0.75)"><g fill="none" stroke="#FFFFFF" stroke-width="1.85" stroke-linecap="round" stroke-linejoin="round"><line x1="6" y1="6" x2="18" y2="18"/><line x1="18" y1="6" x2="6" y2="18"/></g></g><rect x="181" y="714" width="28" height="28" rx="14" ry="14" fill="none" stroke="rgba(255,255,255,0.3)" stroke-width="3"/><path d="M181.0 728 a14 14 0 0 1 14 -14" fill="none" stroke="#FFFFFF" stroke-width="3" stroke-linecap="round" stroke-linejoin="round"/><rect x="128" y="835" width="134" height="5" rx="2.5" ry="2.5" fill="#FFFFFF" fill-opacity="0.85"/></svg>