<svg xmlns="http://www.w3.org/2000/svg" width="390" height="844" viewBox="0 0 390 844" font-family="'Plus Jakarta Sans','Plus Jakarta Sans Variable',-apple-system,'Segoe UI',Roboto,sans-serif"><defs><filter id="footShadow" x="-20%" y="-60%" width="140%" height="220%"><feGaussianBlur stdDeviation="6"/></filter><linearGradient id="footShadow" x1="0" y1="0" x2="0" y2="1"><stop offset="0" stop-color="#000" stop-opacity="0"/><stop offset="1" stop-color="#000" stop-opacity="0.06"/></linearGradient><linearGradient id="obg" x1="0" y1="0" x2="0.4" y2="1"><stop offset="0" stop-color="#6A5BFF"/><stop offset="1" stop-color="#2A2150"/></linearGradient></defs><rect width="390" height="844" fill="#2A2150"/><rect x="0" y="0" width="390" height="844" rx="0" ry="0" fill="url(#obg)"/><circle cx="300" cy="250" r="170" fill="#FFFFFF" fill-opacity="0.06"/><circle cx="90" cy="470" r="120" fill="#FFFFFF" fill-opacity="0.05"/><rect x="125" y="210" width="140" height="140" rx="34" ry="34" fill="#FFFFFF" fill-opacity="0.1"/><g transform="translate(147,232) scale(4)"><g fill="none" stroke="#FFFFFF" stroke-width="1.85" stroke-linecap="round" stroke-linejoin="round"><path d="M12 3 L20 7.2 V16.8 L12 21 L4 16.8 V7.2 Z"/><polyline points="4,7.4 12,11.6 20,7.4"/><line x1="12" y1="11.6" x2="12" y2="21"/><polyline points="8,5 16,9.3"/></g></g><path d="M120 200 Q200 120 290 190" fill="none" fill-opacity="0.5" stroke="#FFFFFF" stroke-width="2.4" stroke-linecap="round" stroke-linejoin="round"/><g transform="translate(283,175) scale(1.08)"><g fill="none" stroke="#FFFFFF" stroke-width="1.85" stroke-linecap="round" stroke-linejoin="round"><path d="M21 13 L13.5 11.8 L9.5 19 L7.6 18.6 L9.8 11 L4.2 10.1 L2.8 11.9 L1.4 11.6 L2.2 8.6 L1.8 5.6 L3.2 5.9 L4.2 8 L9.8 8.9 L9.4 1.2 L11.3 1.6 L14.4 8.8 L21.8 10 Z"/></g></g><circle cx="118" cy="202" r="4" fill="#FFFFFF" fill-opacity="0.7"/><g><text x="26" y="33" font-family="'Plus Jakarta Sans','Plus Jakarta Sans Variable',-apple-system,'Segoe UI',Roboto,sans-serif" font-size="15" font-weight="700" letter-spacing="0" text-anchor="start" fill="#FFFFFF">9:41</text><rect x="312" y="23" width="4" height="4" rx="1.2" ry="1.2" fill="#FFFFFF"/><rect x="318" y="20.6" width="4" height="6.4" rx="1.2" ry="1.2" fill="#FFFFFF"/><rect x="324" y="18.2" width="4" height="8.8" rx="1.2" ry="1.2" fill="#FFFFFF"/><rect x="330" y="15.8" width="4" height="11.2" rx="1.2" ry="1.2" fill="#FFFFFF"/><path d="M340 22 a8 8 0 0 1 11 0" fill="none" stroke="#FFFFFF" stroke-width="2" stroke-linecap="round" stroke-linejoin="round"/><path d="M342.6 25 a4.2 4.2 0 0 1 5.8 0" fill="none" stroke="#FFFFFF" stroke-width="2" stroke-linecap="round" stroke-linejoin="round"/><circle cx="345.5" cy="28" r="1.4" fill="#FFFFFF"/><rect x="360" y="19" width="20" height="10" rx="3" ry="3" fill="none" fill-opacity="0.45" stroke="#FFFFFF" stroke-width="1.2"/><rect x="362.5" y="21.2" width="13" height="5.6" rx="1.4" ry="1.4" fill="#FFFFFF"/><path d="M381 22 v4" fill="none" fill-opacity="0.45" stroke="#FFFFFF" stroke-width="1.8" stroke-linecap="round" stroke-linejoin="round"/></g><rect x="20" y="66" width="62" height="32" rx="16" ry="16" fill="#FFFFFF" fill-opacity="0.18"/><text x="51" y="83.4" font-family="'Plus Jakarta Sans','Plus Jakarta Sans Variable',-apple-system,'Segoe UI',Roboto,sans-serif" font-size="13" font-weight="700" letter-spacing="-0.4" text-anchor="middle" fill="#FFFFFF">Skip</text><rect x="292" y="66" width="78" height="32" rx="16" ry="16" fill="#2F8F77"/><text x="318" y="85.4" font-family="'Plus Jakarta Sans','Plus Jakarta Sans Variable',-apple-system,'Segoe UI',Roboto,sans-serif" font-size="13" font-weight="700" letter-spacing="-0.4" text-anchor="start" fill="#FFFFFF">Next</text><g transform="translate(340.5,74.5) scale(0.62)"><g fill="none" stroke="#FFFFFF" stroke-width="2.4" stroke-linecap="round" stroke-linejoin="round"><line x1="4" y1="12" x2="18.5" y2="12"/><polyline points="12,5 19,12 12,19"/></g></g><text x="20" y="494" font-family="'Plus Jakarta Sans','Plus Jakarta Sans Variable',-apple-system,'Segoe UI',Roboto,sans-serif" font-size="30" font-weight="800" letter-spacing="-0.4" text-anchor="start" fill="#FFFFFF">Send packages</text><text x="20" y="533" font-family="'Plus Jakarta Sans','Plus Jakarta Sans Variable',-apple-system,'Segoe UI',Roboto,sans-serif" font-size="30" font-weight="800" letter-spacing="-0.4" text-anchor="start" fill="#FFFFFF">anywhere in the</text><text x="20" y="572" font-family="'Plus Jakarta Sans','Plus Jakarta Sans Variable',-apple-system,'Segoe UI',Roboto,sans-serif" font-size="30" font-weight="800" letter-spacing="-0.4" text-anchor="start" fill="#FFFFFF">world</text><text x="20" y="613.4" font-family="'Plus Jakarta Sans','Plus Jakarta Sans Variable',-apple-system,'Segoe UI',Roboto,sans-serif" font-size="15.5" font-weight="400" letter-spacing="-0.4" text-anchor="start" fill="rgba(255,255,255,0.8)">Connect with trusted travelers heading</text><text x="20" y="637.42" font-family="'Plus Jakarta Sans','Plus Jakarta Sans Variable',-apple-system,'Segoe UI',Roboto,sans-serif" font-size="15.5" font-weight="400" letter-spacing="-0.4" text-anchor="start" fill="rgba(255,255,255,0.8)">your way and ship items for less.</text><circle cx="185.5" cy="693.5" r="3.5" fill="#FFFFFF" fill-opacity="0.4"/><circle cx="203.5" cy="693.5" r="3.5" fill="#FFFFFF" fill-opacity="0.4"/><rect x="218" y="690" width="22" height="7" rx="3.5" ry="3.5" fill="#FFFFFF"/><rect x="20" y="722" width="350" height="54" rx="27" ry="27" fill="#5C4BFD"/><text x="195" y="753.8" font-family="'Plus Jakarta Sans','Plus Jakarta Sans Variable',-apple-system,'Segoe UI',Roboto,sans-serif" font-size="16" font-weight="600" letter-spacing="-0.4" text-anchor="middle" fill="#FFFFFF">Create account</text><text x="195" y="799.6" font-family="'Plus Jakarta Sans','Plus Jakarta Sans Variable',-apple-system,'Segoe UI',Roboto,sans-serif" font-size="14.5" font-weight="700" letter-spacing="-0.4" text-anchor="middle" fill="#FFFFFF">Log In</text><rect x="128" y="835" width="134" height="5" rx="2.5" ry="2.5" fill="#FFFFFF" fill-opacity="0.85"/></svg>