<svg xmlns="http://www.w3.org/2000/svg" width="390" height="844" viewBox="0 0 390 844" font-family="'Plus Jakarta Sans','Plus Jakarta Sans Variable',-apple-system,'Segoe UI',Roboto,sans-serif"><defs><filter id="footShadow" x="-20%" y="-60%" width="140%" height="220%"><feGaussianBlur stdDeviation="6"/></filter><linearGradient id="footShadow" x1="0" y1="0" x2="0" y2="1"><stop offset="0" stop-color="#000" stop-opacity="0"/><stop offset="1" stop-color="#000" stop-opacity="0.06"/></linearGradient><linearGradient id="heroG" x1="0" y1="0" x2="0.6" y2="1"><stop offset="0" stop-color="#6E5BFF"/><stop offset="1" stop-color="#241C45"/></linearGradient></defs><rect width="390" height="844" fill="#FFFFFF"/><rect x="0" y="0" width="390" height="268" rx="0" ry="0" fill="url(#heroG)"/><circle cx="330" cy="60" r="120" fill="#FFFFFF" fill-opacity="0.08"/><circle cx="40" cy="210" r="90" fill="#FFFFFF" fill-opacity="0.06"/><rect x="0" y="0" width="390" height="268" rx="0" ry="0" fill="#0A0A0A" fill-opacity="0.28"/><g><text x="26" y="33" font-family="'Plus Jakarta Sans','Plus Jakarta Sans Variable',-apple-system,'Segoe UI',Roboto,sans-serif" font-size="15" font-weight="700" letter-spacing="0" text-anchor="start" fill="#FFFFFF">9:41</text><rect x="312" y="23" width="4" height="4" rx="1.2" ry="1.2" fill="#FFFFFF"/><rect x="318" y="20.6" width="4" height="6.4" rx="1.2" ry="1.2" fill="#FFFFFF"/><rect x="324" y="18.2" width="4" height="8.8" rx="1.2" ry="1.2" fill="#FFFFFF"/><rect x="330" y="15.8" width="4" height="11.2" rx="1.2" ry="1.2" fill="#FFFFFF"/><path d="M340 22 a8 8 0 0 1 11 0" fill="none" stroke="#FFFFFF" stroke-width="2" stroke-linecap="round" stroke-linejoin="round"/><path d="M342.6 25 a4.2 4.2 0 0 1 5.8 0" fill="none" stroke="#FFFFFF" stroke-width="2" stroke-linecap="round" stroke-linejoin="round"/><circle cx="345.5" cy="28" r="1.4" fill="#FFFFFF"/><rect x="360" y="19" width="20" height="10" rx="3" ry="3" fill="none" fill-opacity="0.45" stroke="#FFFFFF" stroke-width="1.2"/><rect x="362.5" y="21.2" width="13" height="5.6" rx="1.4" ry="1.4" fill="#FFFFFF"/><path d="M381 22 v4" fill="none" fill-opacity="0.45" stroke="#FFFFFF" stroke-width="1.8" stroke-linecap="round" stroke-linejoin="round"/></g><circle cx="38" cy="78" r="18" fill="#FFFFFF" fill-opacity="0.2"/><g transform="translate(28,69) scale(0.75)"><g fill="none" stroke="#FFFFFF" stroke-width="1.85" stroke-linecap="round" stroke-linejoin="round"><polyline points="14,4 7,12 14,20"/></g></g><g transform="translate(20,150) scale(0.26)"><path d="M4 6 H56 L56 0 L78 19 L56 38 L56 32 H26 V44 H4 Z" fill="#FFFFFF"/><path d="M96 94 H44 L44 100 L22 81 L44 62 L44 68 H74 V56 H96 Z" fill="#FFFFFF"/></g><text x="51.2" y="170.8" font-family="'Plus Jakarta Sans','Plus Jakarta Sans Variable',-apple-system,'Segoe UI',Roboto,sans-serif" font-size="24.96" font-weight="800" letter-spacing="-1.0" text-anchor="start" fill="#FFFFFF">Bago</text><text x="20" y="214.4" font-family="'Plus Jakarta Sans','Plus Jakarta Sans Variable',-apple-system,'Segoe UI',Roboto,sans-serif" font-size="23" font-weight="800" letter-spacing="-0.4" text-anchor="start" fill="#FFFFFF">Sign in to your</text><text x="20" y="242.4" font-family="'Plus Jakarta Sans','Plus Jakarta Sans Variable',-apple-system,'Segoe UI',Roboto,sans-serif" font-size="23" font-weight="800" letter-spacing="-0.4" text-anchor="start" fill="#FFFFFF">account</text><text x="20" y="305.2" font-family="'Plus Jakarta Sans','Plus Jakarta Sans Variable',-apple-system,'Segoe UI',Roboto,sans-serif" font-size="14" font-weight="500" letter-spacing="-0.4" text-anchor="start" fill="#374151">Email</text><rect x="20" y="316" width="350" height="54" rx="16" ry="16" fill="#FFFFFF" stroke="#E5E7EB" stroke-width="1"/><text x="36" y="347.6" font-family="'Plus Jakarta Sans','Plus Jakarta Sans Variable',-apple-system,'Segoe UI',Roboto,sans-serif" font-size="14.5" font-weight="500" letter-spacing="-0.4" text-anchor="start" fill="#111827">you@example.com</text><text x="20" y="395.2" font-family="'Plus Jakarta Sans','Plus Jakarta Sans Variable',-apple-system,'Segoe UI',Roboto,sans-serif" font-size="14" font-weight="500" letter-spacing="-0.4" text-anchor="start" fill="#374151">Password</text><rect x="20" y="406" width="350" height="54" rx="16" ry="16" fill="#FFFFFF" stroke="#E5E7EB" stroke-width="1"/><text x="36" y="437.6" font-family="'Plus Jakarta Sans','Plus Jakarta Sans Variable',-apple-system,'Segoe UI',Roboto,sans-serif" font-size="14.5" font-weight="500" letter-spacing="-0.4" text-anchor="start" fill="#111827">............</text><g transform="translate(338,423) scale(0.83)"><g fill="none" stroke="#9CA3AF" stroke-width="1.85" stroke-linecap="round" stroke-linejoin="round"><path d="M4 5 L20 19"/><path d="M9.2 9.5 A3.2 3.2 0 0 0 14.6 14.6"/><path d="M6.5 7.3 C3.7 8.7 2.5 12 2.5 12 C5.5 17.5 16 18.5 19.2 14.5 M16.8 8.4 C19 9.7 21.5 12 21.5 12 C21 13 20 14 19 14.7"/></g></g><text x="370" y="480.4" font-family="'Plus Jakarta Sans','Plus Jakarta Sans Variable',-apple-system,'Segoe UI',Roboto,sans-serif" font-size="13" font-weight="600" letter-spacing="-0.4" text-anchor="end" fill="#5C4BFD">Forgot password?</text><rect x="20" y="492" width="350" height="54" rx="27" ry="27" fill="#5C4BFD"/><text x="195" y="523.8" font-family="'Plus Jakarta Sans','Plus Jakarta Sans Variable',-apple-system,'Segoe UI',Roboto,sans-serif" font-size="16" font-weight="600" letter-spacing="-0.4" text-anchor="middle" fill="#FFFFFF">Log In</text><line x1="20" y1="566" x2="173" y2="566" stroke="#E5E7EB" stroke-width="1" stroke-linecap="round"/><line x1="217" y1="566" x2="370" y2="566" stroke="#E5E7EB" stroke-width="1" stroke-linecap="round"/><text x="195" y="569.6" font-family="'Plus Jakarta Sans','Plus Jakarta Sans Variable',-apple-system,'Segoe UI',Roboto,sans-serif" font-size="12" font-weight="700" letter-spacing="-0.4" text-anchor="middle" fill="#9CA3AF">OR</text><rect x="20" y="586" width="350" height="52" rx="26" ry="26" fill="#FFFFFF" stroke="#E5E7EB" stroke-width="1.4"/><g transform="translate(107,602) scale(0.83)"><path fill="#4285F4" d="M21.6 12.2c0-.7-.1-1.4-.2-2H12v3.8h5.4c-.2 1.2-.9 2.3-2 3v2.5h3.2c1.9-1.7 3-4.3 3-7.3z"/><path fill="#34A853" d="M12 22c2.7 0 5-.9 6.6-2.5l-3.2-2.5c-.9.6-2 1-3.4 1-2.6 0-4.8-1.8-5.6-4.2H3.1v2.6C4.7 19.9 8.1 22 12 22z"/><path fill="#FBBC05" d="M6.4 13.8c-.2-.6-.3-1.2-.3-1.8s.1-1.2.3-1.8V7.6H3.1C2.4 9 2 10.4 2 12s.4 3 1.1 4.4l3.3-2.6z"/><path fill="#EA4335" d="M12 5.9c1.5 0 2.8.5 3.8 1.5l2.8-2.8C16.9 2.9 14.7 2 12 2 8.1 2 4.7 4.1 3.1 7.6l3.3 2.6C7.2 7.7 9.4 5.9 12 5.9z"/></g><text x="133" y="616" font-family="'Plus Jakarta Sans','Plus Jakarta Sans Variable',-apple-system,'Segoe UI',Roboto,sans-serif" font-size="15" font-weight="600" letter-spacing="-0.4" text-anchor="start" fill="#111827">Continue with Google</text><rect x="20" y="650" width="350" height="52" rx="26" ry="26" fill="#0A0A0A"/><g transform="translate(111.5,665.5) scale(0.79)"><path d="M15.8 3.2c.1 1.4-.5 2.7-1.3 3.6-.9 1-2.3 1.7-3.6 1.6-.2-1.3.5-2.7 1.3-3.6.9-1 2.4-1.7 3.6-1.6zM19.2 16.7c-.6 1.4-.9 2-1.7 3.2-1.1 1.7-2.7 3.8-4.6 3.8-1.7 0-2.2-1.1-4.5-1.1s-2.8 1.1-4.5 1.1c-1.9 0-3.4-1.9-4.5-3.6C-.5 15.5-.9 9.7 1.5 6.6 3 4.5 5.3 3.3 7.5 3.3c2.2 0 3.6 1.2 5.4 1.2 1.8 0 2.9-1.2 5.4-1.2 1.9 0 4 1 5.4 2.8-4.7 2.6-4 9.3.1 10.6z" fill="#FFFFFF"/></g><text x="135" y="680" font-family="'Plus Jakarta Sans','Plus Jakarta Sans Variable',-apple-system,'Segoe UI',Roboto,sans-serif" font-size="15" font-weight="600" letter-spacing="-0.4" text-anchor="start" fill="#FFFFFF">Continue with Apple</text><text x="90.46" y="731.2" font-family="'Plus Jakarta Sans','Plus Jakarta Sans Variable',-apple-system,'Segoe UI',Roboto,sans-serif" font-size="14" font-weight="500" letter-spacing="-0.4" text-anchor="start" fill="#6B7280">Not a member yet?  </text><text x="240.75" y="731.2" font-family="'Plus Jakarta Sans','Plus Jakarta Sans Variable',-apple-system,'Segoe UI',Roboto,sans-serif" font-size="14" font-weight="700" letter-spacing="-0.4" text-anchor="start" fill="#5C4BFD">Sign Up</text><rect x="128" y="835" width="134" height="5" rx="2.5" ry="2.5" fill="#0A0A0A" fill-opacity="0.85"/></svg>