<svg xmlns="http://www.w3.org/2000/svg" width="390" height="844" viewBox="0 0 390 844" font-family="'Plus Jakarta Sans','Plus Jakarta Sans Variable',-apple-system,'Segoe UI',Roboto,sans-serif"><defs><filter id="footShadow" x="-20%" y="-60%" width="140%" height="220%"><feGaussianBlur stdDeviation="6"/></filter><linearGradient id="footShadow" x1="0" y1="0" x2="0" y2="1"><stop offset="0" stop-color="#000" stop-opacity="0"/><stop offset="1" stop-color="#000" stop-opacity="0.06"/></linearGradient></defs><rect width="390" height="844" fill="#0A0A0A"/><g><text x="26" y="33" font-family="'Plus Jakarta Sans','Plus Jakarta Sans Variable',-apple-system,'Segoe UI',Roboto,sans-serif" font-size="15" font-weight="700" letter-spacing="0" text-anchor="start" fill="#FFFFFF">9:41</text><rect x="312" y="23" width="4" height="4" rx="1.2" ry="1.2" fill="#FFFFFF"/><rect x="318" y="20.6" width="4" height="6.4" rx="1.2" ry="1.2" fill="#FFFFFF"/><rect x="324" y="18.2" width="4" height="8.8" rx="1.2" ry="1.2" fill="#FFFFFF"/><rect x="330" y="15.8" width="4" height="11.2" rx="1.2" ry="1.2" fill="#FFFFFF"/><path d="M340 22 a8 8 0 0 1 11 0" fill="none" stroke="#FFFFFF" stroke-width="2" stroke-linecap="round" stroke-linejoin="round"/><path d="M342.6 25 a4.2 4.2 0 0 1 5.8 0" fill="none" stroke="#FFFFFF" stroke-width="2" stroke-linecap="round" stroke-linejoin="round"/><circle cx="345.5" cy="28" r="1.4" fill="#FFFFFF"/><rect x="360" y="19" width="20" height="10" rx="3" ry="3" fill="none" fill-opacity="0.45" stroke="#FFFFFF" stroke-width="1.2"/><rect x="362.5" y="21.2" width="13" height="5.6" rx="1.4" ry="1.4" fill="#FFFFFF"/><path d="M381 22 v4" fill="none" fill-opacity="0.45" stroke="#FFFFFF" stroke-width="1.8" stroke-linecap="round" stroke-linejoin="round"/></g><circle cx="42" cy="84" r="22" fill="#1E1E22"/><g transform="translate(32,74) scale(0.83)"><g fill="none" stroke="#FFFFFF" stroke-width="1.85" stroke-linecap="round" stroke-linejoin="round"><polyline points="13,5 6,12 13,19"/><line x1="6.5" y1="12" x2="20" y2="12"/></g></g><text x="20" y="180.8" font-family="'Plus Jakarta Sans','Plus Jakarta Sans Variable',-apple-system,'Segoe UI',Roboto,sans-serif" font-size="26" font-weight="800" letter-spacing="-0.4" text-anchor="start" fill="#FFFFFF">Sign in to your</text><text x="20" y="212.8" font-family="'Plus Jakarta Sans','Plus Jakarta Sans Variable',-apple-system,'Segoe UI',Roboto,sans-serif" font-size="26" font-weight="800" letter-spacing="-0.4" text-anchor="start" fill="#FFFFFF">account</text><text x="20" y="245.6" font-family="'Plus Jakarta Sans','Plus Jakarta Sans Variable',-apple-system,'Segoe UI',Roboto,sans-serif" font-size="14.5" font-weight="500" letter-spacing="-0.4" text-anchor="start" fill="#9CA3AF">Choose your preferred method</text><rect x="20" y="278" width="350" height="56" rx="16" ry="16" fill="none" stroke="#33333A" stroke-width="1.5"/><g transform="translate(35.5,295.5) scale(0.88)"><g fill="none" stroke="#FFFFFF" stroke-width="1.85" stroke-linecap="round" stroke-linejoin="round"><rect x="3" y="5.5" width="18" height="13" rx="2.6"/><polyline points="3.8,7 12,12.5 20.2,7"/></g></g><text x="68" y="309.4" font-family="'Plus Jakarta Sans','Plus Jakarta Sans Variable',-apple-system,'Segoe UI',Roboto,sans-serif" font-size="15.5" font-weight="600" letter-spacing="-0.4" text-anchor="start" fill="#FFFFFF">Continue with Email</text><rect x="20" y="348" width="350" height="56" rx="16" ry="16" fill="none" stroke="#33333A" stroke-width="1.5"/><g transform="translate(35.5,365.5) scale(0.88)"><path fill="#4285F4" d="M21.6 12.2c0-.7-.1-1.4-.2-2H12v3.8h5.4c-.2 1.2-.9 2.3-2 3v2.5h3.2c1.9-1.7 3-4.3 3-7.3z"/><path fill="#34A853" d="M12 22c2.7 0 5-.9 6.6-2.5l-3.2-2.5c-.9.6-2 1-3.4 1-2.6 0-4.8-1.8-5.6-4.2H3.1v2.6C4.7 19.9 8.1 22 12 22z"/><path fill="#FBBC05" d="M6.4 13.8c-.2-.6-.3-1.2-.3-1.8s.1-1.2.3-1.8V7.6H3.1C2.4 9 2 10.4 2 12s.4 3 1.1 4.4l3.3-2.6z"/><path fill="#EA4335" d="M12 5.9c1.5 0 2.8.5 3.8 1.5l2.8-2.8C16.9 2.9 14.7 2 12 2 8.1 2 4.7 4.1 3.1 7.6l3.3 2.6C7.2 7.7 9.4 5.9 12 5.9z"/></g><text x="68" y="379.4" font-family="'Plus Jakarta Sans','Plus Jakarta Sans Variable',-apple-system,'Segoe UI',Roboto,sans-serif" font-size="15.5" font-weight="600" letter-spacing="-0.4" text-anchor="start" fill="#FFFFFF">Continue with Google</text><rect x="20" y="418" width="350" height="56" rx="16" ry="16" fill="none" stroke="#33333A" stroke-width="1.5"/><g transform="translate(36,436) scale(0.83)"><path d="M15.8 3.2c.1 1.4-.5 2.7-1.3 3.6-.9 1-2.3 1.7-3.6 1.6-.2-1.3.5-2.7 1.3-3.6.9-1 2.4-1.7 3.6-1.6zM19.2 16.7c-.6 1.4-.9 2-1.7 3.2-1.1 1.7-2.7 3.8-4.6 3.8-1.7 0-2.2-1.1-4.5-1.1s-2.8 1.1-4.5 1.1c-1.9 0-3.4-1.9-4.5-3.6C-.5 15.5-.9 9.7 1.5 6.6 3 4.5 5.3 3.3 7.5 3.3c2.2 0 3.6 1.2 5.4 1.2 1.8 0 2.9-1.2 5.4-1.2 1.9 0 4 1 5.4 2.8-4.7 2.6-4 9.3.1 10.6z" fill="#FFFFFF"/></g><text x="68" y="449.4" font-family="'Plus Jakarta Sans','Plus Jakarta Sans Variable',-apple-system,'Segoe UI',Roboto,sans-serif" font-size="15.5" font-weight="600" letter-spacing="-0.4" text-anchor="start" fill="#FFFFFF">Continue with Apple</text><text x="195" y="705.2" font-family="'Plus Jakarta Sans','Plus Jakarta Sans Variable',-apple-system,'Segoe UI',Roboto,sans-serif" font-size="14" font-weight="500" letter-spacing="-0.4" text-anchor="middle" fill="#6B7280">Don&#x27;t have an account?</text><text x="195" y="727.6" font-family="'Plus Jakarta Sans','Plus Jakarta Sans Variable',-apple-system,'Segoe UI',Roboto,sans-serif" font-size="14.5" font-weight="700" letter-spacing="-0.4" text-anchor="middle" fill="#5C4BFD">Sign Up</text><rect x="128" y="835" width="134" height="5" rx="2.5" ry="2.5" fill="#FFFFFF" fill-opacity="0.85"/></svg>