<svg xmlns="http://www.w3.org/2000/svg" width="390" height="844" viewBox="0 0 390 844" font-family="'Plus Jakarta Sans','Plus Jakarta Sans Variable',-apple-system,'Segoe UI',Roboto,sans-serif"><defs><filter id="footShadow" x="-20%" y="-60%" width="140%" height="220%"><feGaussianBlur stdDeviation="6"/></filter><linearGradient id="footShadow" x1="0" y1="0" x2="0" y2="1"><stop offset="0" stop-color="#000" stop-opacity="0"/><stop offset="1" stop-color="#000" stop-opacity="0.06"/></linearGradient></defs><rect width="390" height="844" fill="#FFFFFF"/><g><text x="26" y="33" font-family="'Plus Jakarta Sans','Plus Jakarta Sans Variable',-apple-system,'Segoe UI',Roboto,sans-serif" font-size="15" font-weight="700" letter-spacing="0" text-anchor="start" fill="#0A0A0A">9:41</text><rect x="312" y="23" width="4" height="4" rx="1.2" ry="1.2" fill="#0A0A0A"/><rect x="318" y="20.6" width="4" height="6.4" rx="1.2" ry="1.2" fill="#0A0A0A"/><rect x="324" y="18.2" width="4" height="8.8" rx="1.2" ry="1.2" fill="#0A0A0A"/><rect x="330" y="15.8" width="4" height="11.2" rx="1.2" ry="1.2" fill="#0A0A0A"/><path d="M340 22 a8 8 0 0 1 11 0" fill="none" stroke="#0A0A0A" stroke-width="2" stroke-linecap="round" stroke-linejoin="round"/><path d="M342.6 25 a4.2 4.2 0 0 1 5.8 0" fill="none" stroke="#0A0A0A" stroke-width="2" stroke-linecap="round" stroke-linejoin="round"/><circle cx="345.5" cy="28" r="1.4" fill="#0A0A0A"/><rect x="360" y="19" width="20" height="10" rx="3" ry="3" fill="none" fill-opacity="0.45" stroke="#0A0A0A" stroke-width="1.2"/><rect x="362.5" y="21.2" width="13" height="5.6" rx="1.4" ry="1.4" fill="#0A0A0A"/><path d="M381 22 v4" fill="none" fill-opacity="0.45" stroke="#0A0A0A" stroke-width="1.8" stroke-linecap="round" stroke-linejoin="round"/></g><rect x="0" y="50" width="390" height="4" rx="0" ry="0" fill="#F3F4F6"/><rect x="0" y="50" width="54.6" height="4" rx="0" ry="0" fill="#5C4BFD"/><rect x="20" y="68" width="44" height="44" rx="13" ry="13" fill="#F3F4F6"/><g transform="translate(32,80) scale(0.83)"><g fill="none" stroke="#0A0A0A" stroke-width="1.85" stroke-linecap="round" stroke-linejoin="round"><polyline points="13,5 6,12 13,19"/><line x1="6.5" y1="12" x2="20" y2="12"/></g></g><text x="20" y="159.6" font-family="'Plus Jakarta Sans','Plus Jakarta Sans Variable',-apple-system,'Segoe UI',Roboto,sans-serif" font-size="27" font-weight="800" letter-spacing="-0.4" text-anchor="start" fill="#0A0A0A">What&#x27;s your email?</text><text x="20" y="192.7" font-family="'Plus Jakarta Sans','Plus Jakarta Sans Variable',-apple-system,'Segoe UI',Roboto,sans-serif" font-size="14.5" font-weight="400" letter-spacing="-0.4" text-anchor="start" fill="#6B7280">We&#x27;ll send a verification code to confirm</text><text x="20" y="214.45" font-family="'Plus Jakarta Sans','Plus Jakarta Sans Variable',-apple-system,'Segoe UI',Roboto,sans-serif" font-size="14.5" font-weight="400" letter-spacing="-0.4" text-anchor="start" fill="#6B7280">it&#x27;s you.</text><rect x="20" y="246.6" width="350" height="54" rx="16" ry="16" fill="#F3F4F6" stroke="#5C4BFD" stroke-width="1.5"/><text x="36" y="278.2" font-family="'Plus Jakarta Sans','Plus Jakarta Sans Variable',-apple-system,'Segoe UI',Roboto,sans-serif" font-size="14.5" font-weight="500" letter-spacing="-0.4" text-anchor="start" fill="#111827">donny@example.com</text><g transform="translate(26,304.6) scale(0.67)"><g fill="none" stroke="#10B981" stroke-width="1.85" stroke-linecap="round" stroke-linejoin="round"><circle cx="12" cy="12" r="9"/><polyline points="8,12 11,15 16,9"/></g></g><text x="48" y="314.6" font-family="'Plus Jakarta Sans','Plus Jakarta Sans Variable',-apple-system,'Segoe UI',Roboto,sans-serif" font-size="12.5" font-weight="600" letter-spacing="-0.4" text-anchor="start" fill="#10B981">Email available</text><line x1="20" y1="345.6" x2="177" y2="345.6" stroke="#E5E7EB" stroke-width="1" stroke-linecap="round"/><line x1="213" y1="345.6" x2="370" y2="345.6" stroke="#E5E7EB" stroke-width="1" stroke-linecap="round"/><text x="195" y="349.2" font-family="'Plus Jakarta Sans','Plus Jakarta Sans Variable',-apple-system,'Segoe UI',Roboto,sans-serif" font-size="12" font-weight="600" letter-spacing="-0.4" text-anchor="middle" fill="#9CA3AF">or</text><rect x="20" y="366.6" width="350" height="52" rx="14" ry="14" fill="#FFFFFF" stroke="#E5E7EB" stroke-width="1.4"/><g transform="translate(115,382.6) scale(0.83)"><path fill="#4285F4" d="M21.6 12.2c0-.7-.1-1.4-.2-2H12v3.8h5.4c-.2 1.2-.9 2.3-2 3v2.5h3.2c1.9-1.7 3-4.3 3-7.3z"/><path fill="#34A853" d="M12 22c2.7 0 5-.9 6.6-2.5l-3.2-2.5c-.9.6-2 1-3.4 1-2.6 0-4.8-1.8-5.6-4.2H3.1v2.6C4.7 19.9 8.1 22 12 22z"/><path fill="#FBBC05" d="M6.4 13.8c-.2-.6-.3-1.2-.3-1.8s.1-1.2.3-1.8V7.6H3.1C2.4 9 2 10.4 2 12s.4 3 1.1 4.4l3.3-2.6z"/><path fill="#EA4335" d="M12 5.9c1.5 0 2.8.5 3.8 1.5l2.8-2.8C16.9 2.9 14.7 2 12 2 8.1 2 4.7 4.1 3.1 7.6l3.3 2.6C7.2 7.7 9.4 5.9 12 5.9z"/></g><text x="141" y="396.2" font-family="'Plus Jakarta Sans','Plus Jakarta Sans Variable',-apple-system,'Segoe UI',Roboto,sans-serif" font-size="14.5" font-weight="600" letter-spacing="-0.4" text-anchor="start" fill="#111827">Sign up with Google</text><rect x="20" y="430.6" width="350" height="52" rx="14" ry="14" fill="#0A0A0A"/><g transform="translate(119.5,446.1) scale(0.79)"><path d="M15.8 3.2c.1 1.4-.5 2.7-1.3 3.6-.9 1-2.3 1.7-3.6 1.6-.2-1.3.5-2.7 1.3-3.6.9-1 2.4-1.7 3.6-1.6zM19.2 16.7c-.6 1.4-.9 2-1.7 3.2-1.1 1.7-2.7 3.8-4.6 3.8-1.7 0-2.2-1.1-4.5-1.1s-2.8 1.1-4.5 1.1c-1.9 0-3.4-1.9-4.5-3.6C-.5 15.5-.9 9.7 1.5 6.6 3 4.5 5.3 3.3 7.5 3.3c2.2 0 3.6 1.2 5.4 1.2 1.8 0 2.9-1.2 5.4-1.2 1.9 0 4 1 5.4 2.8-4.7 2.6-4 9.3.1 10.6z" fill="#FFFFFF"/></g><text x="143" y="460.2" font-family="'Plus Jakarta Sans','Plus Jakarta Sans Variable',-apple-system,'Segoe UI',Roboto,sans-serif" font-size="14.5" font-weight="600" letter-spacing="-0.4" text-anchor="start" fill="#FFFFFF">Sign up with Apple</text><circle cx="338" cy="768" r="32" fill="#0A0A0A"/><g transform="translate(326,756) scale(1)"><g fill="none" stroke="#FFFFFF" stroke-width="2.4" stroke-linecap="round" stroke-linejoin="round"><line x1="4" y1="12" x2="18.5" y2="12"/><polyline points="12,5 19,12 12,19"/></g></g><text x="20" y="761.6" font-family="'Plus Jakarta Sans','Plus Jakarta Sans Variable',-apple-system,'Segoe UI',Roboto,sans-serif" font-size="12" font-weight="600" letter-spacing="-0.4" text-anchor="start" fill="#9CA3AF">Step 1 of 8</text><rect x="128" y="835" width="134" height="5" rx="2.5" ry="2.5" fill="#0A0A0A" fill-opacity="0.85"/></svg>