<svg xmlns="http://www.w3.org/2000/svg" width="390" height="844" viewBox="0 0 390 844" font-family="'Plus Jakarta Sans','Plus Jakarta Sans Variable',-apple-system,'Segoe UI',Roboto,sans-serif"><defs><filter id="footShadow" x="-20%" y="-60%" width="140%" height="220%"><feGaussianBlur stdDeviation="6"/></filter><linearGradient id="footShadow" x1="0" y1="0" x2="0" y2="1"><stop offset="0" stop-color="#000" stop-opacity="0"/><stop offset="1" stop-color="#000" stop-opacity="0.06"/></linearGradient></defs><rect width="390" height="844" fill="#0A0A0A"/><g><text x="26" y="33" font-family="'Plus Jakarta Sans','Plus Jakarta Sans Variable',-apple-system,'Segoe UI',Roboto,sans-serif" font-size="15" font-weight="700" letter-spacing="0" text-anchor="start" fill="#FFFFFF">9:41</text><rect x="312" y="23" width="4" height="4" rx="1.2" ry="1.2" fill="#FFFFFF"/><rect x="318" y="20.6" width="4" height="6.4" rx="1.2" ry="1.2" fill="#FFFFFF"/><rect x="324" y="18.2" width="4" height="8.8" rx="1.2" ry="1.2" fill="#FFFFFF"/><rect x="330" y="15.8" width="4" height="11.2" rx="1.2" ry="1.2" fill="#FFFFFF"/><path d="M340 22 a8 8 0 0 1 11 0" fill="none" stroke="#FFFFFF" stroke-width="2" stroke-linecap="round" stroke-linejoin="round"/><path d="M342.6 25 a4.2 4.2 0 0 1 5.8 0" fill="none" stroke="#FFFFFF" stroke-width="2" stroke-linecap="round" stroke-linejoin="round"/><circle cx="345.5" cy="28" r="1.4" fill="#FFFFFF"/><rect x="360" y="19" width="20" height="10" rx="3" ry="3" fill="none" fill-opacity="0.45" stroke="#FFFFFF" stroke-width="1.2"/><rect x="362.5" y="21.2" width="13" height="5.6" rx="1.4" ry="1.4" fill="#FFFFFF"/><path d="M381 22 v4" fill="none" fill-opacity="0.45" stroke="#FFFFFF" stroke-width="1.8" stroke-linecap="round" stroke-linejoin="round"/></g><rect x="20" y="80" width="64" height="64" rx="18" ry="18" fill="#211C4A"/><g transform="translate(37,97) scale(1.25)"><g fill="none" stroke="#7B6EFE" stroke-width="1.85" stroke-linecap="round" stroke-linejoin="round"><path d="M4 7 a2.5 2.5 0 0 1 2.5 -2.5 H17 a1.5 1.5 0 0 1 1.5 1.5 V7"/><rect x="3.5" y="7" width="17" height="12.5" rx="2.6"/><circle cx="16.5" cy="13.2" r="1.7"/></g></g><text x="20" y="182.8" font-family="'Plus Jakarta Sans','Plus Jakarta Sans Variable',-apple-system,'Segoe UI',Roboto,sans-serif" font-size="26" font-weight="800" letter-spacing="-0.4" text-anchor="start" fill="#FFFFFF">Set up</text><text x="20" y="214.8" font-family="'Plus Jakarta Sans','Plus Jakarta Sans Variable',-apple-system,'Segoe UI',Roboto,sans-serif" font-size="26" font-weight="800" letter-spacing="-0.4" text-anchor="start" fill="#FFFFFF">withdrawals</text><text x="20" y="247.6" font-family="'Plus Jakarta Sans','Plus Jakarta Sans Variable',-apple-system,'Segoe UI',Roboto,sans-serif" font-size="14.5" font-weight="400" letter-spacing="-0.4" text-anchor="start" fill="#9CA3AF">Add your payout account so you can receive</text><text x="20" y="269.35" font-family="'Plus Jakarta Sans','Plus Jakarta Sans Variable',-apple-system,'Segoe UI',Roboto,sans-serif" font-size="14.5" font-weight="400" letter-spacing="-0.4" text-anchor="start" fill="#9CA3AF">money from deliveries.</text><rect x="20" y="303.5" width="158.8" height="24" rx="12" ry="12" fill="#211C4A"/><text x="99.4" y="318.5" font-family="'Plus Jakarta Sans','Plus Jakarta Sans Variable',-apple-system,'Segoe UI',Roboto,sans-serif" font-size="12" font-weight="700" letter-spacing="-0.4" text-anchor="middle" fill="#7B6EFE">Bank Transfer (NGN)</text><rect x="20" y="341.5" width="350" height="56" rx="14" ry="14" fill="#16161A" stroke="#2A2A30" stroke-width="1"/><g transform="translate(34,359.5) scale(0.83)"><g fill="none" stroke="#9CA3AF" stroke-width="1.85" stroke-linecap="round" stroke-linejoin="round"><polyline points="3.5,9.5 12,4 20.5,9.5"/><line x1="3.5" y1="9.5" x2="20.5" y2="9.5"/><line x1="6.5" y1="10" x2="6.5" y2="17"/><line x1="12" y1="10" x2="12" y2="17"/><line x1="17.5" y1="10" x2="17.5" y2="17"/><line x1="4" y1="19.5" x2="20" y2="19.5"/></g></g><text x="66" y="372.1" font-family="'Plus Jakarta Sans','Plus Jakarta Sans Variable',-apple-system,'Segoe UI',Roboto,sans-serif" font-size="14.5" font-weight="500" letter-spacing="-0.4" text-anchor="start" fill="#9CA3AF">Select your bank</text><g transform="translate(339,360.5) scale(0.75)"><g fill="none" stroke="#6B7280" stroke-width="1.85" stroke-linecap="round" stroke-linejoin="round"><polyline points="4,9 12,17 20,9"/></g></g><text x="20" y="422.3" font-family="'Plus Jakarta Sans','Plus Jakarta Sans Variable',-apple-system,'Segoe UI',Roboto,sans-serif" font-size="13.5" font-weight="600" letter-spacing="-0.4" text-anchor="start" fill="#D1D5DB">Account Number</text><rect x="20" y="433.5" width="350" height="56" rx="14" ry="14" fill="#16161A" stroke="#2A2A30" stroke-width="1"/><g transform="translate(34.5,452) scale(0.79)"><g fill="none" stroke="#9CA3AF" stroke-width="1.85" stroke-linecap="round" stroke-linejoin="round"><circle cx="8" cy="13" r="4.2"/><path d="M11.6 11 L20 11 M17 11 V15 M20 11 V14.5"/></g></g><text x="66" y="464.1" font-family="'Plus Jakarta Sans','Plus Jakarta Sans Variable',-apple-system,'Segoe UI',Roboto,sans-serif" font-size="14.5" font-weight="500" letter-spacing="-0.4" text-anchor="start" fill="#FFFFFF">0123456789</text><g transform="translate(337,452.5) scale(0.75)"><g fill="none" stroke="#10B981" stroke-width="1.85" stroke-linecap="round" stroke-linejoin="round"><circle cx="12" cy="12" r="9"/><polyline points="8,12 11,15 16,9"/></g></g><rect x="20" y="503.5" width="350" height="48" rx="12" ry="12" fill="#102A20"/><g transform="translate(35,518.5) scale(0.75)"><g fill="none" stroke="#10B981" stroke-width="1.85" stroke-linecap="round" stroke-linejoin="round"><circle cx="12" cy="12" r="9"/><polyline points="8,12 11,15 16,9"/></g></g><text x="66" y="529.9" font-family="'Plus Jakarta Sans','Plus Jakarta Sans Variable',-apple-system,'Segoe UI',Roboto,sans-serif" font-size="13" font-weight="700" letter-spacing="-0.4" text-anchor="start" fill="#10B981">DONNY ACE  •  Verified account</text><rect x="20" y="567.5" width="350" height="54" rx="14" ry="14" fill="#5C4BFD"/><text x="195" y="599.3" font-family="'Plus Jakarta Sans','Plus Jakarta Sans Variable',-apple-system,'Segoe UI',Roboto,sans-serif" font-size="16" font-weight="600" letter-spacing="-0.4" text-anchor="middle" fill="#FFFFFF">Save Bank Account</text><text x="195" y="798.8" font-family="'Plus Jakarta Sans','Plus Jakarta Sans Variable',-apple-system,'Segoe UI',Roboto,sans-serif" font-size="13.5" font-weight="600" letter-spacing="-0.4" text-anchor="middle" fill="#6B7280">Skip for now</text><rect x="128" y="835" width="134" height="5" rx="2.5" ry="2.5" fill="#FFFFFF" fill-opacity="0.85"/></svg>