<svg xmlns="http://www.w3.org/2000/svg" width="390" height="844" viewBox="0 0 390 844" font-family="'Plus Jakarta Sans','Plus Jakarta Sans Variable',-apple-system,'Segoe UI',Roboto,sans-serif"><defs><filter id="footShadow" x="-20%" y="-60%" width="140%" height="220%"><feGaussianBlur stdDeviation="6"/></filter><linearGradient id="footShadow" x1="0" y1="0" x2="0" y2="1"><stop offset="0" stop-color="#000" stop-opacity="0"/><stop offset="1" stop-color="#000" stop-opacity="0.06"/></linearGradient><linearGradient id="homeG" x1="0" y1="0" x2="0" y2="1"><stop offset="0" stop-color="#5C4BFD" stop-opacity="0.10"/><stop offset="1" stop-color="#5C4BFD" stop-opacity="0"/></linearGradient></defs><rect width="390" height="844" fill="#FFFFFF"/><rect x="0" y="0" width="390" height="300" rx="0" ry="0" fill="url(#homeG)"/><g><text x="26" y="33" font-family="'Plus Jakarta Sans','Plus Jakarta Sans Variable',-apple-system,'Segoe UI',Roboto,sans-serif" font-size="15" font-weight="700" letter-spacing="0" text-anchor="start" fill="#0A0A0A">9:41</text><rect x="312" y="23" width="4" height="4" rx="1.2" ry="1.2" fill="#0A0A0A"/><rect x="318" y="20.6" width="4" height="6.4" rx="1.2" ry="1.2" fill="#0A0A0A"/><rect x="324" y="18.2" width="4" height="8.8" rx="1.2" ry="1.2" fill="#0A0A0A"/><rect x="330" y="15.8" width="4" height="11.2" rx="1.2" ry="1.2" fill="#0A0A0A"/><path d="M340 22 a8 8 0 0 1 11 0" fill="none" stroke="#0A0A0A" stroke-width="2" stroke-linecap="round" stroke-linejoin="round"/><path d="M342.6 25 a4.2 4.2 0 0 1 5.8 0" fill="none" stroke="#0A0A0A" stroke-width="2" stroke-linecap="round" stroke-linejoin="round"/><circle cx="345.5" cy="28" r="1.4" fill="#0A0A0A"/><rect x="360" y="19" width="20" height="10" rx="3" ry="3" fill="none" fill-opacity="0.45" stroke="#0A0A0A" stroke-width="1.2"/><rect x="362.5" y="21.2" width="13" height="5.6" rx="1.4" ry="1.4" fill="#0A0A0A"/><path d="M381 22 v4" fill="none" fill-opacity="0.45" stroke="#0A0A0A" stroke-width="1.8" stroke-linecap="round" stroke-linejoin="round"/></g><g transform="translate(20,64) scale(0.24)"><path d="M4 6 H56 L56 0 L78 19 L56 38 L56 32 H26 V44 H4 Z" fill="#5C4BFD"/><path d="M96 94 H44 L44 100 L22 81 L44 62 L44 68 H74 V56 H96 Z" fill="#5C4BFD"/></g><text x="48.8" y="83.2" font-family="'Plus Jakarta Sans','Plus Jakarta Sans Variable',-apple-system,'Segoe UI',Roboto,sans-serif" font-size="23.04" font-weight="800" letter-spacing="-1.0" text-anchor="start" fill="#5C4BFD">Bago</text><circle cx="350" cy="76" r="20" fill="#5C4BFD"/><text x="350" y="81.8" font-family="'Plus Jakarta Sans','Plus Jakarta Sans Variable',-apple-system,'Segoe UI',Roboto,sans-serif" font-size="16" font-weight="800" letter-spacing="-0.4" text-anchor="middle" fill="#FFFFFF">D</text><text x="20" y="136.8" font-family="'Plus Jakarta Sans','Plus Jakarta Sans Variable',-apple-system,'Segoe UI',Roboto,sans-serif" font-size="26" font-weight="800" letter-spacing="-0.4" text-anchor="start" fill="#0A0A0A">Send a package</text><text x="20" y="170.6" font-family="'Plus Jakarta Sans','Plus Jakarta Sans Variable',-apple-system,'Segoe UI',Roboto,sans-serif" font-size="26" font-weight="800" letter-spacing="-0.4" text-anchor="start" fill="#0A0A0A">anywhere</text><text x="20" y="200.8" font-family="'Plus Jakarta Sans','Plus Jakarta Sans Variable',-apple-system,'Segoe UI',Roboto,sans-serif" font-size="14" font-weight="400" letter-spacing="-0.4" text-anchor="start" fill="#6B7280">Find trusted travelers heading your way.</text><rect x="23" y="233.6" width="344" height="214" rx="22" ry="22" fill="#000000" fill-opacity="0.05"/><rect x="20" y="228.6" width="350" height="214" rx="22" ry="22" fill="#FFFFFF"/><circle cx="52" cy="268.6" r="7" fill="none" stroke="#5C4BFD" stroke-width="2.4"/><circle cx="52" cy="268.6" r="2.6" fill="#5C4BFD"/><text x="74" y="272.2" font-family="'Plus Jakarta Sans','Plus Jakarta Sans Variable',-apple-system,'Segoe UI',Roboto,sans-serif" font-size="14.5" font-weight="500" letter-spacing="-0.4" text-anchor="start" fill="#6B7280">Enter pickup city</text><line x1="74" y1="290.6" x2="354" y2="290.6" stroke="#F3F4F6" stroke-width="1" stroke-linecap="round"/><g transform="translate(42,303.6) scale(0.83)"><g fill="none" stroke="#EF4444" stroke-width="1.85" stroke-linecap="round" stroke-linejoin="round"><path d="M12 21.5 C6.5 15.5 5 12.3 5 9 a7 7 0 0 1 14 0 c0 3.3 -1.5 6.5 -7 12.5 Z"/><circle cx="12" cy="9" r="2.6"/></g></g><text x="74" y="317.2" font-family="'Plus Jakarta Sans','Plus Jakarta Sans Variable',-apple-system,'Segoe UI',Roboto,sans-serif" font-size="14.5" font-weight="500" letter-spacing="-0.4" text-anchor="start" fill="#6B7280">Enter destination</text><line x1="74" y1="335.6" x2="354" y2="335.6" stroke="#F3F4F6" stroke-width="1" stroke-linecap="round"/><g transform="translate(42.5,349.1) scale(0.79)"><g fill="none" stroke="#5C4BFD" stroke-width="1.85" stroke-linecap="round" stroke-linejoin="round"><rect x="3.5" y="5.5" width="17" height="15.5" rx="2.6"/><line x1="3.5" y1="10" x2="20.5" y2="10"/><line x1="8.5" y1="3" x2="8.5" y2="7.3"/><line x1="15.5" y1="3" x2="15.5" y2="7.3"/></g></g><text x="74" y="362.2" font-family="'Plus Jakarta Sans','Plus Jakarta Sans Variable',-apple-system,'Segoe UI',Roboto,sans-serif" font-size="14.5" font-weight="600" letter-spacing="-0.4" text-anchor="start" fill="#111827">Today</text><rect x="36" y="378.6" width="318" height="48" rx="13" ry="13" fill="#5C4BFD"/><g transform="translate(134,393.6) scale(0.75)"><g fill="none" stroke="#FFFFFF" stroke-width="2.2" stroke-linecap="round" stroke-linejoin="round"><circle cx="11" cy="11" r="7"/><line x1="16" y1="16" x2="21" y2="21"/></g></g><text x="157" y="406.6" font-family="'Plus Jakarta Sans','Plus Jakarta Sans Variable',-apple-system,'Segoe UI',Roboto,sans-serif" font-size="15" font-weight="700" letter-spacing="-0.4" text-anchor="start" fill="#FFFFFF">Find a Traveler</text><rect x="20" y="458.6" width="350" height="42" rx="12" ry="12" fill="#FEF3C7"/><g transform="translate(34.5,472.1) scale(0.62)"><g fill="none" stroke="#92600A" stroke-width="1.85" stroke-linecap="round" stroke-linejoin="round"><rect x="4.5" y="10.5" width="15" height="10" rx="2.6"/><path d="M8 10.5 V7.6 a4 4 0 0 1 8 0 V10.5"/></g></g><text x="60" y="481.6" font-family="'Plus Jakarta Sans','Plus Jakarta Sans Variable',-apple-system,'Segoe UI',Roboto,sans-serif" font-size="12.5" font-weight="700" letter-spacing="-0.4" text-anchor="start" fill="#92600A">NGN 24,500 held in escrow</text><circle cx="24" cy="520.6" r="4" fill="#10B981"/><text x="36" y="525" font-family="'Plus Jakarta Sans','Plus Jakarta Sans Variable',-apple-system,'Segoe UI',Roboto,sans-serif" font-size="13" font-weight="600" letter-spacing="-0.4" text-anchor="start" fill="#4B5563">128 listed trips available now</text><text x="20" y="553.4" font-family="'Plus Jakarta Sans','Plus Jakarta Sans Variable',-apple-system,'Segoe UI',Roboto,sans-serif" font-size="16" font-weight="800" letter-spacing="-0.4" text-anchor="start" fill="#0A0A0A">What do you want to do?</text><rect x="20" y="570.6" width="108.67" height="104" rx="16" ry="16" fill="#5C4BFD"/><rect x="34" y="586.6" width="34" height="34" rx="10" ry="10" fill="rgba(255,255,255,0.18)"/><g transform="translate(41.5,594.1) scale(0.79)"><g fill="none" stroke="#FFFFFF" stroke-width="1.85" stroke-linecap="round" stroke-linejoin="round"><path d="M12 3 L20 7.2 V16.8 L12 21 L4 16.8 V7.2 Z"/><polyline points="4,7.4 12,11.6 20,7.4"/><line x1="12" y1="11.6" x2="12" y2="21"/><polyline points="8,5 16,9.3"/></g></g><text x="34" y="640.6" font-family="'Plus Jakarta Sans','Plus Jakarta Sans Variable',-apple-system,'Segoe UI',Roboto,sans-serif" font-size="12.5" font-weight="700" letter-spacing="-0.4" text-anchor="start" fill="#FFFFFF">Send</text><text x="34" y="655.6" font-family="'Plus Jakarta Sans','Plus Jakarta Sans Variable',-apple-system,'Segoe UI',Roboto,sans-serif" font-size="12.5" font-weight="700" letter-spacing="-0.4" text-anchor="start" fill="#FFFFFF">Package</text><rect x="140.67" y="570.6" width="108.67" height="104" rx="16" ry="16" fill="#FFFFFF" stroke="#E5E7EB" stroke-width="1"/><rect x="154.67" y="586.6" width="34" height="34" rx="10" ry="10" fill="#EEEBFF"/><g transform="translate(162.17,594.1) scale(0.79)"><g fill="none" stroke="#5C4BFD" stroke-width="1.85" stroke-linecap="round" stroke-linejoin="round"><path d="M5.5 8 H18.5 L19.7 20.5 H4.3 Z"/><path d="M9 8 V6.2 a3 3 0 0 1 6 0 V8"/></g></g><text x="154.67" y="640.6" font-family="'Plus Jakarta Sans','Plus Jakarta Sans Variable',-apple-system,'Segoe UI',Roboto,sans-serif" font-size="12.5" font-weight="700" letter-spacing="-0.4" text-anchor="start" fill="#1F2937">Buy</text><text x="154.67" y="655.6" font-family="'Plus Jakarta Sans','Plus Jakarta Sans Variable',-apple-system,'Segoe UI',Roboto,sans-serif" font-size="12.5" font-weight="700" letter-spacing="-0.4" text-anchor="start" fill="#1F2937">Items</text><rect x="261.33" y="570.6" width="108.67" height="104" rx="16" ry="16" fill="#FFFFFF" stroke="#E5E7EB" stroke-width="1"/><rect x="275.33" y="586.6" width="34" height="34" rx="10" ry="10" fill="#EEEBFF"/><g transform="translate(282.83,594.1) scale(0.79)"><g fill="none" stroke="#5C4BFD" stroke-width="1.85" stroke-linecap="round" stroke-linejoin="round"><rect x="4" y="9" width="16" height="11.5" rx="1.8"/><line x1="4" y1="13" x2="20" y2="13"/><line x1="12" y1="9" x2="12" y2="20.5"/><path d="M12 9 C12 5 8.5 4.5 8.5 7.4 C8.5 8.8 10.3 9 12 9"/><path d="M12 9 C12 5 15.5 4.5 15.5 7.4 C15.5 8.8 13.7 9 12 9"/></g></g><text x="275.33" y="640.6" font-family="'Plus Jakarta Sans','Plus Jakarta Sans Variable',-apple-system,'Segoe UI',Roboto,sans-serif" font-size="12.5" font-weight="700" letter-spacing="-0.4" text-anchor="start" fill="#1F2937">Gift</text><text x="275.33" y="655.6" font-family="'Plus Jakarta Sans','Plus Jakarta Sans Variable',-apple-system,'Segoe UI',Roboto,sans-serif" font-size="12.5" font-weight="700" letter-spacing="-0.4" text-anchor="start" fill="#1F2937">Items</text><text x="20" y="707.4" font-family="'Plus Jakarta Sans','Plus Jakarta Sans Variable',-apple-system,'Segoe UI',Roboto,sans-serif" font-size="16" font-weight="800" letter-spacing="-0.4" text-anchor="start" fill="#0A0A0A">Recent Activity</text><text x="370" y="706" font-family="'Plus Jakarta Sans','Plus Jakarta Sans Variable',-apple-system,'Segoe UI',Roboto,sans-serif" font-size="13" font-weight="700" letter-spacing="-0.4" text-anchor="end" fill="#5C4BFD">See all</text><rect x="0" y="760" width="390" height="84" rx="0" ry="0" fill="#FFFFFF"/><line x1="0" y1="760" x2="390" y2="760" stroke="#E5E7EB" stroke-width="1" stroke-linecap="round"/><g transform="translate(36.25,769.5) scale(1.04)"><g fill="none" stroke="#0A0A0A" stroke-width="2" stroke-linecap="round" stroke-linejoin="round"><path d="M3.5 11.5 L12 4 L20.5 11.5"/><path d="M6 10 V20 H18 V10"/></g></g><text x="48.75" y="806.8" font-family="'Plus Jakarta Sans','Plus Jakarta Sans Variable',-apple-system,'Segoe UI',Roboto,sans-serif" font-size="11" font-weight="600" letter-spacing="-0.4" text-anchor="middle" fill="#0A0A0A">Home</text><g transform="translate(133.75,769.5) scale(1.04)"><g fill="none" stroke="#9CA3AF" stroke-width="2" stroke-linecap="round" stroke-linejoin="round"><rect x="3" y="5" width="18" height="14" rx="2.5"/><path d="M3 13.5 H8 L10 16.5 H14 L16 13.5 H21"/></g></g><text x="146.25" y="806.8" font-family="'Plus Jakarta Sans','Plus Jakarta Sans Variable',-apple-system,'Segoe UI',Roboto,sans-serif" font-size="11" font-weight="600" letter-spacing="-0.4" text-anchor="middle" fill="#9CA3AF">Shipments</text><g transform="translate(231.25,769.5) scale(1.04)"><g fill="none" stroke="#9CA3AF" stroke-width="2" stroke-linecap="round" stroke-linejoin="round"><path d="M5 4 H19 a2 2 0 0 1 2 2 V14 a2 2 0 0 1 -2 2 H10 l-4 4 V16 H5 a2 2 0 0 1 -2 -2 V6 a2 2 0 0 1 2 -2 Z"/></g></g><text x="243.75" y="806.8" font-family="'Plus Jakarta Sans','Plus Jakarta Sans Variable',-apple-system,'Segoe UI',Roboto,sans-serif" font-size="11" font-weight="600" letter-spacing="-0.4" text-anchor="middle" fill="#9CA3AF">Messages</text><g transform="translate(328.75,769.5) scale(1.04)"><g fill="none" stroke="#9CA3AF" stroke-width="2" stroke-linecap="round" stroke-linejoin="round"><circle cx="12" cy="8" r="4"/><path d="M5 20 c0 -4.2 3.2 -6.3 7 -6.3 s7 2.1 7 6.3"/></g></g><text x="341.25" y="806.8" font-family="'Plus Jakarta Sans','Plus Jakarta Sans Variable',-apple-system,'Segoe UI',Roboto,sans-serif" font-size="11" font-weight="600" letter-spacing="-0.4" text-anchor="middle" fill="#9CA3AF">Profile</text><rect x="128" y="835" width="134" height="5" rx="2.5" ry="2.5" fill="#0A0A0A" fill-opacity="0.85"/></svg>