<svg xmlns="http://www.w3.org/2000/svg" width="390" height="844" viewBox="0 0 390 844" font-family="'Plus Jakarta Sans','Plus Jakarta Sans Variable',-apple-system,'Segoe UI',Roboto,sans-serif"><defs><filter id="footShadow" x="-20%" y="-60%" width="140%" height="220%"><feGaussianBlur stdDeviation="6"/></filter><linearGradient id="footShadow" x1="0" y1="0" x2="0" y2="1"><stop offset="0" stop-color="#000" stop-opacity="0"/><stop offset="1" stop-color="#000" stop-opacity="0.06"/></linearGradient></defs><rect width="390" height="844" fill="#FFFFFF"/><g><text x="26" y="33" font-family="'Plus Jakarta Sans','Plus Jakarta Sans Variable',-apple-system,'Segoe UI',Roboto,sans-serif" font-size="15" font-weight="700" letter-spacing="0" text-anchor="start" fill="#0A0A0A">9:41</text><rect x="312" y="23" width="4" height="4" rx="1.2" ry="1.2" fill="#0A0A0A"/><rect x="318" y="20.6" width="4" height="6.4" rx="1.2" ry="1.2" fill="#0A0A0A"/><rect x="324" y="18.2" width="4" height="8.8" rx="1.2" ry="1.2" fill="#0A0A0A"/><rect x="330" y="15.8" width="4" height="11.2" rx="1.2" ry="1.2" fill="#0A0A0A"/><path d="M340 22 a8 8 0 0 1 11 0" fill="none" stroke="#0A0A0A" stroke-width="2" stroke-linecap="round" stroke-linejoin="round"/><path d="M342.6 25 a4.2 4.2 0 0 1 5.8 0" fill="none" stroke="#0A0A0A" stroke-width="2" stroke-linecap="round" stroke-linejoin="round"/><circle cx="345.5" cy="28" r="1.4" fill="#0A0A0A"/><rect x="360" y="19" width="20" height="10" rx="3" ry="3" fill="none" fill-opacity="0.45" stroke="#0A0A0A" stroke-width="1.2"/><rect x="362.5" y="21.2" width="13" height="5.6" rx="1.4" ry="1.4" fill="#0A0A0A"/><path d="M381 22 v4" fill="none" fill-opacity="0.45" stroke="#0A0A0A" stroke-width="1.8" stroke-linecap="round" stroke-linejoin="round"/></g><rect x="0" y="0" width="390" height="106" rx="0" ry="0" fill="#FFFFFF"/><g transform="translate(15,67) scale(0.92)"><g fill="none" stroke="#0A0A0A" stroke-width="1.85" stroke-linecap="round" stroke-linejoin="round"><polyline points="14,4 7,12 14,20"/></g></g><text x="58" y="83.4" font-family="'Plus Jakarta Sans','Plus Jakarta Sans Variable',-apple-system,'Segoe UI',Roboto,sans-serif" font-size="18" font-weight="700" letter-spacing="-0.4" text-anchor="start" fill="#0A0A0A">From where?</text><text x="20" y="137.2" font-family="'Plus Jakarta Sans','Plus Jakarta Sans Variable',-apple-system,'Segoe UI',Roboto,sans-serif" font-size="14" font-weight="500" letter-spacing="-0.4" text-anchor="start" fill="#374151">Search city</text><rect x="20" y="148" width="350" height="54" rx="16" ry="16" fill="#F3F4F6" stroke="#5C4BFD" stroke-width="1.5"/><g transform="translate(34,165) scale(0.83)"><g fill="none" stroke="#6B7280" stroke-width="1.85" stroke-linecap="round" stroke-linejoin="round"><circle cx="11" cy="11" r="7"/><line x1="16" y1="16" x2="21" y2="21"/></g></g><text x="64" y="179.6" font-family="'Plus Jakarta Sans','Plus Jakarta Sans Variable',-apple-system,'Segoe UI',Roboto,sans-serif" font-size="14.5" font-weight="400" letter-spacing="-0.4" text-anchor="start" fill="#6B7280"></text><text x="22" y="229.2" font-family="'Plus Jakarta Sans','Plus Jakarta Sans Variable',-apple-system,'Segoe UI',Roboto,sans-serif" font-size="11.5" font-weight="800" letter-spacing="1.0" text-anchor="start" fill="#9CA3AF">RECENT SEARCHES</text><rect x="20" y="244" width="350" height="62" rx="14" ry="14" fill="#FFFFFF" stroke="#E5E7EB" stroke-width="1"/><clipPath id="fl36_265"><rect x="36" y="265" width="30" height="21" rx="3.5"/></clipPath><g clip-path="url(#fl36_265)"><rect x="36" y="265" width="30" height="7.43" rx="0" ry="0" fill="#008751"/><rect x="36" y="271.93" width="30" height="7.64" rx="0" ry="0" fill="#fff"/><rect x="36" y="279.07" width="30" height="7.43" rx="0" ry="0" fill="#008751"/></g><rect x="36" y="265" width="30" height="21" rx="3.5" ry="3.5" fill="none" stroke="rgba(0,0,0,0.12)" stroke-width="1"/><text x="78" y="270" font-family="'Plus Jakarta Sans','Plus Jakarta Sans Variable',-apple-system,'Segoe UI',Roboto,sans-serif" font-size="15" font-weight="700" letter-spacing="-0.4" text-anchor="start" fill="#111827">Lagos</text><text x="78" y="288" font-family="'Plus Jakarta Sans','Plus Jakarta Sans Variable',-apple-system,'Segoe UI',Roboto,sans-serif" font-size="12.5" font-weight="500" letter-spacing="-0.4" text-anchor="start" fill="#6B7280">Nigeria</text><g transform="translate(342,267) scale(0.67)"><g fill="none" stroke="#9CA3AF" stroke-width="1.85" stroke-linecap="round" stroke-linejoin="round"><polyline points="9,4 17,12 9,20"/></g></g><rect x="20" y="316" width="350" height="62" rx="14" ry="14" fill="#FFFFFF" stroke="#E5E7EB" stroke-width="1"/><clipPath id="fl36_337"><rect x="36" y="337" width="30" height="21" rx="3.5"/></clipPath><g clip-path="url(#fl36_337)"><rect x="36" y="337" width="30" height="21" rx="0" ry="0" fill="#012169"/><line x1="36" y1="337" x2="66" y2="358" stroke="#fff" stroke-width="4" stroke-linecap="round"/><line x1="66" y1="337" x2="36" y2="358" stroke="#fff" stroke-width="4" stroke-linecap="round"/><line x1="36" y1="337" x2="66" y2="358" stroke="#C8102E" stroke-width="1.6" stroke-linecap="round"/><line x1="66" y1="337" x2="36" y2="358" stroke="#C8102E" stroke-width="1.6" stroke-linecap="round"/><rect x="48.4" y="337" width="5.2" height="21" rx="0" ry="0" fill="#fff"/><rect x="36" y="344.9" width="30" height="5.2" rx="0" ry="0" fill="#fff"/><rect x="49.6" y="337" width="2.8" height="21" rx="0" ry="0" fill="#C8102E"/><rect x="36" y="346.1" width="30" height="2.8" rx="0" ry="0" fill="#C8102E"/></g><rect x="36" y="337" width="30" height="21" rx="3.5" ry="3.5" fill="none" stroke="rgba(0,0,0,0.12)" stroke-width="1"/><text x="78" y="342" font-family="'Plus Jakarta Sans','Plus Jakarta Sans Variable',-apple-system,'Segoe UI',Roboto,sans-serif" font-size="15" font-weight="700" letter-spacing="-0.4" text-anchor="start" fill="#111827">London</text><text x="78" y="360" font-family="'Plus Jakarta Sans','Plus Jakarta Sans Variable',-apple-system,'Segoe UI',Roboto,sans-serif" font-size="12.5" font-weight="500" letter-spacing="-0.4" text-anchor="start" fill="#6B7280">United Kingdom</text><g transform="translate(342,339) scale(0.67)"><g fill="none" stroke="#9CA3AF" stroke-width="1.85" stroke-linecap="round" stroke-linejoin="round"><polyline points="9,4 17,12 9,20"/></g></g><rect x="20" y="388" width="350" height="62" rx="14" ry="14" fill="#FFFFFF" stroke="#E5E7EB" stroke-width="1"/><clipPath id="fl36_409"><rect x="36" y="409" width="30" height="21" rx="3.5"/></clipPath><g clip-path="url(#fl36_409)"><rect x="36" y="409" width="30" height="7.43" rx="0" ry="0" fill="#CE1126"/><rect x="36" y="415.93" width="30" height="7.64" rx="0" ry="0" fill="#FCD116"/><rect x="36" y="423.07" width="30" height="7.43" rx="0" ry="0" fill="#006B3F"/></g><rect x="36" y="409" width="30" height="21" rx="3.5" ry="3.5" fill="none" stroke="rgba(0,0,0,0.12)" stroke-width="1"/><text x="78" y="414" font-family="'Plus Jakarta Sans','Plus Jakarta Sans Variable',-apple-system,'Segoe UI',Roboto,sans-serif" font-size="15" font-weight="700" letter-spacing="-0.4" text-anchor="start" fill="#111827">Accra</text><text x="78" y="432" font-family="'Plus Jakarta Sans','Plus Jakarta Sans Variable',-apple-system,'Segoe UI',Roboto,sans-serif" font-size="12.5" font-weight="500" letter-spacing="-0.4" text-anchor="start" fill="#6B7280">Ghana</text><g transform="translate(342,411) scale(0.67)"><g fill="none" stroke="#9CA3AF" stroke-width="1.85" stroke-linecap="round" stroke-linejoin="round"><polyline points="9,4 17,12 9,20"/></g></g><rect x="20" y="460" width="350" height="62" rx="14" ry="14" fill="#FFFFFF" stroke="#E5E7EB" stroke-width="1"/><clipPath id="fl36_481"><rect x="36" y="481" width="30" height="21" rx="3.5"/></clipPath><g clip-path="url(#fl36_481)"><rect x="36" y="481" width="30" height="7.43" rx="0" ry="0" fill="#0055A4"/><rect x="36" y="487.93" width="30" height="7.64" rx="0" ry="0" fill="#fff"/><rect x="36" y="495.07" width="30" height="7.43" rx="0" ry="0" fill="#EF4135"/></g><rect x="36" y="481" width="30" height="21" rx="3.5" ry="3.5" fill="none" stroke="rgba(0,0,0,0.12)" stroke-width="1"/><text x="78" y="486" font-family="'Plus Jakarta Sans','Plus Jakarta Sans Variable',-apple-system,'Segoe UI',Roboto,sans-serif" font-size="15" font-weight="700" letter-spacing="-0.4" text-anchor="start" fill="#111827">Paris</text><text x="78" y="504" font-family="'Plus Jakarta Sans','Plus Jakarta Sans Variable',-apple-system,'Segoe UI',Roboto,sans-serif" font-size="12.5" font-weight="500" letter-spacing="-0.4" text-anchor="start" fill="#6B7280">France</text><g transform="translate(342,483) scale(0.67)"><g fill="none" stroke="#9CA3AF" stroke-width="1.85" stroke-linecap="round" stroke-linejoin="round"><polyline points="9,4 17,12 9,20"/></g></g><rect x="20" y="532" width="350" height="62" rx="14" ry="14" fill="#FFFFFF" stroke="#E5E7EB" stroke-width="1"/><clipPath id="fl36_553"><rect x="36" y="553" width="30" height="21" rx="3.5"/></clipPath><g clip-path="url(#fl36_553)"><rect x="36" y="553" width="30" height="5.75" rx="0" ry="0" fill="#FF0000"/><rect x="36" y="558.25" width="30" height="11" rx="0" ry="0" fill="#fff"/><rect x="36" y="568.75" width="30" height="5.75" rx="0" ry="0" fill="#FF0000"/></g><rect x="36" y="553" width="30" height="21" rx="3.5" ry="3.5" fill="none" stroke="rgba(0,0,0,0.12)" stroke-width="1"/><text x="78" y="558" font-family="'Plus Jakarta Sans','Plus Jakarta Sans Variable',-apple-system,'Segoe UI',Roboto,sans-serif" font-size="15" font-weight="700" letter-spacing="-0.4" text-anchor="start" fill="#111827">Toronto</text><text x="78" y="576" font-family="'Plus Jakarta Sans','Plus Jakarta Sans Variable',-apple-system,'Segoe UI',Roboto,sans-serif" font-size="12.5" font-weight="500" letter-spacing="-0.4" text-anchor="start" fill="#6B7280">Canada</text><g transform="translate(342,555) scale(0.67)"><g fill="none" stroke="#9CA3AF" stroke-width="1.85" stroke-linecap="round" stroke-linejoin="round"><polyline points="9,4 17,12 9,20"/></g></g><rect x="20" y="604" width="350" height="62" rx="14" ry="14" fill="#FFFFFF" stroke="#E5E7EB" stroke-width="1"/><clipPath id="fl36_625"><rect x="36" y="625" width="30" height="21" rx="3.5"/></clipPath><g clip-path="url(#fl36_625)"><rect x="36" y="625" width="30" height="1.62" rx="0" ry="0" fill="#B22234"/><rect x="36" y="626.62" width="30" height="1.62" rx="0" ry="0" fill="#fff"/><rect x="36" y="628.23" width="30" height="1.62" rx="0" ry="0" fill="#fff"/><rect x="36" y="629.85" width="30" height="1.62" rx="0" ry="0" fill="#B22234"/><rect x="36" y="631.46" width="30" height="1.62" rx="0" ry="0" fill="#B22234"/><rect x="36" y="633.08" width="30" height="1.62" rx="0" ry="0" fill="#fff"/><rect x="36" y="634.69" width="30" height="1.62" rx="0" ry="0" fill="#fff"/><rect x="36" y="636.31" width="30" height="1.62" rx="0" ry="0" fill="#B22234"/><rect x="36" y="637.92" width="30" height="1.62" rx="0" ry="0" fill="#B22234"/><rect x="36" y="639.54" width="30" height="1.62" rx="0" ry="0" fill="#fff"/><rect x="36" y="641.15" width="30" height="1.62" rx="0" ry="0" fill="#fff"/><rect x="36" y="642.77" width="30" height="1.62" rx="0" ry="0" fill="#B22234"/><rect x="36" y="644.38" width="30" height="1.62" rx="0" ry="0" fill="#B22234"/><rect x="36" y="625" width="12.6" height="11.34" rx="0" ry="0" fill="#3C3B6E"/></g><rect x="36" y="625" width="30" height="21" rx="3.5" ry="3.5" fill="none" stroke="rgba(0,0,0,0.12)" stroke-width="1"/><text x="78" y="630" font-family="'Plus Jakarta Sans','Plus Jakarta Sans Variable',-apple-system,'Segoe UI',Roboto,sans-serif" font-size="15" font-weight="700" letter-spacing="-0.4" text-anchor="start" fill="#111827">New York</text><text x="78" y="648" font-family="'Plus Jakarta Sans','Plus Jakarta Sans Variable',-apple-system,'Segoe UI',Roboto,sans-serif" font-size="12.5" font-weight="500" letter-spacing="-0.4" text-anchor="start" fill="#6B7280">United States</text><g transform="translate(342,627) scale(0.67)"><g fill="none" stroke="#9CA3AF" stroke-width="1.85" stroke-linecap="round" stroke-linejoin="round"><polyline points="9,4 17,12 9,20"/></g></g><rect x="128" y="835" width="134" height="5" rx="2.5" ry="2.5" fill="#0A0A0A" fill-opacity="0.85"/></svg>