<svg xmlns="http://www.w3.org/2000/svg" width="390" height="844" viewBox="0 0 390 844" font-family="'Plus Jakarta Sans','Plus Jakarta Sans Variable',-apple-system,'Segoe UI',Roboto,sans-serif"><defs><filter id="footShadow" x="-20%" y="-60%" width="140%" height="220%"><feGaussianBlur stdDeviation="6"/></filter><linearGradient id="footShadow" x1="0" y1="0" x2="0" y2="1"><stop offset="0" stop-color="#000" stop-opacity="0"/><stop offset="1" stop-color="#000" stop-opacity="0.06"/></linearGradient></defs><rect width="390" height="844" fill="#F8F8FC"/><g><text x="26" y="33" font-family="'Plus Jakarta Sans','Plus Jakarta Sans Variable',-apple-system,'Segoe UI',Roboto,sans-serif" font-size="15" font-weight="700" letter-spacing="0" text-anchor="start" fill="#0A0A0A">9:41</text><rect x="312" y="23" width="4" height="4" rx="1.2" ry="1.2" fill="#0A0A0A"/><rect x="318" y="20.6" width="4" height="6.4" rx="1.2" ry="1.2" fill="#0A0A0A"/><rect x="324" y="18.2" width="4" height="8.8" rx="1.2" ry="1.2" fill="#0A0A0A"/><rect x="330" y="15.8" width="4" height="11.2" rx="1.2" ry="1.2" fill="#0A0A0A"/><path d="M340 22 a8 8 0 0 1 11 0" fill="none" stroke="#0A0A0A" stroke-width="2" stroke-linecap="round" stroke-linejoin="round"/><path d="M342.6 25 a4.2 4.2 0 0 1 5.8 0" fill="none" stroke="#0A0A0A" stroke-width="2" stroke-linecap="round" stroke-linejoin="round"/><circle cx="345.5" cy="28" r="1.4" fill="#0A0A0A"/><rect x="360" y="19" width="20" height="10" rx="3" ry="3" fill="none" fill-opacity="0.45" stroke="#0A0A0A" stroke-width="1.2"/><rect x="362.5" y="21.2" width="13" height="5.6" rx="1.4" ry="1.4" fill="#0A0A0A"/><path d="M381 22 v4" fill="none" fill-opacity="0.45" stroke="#0A0A0A" stroke-width="1.8" stroke-linecap="round" stroke-linejoin="round"/></g><rect x="0" y="0" width="390" height="106" rx="0" ry="0" fill="#FFFFFF"/><g transform="translate(15,67) scale(0.92)"><g fill="none" stroke="#0A0A0A" stroke-width="1.85" stroke-linecap="round" stroke-linejoin="round"><polyline points="14,4 7,12 14,20"/></g></g><text x="195" y="82.6" font-family="'Plus Jakarta Sans','Plus Jakarta Sans Variable',-apple-system,'Segoe UI',Roboto,sans-serif" font-size="17" font-weight="700" letter-spacing="-0.4" text-anchor="middle" fill="#0A0A0A">Search Results</text><rect x="20" y="122" width="350" height="58" rx="14" ry="14" fill="#FFFFFF" stroke="#E5E7EB" stroke-width="1"/><g transform="translate(37,142) scale(0.75)"><g fill="none" stroke="#5C4BFD" stroke-width="1.85" stroke-linecap="round" stroke-linejoin="round"><path d="M12 21.5 C6.5 15.5 5 12.3 5 9 a7 7 0 0 1 14 0 c0 3.3 -1.5 6.5 -7 12.5 Z"/><circle cx="12" cy="9" r="2.6"/></g></g><text x="66" y="147.2" font-family="'Plus Jakarta Sans','Plus Jakarta Sans Variable',-apple-system,'Segoe UI',Roboto,sans-serif" font-size="14" font-weight="700" letter-spacing="-0.4" text-anchor="start" fill="#111827">Lagos  →  London</text><text x="66" y="164.6" font-family="'Plus Jakarta Sans','Plus Jakarta Sans Variable',-apple-system,'Segoe UI',Roboto,sans-serif" font-size="12" font-weight="500" letter-spacing="-0.4" text-anchor="start" fill="#6B7280">Fri, 24 May</text><text x="20" y="207.2" font-family="'Plus Jakarta Sans','Plus Jakarta Sans Variable',-apple-system,'Segoe UI',Roboto,sans-serif" font-size="14" font-weight="700" letter-spacing="-0.4" text-anchor="start" fill="#374151">3 trips found</text><rect x="23" y="229" width="344" height="150" rx="18" ry="18" fill="#000000" fill-opacity="0.05"/><rect x="20" y="224" width="350" height="150" rx="18" ry="18" fill="#FFFFFF"/><text x="36" y="252.4" font-family="'Plus Jakarta Sans','Plus Jakarta Sans Variable',-apple-system,'Segoe UI',Roboto,sans-serif" font-size="15.5" font-weight="800" letter-spacing="-0.4" text-anchor="start" fill="#0A0A0A">Lagos → London</text><text x="36" y="272" font-family="'Plus Jakarta Sans','Plus Jakarta Sans Variable',-apple-system,'Segoe UI',Roboto,sans-serif" font-size="12.5" font-weight="500" letter-spacing="-0.4" text-anchor="start" fill="#6B7280">Fri, 24 May</text><text x="354" y="252" font-family="'Plus Jakarta Sans','Plus Jakarta Sans Variable',-apple-system,'Segoe UI',Roboto,sans-serif" font-size="15" font-weight="800" letter-spacing="-0.4" text-anchor="end" fill="#5C4BFD">NGN 4,200/kg</text><rect x="292" y="260" width="81.4" height="22" rx="11" ry="11" fill="#D1FAE5"/><text x="332.7" y="274.3" font-family="'Plus Jakarta Sans','Plus Jakarta Sans Variable',-apple-system,'Segoe UI',Roboto,sans-serif" font-size="11" font-weight="700" letter-spacing="-0.4" text-anchor="middle" fill="#10B981">Available</text><line x1="36" y1="290" x2="354" y2="290" stroke="#F3F4F6" stroke-width="1" stroke-linecap="round"/><g transform="translate(37.5,299.5) scale(0.71)"><g fill="none" stroke="#6B7280" stroke-width="1.85" stroke-linecap="round" stroke-linejoin="round"><path d="M21 13 L13.5 11.8 L9.5 19 L7.6 18.6 L9.8 11 L4.2 10.1 L2.8 11.9 L1.4 11.6 L2.2 8.6 L1.8 5.6 L3.2 5.9 L4.2 8 L9.8 8.9 L9.4 1.2 L11.3 1.6 L14.4 8.8 L21.8 10 Z"/></g></g><text x="62" y="310" font-family="'Plus Jakarta Sans','Plus Jakarta Sans Variable',-apple-system,'Segoe UI',Roboto,sans-serif" font-size="12.5" font-weight="700" letter-spacing="-0.4" text-anchor="start" fill="#374151">Daniel O.</text><g transform="translate(133.5,301.5) scale(0.54)"><g fill="#FFC107" stroke="none"><path d="M12 2.5 l2.9 6 6.6 .9 -4.8 4.6 1.2 6.6 -5.9 -3.1 -5.9 3.1 1.2 -6.6 -4.8 -4.6 6.6 -.9 Z"/></g></g><text x="150" y="310.6" font-family="'Plus Jakarta Sans','Plus Jakarta Sans Variable',-apple-system,'Segoe UI',Roboto,sans-serif" font-size="12" font-weight="700" letter-spacing="-0.4" text-anchor="start" fill="#4B5563">4.9</text><text x="354" y="310.6" font-family="'Plus Jakarta Sans','Plus Jakarta Sans Variable',-apple-system,'Segoe UI',Roboto,sans-serif" font-size="12" font-weight="600" letter-spacing="-0.4" text-anchor="end" fill="#6B7280">12 kg available</text><rect x="36" y="326" width="318" height="36" rx="10" ry="10" fill="#FFFFFF" stroke="#5C4BFD" stroke-width="1.5"/><text x="195" y="348.8" font-family="'Plus Jakarta Sans','Plus Jakarta Sans Variable',-apple-system,'Segoe UI',Roboto,sans-serif" font-size="16" font-weight="600" letter-spacing="-0.4" text-anchor="middle" fill="#5C4BFD">Send with this carrier</text><rect x="23" y="393" width="344" height="150" rx="18" ry="18" fill="#000000" fill-opacity="0.05"/><rect x="20" y="388" width="350" height="150" rx="18" ry="18" fill="#FFFFFF"/><text x="36" y="416.4" font-family="'Plus Jakarta Sans','Plus Jakarta Sans Variable',-apple-system,'Segoe UI',Roboto,sans-serif" font-size="15.5" font-weight="800" letter-spacing="-0.4" text-anchor="start" fill="#0A0A0A">Lagos → London</text><text x="36" y="436" font-family="'Plus Jakarta Sans','Plus Jakarta Sans Variable',-apple-system,'Segoe UI',Roboto,sans-serif" font-size="12.5" font-weight="500" letter-spacing="-0.4" text-anchor="start" fill="#6B7280">Sat, 25 May</text><text x="354" y="416" font-family="'Plus Jakarta Sans','Plus Jakarta Sans Variable',-apple-system,'Segoe UI',Roboto,sans-serif" font-size="15" font-weight="800" letter-spacing="-0.4" text-anchor="end" fill="#5C4BFD">NGN 3,900/kg</text><rect x="292" y="424" width="81.4" height="22" rx="11" ry="11" fill="#D1FAE5"/><text x="332.7" y="438.3" font-family="'Plus Jakarta Sans','Plus Jakarta Sans Variable',-apple-system,'Segoe UI',Roboto,sans-serif" font-size="11" font-weight="700" letter-spacing="-0.4" text-anchor="middle" fill="#10B981">Available</text><line x1="36" y1="454" x2="354" y2="454" stroke="#F3F4F6" stroke-width="1" stroke-linecap="round"/><g transform="translate(37.5,463.5) scale(0.71)"><g fill="none" stroke="#6B7280" stroke-width="1.85" stroke-linecap="round" stroke-linejoin="round"><path d="M21 13 L13.5 11.8 L9.5 19 L7.6 18.6 L9.8 11 L4.2 10.1 L2.8 11.9 L1.4 11.6 L2.2 8.6 L1.8 5.6 L3.2 5.9 L4.2 8 L9.8 8.9 L9.4 1.2 L11.3 1.6 L14.4 8.8 L21.8 10 Z"/></g></g><text x="62" y="474" font-family="'Plus Jakarta Sans','Plus Jakarta Sans Variable',-apple-system,'Segoe UI',Roboto,sans-serif" font-size="12.5" font-weight="700" letter-spacing="-0.4" text-anchor="start" fill="#374151">Amara N.</text><g transform="translate(133.5,465.5) scale(0.54)"><g fill="#FFC107" stroke="none"><path d="M12 2.5 l2.9 6 6.6 .9 -4.8 4.6 1.2 6.6 -5.9 -3.1 -5.9 3.1 1.2 -6.6 -4.8 -4.6 6.6 -.9 Z"/></g></g><text x="150" y="474.6" font-family="'Plus Jakarta Sans','Plus Jakarta Sans Variable',-apple-system,'Segoe UI',Roboto,sans-serif" font-size="12" font-weight="700" letter-spacing="-0.4" text-anchor="start" fill="#4B5563">5.0</text><text x="354" y="474.6" font-family="'Plus Jakarta Sans','Plus Jakarta Sans Variable',-apple-system,'Segoe UI',Roboto,sans-serif" font-size="12" font-weight="600" letter-spacing="-0.4" text-anchor="end" fill="#6B7280">8 kg available</text><rect x="36" y="490" width="318" height="36" rx="10" ry="10" fill="#FFFFFF" stroke="#5C4BFD" stroke-width="1.5"/><text x="195" y="512.8" font-family="'Plus Jakarta Sans','Plus Jakarta Sans Variable',-apple-system,'Segoe UI',Roboto,sans-serif" font-size="16" font-weight="600" letter-spacing="-0.4" text-anchor="middle" fill="#5C4BFD">Send with this carrier</text><rect x="23" y="557" width="344" height="150" rx="18" ry="18" fill="#000000" fill-opacity="0.05"/><rect x="20" y="552" width="350" height="150" rx="18" ry="18" fill="#FFFFFF"/><text x="36" y="580.4" font-family="'Plus Jakarta Sans','Plus Jakarta Sans Variable',-apple-system,'Segoe UI',Roboto,sans-serif" font-size="15.5" font-weight="800" letter-spacing="-0.4" text-anchor="start" fill="#0A0A0A">Lagos → London</text><text x="36" y="600" font-family="'Plus Jakarta Sans','Plus Jakarta Sans Variable',-apple-system,'Segoe UI',Roboto,sans-serif" font-size="12.5" font-weight="500" letter-spacing="-0.4" text-anchor="start" fill="#6B7280">Mon, 27 May</text><text x="354" y="580" font-family="'Plus Jakarta Sans','Plus Jakarta Sans Variable',-apple-system,'Segoe UI',Roboto,sans-serif" font-size="15" font-weight="800" letter-spacing="-0.4" text-anchor="end" fill="#5C4BFD">NGN 4,500/kg</text><rect x="292" y="588" width="81.4" height="22" rx="11" ry="11" fill="#D1FAE5"/><text x="332.7" y="602.3" font-family="'Plus Jakarta Sans','Plus Jakarta Sans Variable',-apple-system,'Segoe UI',Roboto,sans-serif" font-size="11" font-weight="700" letter-spacing="-0.4" text-anchor="middle" fill="#10B981">Available</text><line x1="36" y1="618" x2="354" y2="618" stroke="#F3F4F6" stroke-width="1" stroke-linecap="round"/><g transform="translate(37.5,627.5) scale(0.71)"><g fill="none" stroke="#6B7280" stroke-width="1.85" stroke-linecap="round" stroke-linejoin="round"><rect x="4" y="4.5" width="16" height="13" rx="3"/><line x1="4" y1="12" x2="20" y2="12"/><circle cx="8" cy="20" r="1.7"/><circle cx="16" cy="20" r="1.7"/><line x1="7" y1="8" x2="9" y2="8"/><line x1="15" y1="8" x2="17" y2="8"/></g></g><text x="62" y="638" font-family="'Plus Jakarta Sans','Plus Jakarta Sans Variable',-apple-system,'Segoe UI',Roboto,sans-serif" font-size="12.5" font-weight="700" letter-spacing="-0.4" text-anchor="start" fill="#374151">Kwame B.</text><g transform="translate(133.5,629.5) scale(0.54)"><g fill="#FFC107" stroke="none"><path d="M12 2.5 l2.9 6 6.6 .9 -4.8 4.6 1.2 6.6 -5.9 -3.1 -5.9 3.1 1.2 -6.6 -4.8 -4.6 6.6 -.9 Z"/></g></g><text x="150" y="638.6" font-family="'Plus Jakarta Sans','Plus Jakarta Sans Variable',-apple-system,'Segoe UI',Roboto,sans-serif" font-size="12" font-weight="700" letter-spacing="-0.4" text-anchor="start" fill="#4B5563">4.7</text><text x="354" y="638.6" font-family="'Plus Jakarta Sans','Plus Jakarta Sans Variable',-apple-system,'Segoe UI',Roboto,sans-serif" font-size="12" font-weight="600" letter-spacing="-0.4" text-anchor="end" fill="#6B7280">20 kg available</text><rect x="36" y="654" width="318" height="36" rx="10" ry="10" fill="#FFFFFF" stroke="#5C4BFD" stroke-width="1.5"/><text x="195" y="676.8" font-family="'Plus Jakarta Sans','Plus Jakarta Sans Variable',-apple-system,'Segoe UI',Roboto,sans-serif" font-size="16" font-weight="600" letter-spacing="-0.4" text-anchor="middle" fill="#5C4BFD">Send with this carrier</text><rect x="128" y="835" width="134" height="5" rx="2.5" ry="2.5" fill="#0A0A0A" fill-opacity="0.85"/></svg>