<svg xmlns="http://www.w3.org/2000/svg" width="390" height="844" viewBox="0 0 390 844" font-family="'Plus Jakarta Sans','Plus Jakarta Sans Variable',-apple-system,'Segoe UI',Roboto,sans-serif"><defs><filter id="footShadow" x="-20%" y="-60%" width="140%" height="220%"><feGaussianBlur stdDeviation="6"/></filter><linearGradient id="footShadow" x1="0" y1="0" x2="0" y2="1"><stop offset="0" stop-color="#000" stop-opacity="0"/><stop offset="1" stop-color="#000" stop-opacity="0.06"/></linearGradient></defs><rect width="390" height="844" fill="#F8F8FC"/><g><text x="26" y="33" font-family="'Plus Jakarta Sans','Plus Jakarta Sans Variable',-apple-system,'Segoe UI',Roboto,sans-serif" font-size="15" font-weight="700" letter-spacing="0" text-anchor="start" fill="#0A0A0A">9:41</text><rect x="312" y="23" width="4" height="4" rx="1.2" ry="1.2" fill="#0A0A0A"/><rect x="318" y="20.6" width="4" height="6.4" rx="1.2" ry="1.2" fill="#0A0A0A"/><rect x="324" y="18.2" width="4" height="8.8" rx="1.2" ry="1.2" fill="#0A0A0A"/><rect x="330" y="15.8" width="4" height="11.2" rx="1.2" ry="1.2" fill="#0A0A0A"/><path d="M340 22 a8 8 0 0 1 11 0" fill="none" stroke="#0A0A0A" stroke-width="2" stroke-linecap="round" stroke-linejoin="round"/><path d="M342.6 25 a4.2 4.2 0 0 1 5.8 0" fill="none" stroke="#0A0A0A" stroke-width="2" stroke-linecap="round" stroke-linejoin="round"/><circle cx="345.5" cy="28" r="1.4" fill="#0A0A0A"/><rect x="360" y="19" width="20" height="10" rx="3" ry="3" fill="none" fill-opacity="0.45" stroke="#0A0A0A" stroke-width="1.2"/><rect x="362.5" y="21.2" width="13" height="5.6" rx="1.4" ry="1.4" fill="#0A0A0A"/><path d="M381 22 v4" fill="none" fill-opacity="0.45" stroke="#0A0A0A" stroke-width="1.8" stroke-linecap="round" stroke-linejoin="round"/></g><rect x="0" y="0" width="390" height="146" rx="0" ry="0" fill="#FFFFFF"/><text x="20" y="77.2" font-family="'Plus Jakarta Sans','Plus Jakarta Sans Variable',-apple-system,'Segoe UI',Roboto,sans-serif" font-size="24" font-weight="800" letter-spacing="-0.4" text-anchor="start" fill="#0A0A0A">My Shipments</text><rect x="20" y="102" width="86" height="34" rx="17" ry="17" fill="#5C4BFD"/><text x="63" y="121.4" font-family="'Plus Jakarta Sans','Plus Jakarta Sans Variable',-apple-system,'Segoe UI',Roboto,sans-serif" font-size="13" font-weight="700" letter-spacing="-0.4" text-anchor="middle" fill="#FFFFFF">Active</text><text x="150" y="121.4" font-family="'Plus Jakarta Sans','Plus Jakarta Sans Variable',-apple-system,'Segoe UI',Roboto,sans-serif" font-size="13" font-weight="700" letter-spacing="-0.4" text-anchor="middle" fill="#6B7280">History</text><rect x="20" y="162" width="350" height="116" rx="16" ry="16" fill="#FFFFFF" stroke="#E5E7EB" stroke-width="1"/><rect x="20" y="162" width="350" height="116" rx="16" ry="16" fill="none" stroke="#5C4BFD" stroke-width="1.5"/><rect x="36" y="178" width="121" height="22" rx="11" ry="11" fill="#EEEBFF"/><text x="96.5" y="192.3" font-family="'Plus Jakarta Sans','Plus Jakarta Sans Variable',-apple-system,'Segoe UI',Roboto,sans-serif" font-size="11" font-weight="700" letter-spacing="-0.4" text-anchor="middle" fill="#5C4BFD">Pending payment</text><text x="354" y="191.2" font-family="'Plus Jakarta Sans','Plus Jakarta Sans Variable',-apple-system,'Segoe UI',Roboto,sans-serif" font-size="14" font-weight="800" letter-spacing="-0.4" text-anchor="end" fill="#0A0A0A">NGN 6,800</text><text x="36" y="219.6" font-family="'Plus Jakarta Sans','Plus Jakarta Sans Variable',-apple-system,'Segoe UI',Roboto,sans-serif" font-size="14.5" font-weight="700" letter-spacing="-0.4" text-anchor="start" fill="#111827">Lagos  →  London</text><text x="36" y="237.6" font-family="'Plus Jakarta Sans','Plus Jakarta Sans Variable',-apple-system,'Segoe UI',Roboto,sans-serif" font-size="12" font-weight="600" letter-spacing="-0.4" text-anchor="start" fill="#F59E0B">Resume before 18:40 today</text><rect x="36" y="242" width="153" height="34" rx="9" ry="9" fill="#5C4BFD"/><text x="112.5" y="263.8" font-family="'Plus Jakarta Sans','Plus Jakarta Sans Variable',-apple-system,'Segoe UI',Roboto,sans-serif" font-size="16" font-weight="600" letter-spacing="-0.4" text-anchor="middle" fill="#FFFFFF">Continue</text><rect x="201" y="242" width="153" height="34" rx="9" ry="9" fill="#FFFFFF" stroke="#5C4BFD" stroke-width="1.5"/><text x="277.5" y="263.8" font-family="'Plus Jakarta Sans','Plus Jakarta Sans Variable',-apple-system,'Segoe UI',Roboto,sans-serif" font-size="16" font-weight="600" letter-spacing="-0.4" text-anchor="middle" fill="#5C4BFD">Delete</text><text x="22" y="301.2" font-family="'Plus Jakarta Sans','Plus Jakarta Sans Variable',-apple-system,'Segoe UI',Roboto,sans-serif" font-size="11.5" font-weight="800" letter-spacing="1.0" text-anchor="start" fill="#9CA3AF">MY SHIPMENTS</text><rect x="23" y="321" width="344" height="86" rx="16" ry="16" fill="#000000" fill-opacity="0.05"/><rect x="20" y="316" width="350" height="86" rx="16" ry="16" fill="#FFFFFF"/><rect x="34" y="332" width="44" height="44" rx="12" ry="12" fill="#EEEBFF"/><g transform="translate(45,343) scale(0.92)"><g fill="none" stroke="#5C4BFD" stroke-width="1.85" stroke-linecap="round" stroke-linejoin="round"><path d="M12 3 L20 7.2 V16.8 L12 21 L4 16.8 V7.2 Z"/><polyline points="4,7.4 12,11.6 20,7.4"/><line x1="12" y1="11.6" x2="12" y2="21"/><polyline points="8,5 16,9.3"/></g></g><text x="90" y="345.6" font-family="'Plus Jakarta Sans','Plus Jakarta Sans Variable',-apple-system,'Segoe UI',Roboto,sans-serif" font-size="14.5" font-weight="700" letter-spacing="-0.4" text-anchor="start" fill="#0A0A0A">iPhone charger &amp; case</text><text x="90" y="363.6" font-family="'Plus Jakarta Sans','Plus Jakarta Sans Variable',-apple-system,'Segoe UI',Roboto,sans-serif" font-size="12" font-weight="500" letter-spacing="-0.4" text-anchor="start" fill="#6B7280">Electronics  •  Lagos → London</text><rect x="90" y="372" width="88" height="22" rx="11" ry="11" fill="#DBEAFE"/><text x="134" y="386.3" font-family="'Plus Jakarta Sans','Plus Jakarta Sans Variable',-apple-system,'Segoe UI',Roboto,sans-serif" font-size="11" font-weight="700" letter-spacing="-0.4" text-anchor="middle" fill="#3B82F6">In transit</text><g transform="translate(342,351) scale(0.67)"><g fill="none" stroke="#9CA3AF" stroke-width="1.85" stroke-linecap="round" stroke-linejoin="round"><polyline points="9,4 17,12 9,20"/></g></g><rect x="23" y="419" width="344" height="86" rx="16" ry="16" fill="#000000" fill-opacity="0.05"/><rect x="20" y="414" width="350" height="86" rx="16" ry="16" fill="#FFFFFF"/><rect x="34" y="430" width="44" height="44" rx="12" ry="12" fill="#EEEBFF"/><g transform="translate(45,441) scale(0.92)"><g fill="none" stroke="#5C4BFD" stroke-width="1.85" stroke-linecap="round" stroke-linejoin="round"><path d="M12 3 L20 7.2 V16.8 L12 21 L4 16.8 V7.2 Z"/><polyline points="4,7.4 12,11.6 20,7.4"/><line x1="12" y1="11.6" x2="12" y2="21"/><polyline points="8,5 16,9.3"/></g></g><text x="90" y="443.6" font-family="'Plus Jakarta Sans','Plus Jakarta Sans Variable',-apple-system,'Segoe UI',Roboto,sans-serif" font-size="14.5" font-weight="700" letter-spacing="-0.4" text-anchor="start" fill="#0A0A0A">Visa paperwork</text><text x="90" y="461.6" font-family="'Plus Jakarta Sans','Plus Jakarta Sans Variable',-apple-system,'Segoe UI',Roboto,sans-serif" font-size="12" font-weight="500" letter-spacing="-0.4" text-anchor="start" fill="#6B7280">Documents  •  Lagos → London</text><rect x="90" y="470" width="81.4" height="22" rx="11" ry="11" fill="#D1FAE5"/><text x="130.7" y="484.3" font-family="'Plus Jakarta Sans','Plus Jakarta Sans Variable',-apple-system,'Segoe UI',Roboto,sans-serif" font-size="11" font-weight="700" letter-spacing="-0.4" text-anchor="middle" fill="#10B981">Delivered</text><g transform="translate(342,449) scale(0.67)"><g fill="none" stroke="#9CA3AF" stroke-width="1.85" stroke-linecap="round" stroke-linejoin="round"><polyline points="9,4 17,12 9,20"/></g></g><rect x="23" y="517" width="344" height="86" rx="16" ry="16" fill="#000000" fill-opacity="0.05"/><rect x="20" y="512" width="350" height="86" rx="16" ry="16" fill="#FFFFFF"/><rect x="34" y="528" width="44" height="44" rx="12" ry="12" fill="#EEEBFF"/><g transform="translate(45,539) scale(0.92)"><g fill="none" stroke="#5C4BFD" stroke-width="1.85" stroke-linecap="round" stroke-linejoin="round"><path d="M12 3 L20 7.2 V16.8 L12 21 L4 16.8 V7.2 Z"/><polyline points="4,7.4 12,11.6 20,7.4"/><line x1="12" y1="11.6" x2="12" y2="21"/><polyline points="8,5 16,9.3"/></g></g><text x="90" y="541.6" font-family="'Plus Jakarta Sans','Plus Jakarta Sans Variable',-apple-system,'Segoe UI',Roboto,sans-serif" font-size="14.5" font-weight="700" letter-spacing="-0.4" text-anchor="start" fill="#0A0A0A">Winter jacket</text><text x="90" y="559.6" font-family="'Plus Jakarta Sans','Plus Jakarta Sans Variable',-apple-system,'Segoe UI',Roboto,sans-serif" font-size="12" font-weight="500" letter-spacing="-0.4" text-anchor="start" fill="#6B7280">Clothing  •  Lagos → London</text><rect x="90" y="568" width="121" height="22" rx="11" ry="11" fill="#FEF3C7"/><text x="150.5" y="582.3" font-family="'Plus Jakarta Sans','Plus Jakarta Sans Variable',-apple-system,'Segoe UI',Roboto,sans-serif" font-size="11" font-weight="700" letter-spacing="-0.4" text-anchor="middle" fill="#F59E0B">Awaiting pickup</text><g transform="translate(342,547) scale(0.67)"><g fill="none" stroke="#9CA3AF" stroke-width="1.85" stroke-linecap="round" stroke-linejoin="round"><polyline points="9,4 17,12 9,20"/></g></g><circle cx="340" cy="724" r="28" fill="#5C4BFD"/><g transform="translate(328,712) scale(1)"><g fill="none" stroke="#FFFFFF" stroke-width="2.6" stroke-linecap="round" stroke-linejoin="round"><line x1="12" y1="5" x2="12" y2="19"/><line x1="5" y1="12" x2="19" y2="12"/></g></g><rect x="0" y="760" width="390" height="84" rx="0" ry="0" fill="#FFFFFF"/><line x1="0" y1="760" x2="390" y2="760" stroke="#E5E7EB" stroke-width="1" stroke-linecap="round"/><g transform="translate(36.25,769.5) scale(1.04)"><g fill="none" stroke="#9CA3AF" stroke-width="2" stroke-linecap="round" stroke-linejoin="round"><path d="M3.5 11.5 L12 4 L20.5 11.5"/><path d="M6 10 V20 H18 V10"/></g></g><text x="48.75" y="806.8" font-family="'Plus Jakarta Sans','Plus Jakarta Sans Variable',-apple-system,'Segoe UI',Roboto,sans-serif" font-size="11" font-weight="600" letter-spacing="-0.4" text-anchor="middle" fill="#9CA3AF">Home</text><g transform="translate(133.75,769.5) scale(1.04)"><g fill="none" stroke="#0A0A0A" stroke-width="2" stroke-linecap="round" stroke-linejoin="round"><rect x="3" y="5" width="18" height="14" rx="2.5"/><path d="M3 13.5 H8 L10 16.5 H14 L16 13.5 H21"/></g></g><text x="146.25" y="806.8" font-family="'Plus Jakarta Sans','Plus Jakarta Sans Variable',-apple-system,'Segoe UI',Roboto,sans-serif" font-size="11" font-weight="600" letter-spacing="-0.4" text-anchor="middle" fill="#0A0A0A">Shipments</text><g transform="translate(231.25,769.5) scale(1.04)"><g fill="none" stroke="#9CA3AF" stroke-width="2" stroke-linecap="round" stroke-linejoin="round"><path d="M5 4 H19 a2 2 0 0 1 2 2 V14 a2 2 0 0 1 -2 2 H10 l-4 4 V16 H5 a2 2 0 0 1 -2 -2 V6 a2 2 0 0 1 2 -2 Z"/></g></g><text x="243.75" y="806.8" font-family="'Plus Jakarta Sans','Plus Jakarta Sans Variable',-apple-system,'Segoe UI',Roboto,sans-serif" font-size="11" font-weight="600" letter-spacing="-0.4" text-anchor="middle" fill="#9CA3AF">Messages</text><g transform="translate(328.75,769.5) scale(1.04)"><g fill="none" stroke="#9CA3AF" stroke-width="2" stroke-linecap="round" stroke-linejoin="round"><circle cx="12" cy="8" r="4"/><path d="M5 20 c0 -4.2 3.2 -6.3 7 -6.3 s7 2.1 7 6.3"/></g></g><text x="341.25" y="806.8" font-family="'Plus Jakarta Sans','Plus Jakarta Sans Variable',-apple-system,'Segoe UI',Roboto,sans-serif" font-size="11" font-weight="600" letter-spacing="-0.4" text-anchor="middle" fill="#9CA3AF">Profile</text><rect x="128" y="835" width="134" height="5" rx="2.5" ry="2.5" fill="#0A0A0A" fill-opacity="0.85"/></svg>