<svg xmlns="http://www.w3.org/2000/svg" width="390" height="844" viewBox="0 0 390 844" font-family="'Plus Jakarta Sans','Plus Jakarta Sans Variable',-apple-system,'Segoe UI',Roboto,sans-serif"><defs><filter id="footShadow" x="-20%" y="-60%" width="140%" height="220%"><feGaussianBlur stdDeviation="6"/></filter><linearGradient id="footShadow" x1="0" y1="0" x2="0" y2="1"><stop offset="0" stop-color="#000" stop-opacity="0"/><stop offset="1" stop-color="#000" stop-opacity="0.06"/></linearGradient></defs><rect width="390" height="844" fill="#F8F8FC"/><g><text x="26" y="33" font-family="'Plus Jakarta Sans','Plus Jakarta Sans Variable',-apple-system,'Segoe UI',Roboto,sans-serif" font-size="15" font-weight="700" letter-spacing="0" text-anchor="start" fill="#0A0A0A">9:41</text><rect x="312" y="23" width="4" height="4" rx="1.2" ry="1.2" fill="#0A0A0A"/><rect x="318" y="20.6" width="4" height="6.4" rx="1.2" ry="1.2" fill="#0A0A0A"/><rect x="324" y="18.2" width="4" height="8.8" rx="1.2" ry="1.2" fill="#0A0A0A"/><rect x="330" y="15.8" width="4" height="11.2" rx="1.2" ry="1.2" fill="#0A0A0A"/><path d="M340 22 a8 8 0 0 1 11 0" fill="none" stroke="#0A0A0A" stroke-width="2" stroke-linecap="round" stroke-linejoin="round"/><path d="M342.6 25 a4.2 4.2 0 0 1 5.8 0" fill="none" stroke="#0A0A0A" stroke-width="2" stroke-linecap="round" stroke-linejoin="round"/><circle cx="345.5" cy="28" r="1.4" fill="#0A0A0A"/><rect x="360" y="19" width="20" height="10" rx="3" ry="3" fill="none" fill-opacity="0.45" stroke="#0A0A0A" stroke-width="1.2"/><rect x="362.5" y="21.2" width="13" height="5.6" rx="1.4" ry="1.4" fill="#0A0A0A"/><path d="M381 22 v4" fill="none" fill-opacity="0.45" stroke="#0A0A0A" stroke-width="1.8" stroke-linecap="round" stroke-linejoin="round"/></g><rect x="0" y="0" width="390" height="106" rx="0" ry="0" fill="#FFFFFF"/><g transform="translate(15,67) scale(0.92)"><g fill="none" stroke="#0A0A0A" stroke-width="1.85" stroke-linecap="round" stroke-linejoin="round"><polyline points="14,4 7,12 14,20"/></g></g><text x="195" y="82.6" font-family="'Plus Jakarta Sans','Plus Jakarta Sans Variable',-apple-system,'Segoe UI',Roboto,sans-serif" font-size="17" font-weight="700" letter-spacing="-0.4" text-anchor="middle" fill="#0A0A0A">Item</text><circle cx="63.75" cy="136" r="15" fill="#5C4BFD"/><g transform="translate(56.25,128.5) scale(0.62)"><g fill="none" stroke="#FFFFFF" stroke-width="2.6" stroke-linecap="round" stroke-linejoin="round"><polyline points="4,13 10,18 20,6"/></g></g><text x="63.75" y="164.4" font-family="'Plus Jakarta Sans','Plus Jakarta Sans Variable',-apple-system,'Segoe UI',Roboto,sans-serif" font-size="10.5" font-weight="700" letter-spacing="-0.4" text-anchor="middle" fill="#9CA3AF">Route</text><line x1="79.75" y1="136" x2="135.25" y2="136" stroke="#E5E7EB" stroke-width="2.4" stroke-linecap="round"/><circle cx="151.25" cy="136" r="15" fill="#5C4BFD"/><text x="151.25" y="139.4" font-family="'Plus Jakarta Sans','Plus Jakarta Sans Variable',-apple-system,'Segoe UI',Roboto,sans-serif" font-size="13" font-weight="800" letter-spacing="-0.4" text-anchor="middle" fill="#FFFFFF">2</text><text x="151.25" y="164.4" font-family="'Plus Jakarta Sans','Plus Jakarta Sans Variable',-apple-system,'Segoe UI',Roboto,sans-serif" font-size="10.5" font-weight="700" letter-spacing="-0.4" text-anchor="middle" fill="#5C4BFD">Item</text><line x1="167.25" y1="136" x2="222.75" y2="136" stroke="#E5E7EB" stroke-width="2.4" stroke-linecap="round"/><circle cx="238.75" cy="136" r="15" fill="#FFFFFF" stroke="#E5E7EB" stroke-width="1.5"/><text x="238.75" y="139.4" font-family="'Plus Jakarta Sans','Plus Jakarta Sans Variable',-apple-system,'Segoe UI',Roboto,sans-serif" font-size="13" font-weight="800" letter-spacing="-0.4" text-anchor="middle" fill="#9CA3AF">3</text><text x="238.75" y="164.4" font-family="'Plus Jakarta Sans','Plus Jakarta Sans Variable',-apple-system,'Segoe UI',Roboto,sans-serif" font-size="10.5" font-weight="700" letter-spacing="-0.4" text-anchor="middle" fill="#9CA3AF">Safety</text><line x1="254.75" y1="136" x2="310.25" y2="136" stroke="#E5E7EB" stroke-width="2.4" stroke-linecap="round"/><circle cx="326.25" cy="136" r="15" fill="#FFFFFF" stroke="#E5E7EB" stroke-width="1.5"/><text x="326.25" y="139.4" font-family="'Plus Jakarta Sans','Plus Jakarta Sans Variable',-apple-system,'Segoe UI',Roboto,sans-serif" font-size="13" font-weight="800" letter-spacing="-0.4" text-anchor="middle" fill="#9CA3AF">4</text><text x="326.25" y="164.4" font-family="'Plus Jakarta Sans','Plus Jakarta Sans Variable',-apple-system,'Segoe UI',Roboto,sans-serif" font-size="10.5" font-weight="700" letter-spacing="-0.4" text-anchor="middle" fill="#9CA3AF">Travelers</text><text x="20" y="194" font-family="'Plus Jakarta Sans','Plus Jakarta Sans Variable',-apple-system,'Segoe UI',Roboto,sans-serif" font-size="20" font-weight="800" letter-spacing="-0.4" text-anchor="start" fill="#0A0A0A">What are you sending?</text><text x="20" y="218.4" font-family="'Plus Jakarta Sans','Plus Jakarta Sans Variable',-apple-system,'Segoe UI',Roboto,sans-serif" font-size="13" font-weight="400" letter-spacing="-0.4" text-anchor="start" fill="#6B7280">Tell us about your item so travelers can</text><text x="20" y="237.9" font-family="'Plus Jakarta Sans','Plus Jakarta Sans Variable',-apple-system,'Segoe UI',Roboto,sans-serif" font-size="13" font-weight="400" letter-spacing="-0.4" text-anchor="start" fill="#6B7280">prepare.</text><text x="20" y="275.8" font-family="'Plus Jakarta Sans','Plus Jakarta Sans Variable',-apple-system,'Segoe UI',Roboto,sans-serif" font-size="13.5" font-weight="600" letter-spacing="-0.4" text-anchor="start" fill="#374151">Item Category</text><rect x="20" y="289" width="110" height="50" rx="12" ry="12" fill="#FFFFFF" stroke="#E5E7EB" stroke-width="1"/><g transform="translate(34,306) scale(0.67)"><g fill="none" stroke="#6B7280" stroke-width="1.85" stroke-linecap="round" stroke-linejoin="round"><path d="M7 3.5 H14 L18.5 8 V20.5 H7 Z"/><polyline points="13.6,3.7 13.6,8.3 18.3,8.3"/><line x1="10" y1="13" x2="15.5" y2="13"/><line x1="10" y1="16.3" x2="15.5" y2="16.3"/></g></g><text x="56" y="315.8" font-family="'Plus Jakarta Sans','Plus Jakarta Sans Variable',-apple-system,'Segoe UI',Roboto,sans-serif" font-size="11" font-weight="700" letter-spacing="-0.4" text-anchor="start" fill="#374151">Documents</text><rect x="140" y="289" width="110" height="50" rx="12" ry="12" fill="#FFFFFF" stroke="#E5E7EB" stroke-width="1"/><g transform="translate(154,306) scale(0.67)"><g fill="none" stroke="#6B7280" stroke-width="1.85" stroke-linecap="round" stroke-linejoin="round"><path d="M5.5 8 H18.5 L19.7 20.5 H4.3 Z"/><path d="M9 8 V6.2 a3 3 0 0 1 6 0 V8"/></g></g><text x="176" y="315.8" font-family="'Plus Jakarta Sans','Plus Jakarta Sans Variable',-apple-system,'Segoe UI',Roboto,sans-serif" font-size="11" font-weight="700" letter-spacing="-0.4" text-anchor="start" fill="#374151">Clothing</text><rect x="260" y="289" width="110" height="50" rx="12" ry="12" fill="#EEEBFF" stroke="#5C4BFD" stroke-width="1.4"/><g transform="translate(274,306) scale(0.67)"><g fill="none" stroke="#5C4BFD" stroke-width="1.85" stroke-linecap="round" stroke-linejoin="round"><path d="M12 3 L20 7.2 V16.8 L12 21 L4 16.8 V7.2 Z"/><polyline points="4,7.4 12,11.6 20,7.4"/><line x1="12" y1="11.6" x2="12" y2="21"/><polyline points="8,5 16,9.3"/></g></g><text x="296" y="315.8" font-family="'Plus Jakarta Sans','Plus Jakarta Sans Variable',-apple-system,'Segoe UI',Roboto,sans-serif" font-size="11" font-weight="700" letter-spacing="-0.4" text-anchor="start" fill="#5C4BFD">Electronics</text><rect x="20" y="347" width="110" height="50" rx="12" ry="12" fill="#FFFFFF" stroke="#E5E7EB" stroke-width="1"/><g transform="translate(34,364) scale(0.67)"><g fill="none" stroke="#6B7280" stroke-width="1.85" stroke-linecap="round" stroke-linejoin="round"><rect x="4" y="9" width="16" height="11.5" rx="1.8"/><line x1="4" y1="13" x2="20" y2="13"/><line x1="12" y1="9" x2="12" y2="20.5"/><path d="M12 9 C12 5 8.5 4.5 8.5 7.4 C8.5 8.8 10.3 9 12 9"/><path d="M12 9 C12 5 15.5 4.5 15.5 7.4 C15.5 8.8 13.7 9 12 9"/></g></g><text x="56" y="373.8" font-family="'Plus Jakarta Sans','Plus Jakarta Sans Variable',-apple-system,'Segoe UI',Roboto,sans-serif" font-size="11" font-weight="700" letter-spacing="-0.4" text-anchor="start" fill="#374151">Food</text><rect x="140" y="347" width="110" height="50" rx="12" ry="12" fill="#FFFFFF" stroke="#E5E7EB" stroke-width="1"/><g transform="translate(154,364) scale(0.67)"><g fill="none" stroke="#6B7280" stroke-width="1.85" stroke-linecap="round" stroke-linejoin="round"><path d="M12 3.5 l2.7 5.6 6.1 .9 -4.4 4.3 1 6.1 -5.4 -2.8 -5.4 2.8 1 -6.1 -4.4 -4.3 6.1 -.9 Z"/></g></g><text x="176" y="373.8" font-family="'Plus Jakarta Sans','Plus Jakarta Sans Variable',-apple-system,'Segoe UI',Roboto,sans-serif" font-size="11" font-weight="700" letter-spacing="-0.4" text-anchor="start" fill="#374151">Beauty</text><rect x="260" y="347" width="110" height="50" rx="12" ry="12" fill="#FFFFFF" stroke="#E5E7EB" stroke-width="1"/><g transform="translate(274,364) scale(0.67)"><g fill="#6B7280" stroke="none"><circle cx="5" cy="12" r="1.9"/><circle cx="12" cy="12" r="1.9"/><circle cx="19" cy="12" r="1.9"/></g></g><text x="296" y="373.8" font-family="'Plus Jakarta Sans','Plus Jakarta Sans Variable',-apple-system,'Segoe UI',Roboto,sans-serif" font-size="11" font-weight="700" letter-spacing="-0.4" text-anchor="start" fill="#374151">Other</text><text x="20" y="424.2" font-family="'Plus Jakarta Sans','Plus Jakarta Sans Variable',-apple-system,'Segoe UI',Roboto,sans-serif" font-size="14" font-weight="500" letter-spacing="-0.4" text-anchor="start" fill="#374151">Item Description</text><rect x="20" y="435" width="350" height="54" rx="16" ry="16" fill="#F3F4F6" stroke="#E5E7EB" stroke-width="1"/><text x="36" y="466.6" font-family="'Plus Jakarta Sans','Plus Jakarta Sans Variable',-apple-system,'Segoe UI',Roboto,sans-serif" font-size="14.5" font-weight="500" letter-spacing="-0.4" text-anchor="start" fill="#111827">Black leather jacket, size M</text><text x="20" y="514.2" font-family="'Plus Jakarta Sans','Plus Jakarta Sans Variable',-apple-system,'Segoe UI',Roboto,sans-serif" font-size="14" font-weight="500" letter-spacing="-0.4" text-anchor="start" fill="#374151">Weight (kg)</text><text x="201" y="514.2" font-family="'Plus Jakarta Sans','Plus Jakarta Sans Variable',-apple-system,'Segoe UI',Roboto,sans-serif" font-size="14" font-weight="500" letter-spacing="-0.4" text-anchor="start" fill="#374151">Declared Value</text><rect x="20" y="525" width="169" height="54" rx="16" ry="16" fill="#F3F4F6" stroke="#E5E7EB" stroke-width="1"/><text x="36" y="555.6" font-family="'Plus Jakarta Sans','Plus Jakarta Sans Variable',-apple-system,'Segoe UI',Roboto,sans-serif" font-size="14.5" font-weight="600" letter-spacing="-0.4" text-anchor="start" fill="#111827">2.5</text><rect x="201" y="525" width="169" height="54" rx="16" ry="16" fill="#F3F4F6" stroke="#E5E7EB" stroke-width="1"/><text x="217" y="555.6" font-family="'Plus Jakarta Sans','Plus Jakarta Sans Variable',-apple-system,'Segoe UI',Roboto,sans-serif" font-size="14.5" font-weight="600" letter-spacing="-0.4" text-anchor="start" fill="#111827">NGN 80,000</text><rect x="0" y="738" width="390" height="14" rx="0" ry="0" fill="url(#footShadow)"/><rect x="0" y="752" width="390" height="92" rx="0" ry="0" fill="#FFFFFF"/><rect x="20" y="770" width="169" height="52" rx="14" ry="14" fill="#FFFFFF" stroke="#5C4BFD" stroke-width="1.5"/><text x="104.5" y="800.8" font-family="'Plus Jakarta Sans','Plus Jakarta Sans Variable',-apple-system,'Segoe UI',Roboto,sans-serif" font-size="16" font-weight="600" letter-spacing="-0.4" text-anchor="middle" fill="#5C4BFD">Back</text><rect x="201" y="770" width="169" height="52" rx="14" ry="14" fill="#5C4BFD"/><text x="285.5" y="800.8" font-family="'Plus Jakarta Sans','Plus Jakarta Sans Variable',-apple-system,'Segoe UI',Roboto,sans-serif" font-size="16" font-weight="600" letter-spacing="-0.4" text-anchor="middle" fill="#FFFFFF">Continue</text><rect x="128" y="835" width="134" height="5" rx="2.5" ry="2.5" fill="#0A0A0A" fill-opacity="0.85"/></svg>