<svg xmlns="http://www.w3.org/2000/svg" width="390" height="844" viewBox="0 0 390 844" font-family="'Plus Jakarta Sans','Plus Jakarta Sans Variable',-apple-system,'Segoe UI',Roboto,sans-serif"><defs><filter id="footShadow" x="-20%" y="-60%" width="140%" height="220%"><feGaussianBlur stdDeviation="6"/></filter><linearGradient id="footShadow" x1="0" y1="0" x2="0" y2="1"><stop offset="0" stop-color="#000" stop-opacity="0"/><stop offset="1" stop-color="#000" stop-opacity="0.06"/></linearGradient><linearGradient id="travG" x1="0" y1="0" x2="1" y2="1"><stop offset="0" stop-color="#6E5BFF"/><stop offset="1" stop-color="#4A3BD8"/></linearGradient></defs><rect width="390" height="844" fill="#F4F6FB"/><g><text x="26" y="33" font-family="'Plus Jakarta Sans','Plus Jakarta Sans Variable',-apple-system,'Segoe UI',Roboto,sans-serif" font-size="15" font-weight="700" letter-spacing="0" text-anchor="start" fill="#0A0A0A">9:41</text><rect x="312" y="23" width="4" height="4" rx="1.2" ry="1.2" fill="#0A0A0A"/><rect x="318" y="20.6" width="4" height="6.4" rx="1.2" ry="1.2" fill="#0A0A0A"/><rect x="324" y="18.2" width="4" height="8.8" rx="1.2" ry="1.2" fill="#0A0A0A"/><rect x="330" y="15.8" width="4" height="11.2" rx="1.2" ry="1.2" fill="#0A0A0A"/><path d="M340 22 a8 8 0 0 1 11 0" fill="none" stroke="#0A0A0A" stroke-width="2" stroke-linecap="round" stroke-linejoin="round"/><path d="M342.6 25 a4.2 4.2 0 0 1 5.8 0" fill="none" stroke="#0A0A0A" stroke-width="2" stroke-linecap="round" stroke-linejoin="round"/><circle cx="345.5" cy="28" r="1.4" fill="#0A0A0A"/><rect x="360" y="19" width="20" height="10" rx="3" ry="3" fill="none" fill-opacity="0.45" stroke="#0A0A0A" stroke-width="1.2"/><rect x="362.5" y="21.2" width="13" height="5.6" rx="1.4" ry="1.4" fill="#0A0A0A"/><path d="M381 22 v4" fill="none" fill-opacity="0.45" stroke="#0A0A0A" stroke-width="1.8" stroke-linecap="round" stroke-linejoin="round"/></g><rect x="0" y="0" width="390" height="106" rx="0" ry="0" fill="#FFFFFF"/><g transform="translate(15,67) scale(0.92)"><g fill="none" stroke="#0A0A0A" stroke-width="1.85" stroke-linecap="round" stroke-linejoin="round"><polyline points="14,4 7,12 14,20"/></g></g><text x="195" y="82.6" font-family="'Plus Jakarta Sans','Plus Jakarta Sans Variable',-apple-system,'Segoe UI',Roboto,sans-serif" font-size="17" font-weight="700" letter-spacing="-0.4" text-anchor="middle" fill="#0A0A0A">Request Shipment</text><rect x="20" y="120" width="350" height="110" rx="20" ry="20" fill="url(#travG)"/><circle cx="66" cy="166" r="24" fill="rgba(255,255,255,0.22)"/><text x="66" y="170.8" font-family="'Plus Jakarta Sans','Plus Jakarta Sans Variable',-apple-system,'Segoe UI',Roboto,sans-serif" font-size="16" font-weight="800" letter-spacing="-0.4" text-anchor="middle" fill="#FFFFFF">DO</text><text x="100" y="154.8" font-family="'Plus Jakarta Sans','Plus Jakarta Sans Variable',-apple-system,'Segoe UI',Roboto,sans-serif" font-size="16" font-weight="800" letter-spacing="-0.4" text-anchor="start" fill="#FFFFFF">Daniel Okoro</text><g transform="translate(97.5,161.5) scale(0.54)"><g fill="#FFC107" stroke="none"><path d="M12 2.5 l2.9 6 6.6 .9 -4.8 4.6 1.2 6.6 -5.9 -3.1 -5.9 3.1 1.2 -6.6 -4.8 -4.6 6.6 -.9 Z"/></g></g><text x="114" y="170.6" font-family="'Plus Jakarta Sans','Plus Jakarta Sans Variable',-apple-system,'Segoe UI',Roboto,sans-serif" font-size="12" font-weight="600" letter-spacing="-0.4" text-anchor="start" fill="rgba(255,255,255,0.85)">4.9  •  Flight</text><line x1="36" y1="188" x2="354" y2="188" stroke="rgba(255,255,255,0.18)" stroke-width="1" stroke-linecap="round"/><text x="89" y="210" font-family="'Plus Jakarta Sans','Plus Jakarta Sans Variable',-apple-system,'Segoe UI',Roboto,sans-serif" font-size="12.5" font-weight="800" letter-spacing="-0.4" text-anchor="middle" fill="#FFFFFF">12 kg free</text><text x="195" y="210" font-family="'Plus Jakarta Sans','Plus Jakarta Sans Variable',-apple-system,'Segoe UI',Roboto,sans-serif" font-size="12.5" font-weight="800" letter-spacing="-0.4" text-anchor="middle" fill="#FFFFFF">NGN 4,200/kg</text><text x="301" y="210" font-family="'Plus Jakarta Sans','Plus Jakarta Sans Variable',-apple-system,'Segoe UI',Roboto,sans-serif" font-size="12.5" font-weight="800" letter-spacing="-0.4" text-anchor="middle" fill="#FFFFFF">~ £24 total</text><rect x="23" y="249" width="344" height="72" rx="16" ry="16" fill="#000000" fill-opacity="0.05"/><rect x="20" y="244" width="350" height="72" rx="16" ry="16" fill="#FFFFFF"/><text x="36" y="267.6" font-family="'Plus Jakarta Sans','Plus Jakarta Sans Variable',-apple-system,'Segoe UI',Roboto,sans-serif" font-size="12" font-weight="800" letter-spacing="0.8" text-anchor="start" fill="#9CA3AF">Route</text><circle cx="44" cy="288" r="7" fill="none" stroke="#5C4BFD" stroke-width="2.4"/><circle cx="44" cy="288" r="2.6" fill="#5C4BFD"/><text x="60" y="291.2" font-family="'Plus Jakarta Sans','Plus Jakarta Sans Variable',-apple-system,'Segoe UI',Roboto,sans-serif" font-size="14" font-weight="700" letter-spacing="-0.4" text-anchor="start" fill="#111827">Lagos</text><g transform="translate(132,280) scale(0.67)"><g fill="none" stroke="#9CA3AF" stroke-width="1.85" stroke-linecap="round" stroke-linejoin="round"><line x1="4" y1="12" x2="18.5" y2="12"/><polyline points="12,5 19,12 12,19"/></g></g><g transform="translate(172,280) scale(0.67)"><g fill="none" stroke="#EF4444" stroke-width="1.85" stroke-linecap="round" stroke-linejoin="round"><path d="M12 21.5 C6.5 15.5 5 12.3 5 9 a7 7 0 0 1 14 0 c0 3.3 -1.5 6.5 -7 12.5 Z"/><circle cx="12" cy="9" r="2.6"/></g></g><text x="196" y="291.2" font-family="'Plus Jakarta Sans','Plus Jakarta Sans Variable',-apple-system,'Segoe UI',Roboto,sans-serif" font-size="14" font-weight="700" letter-spacing="-0.4" text-anchor="start" fill="#111827">London</text><text x="354" y="289.2" font-family="'Plus Jakarta Sans','Plus Jakarta Sans Variable',-apple-system,'Segoe UI',Roboto,sans-serif" font-size="11.5" font-weight="600" letter-spacing="-0.4" text-anchor="end" fill="#6B7280">Departs 24 May</text><text x="22" y="339.2" font-family="'Plus Jakarta Sans','Plus Jakarta Sans Variable',-apple-system,'Segoe UI',Roboto,sans-serif" font-size="11.5" font-weight="800" letter-spacing="1.0" text-anchor="start" fill="#9CA3AF">RECEIVER DETAILS</text><text x="20" y="365.2" font-family="'Plus Jakarta Sans','Plus Jakarta Sans Variable',-apple-system,'Segoe UI',Roboto,sans-serif" font-size="14" font-weight="500" letter-spacing="-0.4" text-anchor="start" fill="#374151">Full name</text><rect x="20" y="376" width="350" height="54" rx="16" ry="16" fill="#F3F4F6" stroke="#E5E7EB" stroke-width="1"/><text x="36" y="407.6" font-family="'Plus Jakarta Sans','Plus Jakarta Sans Variable',-apple-system,'Segoe UI',Roboto,sans-serif" font-size="14.5" font-weight="500" letter-spacing="-0.4" text-anchor="start" fill="#111827">Grace Adeyemi</text><text x="20" y="455.2" font-family="'Plus Jakarta Sans','Plus Jakarta Sans Variable',-apple-system,'Segoe UI',Roboto,sans-serif" font-size="14" font-weight="500" letter-spacing="-0.4" text-anchor="start" fill="#374151">Email address</text><rect x="20" y="466" width="350" height="54" rx="16" ry="16" fill="#F3F4F6" stroke="#E5E7EB" stroke-width="1"/><text x="36" y="497.6" font-family="'Plus Jakarta Sans','Plus Jakarta Sans Variable',-apple-system,'Segoe UI',Roboto,sans-serif" font-size="14.5" font-weight="500" letter-spacing="-0.4" text-anchor="start" fill="#111827">grace@example.com</text><rect x="20" y="534" width="350" height="56" rx="14" ry="14" fill="#FFFFFF" stroke="#E5E7EB" stroke-width="1"/><g transform="translate(36,552) scale(0.83)"><g fill="none" stroke="#5C4BFD" stroke-width="1.85" stroke-linecap="round" stroke-linejoin="round"><path d="M12 3 L19 6 V11 c0 5 -3.2 8.2 -7 10 c-3.8 -1.8 -7 -5 -7 -10 V6 Z"/><polyline points="8.8,11.8 11,14 15.2,9.5"/></g></g><text x="66" y="560.8" font-family="'Plus Jakarta Sans','Plus Jakarta Sans Variable',-apple-system,'Segoe UI',Roboto,sans-serif" font-size="13.5" font-weight="700" letter-spacing="-0.4" text-anchor="start" fill="#111827">Protect my item</text><text x="66" y="576.2" font-family="'Plus Jakarta Sans','Plus Jakarta Sans Variable',-apple-system,'Segoe UI',Roboto,sans-serif" font-size="11.5" font-weight="500" letter-spacing="-0.4" text-anchor="start" fill="#6B7280">2% of item value — covered in transit</text><rect x="310" y="552" width="44" height="26" rx="13" ry="13" fill="#5C4BFD"/><circle cx="341" cy="565" r="10" fill="#FFFFFF"/><rect x="0" y="738" width="390" height="14" rx="0" ry="0" fill="url(#footShadow)"/><rect x="0" y="752" width="390" height="92" rx="0" ry="0" fill="#FFFFFF"/><rect x="20" y="770" width="350" height="52" rx="14" ry="14" fill="#5C4BFD"/><text x="195" y="800.8" font-family="'Plus Jakarta Sans','Plus Jakarta Sans Variable',-apple-system,'Segoe UI',Roboto,sans-serif" font-size="16" font-weight="600" letter-spacing="-0.4" text-anchor="middle" fill="#FFFFFF">Continue to Payment</text><rect x="128" y="835" width="134" height="5" rx="2.5" ry="2.5" fill="#0A0A0A" fill-opacity="0.85"/></svg>