<svg xmlns="http://www.w3.org/2000/svg" width="390" height="844" viewBox="0 0 390 844" font-family="'Plus Jakarta Sans','Plus Jakarta Sans Variable',-apple-system,'Segoe UI',Roboto,sans-serif"><defs><filter id="footShadow" x="-20%" y="-60%" width="140%" height="220%"><feGaussianBlur stdDeviation="6"/></filter><linearGradient id="footShadow" x1="0" y1="0" x2="0" y2="1"><stop offset="0" stop-color="#000" stop-opacity="0"/><stop offset="1" stop-color="#000" stop-opacity="0.06"/></linearGradient></defs><rect width="390" height="844" fill="#F8F8FC"/><g><text x="26" y="33" font-family="'Plus Jakarta Sans','Plus Jakarta Sans Variable',-apple-system,'Segoe UI',Roboto,sans-serif" font-size="15" font-weight="700" letter-spacing="0" text-anchor="start" fill="#0A0A0A">9:41</text><rect x="312" y="23" width="4" height="4" rx="1.2" ry="1.2" fill="#0A0A0A"/><rect x="318" y="20.6" width="4" height="6.4" rx="1.2" ry="1.2" fill="#0A0A0A"/><rect x="324" y="18.2" width="4" height="8.8" rx="1.2" ry="1.2" fill="#0A0A0A"/><rect x="330" y="15.8" width="4" height="11.2" rx="1.2" ry="1.2" fill="#0A0A0A"/><path d="M340 22 a8 8 0 0 1 11 0" fill="none" stroke="#0A0A0A" stroke-width="2" stroke-linecap="round" stroke-linejoin="round"/><path d="M342.6 25 a4.2 4.2 0 0 1 5.8 0" fill="none" stroke="#0A0A0A" stroke-width="2" stroke-linecap="round" stroke-linejoin="round"/><circle cx="345.5" cy="28" r="1.4" fill="#0A0A0A"/><rect x="360" y="19" width="20" height="10" rx="3" ry="3" fill="none" fill-opacity="0.45" stroke="#0A0A0A" stroke-width="1.2"/><rect x="362.5" y="21.2" width="13" height="5.6" rx="1.4" ry="1.4" fill="#0A0A0A"/><path d="M381 22 v4" fill="none" fill-opacity="0.45" stroke="#0A0A0A" stroke-width="1.8" stroke-linecap="round" stroke-linejoin="round"/></g><rect x="0" y="0" width="390" height="106" rx="0" ry="0" fill="#FFFFFF"/><g transform="translate(15,67) scale(0.92)"><g fill="none" stroke="#0A0A0A" stroke-width="1.85" stroke-linecap="round" stroke-linejoin="round"><polyline points="14,4 7,12 14,20"/></g></g><text x="195" y="82.6" font-family="'Plus Jakarta Sans','Plus Jakarta Sans Variable',-apple-system,'Segoe UI',Roboto,sans-serif" font-size="17" font-weight="700" letter-spacing="-0.4" text-anchor="middle" fill="#0A0A0A">Shipment Request</text><rect x="23" y="127" width="344" height="96" rx="18" ry="18" fill="#000000" fill-opacity="0.05"/><rect x="20" y="122" width="350" height="96" rx="18" ry="18" fill="#FFFFFF"/><rect x="36" y="138" width="64" height="64" rx="14" ry="14" fill="#EEEBFF"/><g transform="translate(53,155) scale(1.25)"><g fill="none" stroke="#5C4BFD" stroke-width="1.85" stroke-linecap="round" stroke-linejoin="round"><path d="M12 3 L20 7.2 V16.8 L12 21 L4 16.8 V7.2 Z"/><polyline points="4,7.4 12,11.6 20,7.4"/><line x1="12" y1="11.6" x2="12" y2="21"/><polyline points="8,5 16,9.3"/></g></g><text x="114" y="160" font-family="'Plus Jakarta Sans','Plus Jakarta Sans Variable',-apple-system,'Segoe UI',Roboto,sans-serif" font-size="15" font-weight="800" letter-spacing="-0.4" text-anchor="start" fill="#0A0A0A">Wedding gift box</text><rect x="114" y="170" width="114.4" height="22" rx="11" ry="11" fill="#FEF3C7"/><text x="171.2" y="184.3" font-family="'Plus Jakarta Sans','Plus Jakarta Sans Variable',-apple-system,'Segoe UI',Roboto,sans-serif" font-size="11" font-weight="700" letter-spacing="-0.4" text-anchor="middle" fill="#F59E0B">Pending review</text><rect x="23" y="237" width="344" height="178" rx="18" ry="18" fill="#000000" fill-opacity="0.05"/><rect x="20" y="232" width="350" height="178" rx="18" ry="18" fill="#FFFFFF"/><text x="36" y="256.8" font-family="'Plus Jakarta Sans','Plus Jakarta Sans Variable',-apple-system,'Segoe UI',Roboto,sans-serif" font-size="11" font-weight="800" letter-spacing="0.7" text-anchor="start" fill="#9CA3AF">PACKAGE DETAILS</text><text x="36" y="286" font-family="'Plus Jakarta Sans','Plus Jakarta Sans Variable',-apple-system,'Segoe UI',Roboto,sans-serif" font-size="12.5" font-weight="500" letter-spacing="-0.4" text-anchor="start" fill="#6B7280">Item</text><text x="354" y="286" font-family="'Plus Jakarta Sans','Plus Jakarta Sans Variable',-apple-system,'Segoe UI',Roboto,sans-serif" font-size="12.5" font-weight="700" letter-spacing="-0.4" text-anchor="end" fill="#111827">Gift box</text><text x="36" y="308" font-family="'Plus Jakarta Sans','Plus Jakarta Sans Variable',-apple-system,'Segoe UI',Roboto,sans-serif" font-size="12.5" font-weight="500" letter-spacing="-0.4" text-anchor="start" fill="#6B7280">Weight</text><text x="354" y="308" font-family="'Plus Jakarta Sans','Plus Jakarta Sans Variable',-apple-system,'Segoe UI',Roboto,sans-serif" font-size="12.5" font-weight="700" letter-spacing="-0.4" text-anchor="end" fill="#111827">2.5 kg</text><text x="36" y="330" font-family="'Plus Jakarta Sans','Plus Jakarta Sans Variable',-apple-system,'Segoe UI',Roboto,sans-serif" font-size="12.5" font-weight="500" letter-spacing="-0.4" text-anchor="start" fill="#6B7280">Receiver</text><text x="354" y="330" font-family="'Plus Jakarta Sans','Plus Jakarta Sans Variable',-apple-system,'Segoe UI',Roboto,sans-serif" font-size="12.5" font-weight="700" letter-spacing="-0.4" text-anchor="end" fill="#111827">Grace Adeyemi</text><text x="36" y="352" font-family="'Plus Jakarta Sans','Plus Jakarta Sans Variable',-apple-system,'Segoe UI',Roboto,sans-serif" font-size="12.5" font-weight="500" letter-spacing="-0.4" text-anchor="start" fill="#6B7280">Phone</text><text x="354" y="352" font-family="'Plus Jakarta Sans','Plus Jakarta Sans Variable',-apple-system,'Segoe UI',Roboto,sans-serif" font-size="12.5" font-weight="700" letter-spacing="-0.4" text-anchor="end" fill="#111827">+44 7700 900123</text><text x="36" y="374" font-family="'Plus Jakarta Sans','Plus Jakarta Sans Variable',-apple-system,'Segoe UI',Roboto,sans-serif" font-size="12.5" font-weight="500" letter-spacing="-0.4" text-anchor="start" fill="#6B7280">Pickup</text><text x="354" y="374" font-family="'Plus Jakarta Sans','Plus Jakarta Sans Variable',-apple-system,'Segoe UI',Roboto,sans-serif" font-size="12.5" font-weight="700" letter-spacing="-0.4" text-anchor="end" fill="#111827">12 Marina Rd, Lagos</text><text x="36" y="396" font-family="'Plus Jakarta Sans','Plus Jakarta Sans Variable',-apple-system,'Segoe UI',Roboto,sans-serif" font-size="12.5" font-weight="500" letter-spacing="-0.4" text-anchor="start" fill="#6B7280">Delivery</text><text x="354" y="396" font-family="'Plus Jakarta Sans','Plus Jakarta Sans Variable',-apple-system,'Segoe UI',Roboto,sans-serif" font-size="12.5" font-weight="700" letter-spacing="-0.4" text-anchor="end" fill="#111827">8 Camden High St, London</text><rect x="23" y="429" width="344" height="56" rx="18" ry="18" fill="#000000" fill-opacity="0.05"/><rect x="20" y="424" width="350" height="56" rx="18" ry="18" fill="#FFFFFF"/><text x="36" y="455.8" font-family="'Plus Jakarta Sans','Plus Jakarta Sans Variable',-apple-system,'Segoe UI',Roboto,sans-serif" font-size="13.5" font-weight="600" letter-spacing="-0.4" text-anchor="start" fill="#374151">Agreed Price</text><text x="354" y="455.6" font-family="'Plus Jakarta Sans','Plus Jakarta Sans Variable',-apple-system,'Segoe UI',Roboto,sans-serif" font-size="17" font-weight="800" letter-spacing="-0.4" text-anchor="end" fill="#5C4BFD">NGN 8,400</text><rect x="0" y="738" width="390" height="14" rx="0" ry="0" fill="url(#footShadow)"/><rect x="0" y="752" width="390" height="92" rx="0" ry="0" fill="#FFFFFF"/><rect x="20" y="770" width="169" height="52" rx="14" ry="14" fill="#FFFFFF" stroke="#5C4BFD" stroke-width="1.5"/><text x="104.5" y="800.8" font-family="'Plus Jakarta Sans','Plus Jakarta Sans Variable',-apple-system,'Segoe UI',Roboto,sans-serif" font-size="16" font-weight="600" letter-spacing="-0.4" text-anchor="middle" fill="#5C4BFD">Decline</text><rect x="201" y="770" width="169" height="52" rx="14" ry="14" fill="#5C4BFD"/><text x="285.5" y="800.8" font-family="'Plus Jakarta Sans','Plus Jakarta Sans Variable',-apple-system,'Segoe UI',Roboto,sans-serif" font-size="16" font-weight="600" letter-spacing="-0.4" text-anchor="middle" fill="#FFFFFF">Accept Request</text><rect x="128" y="835" width="134" height="5" rx="2.5" ry="2.5" fill="#0A0A0A" fill-opacity="0.85"/></svg>