<svg xmlns="http://www.w3.org/2000/svg" width="390" height="844" viewBox="0 0 390 844" font-family="'Plus Jakarta Sans','Plus Jakarta Sans Variable',-apple-system,'Segoe UI',Roboto,sans-serif"><defs><filter id="footShadow" x="-20%" y="-60%" width="140%" height="220%"><feGaussianBlur stdDeviation="6"/></filter><linearGradient id="footShadow" x1="0" y1="0" x2="0" y2="1"><stop offset="0" stop-color="#000" stop-opacity="0"/><stop offset="1" stop-color="#000" stop-opacity="0.06"/></linearGradient></defs><rect width="390" height="844" fill="#FFFFFF"/><g><text x="26" y="33" font-family="'Plus Jakarta Sans','Plus Jakarta Sans Variable',-apple-system,'Segoe UI',Roboto,sans-serif" font-size="15" font-weight="700" letter-spacing="0" text-anchor="start" fill="#0A0A0A">9:41</text><rect x="312" y="23" width="4" height="4" rx="1.2" ry="1.2" fill="#0A0A0A"/><rect x="318" y="20.6" width="4" height="6.4" rx="1.2" ry="1.2" fill="#0A0A0A"/><rect x="324" y="18.2" width="4" height="8.8" rx="1.2" ry="1.2" fill="#0A0A0A"/><rect x="330" y="15.8" width="4" height="11.2" rx="1.2" ry="1.2" fill="#0A0A0A"/><path d="M340 22 a8 8 0 0 1 11 0" fill="none" stroke="#0A0A0A" stroke-width="2" stroke-linecap="round" stroke-linejoin="round"/><path d="M342.6 25 a4.2 4.2 0 0 1 5.8 0" fill="none" stroke="#0A0A0A" stroke-width="2" stroke-linecap="round" stroke-linejoin="round"/><circle cx="345.5" cy="28" r="1.4" fill="#0A0A0A"/><rect x="360" y="19" width="20" height="10" rx="3" ry="3" fill="none" fill-opacity="0.45" stroke="#0A0A0A" stroke-width="1.2"/><rect x="362.5" y="21.2" width="13" height="5.6" rx="1.4" ry="1.4" fill="#0A0A0A"/><path d="M381 22 v4" fill="none" fill-opacity="0.45" stroke="#0A0A0A" stroke-width="1.8" stroke-linecap="round" stroke-linejoin="round"/></g><rect x="0" y="0" width="390" height="106" rx="0" ry="0" fill="#FFFFFF"/><g transform="translate(15,67) scale(0.92)"><g fill="none" stroke="#0A0A0A" stroke-width="1.85" stroke-linecap="round" stroke-linejoin="round"><polyline points="14,4 7,12 14,20"/></g></g><text x="58" y="83.4" font-family="'Plus Jakarta Sans','Plus Jakarta Sans Variable',-apple-system,'Segoe UI',Roboto,sans-serif" font-size="18" font-weight="700" letter-spacing="-0.4" text-anchor="start" fill="#0A0A0A">Track Shipment</text><rect x="20" y="124" width="350" height="52" rx="12" ry="12" fill="#EEEBFF"/><text x="36" y="142" font-family="'Plus Jakarta Sans','Plus Jakarta Sans Variable',-apple-system,'Segoe UI',Roboto,sans-serif" font-size="10" font-weight="800" letter-spacing="0.7" text-anchor="start" fill="#5C4BFD">TRACKING NUMBER</text><text x="36" y="162" font-family="'Plus Jakarta Sans','Plus Jakarta Sans Variable',-apple-system,'Segoe UI',Roboto,sans-serif" font-size="15" font-weight="800" letter-spacing="-0.4" text-anchor="start" fill="#4335E0">BAGO-12345678</text><rect x="20" y="192" width="350" height="58" rx="14" ry="14" fill="#EFF6FF"/><g transform="translate(37,210) scale(0.92)"><g fill="none" stroke="#3B82F6" stroke-width="1.85" stroke-linecap="round" stroke-linejoin="round"><rect x="2.5" y="6.5" width="12" height="9.5" rx="1.6"/><path d="M14.5 10 H18.4 L21 13 V16 H14.5 Z"/><circle cx="7" cy="18" r="1.9"/><circle cx="17" cy="18" r="1.9"/></g></g><text x="72" y="215.2" font-family="'Plus Jakarta Sans','Plus Jakarta Sans Variable',-apple-system,'Segoe UI',Roboto,sans-serif" font-size="11.5" font-weight="600" letter-spacing="-0.4" text-anchor="start" fill="#6B7280">Current Status</text><text x="72" y="234" font-family="'Plus Jakarta Sans','Plus Jakarta Sans Variable',-apple-system,'Segoe UI',Roboto,sans-serif" font-size="15" font-weight="800" letter-spacing="-0.4" text-anchor="start" fill="#3B82F6">In Transit</text><line x1="36" y1="296" x2="36" y2="320" stroke="#10B981" stroke-width="2.4" stroke-linecap="round"/><circle cx="36" cy="282" r="13" fill="#10B981"/><g transform="translate(29,275) scale(0.58)"><g fill="none" stroke="#FFFFFF" stroke-width="2.6" stroke-linecap="round" stroke-linejoin="round"><polyline points="4,13 10,18 20,6"/></g></g><text x="62" y="285.2" font-family="'Plus Jakarta Sans','Plus Jakarta Sans Variable',-apple-system,'Segoe UI',Roboto,sans-serif" font-size="14" font-weight="700" letter-spacing="-0.4" text-anchor="start" fill="#111827">Pending</text><line x1="36" y1="348" x2="36" y2="372" stroke="#10B981" stroke-width="2.4" stroke-linecap="round"/><circle cx="36" cy="334" r="13" fill="#10B981"/><g transform="translate(29,327) scale(0.58)"><g fill="none" stroke="#FFFFFF" stroke-width="2.6" stroke-linecap="round" stroke-linejoin="round"><polyline points="4,13 10,18 20,6"/></g></g><text x="62" y="337.2" font-family="'Plus Jakarta Sans','Plus Jakarta Sans Variable',-apple-system,'Segoe UI',Roboto,sans-serif" font-size="14" font-weight="700" letter-spacing="-0.4" text-anchor="start" fill="#111827">Picked Up</text><line x1="36" y1="400" x2="36" y2="424" stroke="#E5E7EB" stroke-width="2.4" stroke-linecap="round"/><circle cx="36" cy="386" r="13" fill="#10B981"/><g transform="translate(29,379) scale(0.58)"><g fill="none" stroke="#FFFFFF" stroke-width="2.6" stroke-linecap="round" stroke-linejoin="round"><polyline points="4,13 10,18 20,6"/></g></g><text x="62" y="389.2" font-family="'Plus Jakarta Sans','Plus Jakarta Sans Variable',-apple-system,'Segoe UI',Roboto,sans-serif" font-size="14" font-weight="700" letter-spacing="-0.4" text-anchor="start" fill="#111827">In Transit</text><text x="62" y="403.2" font-family="'Plus Jakarta Sans','Plus Jakarta Sans Variable',-apple-system,'Segoe UI',Roboto,sans-serif" font-size="11.5" font-weight="500" letter-spacing="-0.4" text-anchor="start" fill="#6B7280">Lagos sorting hub  •  Today 09:24</text><line x1="36" y1="452" x2="36" y2="476" stroke="#E5E7EB" stroke-width="2.4" stroke-linecap="round"/><circle cx="36" cy="438" r="13" fill="#FFFFFF" stroke="#D1D5DB" stroke-width="2"/><g transform="translate(29.5,431.5) scale(0.54)"><g fill="none" stroke="#9CA3AF" stroke-width="1.85" stroke-linecap="round" stroke-linejoin="round"><circle cx="12" cy="12" r="8.5"/><polyline points="12,7 12,12 16,14.2"/></g></g><text x="62" y="441.2" font-family="'Plus Jakarta Sans','Plus Jakarta Sans Variable',-apple-system,'Segoe UI',Roboto,sans-serif" font-size="14" font-weight="700" letter-spacing="-0.4" text-anchor="start" fill="#9CA3AF">Out for Delivery</text><circle cx="36" cy="490" r="13" fill="#FFFFFF" stroke="#D1D5DB" stroke-width="2"/><g transform="translate(29.5,483.5) scale(0.54)"><g fill="none" stroke="#9CA3AF" stroke-width="1.85" stroke-linecap="round" stroke-linejoin="round"><circle cx="12" cy="12" r="8.5"/><polyline points="12,7 12,12 16,14.2"/></g></g><text x="62" y="493.2" font-family="'Plus Jakarta Sans','Plus Jakarta Sans Variable',-apple-system,'Segoe UI',Roboto,sans-serif" font-size="14" font-weight="700" letter-spacing="-0.4" text-anchor="start" fill="#9CA3AF">Delivered</text><text x="20" y="546" font-family="'Plus Jakarta Sans','Plus Jakarta Sans Variable',-apple-system,'Segoe UI',Roboto,sans-serif" font-size="12.5" font-weight="600" letter-spacing="-0.4" text-anchor="start" fill="#4B5563">Estimated delivery: 26 May 2026</text><rect x="128" y="835" width="134" height="5" rx="2.5" ry="2.5" fill="#0A0A0A" fill-opacity="0.85"/></svg>