<svg xmlns="http://www.w3.org/2000/svg" width="390" height="844" viewBox="0 0 390 844" font-family="'Plus Jakarta Sans','Plus Jakarta Sans Variable',-apple-system,'Segoe UI',Roboto,sans-serif"><defs><filter id="footShadow" x="-20%" y="-60%" width="140%" height="220%"><feGaussianBlur stdDeviation="6"/></filter><linearGradient id="footShadow" x1="0" y1="0" x2="0" y2="1"><stop offset="0" stop-color="#000" stop-opacity="0"/><stop offset="1" stop-color="#000" stop-opacity="0.06"/></linearGradient><linearGradient id="termG" x1="0" y1="0" x2="1" y2="1"><stop offset="0" stop-color="#6E5BFF"/><stop offset="1" stop-color="#4A3BD8"/></linearGradient></defs><rect width="390" height="844" fill="#F8F8FC"/><g><text x="26" y="33" font-family="'Plus Jakarta Sans','Plus Jakarta Sans Variable',-apple-system,'Segoe UI',Roboto,sans-serif" font-size="15" font-weight="700" letter-spacing="0" text-anchor="start" fill="#0A0A0A">9:41</text><rect x="312" y="23" width="4" height="4" rx="1.2" ry="1.2" fill="#0A0A0A"/><rect x="318" y="20.6" width="4" height="6.4" rx="1.2" ry="1.2" fill="#0A0A0A"/><rect x="324" y="18.2" width="4" height="8.8" rx="1.2" ry="1.2" fill="#0A0A0A"/><rect x="330" y="15.8" width="4" height="11.2" rx="1.2" ry="1.2" fill="#0A0A0A"/><path d="M340 22 a8 8 0 0 1 11 0" fill="none" stroke="#0A0A0A" stroke-width="2" stroke-linecap="round" stroke-linejoin="round"/><path d="M342.6 25 a4.2 4.2 0 0 1 5.8 0" fill="none" stroke="#0A0A0A" stroke-width="2" stroke-linecap="round" stroke-linejoin="round"/><circle cx="345.5" cy="28" r="1.4" fill="#0A0A0A"/><rect x="360" y="19" width="20" height="10" rx="3" ry="3" fill="none" fill-opacity="0.45" stroke="#0A0A0A" stroke-width="1.2"/><rect x="362.5" y="21.2" width="13" height="5.6" rx="1.4" ry="1.4" fill="#0A0A0A"/><path d="M381 22 v4" fill="none" fill-opacity="0.45" stroke="#0A0A0A" stroke-width="1.8" stroke-linecap="round" stroke-linejoin="round"/></g><rect x="0" y="0" width="390" height="106" rx="0" ry="0" fill="#FFFFFF"/><g transform="translate(17,67) scale(0.92)"><g fill="none" stroke="#0A0A0A" stroke-width="1.85" stroke-linecap="round" stroke-linejoin="round"><line x1="6" y1="6" x2="18" y2="18"/><line x1="18" y1="6" x2="6" y2="18"/></g></g><text x="195" y="82.6" font-family="'Plus Jakarta Sans','Plus Jakarta Sans Variable',-apple-system,'Segoe UI',Roboto,sans-serif" font-size="17" font-weight="700" letter-spacing="-0.4" text-anchor="middle" fill="#0A0A0A">Agreement &amp; Shipping</text><rect x="20" y="122" width="350" height="96" rx="20" ry="20" fill="url(#termG)"/><rect x="38" y="144" width="48" height="48" rx="13" ry="13" fill="rgba(255,255,255,0.2)"/><g transform="translate(50,156) scale(1)"><g fill="none" stroke="#FFFFFF" stroke-width="1.85" stroke-linecap="round" stroke-linejoin="round"><rect x="2.5" y="6.5" width="12" height="9.5" rx="1.6"/><path d="M14.5 10 H18.4 L21 13 V16 H14.5 Z"/><circle cx="7" cy="18" r="1.9"/><circle cx="17" cy="18" r="1.9"/></g></g><text x="102" y="162" font-family="'Plus Jakarta Sans','Plus Jakarta Sans Variable',-apple-system,'Segoe UI',Roboto,sans-serif" font-size="15" font-weight="800" letter-spacing="-0.4" text-anchor="start" fill="#FFFFFF">By continuing, I confirm:</text><text x="102" y="181.6" font-family="'Plus Jakarta Sans','Plus Jakarta Sans Variable',-apple-system,'Segoe UI',Roboto,sans-serif" font-size="12" font-weight="500" letter-spacing="-0.4" text-anchor="start" fill="rgba(255,255,255,0.8)">Read &amp; confirm each statement</text><rect x="20" y="234" width="350" height="80" rx="16" ry="16" fill="#FFFFFF" stroke="#E5E7EB" stroke-width="1"/><rect x="20" y="234" width="350" height="80" rx="16" ry="16" fill="none" stroke="#10B981" stroke-width="1.6"/><rect x="36" y="252" width="40" height="40" rx="11" ry="11" fill="#FEE2E2"/><g transform="translate(46.5,262.5) scale(0.79)"><g fill="none" stroke="#EF4444" stroke-width="1.85" stroke-linecap="round" stroke-linejoin="round"><circle cx="12" cy="12" r="8.5"/><line x1="6.2" y1="6.2" x2="17.8" y2="17.8"/></g></g><text x="88" y="262.8" font-family="'Plus Jakarta Sans','Plus Jakarta Sans Variable',-apple-system,'Segoe UI',Roboto,sans-serif" font-size="13.5" font-weight="800" letter-spacing="-0.4" text-anchor="start" fill="#0A0A0A">No prohibited items</text><text x="88" y="279.2" font-family="'Plus Jakarta Sans','Plus Jakarta Sans Variable',-apple-system,'Segoe UI',Roboto,sans-serif" font-size="11.5" font-weight="500" letter-spacing="-0.4" text-anchor="start" fill="#6B7280">My shipment does not contain</text><text x="88" y="294.2" font-family="'Plus Jakarta Sans','Plus Jakarta Sans Variable',-apple-system,'Segoe UI',Roboto,sans-serif" font-size="11.5" font-weight="500" letter-spacing="-0.4" text-anchor="start" fill="#6B7280">prohibited or restricted items.</text><circle cx="338" cy="274" r="13" fill="#10B981"/><g transform="translate(331,267) scale(0.58)"><g fill="none" stroke="#FFFFFF" stroke-width="2.6" stroke-linecap="round" stroke-linejoin="round"><polyline points="4,13 10,18 20,6"/></g></g><rect x="20" y="326" width="350" height="80" rx="16" ry="16" fill="#FFFFFF" stroke="#E5E7EB" stroke-width="1"/><rect x="20" y="326" width="350" height="80" rx="16" ry="16" fill="none" stroke="#10B981" stroke-width="1.6"/><rect x="36" y="344" width="40" height="40" rx="11" ry="11" fill="#EEEBFF"/><g transform="translate(46.5,354.5) scale(0.79)"><g fill="none" stroke="#5C4BFD" stroke-width="1.85" stroke-linecap="round" stroke-linejoin="round"><circle cx="11" cy="11" r="7"/><line x1="16" y1="16" x2="21" y2="21"/></g></g><text x="88" y="354.8" font-family="'Plus Jakarta Sans','Plus Jakarta Sans Variable',-apple-system,'Segoe UI',Roboto,sans-serif" font-size="13.5" font-weight="800" letter-spacing="-0.4" text-anchor="start" fill="#0A0A0A">Open to inspection</text><text x="88" y="371.2" font-family="'Plus Jakarta Sans','Plus Jakarta Sans Variable',-apple-system,'Segoe UI',Roboto,sans-serif" font-size="11.5" font-weight="500" letter-spacing="-0.4" text-anchor="start" fill="#6B7280">I understand the traveler may</text><text x="88" y="386.2" font-family="'Plus Jakarta Sans','Plus Jakarta Sans Variable',-apple-system,'Segoe UI',Roboto,sans-serif" font-size="11.5" font-weight="500" letter-spacing="-0.4" text-anchor="start" fill="#6B7280">inspect contents for safety.</text><circle cx="338" cy="366" r="13" fill="#10B981"/><g transform="translate(331,359) scale(0.58)"><g fill="none" stroke="#FFFFFF" stroke-width="2.6" stroke-linecap="round" stroke-linejoin="round"><polyline points="4,13 10,18 20,6"/></g></g><rect x="20" y="418" width="350" height="80" rx="16" ry="16" fill="#FFFFFF" stroke="#E5E7EB" stroke-width="1"/><rect x="36" y="436" width="40" height="40" rx="11" ry="11" fill="#FEF3C7"/><g transform="translate(46.5,446.5) scale(0.79)"><g fill="none" stroke="#FFC107" stroke-width="1.85" stroke-linecap="round" stroke-linejoin="round"><path d="M7 3.5 H14 L18.5 8 V20.5 H7 Z"/><polyline points="13.6,3.7 13.6,8.3 18.3,8.3"/><line x1="10" y1="13" x2="15.5" y2="13"/><line x1="10" y1="16.3" x2="15.5" y2="16.3"/></g></g><text x="88" y="446.8" font-family="'Plus Jakarta Sans','Plus Jakarta Sans Variable',-apple-system,'Segoe UI',Roboto,sans-serif" font-size="13.5" font-weight="800" letter-spacing="-0.4" text-anchor="start" fill="#0A0A0A">Bago guidelines</text><text x="88" y="463.2" font-family="'Plus Jakarta Sans','Plus Jakarta Sans Variable',-apple-system,'Segoe UI',Roboto,sans-serif" font-size="11.5" font-weight="500" letter-spacing="-0.4" text-anchor="start" fill="#6B7280">I agree to follow Bago&#x27;s</text><text x="88" y="478.2" font-family="'Plus Jakarta Sans','Plus Jakarta Sans Variable',-apple-system,'Segoe UI',Roboto,sans-serif" font-size="11.5" font-weight="500" letter-spacing="-0.4" text-anchor="start" fill="#6B7280">guidelines and take</text><text x="88" y="493.2" font-family="'Plus Jakarta Sans','Plus Jakarta Sans Variable',-apple-system,'Segoe UI',Roboto,sans-serif" font-size="11.5" font-weight="500" letter-spacing="-0.4" text-anchor="start" fill="#6B7280">responsibility.</text><circle cx="338" cy="458" r="13" fill="#FFFFFF" stroke="#D1D5DB" stroke-width="2"/><rect x="20" y="514" width="350" height="6" rx="3" ry="3" fill="#E5E7EB"/><rect x="20" y="514" width="233.33" height="6" rx="3" ry="3" fill="#5C4BFD"/><text x="20" y="537.6" font-family="'Plus Jakarta Sans','Plus Jakarta Sans Variable',-apple-system,'Segoe UI',Roboto,sans-serif" font-size="12" font-weight="600" letter-spacing="-0.4" text-anchor="start" fill="#6B7280">2 of 3 confirmed</text><rect x="0" y="738" width="390" height="14" rx="0" ry="0" fill="url(#footShadow)"/><rect x="0" y="752" width="390" height="92" rx="0" ry="0" fill="#FFFFFF"/><rect x="20" y="770" width="350" height="52" rx="14" ry="14" fill="#5C4BFD"/><text x="195" y="800.8" font-family="'Plus Jakarta Sans','Plus Jakarta Sans Variable',-apple-system,'Segoe UI',Roboto,sans-serif" font-size="16" font-weight="600" letter-spacing="-0.4" text-anchor="middle" fill="#FFFFFF">Accept &amp; Continue</text><rect x="128" y="835" width="134" height="5" rx="2.5" ry="2.5" fill="#0A0A0A" fill-opacity="0.85"/></svg>