<svg xmlns="http://www.w3.org/2000/svg" width="390" height="844" viewBox="0 0 390 844" font-family="'Plus Jakarta Sans','Plus Jakarta Sans Variable',-apple-system,'Segoe UI',Roboto,sans-serif"><defs><filter id="footShadow" x="-20%" y="-60%" width="140%" height="220%"><feGaussianBlur stdDeviation="6"/></filter><linearGradient id="footShadow" x1="0" y1="0" x2="0" y2="1"><stop offset="0" stop-color="#000" stop-opacity="0"/><stop offset="1" stop-color="#000" stop-opacity="0.06"/></linearGradient></defs><rect width="390" height="844" fill="#F8F8FC"/><g><text x="26" y="33" font-family="'Plus Jakarta Sans','Plus Jakarta Sans Variable',-apple-system,'Segoe UI',Roboto,sans-serif" font-size="15" font-weight="700" letter-spacing="0" text-anchor="start" fill="#0A0A0A">9:41</text><rect x="312" y="23" width="4" height="4" rx="1.2" ry="1.2" fill="#0A0A0A"/><rect x="318" y="20.6" width="4" height="6.4" rx="1.2" ry="1.2" fill="#0A0A0A"/><rect x="324" y="18.2" width="4" height="8.8" rx="1.2" ry="1.2" fill="#0A0A0A"/><rect x="330" y="15.8" width="4" height="11.2" rx="1.2" ry="1.2" fill="#0A0A0A"/><path d="M340 22 a8 8 0 0 1 11 0" fill="none" stroke="#0A0A0A" stroke-width="2" stroke-linecap="round" stroke-linejoin="round"/><path d="M342.6 25 a4.2 4.2 0 0 1 5.8 0" fill="none" stroke="#0A0A0A" stroke-width="2" stroke-linecap="round" stroke-linejoin="round"/><circle cx="345.5" cy="28" r="1.4" fill="#0A0A0A"/><rect x="360" y="19" width="20" height="10" rx="3" ry="3" fill="none" fill-opacity="0.45" stroke="#0A0A0A" stroke-width="1.2"/><rect x="362.5" y="21.2" width="13" height="5.6" rx="1.4" ry="1.4" fill="#0A0A0A"/><path d="M381 22 v4" fill="none" fill-opacity="0.45" stroke="#0A0A0A" stroke-width="1.8" stroke-linecap="round" stroke-linejoin="round"/></g><rect x="0" y="0" width="390" height="146" rx="0" ry="0" fill="#FFFFFF"/><text x="20" y="77.2" font-family="'Plus Jakarta Sans','Plus Jakarta Sans Variable',-apple-system,'Segoe UI',Roboto,sans-serif" font-size="24" font-weight="800" letter-spacing="-0.4" text-anchor="start" fill="#0A0A0A">My Trips</text><rect x="20" y="102" width="86" height="34" rx="17" ry="17" fill="#5C4BFD"/><text x="63" y="121.4" font-family="'Plus Jakarta Sans','Plus Jakarta Sans Variable',-apple-system,'Segoe UI',Roboto,sans-serif" font-size="13" font-weight="700" letter-spacing="-0.4" text-anchor="middle" fill="#FFFFFF">Active</text><text x="150" y="121.4" font-family="'Plus Jakarta Sans','Plus Jakarta Sans Variable',-apple-system,'Segoe UI',Roboto,sans-serif" font-size="13" font-weight="700" letter-spacing="-0.4" text-anchor="middle" fill="#6B7280">History</text><rect x="20" y="162" width="81.5" height="56" rx="12" ry="12" fill="#FFFFFF" stroke="#E5E7EB" stroke-width="1"/><text x="60.75" y="186" font-family="'Plus Jakarta Sans','Plus Jakarta Sans Variable',-apple-system,'Segoe UI',Roboto,sans-serif" font-size="15" font-weight="800" letter-spacing="-0.4" text-anchor="middle" fill="#5C4BFD">4</text><text x="60.75" y="203.4" font-family="'Plus Jakarta Sans','Plus Jakarta Sans Variable',-apple-system,'Segoe UI',Roboto,sans-serif" font-size="10.5" font-weight="600" letter-spacing="-0.4" text-anchor="middle" fill="#6B7280">Trips</text><rect x="109.5" y="162" width="81.5" height="56" rx="12" ry="12" fill="#FFFFFF" stroke="#E5E7EB" stroke-width="1"/><text x="150.25" y="186" font-family="'Plus Jakarta Sans','Plus Jakarta Sans Variable',-apple-system,'Segoe UI',Roboto,sans-serif" font-size="15" font-weight="800" letter-spacing="-0.4" text-anchor="middle" fill="#5C4BFD">38kg</text><text x="150.25" y="203.4" font-family="'Plus Jakarta Sans','Plus Jakarta Sans Variable',-apple-system,'Segoe UI',Roboto,sans-serif" font-size="10.5" font-weight="600" letter-spacing="-0.4" text-anchor="middle" fill="#6B7280">Booked</text><rect x="199" y="162" width="81.5" height="56" rx="12" ry="12" fill="#FFFFFF" stroke="#E5E7EB" stroke-width="1"/><text x="239.75" y="186" font-family="'Plus Jakarta Sans','Plus Jakarta Sans Variable',-apple-system,'Segoe UI',Roboto,sans-serif" font-size="15" font-weight="800" letter-spacing="-0.4" text-anchor="middle" fill="#5C4BFD">62kg</text><text x="239.75" y="203.4" font-family="'Plus Jakarta Sans','Plus Jakarta Sans Variable',-apple-system,'Segoe UI',Roboto,sans-serif" font-size="10.5" font-weight="600" letter-spacing="-0.4" text-anchor="middle" fill="#6B7280">Left</text><rect x="288.5" y="162" width="81.5" height="56" rx="12" ry="12" fill="#FFFFFF" stroke="#E5E7EB" stroke-width="1"/><text x="329.25" y="186" font-family="'Plus Jakarta Sans','Plus Jakarta Sans Variable',-apple-system,'Segoe UI',Roboto,sans-serif" font-size="15" font-weight="800" letter-spacing="-0.4" text-anchor="middle" fill="#5C4BFD">2</text><text x="329.25" y="203.4" font-family="'Plus Jakarta Sans','Plus Jakarta Sans Variable',-apple-system,'Segoe UI',Roboto,sans-serif" font-size="10.5" font-weight="600" letter-spacing="-0.4" text-anchor="middle" fill="#6B7280">Active</text><text x="22" y="245.2" font-family="'Plus Jakarta Sans','Plus Jakarta Sans Variable',-apple-system,'Segoe UI',Roboto,sans-serif" font-size="11.5" font-weight="800" letter-spacing="1.0" text-anchor="start" fill="#9CA3AF">INCOMING REQUESTS</text><rect x="23" y="265" width="344" height="74" rx="16" ry="16" fill="#000000" fill-opacity="0.05"/><rect x="20" y="260" width="350" height="74" rx="16" ry="16" fill="#FFFFFF"/><circle cx="56" cy="297" r="20" fill="#EEEBFF"/><text x="56" y="302" font-family="'Plus Jakarta Sans','Plus Jakarta Sans Variable',-apple-system,'Segoe UI',Roboto,sans-serif" font-size="15" font-weight="800" letter-spacing="-0.4" text-anchor="middle" fill="#5C4BFD">S</text><text x="86" y="289.2" font-family="'Plus Jakarta Sans','Plus Jakarta Sans Variable',-apple-system,'Segoe UI',Roboto,sans-serif" font-size="14" font-weight="700" letter-spacing="-0.4" text-anchor="start" fill="#0A0A0A">Sophie M.</text><text x="86" y="306.6" font-family="'Plus Jakarta Sans','Plus Jakarta Sans Variable',-apple-system,'Segoe UI',Roboto,sans-serif" font-size="12" font-weight="500" letter-spacing="-0.4" text-anchor="start" fill="#6B7280">Wedding gift box</text><text x="354" y="297.4" font-family="'Plus Jakarta Sans','Plus Jakarta Sans Variable',-apple-system,'Segoe UI',Roboto,sans-serif" font-size="13" font-weight="800" letter-spacing="-0.4" text-anchor="end" fill="#5C4BFD">NGN 8,400</text><rect x="23" y="351" width="344" height="74" rx="16" ry="16" fill="#000000" fill-opacity="0.05"/><rect x="20" y="346" width="350" height="74" rx="16" ry="16" fill="#FFFFFF"/><circle cx="56" cy="383" r="20" fill="#EEEBFF"/><text x="56" y="388" font-family="'Plus Jakarta Sans','Plus Jakarta Sans Variable',-apple-system,'Segoe UI',Roboto,sans-serif" font-size="15" font-weight="800" letter-spacing="-0.4" text-anchor="middle" fill="#5C4BFD">J</text><text x="86" y="375.2" font-family="'Plus Jakarta Sans','Plus Jakarta Sans Variable',-apple-system,'Segoe UI',Roboto,sans-serif" font-size="14" font-weight="700" letter-spacing="-0.4" text-anchor="start" fill="#0A0A0A">James K.</text><text x="86" y="392.6" font-family="'Plus Jakarta Sans','Plus Jakarta Sans Variable',-apple-system,'Segoe UI',Roboto,sans-serif" font-size="12" font-weight="500" letter-spacing="-0.4" text-anchor="start" fill="#6B7280">Laptop &amp; charger</text><text x="354" y="383.4" font-family="'Plus Jakarta Sans','Plus Jakarta Sans Variable',-apple-system,'Segoe UI',Roboto,sans-serif" font-size="13" font-weight="800" letter-spacing="-0.4" text-anchor="end" fill="#5C4BFD">NGN 15,200</text><text x="22" y="445.2" font-family="'Plus Jakarta Sans','Plus Jakarta Sans Variable',-apple-system,'Segoe UI',Roboto,sans-serif" font-size="11.5" font-weight="800" letter-spacing="1.0" text-anchor="start" fill="#9CA3AF">MY TRIPS</text><rect x="23" y="465" width="344" height="132" rx="24" ry="24" fill="#000" fill-opacity="0.05"/><rect x="20" y="460" width="350" height="132" rx="24" ry="24" fill="#FFFFFF" stroke="#E5E7EB" stroke-width="1"/><text x="40" y="495.6" font-family="'Plus Jakarta Sans','Plus Jakarta Sans Variable',-apple-system,'Segoe UI',Roboto,sans-serif" font-size="17" font-weight="800" letter-spacing="-0.4" text-anchor="start" fill="#0A0A0A">Lagos</text><text x="40" y="513.6" font-family="'Plus Jakarta Sans','Plus Jakarta Sans Variable',-apple-system,'Segoe UI',Roboto,sans-serif" font-size="12" font-weight="500" letter-spacing="-0.4" text-anchor="start" fill="#6B7280">Nigeria</text><text x="350" y="495.6" font-family="'Plus Jakarta Sans','Plus Jakarta Sans Variable',-apple-system,'Segoe UI',Roboto,sans-serif" font-size="17" font-weight="800" letter-spacing="-0.4" text-anchor="end" fill="#0A0A0A">London</text><text x="350" y="513.6" font-family="'Plus Jakarta Sans','Plus Jakarta Sans Variable',-apple-system,'Segoe UI',Roboto,sans-serif" font-size="12" font-weight="500" letter-spacing="-0.4" text-anchor="end" fill="#6B7280">United Kingdom</text><circle cx="195" cy="492" r="18" fill="#5C4BFD"/><g transform="translate(186,483) scale(0.75)"><g fill="none" stroke="#FFFFFF" stroke-width="1.85" stroke-linecap="round" stroke-linejoin="round"><path d="M21 13 L13.5 11.8 L9.5 19 L7.6 18.6 L9.8 11 L4.2 10.1 L2.8 11.9 L1.4 11.6 L2.2 8.6 L1.8 5.6 L3.2 5.9 L4.2 8 L9.8 8.9 L9.4 1.2 L11.3 1.6 L14.4 8.8 L21.8 10 Z"/></g></g><circle cx="44" cy="540" r="6" fill="none" stroke="#5C4BFD" stroke-width="2.4"/><circle cx="44" cy="540" r="2.4" fill="#5C4BFD"/><line x1="54" y1="540" x2="332" y2="540" stroke="#5C4BFD" stroke-width="2" stroke-linecap="round" stroke-dasharray="1.5 5"/><g transform="translate(335,529) scale(0.75)"><g fill="none" stroke="#EF4444" stroke-width="1.85" stroke-linecap="round" stroke-linejoin="round"><path d="M12 21.5 C6.5 15.5 5 12.3 5 9 a7 7 0 0 1 14 0 c0 3.3 -1.5 6.5 -7 12.5 Z"/><circle cx="12" cy="9" r="2.6"/></g></g><text x="40" y="568.8" font-family="'Plus Jakarta Sans','Plus Jakarta Sans Variable',-apple-system,'Segoe UI',Roboto,sans-serif" font-size="11" font-weight="600" letter-spacing="-0.4" text-anchor="start" fill="#9CA3AF">Origin</text><rect x="164.2" y="556" width="61.6" height="22" rx="11" ry="11" fill="#EEEBFF"/><text x="195" y="570.3" font-family="'Plus Jakarta Sans','Plus Jakarta Sans Variable',-apple-system,'Segoe UI',Roboto,sans-serif" font-size="11" font-weight="700" letter-spacing="-0.4" text-anchor="middle" fill="#5C4BFD">Flight</text><text x="350" y="568.8" font-family="'Plus Jakarta Sans','Plus Jakarta Sans Variable',-apple-system,'Segoe UI',Roboto,sans-serif" font-size="11" font-weight="600" letter-spacing="-0.4" text-anchor="end" fill="#9CA3AF">Destination</text><circle cx="340" cy="724" r="28" fill="#5C4BFD"/><g transform="translate(328,712) scale(1)"><g fill="none" stroke="#FFFFFF" stroke-width="2.6" stroke-linecap="round" stroke-linejoin="round"><line x1="12" y1="5" x2="12" y2="19"/><line x1="5" y1="12" x2="19" y2="12"/></g></g><rect x="0" y="760" width="390" height="84" rx="0" ry="0" fill="#FFFFFF"/><line x1="0" y1="760" x2="390" y2="760" stroke="#E5E7EB" stroke-width="1" stroke-linecap="round"/><g transform="translate(36.25,769.5) scale(1.04)"><g fill="none" stroke="#9CA3AF" stroke-width="2" stroke-linecap="round" stroke-linejoin="round"><path d="M3.5 11.5 L12 4 L20.5 11.5"/><path d="M6 10 V20 H18 V10"/></g></g><text x="48.75" y="806.8" font-family="'Plus Jakarta Sans','Plus Jakarta Sans Variable',-apple-system,'Segoe UI',Roboto,sans-serif" font-size="11" font-weight="600" letter-spacing="-0.4" text-anchor="middle" fill="#9CA3AF">Home</text><g transform="translate(133.75,769.5) scale(1.04)"><g fill="none" stroke="#0A0A0A" stroke-width="2" stroke-linecap="round" stroke-linejoin="round"><rect x="6" y="8" width="12" height="12.5" rx="2.5"/><path d="M9.3 8 V5.5 a1.4 1.4 0 0 1 1.4 -1.4 H13.3 a1.4 1.4 0 0 1 1.4 1.4 V8"/><line x1="11" y1="11" x2="11" y2="17"/></g></g><text x="146.25" y="806.8" font-family="'Plus Jakarta Sans','Plus Jakarta Sans Variable',-apple-system,'Segoe UI',Roboto,sans-serif" font-size="11" font-weight="600" letter-spacing="-0.4" text-anchor="middle" fill="#0A0A0A">Trips</text><g transform="translate(231.25,769.5) scale(1.04)"><g fill="none" stroke="#9CA3AF" stroke-width="2" stroke-linecap="round" stroke-linejoin="round"><path d="M5 4 H19 a2 2 0 0 1 2 2 V14 a2 2 0 0 1 -2 2 H10 l-4 4 V16 H5 a2 2 0 0 1 -2 -2 V6 a2 2 0 0 1 2 -2 Z"/></g></g><text x="243.75" y="806.8" font-family="'Plus Jakarta Sans','Plus Jakarta Sans Variable',-apple-system,'Segoe UI',Roboto,sans-serif" font-size="11" font-weight="600" letter-spacing="-0.4" text-anchor="middle" fill="#9CA3AF">Messages</text><g transform="translate(328.75,769.5) scale(1.04)"><g fill="none" stroke="#9CA3AF" stroke-width="2" stroke-linecap="round" stroke-linejoin="round"><circle cx="12" cy="8" r="4"/><path d="M5 20 c0 -4.2 3.2 -6.3 7 -6.3 s7 2.1 7 6.3"/></g></g><text x="341.25" y="806.8" font-family="'Plus Jakarta Sans','Plus Jakarta Sans Variable',-apple-system,'Segoe UI',Roboto,sans-serif" font-size="11" font-weight="600" letter-spacing="-0.4" text-anchor="middle" fill="#9CA3AF">Profile</text><rect x="128" y="835" width="134" height="5" rx="2.5" ry="2.5" fill="#0A0A0A" fill-opacity="0.85"/></svg>