<svg xmlns="http://www.w3.org/2000/svg" width="390" height="844" viewBox="0 0 390 844" font-family="'Plus Jakarta Sans','Plus Jakarta Sans Variable',-apple-system,'Segoe UI',Roboto,sans-serif"><defs><filter id="footShadow" x="-20%" y="-60%" width="140%" height="220%"><feGaussianBlur stdDeviation="6"/></filter><linearGradient id="footShadow" x1="0" y1="0" x2="0" y2="1"><stop offset="0" stop-color="#000" stop-opacity="0"/><stop offset="1" stop-color="#000" stop-opacity="0.06"/></linearGradient></defs><rect width="390" height="844" fill="#FFFFFF"/><g><text x="26" y="33" font-family="'Plus Jakarta Sans','Plus Jakarta Sans Variable',-apple-system,'Segoe UI',Roboto,sans-serif" font-size="15" font-weight="700" letter-spacing="0" text-anchor="start" fill="#0A0A0A">9:41</text><rect x="312" y="23" width="4" height="4" rx="1.2" ry="1.2" fill="#0A0A0A"/><rect x="318" y="20.6" width="4" height="6.4" rx="1.2" ry="1.2" fill="#0A0A0A"/><rect x="324" y="18.2" width="4" height="8.8" rx="1.2" ry="1.2" fill="#0A0A0A"/><rect x="330" y="15.8" width="4" height="11.2" rx="1.2" ry="1.2" fill="#0A0A0A"/><path d="M340 22 a8 8 0 0 1 11 0" fill="none" stroke="#0A0A0A" stroke-width="2" stroke-linecap="round" stroke-linejoin="round"/><path d="M342.6 25 a4.2 4.2 0 0 1 5.8 0" fill="none" stroke="#0A0A0A" stroke-width="2" stroke-linecap="round" stroke-linejoin="round"/><circle cx="345.5" cy="28" r="1.4" fill="#0A0A0A"/><rect x="360" y="19" width="20" height="10" rx="3" ry="3" fill="none" fill-opacity="0.45" stroke="#0A0A0A" stroke-width="1.2"/><rect x="362.5" y="21.2" width="13" height="5.6" rx="1.4" ry="1.4" fill="#0A0A0A"/><path d="M381 22 v4" fill="none" fill-opacity="0.45" stroke="#0A0A0A" stroke-width="1.8" stroke-linecap="round" stroke-linejoin="round"/></g><rect x="20" y="64" width="44" height="44" rx="13" ry="13" fill="#F3F4F6"/><g transform="translate(32,76) scale(0.83)"><g fill="none" stroke="#0A0A0A" stroke-width="1.85" stroke-linecap="round" stroke-linejoin="round"><polyline points="13,5 6,12 13,19"/><line x1="6.5" y1="12" x2="20" y2="12"/></g></g><text x="76" y="91.4" font-family="'Plus Jakarta Sans','Plus Jakarta Sans Variable',-apple-system,'Segoe UI',Roboto,sans-serif" font-size="18" font-weight="800" letter-spacing="-0.4" text-anchor="start" fill="#0A0A0A">Post a Trip</text><rect x="20" y="120" width="350" height="5" rx="2.5" ry="2.5" fill="#F3F4F6"/><rect x="20" y="120" width="322" height="5" rx="2.5" ry="2.5" fill="#5C4BFD"/><text x="20" y="161.6" font-family="'Plus Jakarta Sans','Plus Jakarta Sans Variable',-apple-system,'Segoe UI',Roboto,sans-serif" font-size="22" font-weight="800" letter-spacing="-0.4" text-anchor="start" fill="#0A0A0A">Review your trip</text><text x="20" y="187" font-family="'Plus Jakarta Sans','Plus Jakarta Sans Variable',-apple-system,'Segoe UI',Roboto,sans-serif" font-size="13" font-weight="400" letter-spacing="-0.4" text-anchor="start" fill="#6B7280">Check everything looks right before publishing.</text><rect x="23" y="217.1" width="344" height="132" rx="24" ry="24" fill="#000" fill-opacity="0.05"/><rect x="20" y="212.1" width="350" height="132" rx="24" ry="24" fill="#FFFFFF" stroke="#E5E7EB" stroke-width="1"/><text x="40" y="247.7" font-family="'Plus Jakarta Sans','Plus Jakarta Sans Variable',-apple-system,'Segoe UI',Roboto,sans-serif" font-size="17" font-weight="800" letter-spacing="-0.4" text-anchor="start" fill="#0A0A0A">Lagos</text><text x="40" y="265.7" font-family="'Plus Jakarta Sans','Plus Jakarta Sans Variable',-apple-system,'Segoe UI',Roboto,sans-serif" font-size="12" font-weight="500" letter-spacing="-0.4" text-anchor="start" fill="#6B7280">Nigeria</text><text x="350" y="247.7" font-family="'Plus Jakarta Sans','Plus Jakarta Sans Variable',-apple-system,'Segoe UI',Roboto,sans-serif" font-size="17" font-weight="800" letter-spacing="-0.4" text-anchor="end" fill="#0A0A0A">London</text><text x="350" y="265.7" font-family="'Plus Jakarta Sans','Plus Jakarta Sans Variable',-apple-system,'Segoe UI',Roboto,sans-serif" font-size="12" font-weight="500" letter-spacing="-0.4" text-anchor="end" fill="#6B7280">United Kingdom</text><circle cx="195" cy="244.1" r="18" fill="#5C4BFD"/><g transform="translate(186,235.1) scale(0.75)"><g fill="none" stroke="#FFFFFF" stroke-width="1.85" stroke-linecap="round" stroke-linejoin="round"><path d="M21 13 L13.5 11.8 L9.5 19 L7.6 18.6 L9.8 11 L4.2 10.1 L2.8 11.9 L1.4 11.6 L2.2 8.6 L1.8 5.6 L3.2 5.9 L4.2 8 L9.8 8.9 L9.4 1.2 L11.3 1.6 L14.4 8.8 L21.8 10 Z"/></g></g><circle cx="44" cy="292.1" r="6" fill="none" stroke="#5C4BFD" stroke-width="2.4"/><circle cx="44" cy="292.1" r="2.4" fill="#5C4BFD"/><line x1="54" y1="292.1" x2="332" y2="292.1" stroke="#5C4BFD" stroke-width="2" stroke-linecap="round" stroke-dasharray="1.5 5"/><g transform="translate(335,281.1) scale(0.75)"><g fill="none" stroke="#EF4444" stroke-width="1.85" stroke-linecap="round" stroke-linejoin="round"><path d="M12 21.5 C6.5 15.5 5 12.3 5 9 a7 7 0 0 1 14 0 c0 3.3 -1.5 6.5 -7 12.5 Z"/><circle cx="12" cy="9" r="2.6"/></g></g><text x="40" y="320.9" font-family="'Plus Jakarta Sans','Plus Jakarta Sans Variable',-apple-system,'Segoe UI',Roboto,sans-serif" font-size="11" font-weight="600" letter-spacing="-0.4" text-anchor="start" fill="#9CA3AF">Origin</text><rect x="164.2" y="308.1" width="61.6" height="22" rx="11" ry="11" fill="#EEEBFF"/><text x="195" y="322.4" font-family="'Plus Jakarta Sans','Plus Jakarta Sans Variable',-apple-system,'Segoe UI',Roboto,sans-serif" font-size="11" font-weight="700" letter-spacing="-0.4" text-anchor="middle" fill="#5C4BFD">Flight</text><text x="350" y="320.9" font-family="'Plus Jakarta Sans','Plus Jakarta Sans Variable',-apple-system,'Segoe UI',Roboto,sans-serif" font-size="11" font-weight="600" letter-spacing="-0.4" text-anchor="end" fill="#9CA3AF">Destination</text><rect x="20" y="360.1" width="350" height="170" rx="16" ry="16" fill="#FFFFFF" stroke="#E5E7EB" stroke-width="1"/><text x="36" y="388.5" font-family="'Plus Jakarta Sans','Plus Jakarta Sans Variable',-apple-system,'Segoe UI',Roboto,sans-serif" font-size="13" font-weight="500" letter-spacing="-0.4" text-anchor="start" fill="#6B7280">Date</text><text x="354" y="388.5" font-family="'Plus Jakarta Sans','Plus Jakarta Sans Variable',-apple-system,'Segoe UI',Roboto,sans-serif" font-size="13" font-weight="700" letter-spacing="-0.4" text-anchor="end" fill="#111827">24 May 2026</text><line x1="36" y1="397.1" x2="354" y2="397.1" stroke="#F3F4F6" stroke-width="1" stroke-linecap="round"/><text x="36" y="413.5" font-family="'Plus Jakarta Sans','Plus Jakarta Sans Variable',-apple-system,'Segoe UI',Roboto,sans-serif" font-size="13" font-weight="500" letter-spacing="-0.4" text-anchor="start" fill="#6B7280">Time</text><text x="354" y="413.5" font-family="'Plus Jakarta Sans','Plus Jakarta Sans Variable',-apple-system,'Segoe UI',Roboto,sans-serif" font-size="13" font-weight="700" letter-spacing="-0.4" text-anchor="end" fill="#111827">09:30 AM</text><line x1="36" y1="422.1" x2="354" y2="422.1" stroke="#F3F4F6" stroke-width="1" stroke-linecap="round"/><text x="36" y="438.5" font-family="'Plus Jakarta Sans','Plus Jakarta Sans Variable',-apple-system,'Segoe UI',Roboto,sans-serif" font-size="13" font-weight="500" letter-spacing="-0.4" text-anchor="start" fill="#6B7280">Travel type</text><text x="354" y="438.5" font-family="'Plus Jakarta Sans','Plus Jakarta Sans Variable',-apple-system,'Segoe UI',Roboto,sans-serif" font-size="13" font-weight="700" letter-spacing="-0.4" text-anchor="end" fill="#111827">Flight</text><line x1="36" y1="447.1" x2="354" y2="447.1" stroke="#F3F4F6" stroke-width="1" stroke-linecap="round"/><text x="36" y="463.5" font-family="'Plus Jakarta Sans','Plus Jakarta Sans Variable',-apple-system,'Segoe UI',Roboto,sans-serif" font-size="13" font-weight="500" letter-spacing="-0.4" text-anchor="start" fill="#6B7280">Proof</text><text x="354" y="463.5" font-family="'Plus Jakarta Sans','Plus Jakarta Sans Variable',-apple-system,'Segoe UI',Roboto,sans-serif" font-size="13" font-weight="700" letter-spacing="-0.4" text-anchor="end" fill="#10B981">Uploaded</text><line x1="36" y1="472.1" x2="354" y2="472.1" stroke="#F3F4F6" stroke-width="1" stroke-linecap="round"/><text x="36" y="488.5" font-family="'Plus Jakarta Sans','Plus Jakarta Sans Variable',-apple-system,'Segoe UI',Roboto,sans-serif" font-size="13" font-weight="500" letter-spacing="-0.4" text-anchor="start" fill="#6B7280">Capacity</text><text x="354" y="488.5" font-family="'Plus Jakarta Sans','Plus Jakarta Sans Variable',-apple-system,'Segoe UI',Roboto,sans-serif" font-size="13" font-weight="700" letter-spacing="-0.4" text-anchor="end" fill="#111827">20 kg</text><line x1="36" y1="497.1" x2="354" y2="497.1" stroke="#F3F4F6" stroke-width="1" stroke-linecap="round"/><text x="36" y="513.5" font-family="'Plus Jakarta Sans','Plus Jakarta Sans Variable',-apple-system,'Segoe UI',Roboto,sans-serif" font-size="13" font-weight="500" letter-spacing="-0.4" text-anchor="start" fill="#6B7280">Price</text><text x="354" y="513.5" font-family="'Plus Jakarta Sans','Plus Jakarta Sans Variable',-apple-system,'Segoe UI',Roboto,sans-serif" font-size="13" font-weight="700" letter-spacing="-0.4" text-anchor="end" fill="#111827">NGN 4,200 / kg</text><rect x="20" y="544.1" width="350" height="62.92" rx="18" ry="18" fill="#EEEBFF"/><g transform="translate(38,560.1) scale(0.83)"><g fill="none" stroke="#5C4BFD" stroke-width="1.85" stroke-linecap="round" stroke-linejoin="round"><circle cx="12" cy="12" r="8.5"/><line x1="12" y1="11" x2="12" y2="16.3"/></g></g><text x="68" y="568.5" font-family="'Plus Jakarta Sans','Plus Jakarta Sans Variable',-apple-system,'Segoe UI',Roboto,sans-serif" font-size="13" font-weight="700" letter-spacing="-0.4" text-anchor="start" fill="#5C4BFD">Your trip will be reviewed by our</text><text x="68" y="586.96" font-family="'Plus Jakarta Sans','Plus Jakarta Sans Variable',-apple-system,'Segoe UI',Roboto,sans-serif" font-size="13" font-weight="700" letter-spacing="-0.4" text-anchor="start" fill="#5C4BFD">team before going live.</text><rect x="0" y="752" width="390" height="92" rx="0" ry="0" fill="#FFFFFF"/><rect x="20" y="770" width="350" height="54" rx="27" ry="27" fill="#5C4BFD"/><text x="195" y="801.8" font-family="'Plus Jakarta Sans','Plus Jakarta Sans Variable',-apple-system,'Segoe UI',Roboto,sans-serif" font-size="16" font-weight="600" letter-spacing="-0.4" text-anchor="middle" fill="#FFFFFF">Publish Trip</text><rect x="128" y="835" width="134" height="5" rx="2.5" ry="2.5" fill="#0A0A0A" fill-opacity="0.85"/></svg>