<svg xmlns="http://www.w3.org/2000/svg" width="390" height="844" viewBox="0 0 390 844" font-family="'Plus Jakarta Sans','Plus Jakarta Sans Variable',-apple-system,'Segoe UI',Roboto,sans-serif"><defs><filter id="footShadow" x="-20%" y="-60%" width="140%" height="220%"><feGaussianBlur stdDeviation="6"/></filter><linearGradient id="footShadow" x1="0" y1="0" x2="0" y2="1"><stop offset="0" stop-color="#000" stop-opacity="0"/><stop offset="1" stop-color="#000" stop-opacity="0.06"/></linearGradient></defs><rect width="390" height="844" fill="#FFFFFF"/><g><text x="26" y="33" font-family="'Plus Jakarta Sans','Plus Jakarta Sans Variable',-apple-system,'Segoe UI',Roboto,sans-serif" font-size="15" font-weight="700" letter-spacing="0" text-anchor="start" fill="#0A0A0A">9:41</text><rect x="312" y="23" width="4" height="4" rx="1.2" ry="1.2" fill="#0A0A0A"/><rect x="318" y="20.6" width="4" height="6.4" rx="1.2" ry="1.2" fill="#0A0A0A"/><rect x="324" y="18.2" width="4" height="8.8" rx="1.2" ry="1.2" fill="#0A0A0A"/><rect x="330" y="15.8" width="4" height="11.2" rx="1.2" ry="1.2" fill="#0A0A0A"/><path d="M340 22 a8 8 0 0 1 11 0" fill="none" stroke="#0A0A0A" stroke-width="2" stroke-linecap="round" stroke-linejoin="round"/><path d="M342.6 25 a4.2 4.2 0 0 1 5.8 0" fill="none" stroke="#0A0A0A" stroke-width="2" stroke-linecap="round" stroke-linejoin="round"/><circle cx="345.5" cy="28" r="1.4" fill="#0A0A0A"/><rect x="360" y="19" width="20" height="10" rx="3" ry="3" fill="none" fill-opacity="0.45" stroke="#0A0A0A" stroke-width="1.2"/><rect x="362.5" y="21.2" width="13" height="5.6" rx="1.4" ry="1.4" fill="#0A0A0A"/><path d="M381 22 v4" fill="none" fill-opacity="0.45" stroke="#0A0A0A" stroke-width="1.8" stroke-linecap="round" stroke-linejoin="round"/></g><text x="20" y="76" font-family="'Plus Jakarta Sans','Plus Jakarta Sans Variable',-apple-system,'Segoe UI',Roboto,sans-serif" font-size="25" font-weight="800" letter-spacing="-0.4" text-anchor="start" fill="#0A0A0A">Messages</text><circle cx="352" cy="70" r="18" fill="#F3F4F6"/><g transform="translate(343,61) scale(0.75)"><g fill="none" stroke="#4B5563" stroke-width="1.85" stroke-linecap="round" stroke-linejoin="round"><circle cx="11" cy="11" r="7"/><line x1="16" y1="16" x2="21" y2="21"/></g></g><rect x="20" y="104" width="350" height="46" rx="13" ry="13" fill="#F3F4F6"/><g transform="translate(33,118) scale(0.75)"><g fill="none" stroke="#9CA3AF" stroke-width="1.85" stroke-linecap="round" stroke-linejoin="round"><circle cx="11" cy="11" r="7"/><line x1="16" y1="16" x2="21" y2="21"/></g></g><text x="62" y="129.8" font-family="'Plus Jakarta Sans','Plus Jakarta Sans Variable',-apple-system,'Segoe UI',Roboto,sans-serif" font-size="13.5" font-weight="500" letter-spacing="-0.4" text-anchor="start" fill="#9CA3AF">Search chats, names, or routes</text><rect x="20" y="164" width="350" height="60.08" rx="18" ry="18" fill="#EEEBFF"/><g transform="translate(38,180) scale(0.83)"><g fill="none" stroke="#5C4BFD" stroke-width="1.85" stroke-linecap="round" stroke-linejoin="round"><path d="M12 3 L19 6 V11 c0 5 -3.2 8.2 -7 10 c-3.8 -1.8 -7 -5 -7 -10 V6 Z"/><polyline points="8.8,11.8 11,14 15.2,9.5"/></g></g><text x="68" y="187.6" font-family="'Plus Jakarta Sans','Plus Jakarta Sans Variable',-apple-system,'Segoe UI',Roboto,sans-serif" font-size="12" font-weight="700" letter-spacing="-0.4" text-anchor="start" fill="#5C4BFD">Chat safely by staying within Bago. We</text><text x="68" y="204.64" font-family="'Plus Jakarta Sans','Plus Jakarta Sans Variable',-apple-system,'Segoe UI',Roboto,sans-serif" font-size="12" font-weight="700" letter-spacing="-0.4" text-anchor="start" fill="#5C4BFD">protect your payments and data.</text><circle cx="50" cy="270.08" r="30" fill="#EEEBFF"/><text x="50" y="274.08" font-family="'Plus Jakarta Sans','Plus Jakarta Sans Variable',-apple-system,'Segoe UI',Roboto,sans-serif" font-size="15" font-weight="800" letter-spacing="-0.4" text-anchor="middle" fill="#5C4BFD">DO</text><text x="94" y="263.68" font-family="'Plus Jakarta Sans','Plus Jakarta Sans Variable',-apple-system,'Segoe UI',Roboto,sans-serif" font-size="14.5" font-weight="800" letter-spacing="-0.4" text-anchor="start" fill="#0A0A0A">Daniel Okoro</text><text x="94" y="283.08" font-family="'Plus Jakarta Sans','Plus Jakarta Sans Variable',-apple-system,'Segoe UI',Roboto,sans-serif" font-size="12.5" font-weight="600" letter-spacing="-0.4" text-anchor="start" fill="#374151">Sure, I&#x27;ll be at the airport by 8a</text><text x="370" y="261.28" font-family="'Plus Jakarta Sans','Plus Jakarta Sans Variable',-apple-system,'Segoe UI',Roboto,sans-serif" font-size="11.5" font-weight="500" letter-spacing="-0.4" text-anchor="end" fill="#9CA3AF">5m</text><circle cx="361" cy="278.08" r="10" fill="#5C4BFD"/><text x="361" y="281.08" font-family="'Plus Jakarta Sans','Plus Jakarta Sans Variable',-apple-system,'Segoe UI',Roboto,sans-serif" font-size="10" font-weight="800" letter-spacing="-0.4" text-anchor="middle" fill="#FFFFFF">2</text><line x1="94" y1="300.08" x2="370" y2="300.08" stroke="#F3F4F6" stroke-width="1" stroke-linecap="round"/><circle cx="50" cy="344.08" r="30" fill="#EEEBFF"/><text x="50" y="348.08" font-family="'Plus Jakarta Sans','Plus Jakarta Sans Variable',-apple-system,'Segoe UI',Roboto,sans-serif" font-size="15" font-weight="800" letter-spacing="-0.4" text-anchor="middle" fill="#5C4BFD">AN</text><text x="94" y="337.68" font-family="'Plus Jakarta Sans','Plus Jakarta Sans Variable',-apple-system,'Segoe UI',Roboto,sans-serif" font-size="14.5" font-weight="700" letter-spacing="-0.4" text-anchor="start" fill="#0A0A0A">Amara Nwosu</text><text x="94" y="357.08" font-family="'Plus Jakarta Sans','Plus Jakarta Sans Variable',-apple-system,'Segoe UI',Roboto,sans-serif" font-size="12.5" font-weight="400" letter-spacing="-0.4" text-anchor="start" fill="#6B7280">Thanks! The package looks great.</text><text x="370" y="335.28" font-family="'Plus Jakarta Sans','Plus Jakarta Sans Variable',-apple-system,'Segoe UI',Roboto,sans-serif" font-size="11.5" font-weight="500" letter-spacing="-0.4" text-anchor="end" fill="#9CA3AF">3h</text><line x1="94" y1="374.08" x2="370" y2="374.08" stroke="#F3F4F6" stroke-width="1" stroke-linecap="round"/><circle cx="50" cy="418.08" r="30" fill="#EEEBFF"/><text x="50" y="422.08" font-family="'Plus Jakarta Sans','Plus Jakarta Sans Variable',-apple-system,'Segoe UI',Roboto,sans-serif" font-size="15" font-weight="800" letter-spacing="-0.4" text-anchor="middle" fill="#5C4BFD">KB</text><text x="94" y="411.68" font-family="'Plus Jakarta Sans','Plus Jakarta Sans Variable',-apple-system,'Segoe UI',Roboto,sans-serif" font-size="14.5" font-weight="800" letter-spacing="-0.4" text-anchor="start" fill="#0A0A0A">Kwame Boateng</text><text x="94" y="431.08" font-family="'Plus Jakarta Sans','Plus Jakarta Sans Variable',-apple-system,'Segoe UI',Roboto,sans-serif" font-size="12.5" font-weight="600" letter-spacing="-0.4" text-anchor="start" fill="#374151">Can you confirm the weight?</text><text x="370" y="409.28" font-family="'Plus Jakarta Sans','Plus Jakarta Sans Variable',-apple-system,'Segoe UI',Roboto,sans-serif" font-size="11.5" font-weight="500" letter-spacing="-0.4" text-anchor="end" fill="#9CA3AF">1d</text><circle cx="361" cy="426.08" r="10" fill="#5C4BFD"/><text x="361" y="429.08" font-family="'Plus Jakarta Sans','Plus Jakarta Sans Variable',-apple-system,'Segoe UI',Roboto,sans-serif" font-size="10" font-weight="800" letter-spacing="-0.4" text-anchor="middle" fill="#FFFFFF">1</text><line x1="94" y1="448.08" x2="370" y2="448.08" stroke="#F3F4F6" stroke-width="1" stroke-linecap="round"/><circle cx="50" cy="492.08" r="30" fill="#EEEBFF"/><text x="50" y="496.08" font-family="'Plus Jakarta Sans','Plus Jakarta Sans Variable',-apple-system,'Segoe UI',Roboto,sans-serif" font-size="15" font-weight="800" letter-spacing="-0.4" text-anchor="middle" fill="#5C4BFD">GA</text><text x="94" y="485.68" font-family="'Plus Jakarta Sans','Plus Jakarta Sans Variable',-apple-system,'Segoe UI',Roboto,sans-serif" font-size="14.5" font-weight="700" letter-spacing="-0.4" text-anchor="start" fill="#0A0A0A">Grace Adeyemi</text><text x="94" y="505.08" font-family="'Plus Jakarta Sans','Plus Jakarta Sans Variable',-apple-system,'Segoe UI',Roboto,sans-serif" font-size="12.5" font-weight="400" letter-spacing="-0.4" text-anchor="start" fill="#6B7280">Delivered safely, thank you so muc</text><text x="370" y="483.28" font-family="'Plus Jakarta Sans','Plus Jakarta Sans Variable',-apple-system,'Segoe UI',Roboto,sans-serif" font-size="11.5" font-weight="500" letter-spacing="-0.4" text-anchor="end" fill="#9CA3AF">2d</text><line x1="94" y1="522.08" x2="370" y2="522.08" stroke="#F3F4F6" stroke-width="1" stroke-linecap="round"/><circle cx="50" cy="566.08" r="30" fill="#EEEBFF"/><text x="50" y="570.08" font-family="'Plus Jakarta Sans','Plus Jakarta Sans Variable',-apple-system,'Segoe UI',Roboto,sans-serif" font-size="15" font-weight="800" letter-spacing="-0.4" text-anchor="middle" fill="#5C4BFD">BS</text><text x="94" y="559.68" font-family="'Plus Jakarta Sans','Plus Jakarta Sans Variable',-apple-system,'Segoe UI',Roboto,sans-serif" font-size="14.5" font-weight="700" letter-spacing="-0.4" text-anchor="start" fill="#0A0A0A">Bago Support</text><text x="94" y="579.08" font-family="'Plus Jakarta Sans','Plus Jakarta Sans Variable',-apple-system,'Segoe UI',Roboto,sans-serif" font-size="12.5" font-weight="400" letter-spacing="-0.4" text-anchor="start" fill="#6B7280">Your ticket has been resolved.</text><text x="370" y="557.28" font-family="'Plus Jakarta Sans','Plus Jakarta Sans Variable',-apple-system,'Segoe UI',Roboto,sans-serif" font-size="11.5" font-weight="500" letter-spacing="-0.4" text-anchor="end" fill="#9CA3AF">4d</text><line x1="94" y1="596.08" x2="370" y2="596.08" stroke="#F3F4F6" stroke-width="1" stroke-linecap="round"/><rect x="0" y="760" width="390" height="84" rx="0" ry="0" fill="#FFFFFF"/><line x1="0" y1="760" x2="390" y2="760" stroke="#E5E7EB" stroke-width="1" stroke-linecap="round"/><g transform="translate(36.25,769.5) scale(1.04)"><g fill="none" stroke="#9CA3AF" stroke-width="2" stroke-linecap="round" stroke-linejoin="round"><path d="M3.5 11.5 L12 4 L20.5 11.5"/><path d="M6 10 V20 H18 V10"/></g></g><text x="48.75" y="806.8" font-family="'Plus Jakarta Sans','Plus Jakarta Sans Variable',-apple-system,'Segoe UI',Roboto,sans-serif" font-size="11" font-weight="600" letter-spacing="-0.4" text-anchor="middle" fill="#9CA3AF">Home</text><g transform="translate(133.75,769.5) scale(1.04)"><g fill="none" stroke="#9CA3AF" stroke-width="2" stroke-linecap="round" stroke-linejoin="round"><rect x="3" y="5" width="18" height="14" rx="2.5"/><path d="M3 13.5 H8 L10 16.5 H14 L16 13.5 H21"/></g></g><text x="146.25" y="806.8" font-family="'Plus Jakarta Sans','Plus Jakarta Sans Variable',-apple-system,'Segoe UI',Roboto,sans-serif" font-size="11" font-weight="600" letter-spacing="-0.4" text-anchor="middle" fill="#9CA3AF">Shipments</text><g transform="translate(231.25,769.5) scale(1.04)"><g fill="none" stroke="#0A0A0A" stroke-width="2" stroke-linecap="round" stroke-linejoin="round"><path d="M5 4 H19 a2 2 0 0 1 2 2 V14 a2 2 0 0 1 -2 2 H10 l-4 4 V16 H5 a2 2 0 0 1 -2 -2 V6 a2 2 0 0 1 2 -2 Z"/></g></g><text x="243.75" y="806.8" font-family="'Plus Jakarta Sans','Plus Jakarta Sans Variable',-apple-system,'Segoe UI',Roboto,sans-serif" font-size="11" font-weight="600" letter-spacing="-0.4" text-anchor="middle" fill="#0A0A0A">Messages</text><g transform="translate(328.75,769.5) scale(1.04)"><g fill="none" stroke="#9CA3AF" stroke-width="2" stroke-linecap="round" stroke-linejoin="round"><circle cx="12" cy="8" r="4"/><path d="M5 20 c0 -4.2 3.2 -6.3 7 -6.3 s7 2.1 7 6.3"/></g></g><text x="341.25" y="806.8" font-family="'Plus Jakarta Sans','Plus Jakarta Sans Variable',-apple-system,'Segoe UI',Roboto,sans-serif" font-size="11" font-weight="600" letter-spacing="-0.4" text-anchor="middle" fill="#9CA3AF">Profile</text><rect x="128" y="835" width="134" height="5" rx="2.5" ry="2.5" fill="#0A0A0A" fill-opacity="0.85"/></svg>