<svg xmlns="http://www.w3.org/2000/svg" width="390" height="844" viewBox="0 0 390 844" font-family="'Plus Jakarta Sans','Plus Jakarta Sans Variable',-apple-system,'Segoe UI',Roboto,sans-serif"><defs><filter id="footShadow" x="-20%" y="-60%" width="140%" height="220%"><feGaussianBlur stdDeviation="6"/></filter><linearGradient id="footShadow" x1="0" y1="0" x2="0" y2="1"><stop offset="0" stop-color="#000" stop-opacity="0"/><stop offset="1" stop-color="#000" stop-opacity="0.06"/></linearGradient></defs><rect width="390" height="844" fill="#FFFFFF"/><g><text x="26" y="33" font-family="'Plus Jakarta Sans','Plus Jakarta Sans Variable',-apple-system,'Segoe UI',Roboto,sans-serif" font-size="15" font-weight="700" letter-spacing="0" text-anchor="start" fill="#0A0A0A">9:41</text><rect x="312" y="23" width="4" height="4" rx="1.2" ry="1.2" fill="#0A0A0A"/><rect x="318" y="20.6" width="4" height="6.4" rx="1.2" ry="1.2" fill="#0A0A0A"/><rect x="324" y="18.2" width="4" height="8.8" rx="1.2" ry="1.2" fill="#0A0A0A"/><rect x="330" y="15.8" width="4" height="11.2" rx="1.2" ry="1.2" fill="#0A0A0A"/><path d="M340 22 a8 8 0 0 1 11 0" fill="none" stroke="#0A0A0A" stroke-width="2" stroke-linecap="round" stroke-linejoin="round"/><path d="M342.6 25 a4.2 4.2 0 0 1 5.8 0" fill="none" stroke="#0A0A0A" stroke-width="2" stroke-linecap="round" stroke-linejoin="round"/><circle cx="345.5" cy="28" r="1.4" fill="#0A0A0A"/><rect x="360" y="19" width="20" height="10" rx="3" ry="3" fill="none" fill-opacity="0.45" stroke="#0A0A0A" stroke-width="1.2"/><rect x="362.5" y="21.2" width="13" height="5.6" rx="1.4" ry="1.4" fill="#0A0A0A"/><path d="M381 22 v4" fill="none" fill-opacity="0.45" stroke="#0A0A0A" stroke-width="1.8" stroke-linecap="round" stroke-linejoin="round"/></g><rect x="0" y="0" width="390" height="106" rx="0" ry="0" fill="#FFFFFF"/><g transform="translate(15,67) scale(0.92)"><g fill="none" stroke="#0A0A0A" stroke-width="1.85" stroke-linecap="round" stroke-linejoin="round"><polyline points="14,4 7,12 14,20"/></g></g><text x="58" y="83.4" font-family="'Plus Jakarta Sans','Plus Jakarta Sans Variable',-apple-system,'Segoe UI',Roboto,sans-serif" font-size="18" font-weight="700" letter-spacing="-0.4" text-anchor="start" fill="#0A0A0A">Identity Verification</text><text x="20" y="133.2" font-family="'Plus Jakarta Sans','Plus Jakarta Sans Variable',-apple-system,'Segoe UI',Roboto,sans-serif" font-size="14" font-weight="400" letter-spacing="-0.4" text-anchor="start" fill="#6B7280">Select your country of residence</text><rect x="20" y="157" width="350" height="54" rx="16" ry="16" fill="#F3F4F6" stroke="#E5E7EB" stroke-width="1"/><g transform="translate(34,174) scale(0.83)"><g fill="none" stroke="#6B7280" stroke-width="1.85" stroke-linecap="round" stroke-linejoin="round"><circle cx="11" cy="11" r="7"/><line x1="16" y1="16" x2="21" y2="21"/></g></g><text x="64" y="188.6" font-family="'Plus Jakarta Sans','Plus Jakarta Sans Variable',-apple-system,'Segoe UI',Roboto,sans-serif" font-size="14.5" font-weight="400" letter-spacing="-0.4" text-anchor="start" fill="#6B7280"></text><text x="64" y="194.8" font-family="'Plus Jakarta Sans','Plus Jakarta Sans Variable',-apple-system,'Segoe UI',Roboto,sans-serif" font-size="13.5" font-weight="500" letter-spacing="-0.4" text-anchor="start" fill="#9CA3AF">Search country…</text><rect x="20" y="225" width="350" height="50" rx="12" ry="12" fill="#F8F7FF" stroke="#5C4BFD" stroke-width="1.5"/><clipPath id="fl34_241"><rect x="34" y="241" width="26" height="19" rx="3.5"/></clipPath><g clip-path="url(#fl34_241)"><rect x="34" y="241" width="26" height="6.77" rx="0" ry="0" fill="#008751"/><rect x="34" y="247.27" width="26" height="6.96" rx="0" ry="0" fill="#fff"/><rect x="34" y="253.73" width="26" height="6.77" rx="0" ry="0" fill="#008751"/></g><rect x="34" y="241" width="26" height="19" rx="3.5" ry="3.5" fill="none" stroke="rgba(0,0,0,0.12)" stroke-width="1"/><text x="72" y="253.2" font-family="'Plus Jakarta Sans','Plus Jakarta Sans Variable',-apple-system,'Segoe UI',Roboto,sans-serif" font-size="14" font-weight="700" letter-spacing="-0.4" text-anchor="start" fill="#5C4BFD">Nigeria</text><g transform="translate(337,241) scale(0.75)"><g fill="none" stroke="#5C4BFD" stroke-width="1.85" stroke-linecap="round" stroke-linejoin="round"><circle cx="12" cy="12" r="9"/><polyline points="8,12 11,15 16,9"/></g></g><rect x="20" y="283" width="350" height="50" rx="12" ry="12" fill="#FFFFFF" stroke="#EEEEEE" stroke-width="1"/><clipPath id="fl34_299"><rect x="34" y="299" width="26" height="19" rx="3.5"/></clipPath><g clip-path="url(#fl34_299)"><rect x="34" y="299" width="26" height="6.77" rx="0" ry="0" fill="#CE1126"/><rect x="34" y="305.27" width="26" height="6.96" rx="0" ry="0" fill="#FCD116"/><rect x="34" y="311.73" width="26" height="6.77" rx="0" ry="0" fill="#006B3F"/></g><rect x="34" y="299" width="26" height="19" rx="3.5" ry="3.5" fill="none" stroke="rgba(0,0,0,0.12)" stroke-width="1"/><text x="72" y="311.2" font-family="'Plus Jakarta Sans','Plus Jakarta Sans Variable',-apple-system,'Segoe UI',Roboto,sans-serif" font-size="14" font-weight="500" letter-spacing="-0.4" text-anchor="start" fill="#0A0A0A">Ghana</text><rect x="20" y="341" width="350" height="50" rx="12" ry="12" fill="#FFFFFF" stroke="#EEEEEE" stroke-width="1"/><clipPath id="fl34_357"><rect x="34" y="357" width="26" height="19" rx="3.5"/></clipPath><g clip-path="url(#fl34_357)"><rect x="34" y="357" width="26" height="6.77" rx="0" ry="0" fill="#000"/><rect x="34" y="363.27" width="26" height="6.96" rx="0" ry="0" fill="#BB0000"/><rect x="34" y="369.73" width="26" height="6.77" rx="0" ry="0" fill="#006600"/></g><rect x="34" y="357" width="26" height="19" rx="3.5" ry="3.5" fill="none" stroke="rgba(0,0,0,0.12)" stroke-width="1"/><text x="72" y="369.2" font-family="'Plus Jakarta Sans','Plus Jakarta Sans Variable',-apple-system,'Segoe UI',Roboto,sans-serif" font-size="14" font-weight="500" letter-spacing="-0.4" text-anchor="start" fill="#0A0A0A">Kenya</text><rect x="20" y="399" width="350" height="50" rx="12" ry="12" fill="#FFFFFF" stroke="#EEEEEE" stroke-width="1"/><clipPath id="fl34_415"><rect x="34" y="415" width="26" height="19" rx="3.5"/></clipPath><g clip-path="url(#fl34_415)"><rect x="34" y="415" width="26" height="19" rx="0" ry="0" fill="#012169"/><line x1="34" y1="415" x2="60" y2="434" stroke="#fff" stroke-width="4" stroke-linecap="round"/><line x1="60" y1="415" x2="34" y2="434" stroke="#fff" stroke-width="4" stroke-linecap="round"/><line x1="34" y1="415" x2="60" y2="434" stroke="#C8102E" stroke-width="1.6" stroke-linecap="round"/><line x1="60" y1="415" x2="34" y2="434" stroke="#C8102E" stroke-width="1.6" stroke-linecap="round"/><rect x="44.4" y="415" width="5.2" height="19" rx="0" ry="0" fill="#fff"/><rect x="34" y="421.9" width="26" height="5.2" rx="0" ry="0" fill="#fff"/><rect x="45.6" y="415" width="2.8" height="19" rx="0" ry="0" fill="#C8102E"/><rect x="34" y="423.1" width="26" height="2.8" rx="0" ry="0" fill="#C8102E"/></g><rect x="34" y="415" width="26" height="19" rx="3.5" ry="3.5" fill="none" stroke="rgba(0,0,0,0.12)" stroke-width="1"/><text x="72" y="427.2" font-family="'Plus Jakarta Sans','Plus Jakarta Sans Variable',-apple-system,'Segoe UI',Roboto,sans-serif" font-size="14" font-weight="500" letter-spacing="-0.4" text-anchor="start" fill="#0A0A0A">United Kingdom</text><rect x="20" y="457" width="350" height="50" rx="12" ry="12" fill="#FFFFFF" stroke="#EEEEEE" stroke-width="1"/><clipPath id="fl34_473"><rect x="34" y="473" width="26" height="19" rx="3.5"/></clipPath><g clip-path="url(#fl34_473)"><rect x="34" y="473" width="26" height="1.46" rx="0" ry="0" fill="#B22234"/><rect x="34" y="474.46" width="26" height="1.46" rx="0" ry="0" fill="#fff"/><rect x="34" y="475.92" width="26" height="1.46" rx="0" ry="0" fill="#fff"/><rect x="34" y="477.38" width="26" height="1.46" rx="0" ry="0" fill="#B22234"/><rect x="34" y="478.85" width="26" height="1.46" rx="0" ry="0" fill="#B22234"/><rect x="34" y="480.31" width="26" height="1.46" rx="0" ry="0" fill="#fff"/><rect x="34" y="481.77" width="26" height="1.46" rx="0" ry="0" fill="#fff"/><rect x="34" y="483.23" width="26" height="1.46" rx="0" ry="0" fill="#B22234"/><rect x="34" y="484.69" width="26" height="1.46" rx="0" ry="0" fill="#B22234"/><rect x="34" y="486.15" width="26" height="1.46" rx="0" ry="0" fill="#fff"/><rect x="34" y="487.62" width="26" height="1.46" rx="0" ry="0" fill="#fff"/><rect x="34" y="489.08" width="26" height="1.46" rx="0" ry="0" fill="#B22234"/><rect x="34" y="490.54" width="26" height="1.46" rx="0" ry="0" fill="#B22234"/><rect x="34" y="473" width="10.92" height="10.26" rx="0" ry="0" fill="#3C3B6E"/></g><rect x="34" y="473" width="26" height="19" rx="3.5" ry="3.5" fill="none" stroke="rgba(0,0,0,0.12)" stroke-width="1"/><text x="72" y="485.2" font-family="'Plus Jakarta Sans','Plus Jakarta Sans Variable',-apple-system,'Segoe UI',Roboto,sans-serif" font-size="14" font-weight="500" letter-spacing="-0.4" text-anchor="start" fill="#0A0A0A">United States</text><rect x="20" y="515" width="350" height="50" rx="12" ry="12" fill="#FFFFFF" stroke="#EEEEEE" stroke-width="1"/><clipPath id="fl34_531"><rect x="34" y="531" width="26" height="19" rx="3.5"/></clipPath><g clip-path="url(#fl34_531)"><rect x="34" y="531" width="26" height="6.77" rx="0" ry="0" fill="#0055A4"/><rect x="34" y="537.27" width="26" height="6.96" rx="0" ry="0" fill="#fff"/><rect x="34" y="543.73" width="26" height="6.77" rx="0" ry="0" fill="#EF4135"/></g><rect x="34" y="531" width="26" height="19" rx="3.5" ry="3.5" fill="none" stroke="rgba(0,0,0,0.12)" stroke-width="1"/><text x="72" y="543.2" font-family="'Plus Jakarta Sans','Plus Jakarta Sans Variable',-apple-system,'Segoe UI',Roboto,sans-serif" font-size="14" font-weight="500" letter-spacing="-0.4" text-anchor="start" fill="#0A0A0A">France</text><rect x="20" y="573" width="350" height="50" rx="12" ry="12" fill="#FFFFFF" stroke="#EEEEEE" stroke-width="1"/><clipPath id="fl34_589"><rect x="34" y="589" width="26" height="19" rx="3.5"/></clipPath><g clip-path="url(#fl34_589)"><rect x="34" y="589" width="26" height="5.25" rx="0" ry="0" fill="#FF0000"/><rect x="34" y="593.75" width="26" height="10" rx="0" ry="0" fill="#fff"/><rect x="34" y="603.25" width="26" height="5.25" rx="0" ry="0" fill="#FF0000"/></g><rect x="34" y="589" width="26" height="19" rx="3.5" ry="3.5" fill="none" stroke="rgba(0,0,0,0.12)" stroke-width="1"/><text x="72" y="601.2" font-family="'Plus Jakarta Sans','Plus Jakarta Sans Variable',-apple-system,'Segoe UI',Roboto,sans-serif" font-size="14" font-weight="500" letter-spacing="-0.4" text-anchor="start" fill="#0A0A0A">Canada</text><rect x="0" y="738" width="390" height="14" rx="0" ry="0" fill="url(#footShadow)"/><rect x="0" y="752" width="390" height="92" rx="0" ry="0" fill="#FFFFFF"/><rect x="20" y="770" width="350" height="52" rx="14" ry="14" fill="#5C4BFD"/><text x="195" y="800.8" font-family="'Plus Jakarta Sans','Plus Jakarta Sans Variable',-apple-system,'Segoe UI',Roboto,sans-serif" font-size="16" font-weight="600" letter-spacing="-0.4" text-anchor="middle" fill="#FFFFFF">Start verification</text><rect x="128" y="835" width="134" height="5" rx="2.5" ry="2.5" fill="#0A0A0A" fill-opacity="0.85"/></svg>