<svg xmlns="http://www.w3.org/2000/svg" width="390" height="844" viewBox="0 0 390 844" font-family="'Plus Jakarta Sans','Plus Jakarta Sans Variable',-apple-system,'Segoe UI',Roboto,sans-serif"><defs><filter id="footShadow" x="-20%" y="-60%" width="140%" height="220%"><feGaussianBlur stdDeviation="6"/></filter><linearGradient id="footShadow" x1="0" y1="0" x2="0" y2="1"><stop offset="0" stop-color="#000" stop-opacity="0"/><stop offset="1" stop-color="#000" stop-opacity="0.06"/></linearGradient></defs><rect width="390" height="844" fill="#F8F8FC"/><g><text x="26" y="33" font-family="'Plus Jakarta Sans','Plus Jakarta Sans Variable',-apple-system,'Segoe UI',Roboto,sans-serif" font-size="15" font-weight="700" letter-spacing="0" text-anchor="start" fill="#0A0A0A">9:41</text><rect x="312" y="23" width="4" height="4" rx="1.2" ry="1.2" fill="#0A0A0A"/><rect x="318" y="20.6" width="4" height="6.4" rx="1.2" ry="1.2" fill="#0A0A0A"/><rect x="324" y="18.2" width="4" height="8.8" rx="1.2" ry="1.2" fill="#0A0A0A"/><rect x="330" y="15.8" width="4" height="11.2" rx="1.2" ry="1.2" fill="#0A0A0A"/><path d="M340 22 a8 8 0 0 1 11 0" fill="none" stroke="#0A0A0A" stroke-width="2" stroke-linecap="round" stroke-linejoin="round"/><path d="M342.6 25 a4.2 4.2 0 0 1 5.8 0" fill="none" stroke="#0A0A0A" stroke-width="2" stroke-linecap="round" stroke-linejoin="round"/><circle cx="345.5" cy="28" r="1.4" fill="#0A0A0A"/><rect x="360" y="19" width="20" height="10" rx="3" ry="3" fill="none" fill-opacity="0.45" stroke="#0A0A0A" stroke-width="1.2"/><rect x="362.5" y="21.2" width="13" height="5.6" rx="1.4" ry="1.4" fill="#0A0A0A"/><path d="M381 22 v4" fill="none" fill-opacity="0.45" stroke="#0A0A0A" stroke-width="1.8" stroke-linecap="round" stroke-linejoin="round"/></g><rect x="0" y="0" width="390" height="116" rx="0" ry="0" fill="#FFFFFF"/><circle cx="36" cy="82" r="20" fill="#F3F4F6"/><g transform="translate(26,73) scale(0.75)"><g fill="none" stroke="#0A0A0A" stroke-width="1.85" stroke-linecap="round" stroke-linejoin="round"><polyline points="14,4 7,12 14,20"/></g></g><text x="68" y="86.9" font-family="'Plus Jakarta Sans','Plus Jakarta Sans Variable',-apple-system,'Segoe UI',Roboto,sans-serif" font-size="18" font-weight="800" letter-spacing="-0.4" text-anchor="start" fill="#0A0A0A">Account Settings</text><rect x="16" y="132" width="358" height="64" rx="16" ry="16" fill="#FFFFFF" stroke="#E5E7EB" stroke-width="1"/><rect x="30" y="147" width="34" height="34" rx="10" ry="10" fill="#FEF3C7"/><g transform="translate(37.5,154.5) scale(0.79)"><g fill="none" stroke="#F59E0B" stroke-width="1.85" stroke-linecap="round" stroke-linejoin="round"><path d="M12 3 L19 6 V11 c0 5 -3.2 8.2 -7 10 c-3.8 -1.8 -7 -5 -7 -10 V6 Z"/></g></g><text x="76" y="158.8" font-family="'Plus Jakarta Sans','Plus Jakarta Sans Variable',-apple-system,'Segoe UI',Roboto,sans-serif" font-size="13.5" font-weight="700" letter-spacing="-0.4" text-anchor="start" fill="#0A0A0A">Verification status</text><text x="76" y="176.2" font-family="'Plus Jakarta Sans','Plus Jakarta Sans Variable',-apple-system,'Segoe UI',Roboto,sans-serif" font-size="11.5" font-weight="500" letter-spacing="-0.4" text-anchor="start" fill="#6B7280">Action required — verify identity</text><g transform="translate(343,155) scale(0.75)"><g fill="none" stroke="#9CA3AF" stroke-width="1.85" stroke-linecap="round" stroke-linejoin="round"><polyline points="9,4 17,12 9,20"/></g></g><text x="18" y="221.2" font-family="'Plus Jakarta Sans','Plus Jakarta Sans Variable',-apple-system,'Segoe UI',Roboto,sans-serif" font-size="11.5" font-weight="800" letter-spacing="1.0" text-anchor="start" fill="#9CA3AF">PROFILE</text><rect x="19" y="241" width="352" height="112" rx="16" ry="16" fill="#000" fill-opacity="0.05"/><rect x="16" y="236" width="358" height="112" rx="16" ry="16" fill="#FFFFFF"/><rect x="32" y="247" width="34" height="34" rx="10" ry="10" fill="#EEEBFF"/><g transform="translate(39.5,254.5) scale(0.79)"><g fill="none" stroke="#5C4BFD" stroke-width="1.85" stroke-linecap="round" stroke-linejoin="round"><circle cx="12" cy="8" r="4"/><path d="M5 20 c0 -4.2 3.2 -6.3 7 -6.3 s7 2.1 7 6.3"/></g></g><text x="78" y="267.6" font-family="'Plus Jakarta Sans','Plus Jakarta Sans Variable',-apple-system,'Segoe UI',Roboto,sans-serif" font-size="14.5" font-weight="700" letter-spacing="-0.4" text-anchor="start" fill="#0A0A0A">Edit Profile</text><g transform="translate(343,255) scale(0.75)"><g fill="none" stroke="#9CA3AF" stroke-width="1.85" stroke-linecap="round" stroke-linejoin="round"><polyline points="9,4 17,12 9,20"/></g></g><line x1="34" y1="292" x2="356" y2="292" stroke="#F3F4F6" stroke-width="1" stroke-linecap="round"/><rect x="32" y="303" width="34" height="34" rx="10" ry="10" fill="#EEEBFF"/><g transform="translate(39.5,310.5) scale(0.79)"><g fill="none" stroke="#5C4BFD" stroke-width="1.85" stroke-linecap="round" stroke-linejoin="round"><rect x="3" y="5.5" width="18" height="13" rx="2.6"/><line x1="3" y1="10" x2="21" y2="10"/><line x1="6.5" y1="14.5" x2="11" y2="14.5"/></g></g><text x="78" y="323.6" font-family="'Plus Jakarta Sans','Plus Jakarta Sans Variable',-apple-system,'Segoe UI',Roboto,sans-serif" font-size="14.5" font-weight="700" letter-spacing="-0.4" text-anchor="start" fill="#0A0A0A">Payment Methods</text><g transform="translate(343,311) scale(0.75)"><g fill="none" stroke="#9CA3AF" stroke-width="1.85" stroke-linecap="round" stroke-linejoin="round"><polyline points="9,4 17,12 9,20"/></g></g><text x="18" y="373.2" font-family="'Plus Jakarta Sans','Plus Jakarta Sans Variable',-apple-system,'Segoe UI',Roboto,sans-serif" font-size="11.5" font-weight="800" letter-spacing="1.0" text-anchor="start" fill="#9CA3AF">PREFERENCES</text><rect x="19" y="393" width="352" height="224" rx="16" ry="16" fill="#000" fill-opacity="0.05"/><rect x="16" y="388" width="358" height="224" rx="16" ry="16" fill="#FFFFFF"/><rect x="32" y="399" width="34" height="34" rx="10" ry="10" fill="#EEEBFF"/><g transform="translate(39.5,406.5) scale(0.79)"><g fill="none" stroke="#5C4BFD" stroke-width="1.85" stroke-linecap="round" stroke-linejoin="round"><path d="M6 17 V11 a6 6 0 0 1 12 0 V17 l1.8 2 H4.2 Z"/><path d="M9.7 20.2 a2.6 2.6 0 0 0 4.6 0"/></g></g><text x="78" y="419.6" font-family="'Plus Jakarta Sans','Plus Jakarta Sans Variable',-apple-system,'Segoe UI',Roboto,sans-serif" font-size="14.5" font-weight="700" letter-spacing="-0.4" text-anchor="start" fill="#0A0A0A">Notifications</text><rect x="314" y="403" width="44" height="26" rx="13" ry="13" fill="#5C4BFD"/><circle cx="345" cy="416" r="10" fill="#FFFFFF"/><line x1="34" y1="444" x2="356" y2="444" stroke="#F3F4F6" stroke-width="1" stroke-linecap="round"/><rect x="32" y="455" width="34" height="34" rx="10" ry="10" fill="#EEEBFF"/><g transform="translate(39.5,462.5) scale(0.79)"><g fill="none" stroke="#5C4BFD" stroke-width="1.85" stroke-linecap="round" stroke-linejoin="round"><circle cx="12" cy="12" r="8.5"/><polyline points="12,7 12,12 16,14.2"/></g></g><text x="78" y="475.6" font-family="'Plus Jakarta Sans','Plus Jakarta Sans Variable',-apple-system,'Segoe UI',Roboto,sans-serif" font-size="14.5" font-weight="700" letter-spacing="-0.4" text-anchor="start" fill="#0A0A0A">Quick unlock after inactivity</text><rect x="314" y="459" width="44" height="26" rx="13" ry="13" fill="#D1D5DB"/><circle cx="327" cy="472" r="10" fill="#FFFFFF"/><line x1="34" y1="500" x2="356" y2="500" stroke="#F3F4F6" stroke-width="1" stroke-linecap="round"/><rect x="32" y="511" width="34" height="34" rx="10" ry="10" fill="#EEEBFF"/><g transform="translate(39.5,518.5) scale(0.79)"><g fill="none" stroke="#5C4BFD" stroke-width="1.85" stroke-linecap="round" stroke-linejoin="round"><path d="M12 8 a4 4 0 0 0 -4 4 v4"/><path d="M12 8 a4 4 0 0 1 4 4 v3"/><path d="M12 11.5 a.7 .7 0 0 1 .5 .5 v5"/><path d="M8 6.5 a7 7 0 0 1 8 .3"/><path d="M5.5 12 a6.5 6.5 0 0 1 2 -4.7"/></g></g><text x="78" y="531.6" font-family="'Plus Jakarta Sans','Plus Jakarta Sans Variable',-apple-system,'Segoe UI',Roboto,sans-serif" font-size="14.5" font-weight="700" letter-spacing="-0.4" text-anchor="start" fill="#0A0A0A">Biometric login</text><rect x="314" y="515" width="44" height="26" rx="13" ry="13" fill="#5C4BFD"/><circle cx="345" cy="528" r="10" fill="#FFFFFF"/><line x1="34" y1="556" x2="356" y2="556" stroke="#F3F4F6" stroke-width="1" stroke-linecap="round"/><rect x="32" y="567" width="34" height="34" rx="10" ry="10" fill="#EEEBFF"/><g transform="translate(39.5,574.5) scale(0.79)"><g fill="none" stroke="#5C4BFD" stroke-width="1.85" stroke-linecap="round" stroke-linejoin="round"><circle cx="12" cy="12" r="8.5"/><line x1="3.5" y1="12" x2="20.5" y2="12"/><path d="M12 3.5 c4.2 4 4.2 13 0 17 c-4.2 -4 -4.2 -13 0 -17"/></g></g><text x="78" y="587.6" font-family="'Plus Jakarta Sans','Plus Jakarta Sans Variable',-apple-system,'Segoe UI',Roboto,sans-serif" font-size="14.5" font-weight="700" letter-spacing="-0.4" text-anchor="start" fill="#0A0A0A">Language</text><text x="334" y="586.8" font-family="'Plus Jakarta Sans','Plus Jakarta Sans Variable',-apple-system,'Segoe UI',Roboto,sans-serif" font-size="13.5" font-weight="600" letter-spacing="-0.4" text-anchor="end" fill="#6B7280">English</text><clipPath id="fl338_5745"><rect x="338" y="574.5" width="24" height="17" rx="3.5"/></clipPath><g clip-path="url(#fl338_5745)"><rect x="338" y="574.5" width="24" height="17" rx="0" ry="0" fill="#012169"/><line x1="338" y1="574.5" x2="362" y2="591.5" stroke="#fff" stroke-width="4" stroke-linecap="round"/><line x1="362" y1="574.5" x2="338" y2="591.5" stroke="#fff" stroke-width="4" stroke-linecap="round"/><line x1="338" y1="574.5" x2="362" y2="591.5" stroke="#C8102E" stroke-width="1.6" stroke-linecap="round"/><line x1="362" y1="574.5" x2="338" y2="591.5" stroke="#C8102E" stroke-width="1.6" stroke-linecap="round"/><rect x="347.4" y="574.5" width="5.2" height="17" rx="0" ry="0" fill="#fff"/><rect x="338" y="580.4" width="24" height="5.2" rx="0" ry="0" fill="#fff"/><rect x="348.6" y="574.5" width="2.8" height="17" rx="0" ry="0" fill="#C8102E"/><rect x="338" y="581.6" width="24" height="2.8" rx="0" ry="0" fill="#C8102E"/></g><rect x="338" y="574.5" width="24" height="17" rx="3.5" ry="3.5" fill="none" stroke="rgba(0,0,0,0.12)" stroke-width="1"/><text x="18" y="637.2" font-family="'Plus Jakarta Sans','Plus Jakarta Sans Variable',-apple-system,'Segoe UI',Roboto,sans-serif" font-size="11.5" font-weight="800" letter-spacing="1.0" text-anchor="start" fill="#9CA3AF">LEGAL</text><rect x="19" y="657" width="352" height="112" rx="16" ry="16" fill="#000" fill-opacity="0.05"/><rect x="16" y="652" width="358" height="112" rx="16" ry="16" fill="#FFFFFF"/><rect x="32" y="663" width="34" height="34" rx="10" ry="10" fill="#EEEBFF"/><g transform="translate(39.5,670.5) scale(0.79)"><g fill="none" stroke="#5C4BFD" stroke-width="1.85" stroke-linecap="round" stroke-linejoin="round"><path d="M7 3.5 H14 L18.5 8 V20.5 H7 Z"/><polyline points="13.6,3.7 13.6,8.3 18.3,8.3"/><line x1="10" y1="13" x2="15.5" y2="13"/><line x1="10" y1="16.3" x2="15.5" y2="16.3"/></g></g><text x="78" y="683.6" font-family="'Plus Jakarta Sans','Plus Jakarta Sans Variable',-apple-system,'Segoe UI',Roboto,sans-serif" font-size="14.5" font-weight="700" letter-spacing="-0.4" text-anchor="start" fill="#0A0A0A">Terms of Service</text><g transform="translate(343,671) scale(0.75)"><g fill="none" stroke="#9CA3AF" stroke-width="1.85" stroke-linecap="round" stroke-linejoin="round"><polyline points="9,4 17,12 9,20"/></g></g><line x1="34" y1="708" x2="356" y2="708" stroke="#F3F4F6" stroke-width="1" stroke-linecap="round"/><rect x="32" y="719" width="34" height="34" rx="10" ry="10" fill="#EEEBFF"/><g transform="translate(39.5,726.5) scale(0.79)"><g fill="none" stroke="#5C4BFD" stroke-width="1.85" stroke-linecap="round" stroke-linejoin="round"><path d="M12 3 L19 6 V11 c0 5 -3.2 8.2 -7 10 c-3.8 -1.8 -7 -5 -7 -10 V6 Z"/><line x1="12" y1="10.5" x2="12" y2="15"/></g></g><text x="78" y="739.6" font-family="'Plus Jakarta Sans','Plus Jakarta Sans Variable',-apple-system,'Segoe UI',Roboto,sans-serif" font-size="14.5" font-weight="700" letter-spacing="-0.4" text-anchor="start" fill="#0A0A0A">Privacy Policy</text><g transform="translate(343,727) scale(0.75)"><g fill="none" stroke="#9CA3AF" stroke-width="1.85" stroke-linecap="round" stroke-linejoin="round"><polyline points="9,4 17,12 9,20"/></g></g><text x="195" y="796.8" font-family="'Plus Jakarta Sans','Plus Jakarta Sans Variable',-apple-system,'Segoe UI',Roboto,sans-serif" font-size="13.5" font-weight="700" letter-spacing="-0.4" text-anchor="middle" fill="#FF6B6B">Delete Account</text><rect x="128" y="835" width="134" height="5" rx="2.5" ry="2.5" fill="#0A0A0A" fill-opacity="0.85"/></svg>