<svg xmlns="http://www.w3.org/2000/svg" width="390" height="844" viewBox="0 0 390 844" font-family="'Plus Jakarta Sans','Plus Jakarta Sans Variable',-apple-system,'Segoe UI',Roboto,sans-serif"><defs><filter id="footShadow" x="-20%" y="-60%" width="140%" height="220%"><feGaussianBlur stdDeviation="6"/></filter><linearGradient id="footShadow" x1="0" y1="0" x2="0" y2="1"><stop offset="0" stop-color="#000" stop-opacity="0"/><stop offset="1" stop-color="#000" stop-opacity="0.06"/></linearGradient></defs><rect width="390" height="844" fill="#F8F8FC"/><g><text x="26" y="33" font-family="'Plus Jakarta Sans','Plus Jakarta Sans Variable',-apple-system,'Segoe UI',Roboto,sans-serif" font-size="15" font-weight="700" letter-spacing="0" text-anchor="start" fill="#0A0A0A">9:41</text><rect x="312" y="23" width="4" height="4" rx="1.2" ry="1.2" fill="#0A0A0A"/><rect x="318" y="20.6" width="4" height="6.4" rx="1.2" ry="1.2" fill="#0A0A0A"/><rect x="324" y="18.2" width="4" height="8.8" rx="1.2" ry="1.2" fill="#0A0A0A"/><rect x="330" y="15.8" width="4" height="11.2" rx="1.2" ry="1.2" fill="#0A0A0A"/><path d="M340 22 a8 8 0 0 1 11 0" fill="none" stroke="#0A0A0A" stroke-width="2" stroke-linecap="round" stroke-linejoin="round"/><path d="M342.6 25 a4.2 4.2 0 0 1 5.8 0" fill="none" stroke="#0A0A0A" stroke-width="2" stroke-linecap="round" stroke-linejoin="round"/><circle cx="345.5" cy="28" r="1.4" fill="#0A0A0A"/><rect x="360" y="19" width="20" height="10" rx="3" ry="3" fill="none" fill-opacity="0.45" stroke="#0A0A0A" stroke-width="1.2"/><rect x="362.5" y="21.2" width="13" height="5.6" rx="1.4" ry="1.4" fill="#0A0A0A"/><path d="M381 22 v4" fill="none" fill-opacity="0.45" stroke="#0A0A0A" stroke-width="1.8" stroke-linecap="round" stroke-linejoin="round"/></g><rect x="0" y="0" width="390" height="116" rx="0" ry="0" fill="#FFFFFF"/><circle cx="36" cy="82" r="20" fill="#F3F4F6"/><g transform="translate(26,73) scale(0.75)"><g fill="none" stroke="#0A0A0A" stroke-width="1.85" stroke-linecap="round" stroke-linejoin="round"><polyline points="14,4 7,12 14,20"/></g></g><text x="68" y="86.9" font-family="'Plus Jakarta Sans','Plus Jakarta Sans Variable',-apple-system,'Segoe UI',Roboto,sans-serif" font-size="18" font-weight="800" letter-spacing="-0.4" text-anchor="start" fill="#0A0A0A">Language</text><text x="16" y="142.8" font-family="'Plus Jakarta Sans','Plus Jakarta Sans Variable',-apple-system,'Segoe UI',Roboto,sans-serif" font-size="13.5" font-weight="400" letter-spacing="-0.4" text-anchor="start" fill="#6B7280">Choose the language you&#x27;d like to use across</text><text x="16" y="163.05" font-family="'Plus Jakarta Sans','Plus Jakarta Sans Variable',-apple-system,'Segoe UI',Roboto,sans-serif" font-size="13.5" font-weight="400" letter-spacing="-0.4" text-anchor="start" fill="#6B7280">the Bago app.</text><rect x="19" y="193.5" width="352" height="372" rx="16" ry="16" fill="#000" fill-opacity="0.05"/><rect x="16" y="188.5" width="358" height="372" rx="16" ry="16" fill="#FFFFFF"/><clipPath id="fl34_210"><rect x="34" y="210" width="26" height="19" rx="3.5"/></clipPath><g clip-path="url(#fl34_210)"><rect x="34" y="210" width="26" height="19" rx="0" ry="0" fill="#012169"/><line x1="34" y1="210" x2="60" y2="229" stroke="#fff" stroke-width="4" stroke-linecap="round"/><line x1="60" y1="210" x2="34" y2="229" stroke="#fff" stroke-width="4" stroke-linecap="round"/><line x1="34" y1="210" x2="60" y2="229" stroke="#C8102E" stroke-width="1.6" stroke-linecap="round"/><line x1="60" y1="210" x2="34" y2="229" stroke="#C8102E" stroke-width="1.6" stroke-linecap="round"/><rect x="44.4" y="210" width="5.2" height="19" rx="0" ry="0" fill="#fff"/><rect x="34" y="216.9" width="26" height="5.2" rx="0" ry="0" fill="#fff"/><rect x="45.6" y="210" width="2.8" height="19" rx="0" ry="0" fill="#C8102E"/><rect x="34" y="218.1" width="26" height="2.8" rx="0" ry="0" fill="#C8102E"/></g><rect x="34" y="210" width="26" height="19" rx="3.5" ry="3.5" fill="none" stroke="rgba(0,0,0,0.12)" stroke-width="1"/><text x="72" y="216.1" font-family="'Plus Jakarta Sans','Plus Jakarta Sans Variable',-apple-system,'Segoe UI',Roboto,sans-serif" font-size="14.5" font-weight="700" letter-spacing="-0.4" text-anchor="start" fill="#0A0A0A">English</text><text x="72" y="232.7" font-family="'Plus Jakarta Sans','Plus Jakarta Sans Variable',-apple-system,'Segoe UI',Roboto,sans-serif" font-size="11.5" font-weight="500" letter-spacing="-0.4" text-anchor="start" fill="#6B7280">English</text><g transform="translate(340,209.5) scale(0.83)"><g fill="none" stroke="#5C4BFD" stroke-width="1.85" stroke-linecap="round" stroke-linejoin="round"><circle cx="12" cy="12" r="9"/><polyline points="8,12 11,15 16,9"/></g></g><line x1="34" y1="250.5" x2="356" y2="250.5" stroke="#F3F4F6" stroke-width="1" stroke-linecap="round"/><clipPath id="fl34_272"><rect x="34" y="272" width="26" height="19" rx="3.5"/></clipPath><g clip-path="url(#fl34_272)"><rect x="34" y="272" width="26" height="6.77" rx="0" ry="0" fill="#000"/><rect x="34" y="278.27" width="26" height="6.96" rx="0" ry="0" fill="#DD0000"/><rect x="34" y="284.73" width="26" height="6.77" rx="0" ry="0" fill="#FFCE00"/></g><rect x="34" y="272" width="26" height="19" rx="3.5" ry="3.5" fill="none" stroke="rgba(0,0,0,0.12)" stroke-width="1"/><text x="72" y="278.1" font-family="'Plus Jakarta Sans','Plus Jakarta Sans Variable',-apple-system,'Segoe UI',Roboto,sans-serif" font-size="14.5" font-weight="700" letter-spacing="-0.4" text-anchor="start" fill="#0A0A0A">Deutsch</text><text x="72" y="294.7" font-family="'Plus Jakarta Sans','Plus Jakarta Sans Variable',-apple-system,'Segoe UI',Roboto,sans-serif" font-size="11.5" font-weight="500" letter-spacing="-0.4" text-anchor="start" fill="#6B7280">German</text><circle cx="350" cy="281.5" r="9" fill="#FFFFFF" stroke="#D1D5DB" stroke-width="2"/><line x1="34" y1="312.5" x2="356" y2="312.5" stroke="#F3F4F6" stroke-width="1" stroke-linecap="round"/><clipPath id="fl34_334"><rect x="34" y="334" width="26" height="19" rx="3.5"/></clipPath><g clip-path="url(#fl34_334)"><rect x="34" y="334" width="26" height="6.77" rx="0" ry="0" fill="#0055A4"/><rect x="34" y="340.27" width="26" height="6.96" rx="0" ry="0" fill="#fff"/><rect x="34" y="346.73" width="26" height="6.77" rx="0" ry="0" fill="#EF4135"/></g><rect x="34" y="334" width="26" height="19" rx="3.5" ry="3.5" fill="none" stroke="rgba(0,0,0,0.12)" stroke-width="1"/><text x="72" y="340.1" font-family="'Plus Jakarta Sans','Plus Jakarta Sans Variable',-apple-system,'Segoe UI',Roboto,sans-serif" font-size="14.5" font-weight="700" letter-spacing="-0.4" text-anchor="start" fill="#0A0A0A">Français</text><text x="72" y="356.7" font-family="'Plus Jakarta Sans','Plus Jakarta Sans Variable',-apple-system,'Segoe UI',Roboto,sans-serif" font-size="11.5" font-weight="500" letter-spacing="-0.4" text-anchor="start" fill="#6B7280">French</text><circle cx="350" cy="343.5" r="9" fill="#FFFFFF" stroke="#D1D5DB" stroke-width="2"/><line x1="34" y1="374.5" x2="356" y2="374.5" stroke="#F3F4F6" stroke-width="1" stroke-linecap="round"/><clipPath id="fl34_396"><rect x="34" y="396" width="26" height="19" rx="3.5"/></clipPath><g clip-path="url(#fl34_396)"><rect x="34" y="396" width="26" height="5.25" rx="0" ry="0" fill="#AA151B"/><rect x="34" y="400.75" width="26" height="10" rx="0" ry="0" fill="#F1BF00"/><rect x="34" y="410.25" width="26" height="5.25" rx="0" ry="0" fill="#AA151B"/></g><rect x="34" y="396" width="26" height="19" rx="3.5" ry="3.5" fill="none" stroke="rgba(0,0,0,0.12)" stroke-width="1"/><text x="72" y="402.1" font-family="'Plus Jakarta Sans','Plus Jakarta Sans Variable',-apple-system,'Segoe UI',Roboto,sans-serif" font-size="14.5" font-weight="700" letter-spacing="-0.4" text-anchor="start" fill="#0A0A0A">Español</text><text x="72" y="418.7" font-family="'Plus Jakarta Sans','Plus Jakarta Sans Variable',-apple-system,'Segoe UI',Roboto,sans-serif" font-size="11.5" font-weight="500" letter-spacing="-0.4" text-anchor="start" fill="#6B7280">Spanish</text><circle cx="350" cy="405.5" r="9" fill="#FFFFFF" stroke="#D1D5DB" stroke-width="2"/><line x1="34" y1="436.5" x2="356" y2="436.5" stroke="#F3F4F6" stroke-width="1" stroke-linecap="round"/><clipPath id="fl34_458"><rect x="34" y="458" width="26" height="19" rx="3.5"/></clipPath><g clip-path="url(#fl34_458)"><rect x="34" y="458" width="26" height="8.1" rx="0" ry="0" fill="#006600"/><rect x="34" y="465.6" width="26" height="11.9" rx="0" ry="0" fill="#FF0000"/></g><rect x="34" y="458" width="26" height="19" rx="3.5" ry="3.5" fill="none" stroke="rgba(0,0,0,0.12)" stroke-width="1"/><text x="72" y="464.1" font-family="'Plus Jakarta Sans','Plus Jakarta Sans Variable',-apple-system,'Segoe UI',Roboto,sans-serif" font-size="14.5" font-weight="700" letter-spacing="-0.4" text-anchor="start" fill="#0A0A0A">Português</text><text x="72" y="480.7" font-family="'Plus Jakarta Sans','Plus Jakarta Sans Variable',-apple-system,'Segoe UI',Roboto,sans-serif" font-size="11.5" font-weight="500" letter-spacing="-0.4" text-anchor="start" fill="#6B7280">Portuguese</text><circle cx="350" cy="467.5" r="9" fill="#FFFFFF" stroke="#D1D5DB" stroke-width="2"/><line x1="34" y1="498.5" x2="356" y2="498.5" stroke="#F3F4F6" stroke-width="1" stroke-linecap="round"/><clipPath id="fl34_520"><rect x="34" y="520" width="26" height="19" rx="3.5"/></clipPath><g clip-path="url(#fl34_520)"><rect x="34" y="520" width="26" height="6.77" rx="0" ry="0" fill="#009246"/><rect x="34" y="526.27" width="26" height="6.96" rx="0" ry="0" fill="#fff"/><rect x="34" y="532.73" width="26" height="6.77" rx="0" ry="0" fill="#CE2B37"/></g><rect x="34" y="520" width="26" height="19" rx="3.5" ry="3.5" fill="none" stroke="rgba(0,0,0,0.12)" stroke-width="1"/><text x="72" y="526.1" font-family="'Plus Jakarta Sans','Plus Jakarta Sans Variable',-apple-system,'Segoe UI',Roboto,sans-serif" font-size="14.5" font-weight="700" letter-spacing="-0.4" text-anchor="start" fill="#0A0A0A">Italiano</text><text x="72" y="542.7" font-family="'Plus Jakarta Sans','Plus Jakarta Sans Variable',-apple-system,'Segoe UI',Roboto,sans-serif" font-size="11.5" font-weight="500" letter-spacing="-0.4" text-anchor="start" fill="#6B7280">Italian</text><circle cx="350" cy="529.5" r="9" fill="#FFFFFF" stroke="#D1D5DB" stroke-width="2"/><rect x="128" y="835" width="134" height="5" rx="2.5" ry="2.5" fill="#0A0A0A" fill-opacity="0.85"/></svg>