<svg xmlns="http://www.w3.org/2000/svg" width="390" height="844" viewBox="0 0 390 844" font-family="'Plus Jakarta Sans','Plus Jakarta Sans Variable',-apple-system,'Segoe UI',Roboto,sans-serif"><defs><filter id="footShadow" x="-20%" y="-60%" width="140%" height="220%"><feGaussianBlur stdDeviation="6"/></filter><linearGradient id="footShadow" x1="0" y1="0" x2="0" y2="1"><stop offset="0" stop-color="#000" stop-opacity="0"/><stop offset="1" stop-color="#000" stop-opacity="0.06"/></linearGradient></defs><rect width="390" height="844" fill="#F8F8FC"/><g><text x="26" y="33" font-family="'Plus Jakarta Sans','Plus Jakarta Sans Variable',-apple-system,'Segoe UI',Roboto,sans-serif" font-size="15" font-weight="700" letter-spacing="0" text-anchor="start" fill="#0A0A0A">9:41</text><rect x="312" y="23" width="4" height="4" rx="1.2" ry="1.2" fill="#0A0A0A"/><rect x="318" y="20.6" width="4" height="6.4" rx="1.2" ry="1.2" fill="#0A0A0A"/><rect x="324" y="18.2" width="4" height="8.8" rx="1.2" ry="1.2" fill="#0A0A0A"/><rect x="330" y="15.8" width="4" height="11.2" rx="1.2" ry="1.2" fill="#0A0A0A"/><path d="M340 22 a8 8 0 0 1 11 0" fill="none" stroke="#0A0A0A" stroke-width="2" stroke-linecap="round" stroke-linejoin="round"/><path d="M342.6 25 a4.2 4.2 0 0 1 5.8 0" fill="none" stroke="#0A0A0A" stroke-width="2" stroke-linecap="round" stroke-linejoin="round"/><circle cx="345.5" cy="28" r="1.4" fill="#0A0A0A"/><rect x="360" y="19" width="20" height="10" rx="3" ry="3" fill="none" fill-opacity="0.45" stroke="#0A0A0A" stroke-width="1.2"/><rect x="362.5" y="21.2" width="13" height="5.6" rx="1.4" ry="1.4" fill="#0A0A0A"/><path d="M381 22 v4" fill="none" fill-opacity="0.45" stroke="#0A0A0A" stroke-width="1.8" stroke-linecap="round" stroke-linejoin="round"/></g><rect x="0" y="0" width="390" height="116" rx="0" ry="0" fill="#FFFFFF"/><circle cx="36" cy="82" r="20" fill="#F3F4F6"/><g transform="translate(26,73) scale(0.75)"><g fill="none" stroke="#0A0A0A" stroke-width="1.85" stroke-linecap="round" stroke-linejoin="round"><polyline points="14,4 7,12 14,20"/></g></g><text x="68" y="86.9" font-family="'Plus Jakarta Sans','Plus Jakarta Sans Variable',-apple-system,'Segoe UI',Roboto,sans-serif" font-size="18" font-weight="800" letter-spacing="-0.4" text-anchor="start" fill="#0A0A0A">Review &amp; Pay</text><rect x="16" y="132" width="358" height="166" rx="18" ry="18" fill="#FFFFFF" stroke="#E5E7EB" stroke-width="1"/><text x="34" y="158.4" font-family="'Plus Jakarta Sans','Plus Jakarta Sans Variable',-apple-system,'Segoe UI',Roboto,sans-serif" font-size="10.5" font-weight="800" letter-spacing="0.7" text-anchor="start" fill="#9CA3AF">TOTAL AMOUNT</text><text x="34" y="190" font-family="'Plus Jakarta Sans','Plus Jakarta Sans Variable',-apple-system,'Segoe UI',Roboto,sans-serif" font-size="30" font-weight="800" letter-spacing="-0.4" text-anchor="start" fill="#0A0A0A">NGN 8,568</text><line x1="34" y1="216" x2="356" y2="216" stroke="#F3F4F6" stroke-width="1" stroke-linecap="round"/><text x="34" y="240" font-family="'Plus Jakarta Sans','Plus Jakarta Sans Variable',-apple-system,'Segoe UI',Roboto,sans-serif" font-size="12.5" font-weight="500" letter-spacing="-0.4" text-anchor="start" fill="#6B7280">Shipping fee</text><text x="356" y="240" font-family="'Plus Jakarta Sans','Plus Jakarta Sans Variable',-apple-system,'Segoe UI',Roboto,sans-serif" font-size="12.5" font-weight="700" letter-spacing="-0.4" text-anchor="end" fill="#111827">NGN 8,400</text><text x="34" y="262" font-family="'Plus Jakarta Sans','Plus Jakarta Sans Variable',-apple-system,'Segoe UI',Roboto,sans-serif" font-size="12.5" font-weight="500" letter-spacing="-0.4" text-anchor="start" fill="#6B7280">Insurance</text><text x="356" y="262" font-family="'Plus Jakarta Sans','Plus Jakarta Sans Variable',-apple-system,'Segoe UI',Roboto,sans-serif" font-size="12.5" font-weight="700" letter-spacing="-0.4" text-anchor="end" fill="#111827">NGN 168</text><text x="34" y="284" font-family="'Plus Jakarta Sans','Plus Jakarta Sans Variable',-apple-system,'Segoe UI',Roboto,sans-serif" font-size="12.5" font-weight="500" letter-spacing="-0.4" text-anchor="start" fill="#6B7280">Route</text><text x="356" y="284" font-family="'Plus Jakarta Sans','Plus Jakarta Sans Variable',-apple-system,'Segoe UI',Roboto,sans-serif" font-size="12.5" font-weight="700" letter-spacing="-0.4" text-anchor="end" fill="#111827">Lagos → London</text><rect x="16" y="314" width="358" height="72" rx="18" ry="18" fill="#FFFFFF" stroke="#E5E7EB" stroke-width="1"/><rect x="32" y="330" width="40" height="40" rx="11" ry="11" fill="#EEEBFF"/><g transform="translate(42,340) scale(0.83)"><g fill="none" stroke="#5C4BFD" stroke-width="1.85" stroke-linecap="round" stroke-linejoin="round"><rect x="3" y="5.5" width="18" height="13" rx="2.6"/><line x1="3" y1="10" x2="21" y2="10"/><line x1="6.5" y1="14.5" x2="11" y2="14.5"/></g></g><text x="84" y="343.2" font-family="'Plus Jakarta Sans','Plus Jakarta Sans Variable',-apple-system,'Segoe UI',Roboto,sans-serif" font-size="14" font-weight="800" letter-spacing="-0.4" text-anchor="start" fill="#0A0A0A">Secure payment</text><text x="84" y="361.6" font-family="'Plus Jakarta Sans','Plus Jakarta Sans Variable',-apple-system,'Segoe UI',Roboto,sans-serif" font-size="12" font-weight="500" letter-spacing="-0.4" text-anchor="start" fill="#6B7280">Encrypted &amp; processed by Stripe</text><text x="18" y="411.2" font-family="'Plus Jakarta Sans','Plus Jakarta Sans Variable',-apple-system,'Segoe UI',Roboto,sans-serif" font-size="11.5" font-weight="800" letter-spacing="1.0" text-anchor="start" fill="#9CA3AF">PAYMENT METHOD</text><rect x="16" y="426" width="358" height="60" rx="14" ry="14" fill="#FFFFFF" stroke="#E5E7EB" stroke-width="1"/><rect x="16" y="426" width="358" height="60" rx="14" ry="14" fill="none" stroke="#5C4BFD" stroke-width="1.6"/><rect x="32" y="444" width="38" height="24" rx="6" ry="6" fill="#1A1F71"/><text x="51" y="457.2" font-family="'Plus Jakarta Sans','Plus Jakarta Sans Variable',-apple-system,'Segoe UI',Roboto,sans-serif" font-size="9" font-weight="800" letter-spacing="-0.4" text-anchor="middle" fill="#FFFFFF">Visa</text><text x="82" y="450.8" font-family="'Plus Jakarta Sans','Plus Jakarta Sans Variable',-apple-system,'Segoe UI',Roboto,sans-serif" font-size="13.5" font-weight="700" letter-spacing="-0.4" text-anchor="start" fill="#0A0A0A">Visa  •••• 4242</text><text x="82" y="468.2" font-family="'Plus Jakarta Sans','Plus Jakarta Sans Variable',-apple-system,'Segoe UI',Roboto,sans-serif" font-size="11.5" font-weight="500" letter-spacing="-0.4" text-anchor="start" fill="#6B7280">Expires 08/27</text><circle cx="348" cy="456" r="10" fill="#5C4BFD"/><circle cx="348" cy="456" r="4" fill="#FFFFFF"/><rect x="16" y="498" width="358" height="60" rx="14" ry="14" fill="#FFFFFF" stroke="#E5E7EB" stroke-width="1"/><rect x="32" y="516" width="38" height="24" rx="6" ry="6" fill="#EB001B"/><text x="51" y="529.2" font-family="'Plus Jakarta Sans','Plus Jakarta Sans Variable',-apple-system,'Segoe UI',Roboto,sans-serif" font-size="9" font-weight="800" letter-spacing="-0.4" text-anchor="middle" fill="#FFFFFF">Mast</text><text x="82" y="522.8" font-family="'Plus Jakarta Sans','Plus Jakarta Sans Variable',-apple-system,'Segoe UI',Roboto,sans-serif" font-size="13.5" font-weight="700" letter-spacing="-0.4" text-anchor="start" fill="#0A0A0A">Mastercard  •••• 8810</text><text x="82" y="540.2" font-family="'Plus Jakarta Sans','Plus Jakarta Sans Variable',-apple-system,'Segoe UI',Roboto,sans-serif" font-size="11.5" font-weight="500" letter-spacing="-0.4" text-anchor="start" fill="#6B7280">Expires 02/26</text><circle cx="348" cy="528" r="10" fill="#FFFFFF" stroke="#D1D5DB" stroke-width="2"/><rect x="16" y="572" width="358" height="60.08" rx="18" ry="18" fill="#EFF6FF"/><g transform="translate(34,588) scale(0.83)"><g fill="none" stroke="#3B82F6" stroke-width="1.85" stroke-linecap="round" stroke-linejoin="round"><rect x="4.5" y="10.5" width="15" height="10" rx="2.6"/><path d="M8 10.5 V7.6 a4 4 0 0 1 8 0 V10.5"/></g></g><text x="64" y="595.6" font-family="'Plus Jakarta Sans','Plus Jakarta Sans Variable',-apple-system,'Segoe UI',Roboto,sans-serif" font-size="12" font-weight="700" letter-spacing="-0.4" text-anchor="start" fill="#3B82F6">Your shipment stays pending until</text><text x="64" y="612.64" font-family="'Plus Jakarta Sans','Plus Jakarta Sans Variable',-apple-system,'Segoe UI',Roboto,sans-serif" font-size="12" font-weight="700" letter-spacing="-0.4" text-anchor="start" fill="#3B82F6">payment is confirmed.</text><rect x="0" y="738" width="390" height="14" rx="0" ry="0" fill="url(#footShadow)"/><rect x="0" y="752" width="390" height="92" rx="0" ry="0" fill="#FFFFFF"/><rect x="20" y="770" width="358" height="52" rx="14" ry="14" fill="#5C4BFD"/><text x="199" y="800.8" font-family="'Plus Jakarta Sans','Plus Jakarta Sans Variable',-apple-system,'Segoe UI',Roboto,sans-serif" font-size="16" font-weight="600" letter-spacing="-0.4" text-anchor="middle" fill="#FFFFFF">Pay  NGN 8,568</text><rect x="128" y="835" width="134" height="5" rx="2.5" ry="2.5" fill="#0A0A0A" fill-opacity="0.85"/></svg>