<svg xmlns="http://www.w3.org/2000/svg" width="390" height="844" viewBox="0 0 390 844" font-family="'Plus Jakarta Sans','Plus Jakarta Sans Variable',-apple-system,'Segoe UI',Roboto,sans-serif"><defs><filter id="footShadow" x="-20%" y="-60%" width="140%" height="220%"><feGaussianBlur stdDeviation="6"/></filter><linearGradient id="footShadow" x1="0" y1="0" x2="0" y2="1"><stop offset="0" stop-color="#000" stop-opacity="0"/><stop offset="1" stop-color="#000" stop-opacity="0.06"/></linearGradient></defs><rect width="390" height="844" fill="#FFFFFF"/><g><text x="26" y="33" font-family="'Plus Jakarta Sans','Plus Jakarta Sans Variable',-apple-system,'Segoe UI',Roboto,sans-serif" font-size="15" font-weight="700" letter-spacing="0" text-anchor="start" fill="#0A0A0A">9:41</text><rect x="312" y="23" width="4" height="4" rx="1.2" ry="1.2" fill="#0A0A0A"/><rect x="318" y="20.6" width="4" height="6.4" rx="1.2" ry="1.2" fill="#0A0A0A"/><rect x="324" y="18.2" width="4" height="8.8" rx="1.2" ry="1.2" fill="#0A0A0A"/><rect x="330" y="15.8" width="4" height="11.2" rx="1.2" ry="1.2" fill="#0A0A0A"/><path d="M340 22 a8 8 0 0 1 11 0" fill="none" stroke="#0A0A0A" stroke-width="2" stroke-linecap="round" stroke-linejoin="round"/><path d="M342.6 25 a4.2 4.2 0 0 1 5.8 0" fill="none" stroke="#0A0A0A" stroke-width="2" stroke-linecap="round" stroke-linejoin="round"/><circle cx="345.5" cy="28" r="1.4" fill="#0A0A0A"/><rect x="360" y="19" width="20" height="10" rx="3" ry="3" fill="none" fill-opacity="0.45" stroke="#0A0A0A" stroke-width="1.2"/><rect x="362.5" y="21.2" width="13" height="5.6" rx="1.4" ry="1.4" fill="#0A0A0A"/><path d="M381 22 v4" fill="none" fill-opacity="0.45" stroke="#0A0A0A" stroke-width="1.8" stroke-linecap="round" stroke-linejoin="round"/></g><circle cx="195" cy="200" r="50" fill="#D1FAE5"/><g transform="translate(172,177) scale(1.92)"><g fill="none" stroke="#10B981" stroke-width="2.6" stroke-linecap="round" stroke-linejoin="round"><polyline points="4,13 10,18 20,6"/></g></g><text x="195" y="293.6" font-family="'Plus Jakarta Sans','Plus Jakarta Sans Variable',-apple-system,'Segoe UI',Roboto,sans-serif" font-size="22" font-weight="800" letter-spacing="-0.4" text-anchor="middle" fill="#0A0A0A">Shipment Requested!</text><text x="195" y="325.6" font-family="'Plus Jakarta Sans','Plus Jakarta Sans Variable',-apple-system,'Segoe UI',Roboto,sans-serif" font-size="14.5" font-weight="500" letter-spacing="-0.4" text-anchor="middle" fill="#6B7280">Your shipment has been created and sent</text><text x="195" y="347.6" font-family="'Plus Jakarta Sans','Plus Jakarta Sans Variable',-apple-system,'Segoe UI',Roboto,sans-serif" font-size="14.5" font-weight="500" letter-spacing="-0.4" text-anchor="middle" fill="#6B7280">to the traveler.</text><text x="195" y="380" font-family="'Plus Jakarta Sans','Plus Jakarta Sans Variable',-apple-system,'Segoe UI',Roboto,sans-serif" font-size="12.5" font-weight="600" letter-spacing="-0.4" text-anchor="middle" fill="#9CA3AF">Payment reference: BAGO-PAY-90241</text><rect x="0" y="752" width="390" height="92" rx="0" ry="0" fill="#FFFFFF"/><rect x="20" y="770" width="350" height="52" rx="14" ry="14" fill="#5C4BFD"/><text x="195" y="800.8" font-family="'Plus Jakarta Sans','Plus Jakarta Sans Variable',-apple-system,'Segoe UI',Roboto,sans-serif" font-size="16" font-weight="600" letter-spacing="-0.4" text-anchor="middle" fill="#FFFFFF">View Shipments</text><rect x="20" y="692" width="350" height="52" rx="14" ry="14" fill="#FFFFFF" stroke="#5C4BFD" stroke-width="1.5"/><text x="195" y="722.8" font-family="'Plus Jakarta Sans','Plus Jakarta Sans Variable',-apple-system,'Segoe UI',Roboto,sans-serif" font-size="16" font-weight="600" letter-spacing="-0.4" text-anchor="middle" fill="#5C4BFD">Back to Home</text><rect x="128" y="835" width="134" height="5" rx="2.5" ry="2.5" fill="#0A0A0A" fill-opacity="0.85"/></svg>