<svg xmlns="http://www.w3.org/2000/svg" width="390" height="844" viewBox="0 0 390 844" font-family="'Plus Jakarta Sans','Plus Jakarta Sans Variable',-apple-system,'Segoe UI',Roboto,sans-serif"><defs><filter id="footShadow" x="-20%" y="-60%" width="140%" height="220%"><feGaussianBlur stdDeviation="6"/></filter><linearGradient id="footShadow" x1="0" y1="0" x2="0" y2="1"><stop offset="0" stop-color="#000" stop-opacity="0"/><stop offset="1" stop-color="#000" stop-opacity="0.06"/></linearGradient></defs><rect width="390" height="844" fill="#FFFFFF"/><g><text x="26" y="33" font-family="'Plus Jakarta Sans','Plus Jakarta Sans Variable',-apple-system,'Segoe UI',Roboto,sans-serif" font-size="15" font-weight="700" letter-spacing="0" text-anchor="start" fill="#0A0A0A">9:41</text><rect x="312" y="23" width="4" height="4" rx="1.2" ry="1.2" fill="#0A0A0A"/><rect x="318" y="20.6" width="4" height="6.4" rx="1.2" ry="1.2" fill="#0A0A0A"/><rect x="324" y="18.2" width="4" height="8.8" rx="1.2" ry="1.2" fill="#0A0A0A"/><rect x="330" y="15.8" width="4" height="11.2" rx="1.2" ry="1.2" fill="#0A0A0A"/><path d="M340 22 a8 8 0 0 1 11 0" fill="none" stroke="#0A0A0A" stroke-width="2" stroke-linecap="round" stroke-linejoin="round"/><path d="M342.6 25 a4.2 4.2 0 0 1 5.8 0" fill="none" stroke="#0A0A0A" stroke-width="2" stroke-linecap="round" stroke-linejoin="round"/><circle cx="345.5" cy="28" r="1.4" fill="#0A0A0A"/><rect x="360" y="19" width="20" height="10" rx="3" ry="3" fill="none" fill-opacity="0.45" stroke="#0A0A0A" stroke-width="1.2"/><rect x="362.5" y="21.2" width="13" height="5.6" rx="1.4" ry="1.4" fill="#0A0A0A"/><path d="M381 22 v4" fill="none" fill-opacity="0.45" stroke="#0A0A0A" stroke-width="1.8" stroke-linecap="round" stroke-linejoin="round"/></g><rect x="20" y="58" width="350" height="40" rx="12" ry="12" fill="#F3F4F6"/><rect x="24" y="62" width="171" height="32" rx="9" ry="9" fill="#FFFFFF"/><text x="107.5" y="80.4" font-family="'Plus Jakarta Sans','Plus Jakarta Sans Variable',-apple-system,'Segoe UI',Roboto,sans-serif" font-size="13" font-weight="700" letter-spacing="-0.4" text-anchor="middle" fill="#0A0A0A">About You</text><text x="282.5" y="80.4" font-family="'Plus Jakarta Sans','Plus Jakarta Sans Variable',-apple-system,'Segoe UI',Roboto,sans-serif" font-size="13" font-weight="700" letter-spacing="-0.4" text-anchor="middle" fill="#6B7280">Account</text><rect x="20" y="114" width="350" height="44" rx="12" ry="12" fill="#F3F4F6"/><rect x="24" y="118" width="171" height="36" rx="9" ry="9" fill="#5C4BFD"/><text x="107.5" y="138" font-family="'Plus Jakarta Sans','Plus Jakarta Sans Variable',-apple-system,'Segoe UI',Roboto,sans-serif" font-size="12.5" font-weight="700" letter-spacing="-0.4" text-anchor="middle" fill="#FFFFFF">Send Packages</text><text x="282.5" y="138" font-family="'Plus Jakarta Sans','Plus Jakarta Sans Variable',-apple-system,'Segoe UI',Roboto,sans-serif" font-size="12.5" font-weight="700" letter-spacing="-0.4" text-anchor="middle" fill="#6B7280">Earn as Traveler</text><circle cx="195" cy="216" r="42" fill="#EEEBFF"/><text x="195" y="223.2" font-family="'Plus Jakarta Sans','Plus Jakarta Sans Variable',-apple-system,'Segoe UI',Roboto,sans-serif" font-size="24" font-weight="800" letter-spacing="-0.4" text-anchor="middle" fill="#5C4BFD">DA</text><circle cx="225" cy="240" r="14" fill="#5C4BFD"/><g transform="translate(217.5,232.5) scale(0.62)"><g fill="none" stroke="#FFFFFF" stroke-width="1.85" stroke-linecap="round" stroke-linejoin="round"><path d="M3.5 9 a1.6 1.6 0 0 1 1.6 -1.6 H8 L9.6 5 H14.4 L16 7.4 H18.9 A1.6 1.6 0 0 1 20.5 9 V17.4 A1.6 1.6 0 0 1 18.9 19 H5.1 A1.6 1.6 0 0 1 3.5 17.4 Z"/><circle cx="12" cy="13" r="3.6"/></g></g><text x="195" y="286" font-family="'Plus Jakarta Sans','Plus Jakarta Sans Variable',-apple-system,'Segoe UI',Roboto,sans-serif" font-size="20" font-weight="800" letter-spacing="-0.4" text-anchor="middle" fill="#0A0A0A">Donny Ace</text><g transform="translate(150.4,300)"><rect x="0" y="0" width="89.2" height="24" rx="12" ry="12" fill="#D1FAE5"/><g transform="translate(6.5,5.5) scale(0.54)"><g fill="none" stroke="#10B981" stroke-width="2" stroke-linecap="round" stroke-linejoin="round"><path d="M12 2.5 l2.3 1.9 3 -.3 .9 2.9 2.6 1.6 -.9 2.9 .9 2.9 -2.6 1.6 -.9 2.9 -3 -.3 L12 21.5 l-2.3 -1.9 -3 .3 -.9 -2.9 -2.6 -1.6 .9 -2.9 -.9 -2.9 2.6 -1.6 .9 -2.9 3 .3 Z"/><polyline points="9,12 11,14 15,9.5"/></g></g><text x="23" y="14.88" font-family="'Plus Jakarta Sans','Plus Jakarta Sans Variable',-apple-system,'Segoe UI',Roboto,sans-serif" font-size="11.5" font-weight="700" letter-spacing="-0.4" text-anchor="start" fill="#10B981">Verified</text></g><text x="195" y="342.4" font-family="'Plus Jakarta Sans','Plus Jakarta Sans Variable',-apple-system,'Segoe UI',Roboto,sans-serif" font-size="13" font-weight="700" letter-spacing="-0.4" text-anchor="middle" fill="#5C4BFD">Edit personal details</text><text x="22" y="373.2" font-family="'Plus Jakarta Sans','Plus Jakarta Sans Variable',-apple-system,'Segoe UI',Roboto,sans-serif" font-size="11.5" font-weight="800" letter-spacing="1.0" text-anchor="start" fill="#9CA3AF">VERIFICATION STATUS</text><rect x="23" y="393" width="344" height="168" rx="16" ry="16" fill="#000" fill-opacity="0.05"/><rect x="20" y="388" width="350" height="168" rx="16" ry="16" fill="#FFFFFF"/><rect x="36" y="399" width="34" height="34" rx="10" ry="10" fill="#FEF3C7"/><g transform="translate(43.5,406.5) scale(0.79)"><g fill="none" stroke="#F59E0B" stroke-width="1.85" stroke-linecap="round" stroke-linejoin="round"><path d="M12 3 L19 6 V11 c0 5 -3.2 8.2 -7 10 c-3.8 -1.8 -7 -5 -7 -10 V6 Z"/></g></g><text x="82" y="419.6" font-family="'Plus Jakarta Sans','Plus Jakarta Sans Variable',-apple-system,'Segoe UI',Roboto,sans-serif" font-size="14.5" font-weight="700" letter-spacing="-0.4" text-anchor="start" fill="#0A0A0A">Identity Verification</text><g transform="translate(339,407) scale(0.75)"><g fill="none" stroke="#9CA3AF" stroke-width="1.85" stroke-linecap="round" stroke-linejoin="round"><polyline points="9,4 17,12 9,20"/></g></g><line x1="38" y1="444" x2="352" y2="444" stroke="#F3F4F6" stroke-width="1" stroke-linecap="round"/><rect x="36" y="455" width="34" height="34" rx="10" ry="10" fill="#EEEBFF"/><g transform="translate(43.5,462.5) scale(0.79)"><g fill="none" stroke="#5C4BFD" stroke-width="1.85" stroke-linecap="round" stroke-linejoin="round"><rect x="3" y="5.5" width="18" height="13" rx="2.6"/><polyline points="3.8,7 12,12.5 20.2,7"/></g></g><text x="82" y="475.6" font-family="'Plus Jakarta Sans','Plus Jakarta Sans Variable',-apple-system,'Segoe UI',Roboto,sans-serif" font-size="14.5" font-weight="700" letter-spacing="-0.4" text-anchor="start" fill="#0A0A0A">donny@example.com</text><g transform="translate(339,463) scale(0.75)"><g fill="none" stroke="#9CA3AF" stroke-width="1.85" stroke-linecap="round" stroke-linejoin="round"><polyline points="9,4 17,12 9,20"/></g></g><line x1="38" y1="500" x2="352" y2="500" stroke="#F3F4F6" stroke-width="1" stroke-linecap="round"/><rect x="36" y="511" width="34" height="34" rx="10" ry="10" fill="#EEEBFF"/><g transform="translate(43.5,518.5) scale(0.79)"><g fill="none" stroke="#5C4BFD" stroke-width="1.85" stroke-linecap="round" stroke-linejoin="round"><path d="M7 3.5 h3.4 l1.7 4.3 -2.4 1.7 a12 12 0 0 0 5.1 5.1 l1.7 -2.4 4.3 1.7 V19 a2 2 0 0 1 -2.2 2 A17.5 17.5 0 0 1 5 5.7 a2 2 0 0 1 2 -2.2 Z"/></g></g><text x="82" y="531.6" font-family="'Plus Jakarta Sans','Plus Jakarta Sans Variable',-apple-system,'Segoe UI',Roboto,sans-serif" font-size="14.5" font-weight="700" letter-spacing="-0.4" text-anchor="start" fill="#0A0A0A">+234 800 123 4567</text><rect x="270" y="517" width="84" height="22" rx="11" ry="11" fill="#FEF3C7"/><text x="312" y="530.3" font-family="'Plus Jakarta Sans','Plus Jakarta Sans Variable',-apple-system,'Segoe UI',Roboto,sans-serif" font-size="11" font-weight="700" letter-spacing="-0.4" text-anchor="middle" fill="#92600A">Unverified</text><text x="22" y="581.2" font-family="'Plus Jakarta Sans','Plus Jakarta Sans Variable',-apple-system,'Segoe UI',Roboto,sans-serif" font-size="11.5" font-weight="800" letter-spacing="1.0" text-anchor="start" fill="#9CA3AF">ABOUT YOU</text><rect x="23" y="601" width="344" height="112" rx="16" ry="16" fill="#000" fill-opacity="0.05"/><rect x="20" y="596" width="350" height="112" rx="16" ry="16" fill="#FFFFFF"/><rect x="36" y="607" width="34" height="34" rx="10" ry="10" fill="#EEEBFF"/><g transform="translate(43.5,614.5) scale(0.79)"><g fill="none" stroke="#5C4BFD" stroke-width="1.85" stroke-linecap="round" stroke-linejoin="round"><line x1="12" y1="5" x2="12" y2="19"/><line x1="5" y1="12" x2="19" y2="12"/></g></g><text x="82" y="627.6" font-family="'Plus Jakarta Sans','Plus Jakarta Sans Variable',-apple-system,'Segoe UI',Roboto,sans-serif" font-size="14.5" font-weight="700" letter-spacing="-0.4" text-anchor="start" fill="#0A0A0A">Add a mini bio</text><g transform="translate(339,615) scale(0.75)"><g fill="none" stroke="#9CA3AF" stroke-width="1.85" stroke-linecap="round" stroke-linejoin="round"><polyline points="9,4 17,12 9,20"/></g></g><line x1="38" y1="652" x2="352" y2="652" stroke="#F3F4F6" stroke-width="1" stroke-linecap="round"/><rect x="36" y="663" width="34" height="34" rx="10" ry="10" fill="#EEEBFF"/><g transform="translate(43.5,670.5) scale(0.79)"><g fill="none" stroke="#5C4BFD" stroke-width="1.85" stroke-linecap="round" stroke-linejoin="round"><circle cx="12" cy="12" r="8.5"/><line x1="3.5" y1="12" x2="20.5" y2="12"/><path d="M12 3.5 c4.2 4 4.2 13 0 17 c-4.2 -4 -4.2 -13 0 -17"/></g></g><text x="82" y="683.6" font-family="'Plus Jakarta Sans','Plus Jakarta Sans Variable',-apple-system,'Segoe UI',Roboto,sans-serif" font-size="14.5" font-weight="700" letter-spacing="-0.4" text-anchor="start" fill="#0A0A0A">Language</text><text x="330" y="682.8" font-family="'Plus Jakarta Sans','Plus Jakarta Sans Variable',-apple-system,'Segoe UI',Roboto,sans-serif" font-size="13.5" font-weight="600" letter-spacing="-0.4" text-anchor="end" fill="#6B7280">English</text><clipPath id="fl334_6705"><rect x="334" y="670.5" width="24" height="17" rx="3.5"/></clipPath><g clip-path="url(#fl334_6705)"><rect x="334" y="670.5" width="24" height="17" rx="0" ry="0" fill="#012169"/><line x1="334" y1="670.5" x2="358" y2="687.5" stroke="#fff" stroke-width="4" stroke-linecap="round"/><line x1="358" y1="670.5" x2="334" y2="687.5" stroke="#fff" stroke-width="4" stroke-linecap="round"/><line x1="334" y1="670.5" x2="358" y2="687.5" stroke="#C8102E" stroke-width="1.6" stroke-linecap="round"/><line x1="358" y1="670.5" x2="334" y2="687.5" stroke="#C8102E" stroke-width="1.6" stroke-linecap="round"/><rect x="343.4" y="670.5" width="5.2" height="17" rx="0" ry="0" fill="#fff"/><rect x="334" y="676.4" width="24" height="5.2" rx="0" ry="0" fill="#fff"/><rect x="344.6" y="670.5" width="2.8" height="17" rx="0" ry="0" fill="#C8102E"/><rect x="334" y="677.6" width="24" height="2.8" rx="0" ry="0" fill="#C8102E"/></g><rect x="334" y="670.5" width="24" height="17" rx="3.5" ry="3.5" fill="none" stroke="rgba(0,0,0,0.12)" stroke-width="1"/><rect x="0" y="760" width="390" height="84" rx="0" ry="0" fill="#FFFFFF"/><line x1="0" y1="760" x2="390" y2="760" stroke="#E5E7EB" stroke-width="1" stroke-linecap="round"/><g transform="translate(36.25,769.5) scale(1.04)"><g fill="none" stroke="#9CA3AF" stroke-width="2" stroke-linecap="round" stroke-linejoin="round"><path d="M3.5 11.5 L12 4 L20.5 11.5"/><path d="M6 10 V20 H18 V10"/></g></g><text x="48.75" y="806.8" font-family="'Plus Jakarta Sans','Plus Jakarta Sans Variable',-apple-system,'Segoe UI',Roboto,sans-serif" font-size="11" font-weight="600" letter-spacing="-0.4" text-anchor="middle" fill="#9CA3AF">Home</text><g transform="translate(133.75,769.5) scale(1.04)"><g fill="none" stroke="#9CA3AF" stroke-width="2" stroke-linecap="round" stroke-linejoin="round"><rect x="3" y="5" width="18" height="14" rx="2.5"/><path d="M3 13.5 H8 L10 16.5 H14 L16 13.5 H21"/></g></g><text x="146.25" y="806.8" font-family="'Plus Jakarta Sans','Plus Jakarta Sans Variable',-apple-system,'Segoe UI',Roboto,sans-serif" font-size="11" font-weight="600" letter-spacing="-0.4" text-anchor="middle" fill="#9CA3AF">Shipments</text><g transform="translate(231.25,769.5) scale(1.04)"><g fill="none" stroke="#9CA3AF" stroke-width="2" stroke-linecap="round" stroke-linejoin="round"><path d="M5 4 H19 a2 2 0 0 1 2 2 V14 a2 2 0 0 1 -2 2 H10 l-4 4 V16 H5 a2 2 0 0 1 -2 -2 V6 a2 2 0 0 1 2 -2 Z"/></g></g><text x="243.75" y="806.8" font-family="'Plus Jakarta Sans','Plus Jakarta Sans Variable',-apple-system,'Segoe UI',Roboto,sans-serif" font-size="11" font-weight="600" letter-spacing="-0.4" text-anchor="middle" fill="#9CA3AF">Messages</text><g transform="translate(328.75,769.5) scale(1.04)"><g fill="none" stroke="#0A0A0A" stroke-width="2" stroke-linecap="round" stroke-linejoin="round"><circle cx="12" cy="8" r="4"/><path d="M5 20 c0 -4.2 3.2 -6.3 7 -6.3 s7 2.1 7 6.3"/></g></g><text x="341.25" y="806.8" font-family="'Plus Jakarta Sans','Plus Jakarta Sans Variable',-apple-system,'Segoe UI',Roboto,sans-serif" font-size="11" font-weight="600" letter-spacing="-0.4" text-anchor="middle" fill="#0A0A0A">Profile</text><rect x="128" y="835" width="134" height="5" rx="2.5" ry="2.5" fill="#0A0A0A" fill-opacity="0.85"/></svg>