<svg xmlns="http://www.w3.org/2000/svg" width="390" height="844" viewBox="0 0 390 844" font-family="'Plus Jakarta Sans','Plus Jakarta Sans Variable',-apple-system,'Segoe UI',Roboto,sans-serif"><defs><filter id="footShadow" x="-20%" y="-60%" width="140%" height="220%"><feGaussianBlur stdDeviation="6"/></filter><linearGradient id="footShadow" x1="0" y1="0" x2="0" y2="1"><stop offset="0" stop-color="#000" stop-opacity="0"/><stop offset="1" stop-color="#000" stop-opacity="0.06"/></linearGradient></defs><rect width="390" height="844" fill="#FFFFFF"/><g><text x="26" y="33" font-family="'Plus Jakarta Sans','Plus Jakarta Sans Variable',-apple-system,'Segoe UI',Roboto,sans-serif" font-size="15" font-weight="700" letter-spacing="0" text-anchor="start" fill="#0A0A0A">9:41</text><rect x="312" y="23" width="4" height="4" rx="1.2" ry="1.2" fill="#0A0A0A"/><rect x="318" y="20.6" width="4" height="6.4" rx="1.2" ry="1.2" fill="#0A0A0A"/><rect x="324" y="18.2" width="4" height="8.8" rx="1.2" ry="1.2" fill="#0A0A0A"/><rect x="330" y="15.8" width="4" height="11.2" rx="1.2" ry="1.2" fill="#0A0A0A"/><path d="M340 22 a8 8 0 0 1 11 0" fill="none" stroke="#0A0A0A" stroke-width="2" stroke-linecap="round" stroke-linejoin="round"/><path d="M342.6 25 a4.2 4.2 0 0 1 5.8 0" fill="none" stroke="#0A0A0A" stroke-width="2" stroke-linecap="round" stroke-linejoin="round"/><circle cx="345.5" cy="28" r="1.4" fill="#0A0A0A"/><rect x="360" y="19" width="20" height="10" rx="3" ry="3" fill="none" fill-opacity="0.45" stroke="#0A0A0A" stroke-width="1.2"/><rect x="362.5" y="21.2" width="13" height="5.6" rx="1.4" ry="1.4" fill="#0A0A0A"/><path d="M381 22 v4" fill="none" fill-opacity="0.45" stroke="#0A0A0A" stroke-width="1.8" stroke-linecap="round" stroke-linejoin="round"/></g><rect x="0" y="0" width="390" height="106" rx="0" ry="0" fill="#FFFFFF"/><g transform="translate(15,67) scale(0.92)"><g fill="none" stroke="#0A0A0A" stroke-width="1.85" stroke-linecap="round" stroke-linejoin="round"><polyline points="14,4 7,12 14,20"/></g></g><text x="58" y="83.4" font-family="'Plus Jakarta Sans','Plus Jakarta Sans Variable',-apple-system,'Segoe UI',Roboto,sans-serif" font-size="18" font-weight="700" letter-spacing="-0.4" text-anchor="start" fill="#0A0A0A">Edit Profile</text><rect x="20" y="122" width="350" height="60.08" rx="18" ry="18" fill="#FEF3C7"/><g transform="translate(38,138) scale(0.83)"><g fill="none" stroke="#92600A" stroke-width="1.85" stroke-linecap="round" stroke-linejoin="round"><rect x="4.5" y="10.5" width="15" height="10" rx="2.6"/><path d="M8 10.5 V7.6 a4 4 0 0 1 8 0 V10.5"/></g></g><text x="68" y="145.6" font-family="'Plus Jakarta Sans','Plus Jakarta Sans Variable',-apple-system,'Segoe UI',Roboto,sans-serif" font-size="12" font-weight="700" letter-spacing="-0.4" text-anchor="start" fill="#92600A">Name and date of birth are locked after</text><text x="68" y="162.64" font-family="'Plus Jakarta Sans','Plus Jakarta Sans Variable',-apple-system,'Segoe UI',Roboto,sans-serif" font-size="12" font-weight="700" letter-spacing="-0.4" text-anchor="start" fill="#92600A">KYC approval.</text><text x="22" y="207.28" font-family="'Plus Jakarta Sans','Plus Jakarta Sans Variable',-apple-system,'Segoe UI',Roboto,sans-serif" font-size="11.5" font-weight="800" letter-spacing="1.0" text-anchor="start" fill="#9CA3AF">PERSONAL INFORMATION</text><text x="20" y="233.28" font-family="'Plus Jakarta Sans','Plus Jakarta Sans Variable',-apple-system,'Segoe UI',Roboto,sans-serif" font-size="14" font-weight="500" letter-spacing="-0.4" text-anchor="start" fill="#374151">First Name</text><rect x="20" y="244.08" width="350" height="54" rx="16" ry="16" fill="#FFFFFF" stroke="#E5E7EB" stroke-width="1"/><g transform="translate(34,261.08) scale(0.83)"><g fill="none" stroke="#6B7280" stroke-width="1.85" stroke-linecap="round" stroke-linejoin="round"><circle cx="12" cy="8" r="4"/><path d="M5 20 c0 -4.2 3.2 -6.3 7 -6.3 s7 2.1 7 6.3"/></g></g><text x="64" y="275.68" font-family="'Plus Jakarta Sans','Plus Jakarta Sans Variable',-apple-system,'Segoe UI',Roboto,sans-serif" font-size="14.5" font-weight="500" letter-spacing="-0.4" text-anchor="start" fill="#111827">Donny</text><g transform="translate(341,262.08) scale(0.75)"><g fill="none" stroke="#9CA3AF" stroke-width="1.85" stroke-linecap="round" stroke-linejoin="round"><polyline points="9,4 17,12 9,20"/></g></g><text x="20" y="323.28" font-family="'Plus Jakarta Sans','Plus Jakarta Sans Variable',-apple-system,'Segoe UI',Roboto,sans-serif" font-size="14" font-weight="500" letter-spacing="-0.4" text-anchor="start" fill="#374151">Last Name</text><rect x="20" y="334.08" width="350" height="54" rx="16" ry="16" fill="#FFFFFF" stroke="#E5E7EB" stroke-width="1"/><g transform="translate(34,351.08) scale(0.83)"><g fill="none" stroke="#6B7280" stroke-width="1.85" stroke-linecap="round" stroke-linejoin="round"><circle cx="12" cy="8" r="4"/><path d="M5 20 c0 -4.2 3.2 -6.3 7 -6.3 s7 2.1 7 6.3"/></g></g><text x="64" y="365.68" font-family="'Plus Jakarta Sans','Plus Jakarta Sans Variable',-apple-system,'Segoe UI',Roboto,sans-serif" font-size="14.5" font-weight="500" letter-spacing="-0.4" text-anchor="start" fill="#111827">Ace</text><text x="20" y="413.28" font-family="'Plus Jakarta Sans','Plus Jakarta Sans Variable',-apple-system,'Segoe UI',Roboto,sans-serif" font-size="14" font-weight="500" letter-spacing="-0.4" text-anchor="start" fill="#374151">Date of Birth</text><rect x="20" y="424.08" width="350" height="54" rx="16" ry="16" fill="#FFFFFF" stroke="#E5E7EB" stroke-width="1"/><g transform="translate(34,441.08) scale(0.83)"><g fill="none" stroke="#6B7280" stroke-width="1.85" stroke-linecap="round" stroke-linejoin="round"><path d="M4 20 H20 V13 a3 3 0 0 0 -3 -3 H7 a3 3 0 0 0 -3 3 Z"/><line x1="4" y1="15.5" x2="20" y2="15.5"/><line x1="12" y1="4" x2="12" y2="9.5"/><circle cx="12" cy="3.4" r="1"/></g></g><text x="64" y="455.68" font-family="'Plus Jakarta Sans','Plus Jakarta Sans Variable',-apple-system,'Segoe UI',Roboto,sans-serif" font-size="14.5" font-weight="500" letter-spacing="-0.4" text-anchor="start" fill="#111827">1996-04-12</text><text x="22" y="501.28" font-family="'Plus Jakarta Sans','Plus Jakarta Sans Variable',-apple-system,'Segoe UI',Roboto,sans-serif" font-size="11.5" font-weight="800" letter-spacing="1.0" text-anchor="start" fill="#9CA3AF">ACCOUNT INFORMATION</text><text x="20" y="527.28" font-family="'Plus Jakarta Sans','Plus Jakarta Sans Variable',-apple-system,'Segoe UI',Roboto,sans-serif" font-size="14" font-weight="500" letter-spacing="-0.4" text-anchor="start" fill="#374151">Email Address</text><rect x="20" y="538.08" width="350" height="54" rx="16" ry="16" fill="#FFFFFF" stroke="#E5E7EB" stroke-width="1"/><g transform="translate(34,555.08) scale(0.83)"><g fill="none" stroke="#6B7280" stroke-width="1.85" stroke-linecap="round" stroke-linejoin="round"><rect x="3" y="5.5" width="18" height="13" rx="2.6"/><polyline points="3.8,7 12,12.5 20.2,7"/></g></g><text x="64" y="569.68" font-family="'Plus Jakarta Sans','Plus Jakarta Sans Variable',-apple-system,'Segoe UI',Roboto,sans-serif" font-size="14.5" font-weight="500" letter-spacing="-0.4" text-anchor="start" fill="#111827">donny@example.com</text><g transform="translate(341,556.08) scale(0.75)"><g fill="none" stroke="#9CA3AF" stroke-width="1.85" stroke-linecap="round" stroke-linejoin="round"><polyline points="9,4 17,12 9,20"/></g></g><text x="20" y="617.28" font-family="'Plus Jakarta Sans','Plus Jakarta Sans Variable',-apple-system,'Segoe UI',Roboto,sans-serif" font-size="14" font-weight="500" letter-spacing="-0.4" text-anchor="start" fill="#374151">Phone Number</text><rect x="20" y="628.08" width="350" height="54" rx="16" ry="16" fill="#FFFFFF" stroke="#E5E7EB" stroke-width="1"/><g transform="translate(34,645.08) scale(0.83)"><g fill="none" stroke="#6B7280" stroke-width="1.85" stroke-linecap="round" stroke-linejoin="round"><path d="M7 3.5 h3.4 l1.7 4.3 -2.4 1.7 a12 12 0 0 0 5.1 5.1 l1.7 -2.4 4.3 1.7 V19 a2 2 0 0 1 -2.2 2 A17.5 17.5 0 0 1 5 5.7 a2 2 0 0 1 2 -2.2 Z"/></g></g><text x="64" y="659.68" font-family="'Plus Jakarta Sans','Plus Jakarta Sans Variable',-apple-system,'Segoe UI',Roboto,sans-serif" font-size="14.5" font-weight="500" letter-spacing="-0.4" text-anchor="start" fill="#111827">+234 800 123 4567</text><g transform="translate(341,646.08) scale(0.75)"><g fill="none" stroke="#9CA3AF" stroke-width="1.85" stroke-linecap="round" stroke-linejoin="round"><polyline points="9,4 17,12 9,20"/></g></g><rect x="0" y="752" width="390" height="92" rx="0" ry="0" fill="#FFFFFF"/><rect x="20" y="770" width="350" height="52" rx="14" ry="14" fill="#5C4BFD"/><text x="195" y="800.8" font-family="'Plus Jakarta Sans','Plus Jakarta Sans Variable',-apple-system,'Segoe UI',Roboto,sans-serif" font-size="16" font-weight="600" letter-spacing="-0.4" text-anchor="middle" fill="#FFFFFF">Save Changes</text><rect x="128" y="835" width="134" height="5" rx="2.5" ry="2.5" fill="#0A0A0A" fill-opacity="0.85"/></svg>