<svg xmlns="http://www.w3.org/2000/svg" width="390" height="844" viewBox="0 0 390 844" font-family="'Plus Jakarta Sans','Plus Jakarta Sans Variable',-apple-system,'Segoe UI',Roboto,sans-serif"><defs><filter id="footShadow" x="-20%" y="-60%" width="140%" height="220%"><feGaussianBlur stdDeviation="6"/></filter><linearGradient id="footShadow" x1="0" y1="0" x2="0" y2="1"><stop offset="0" stop-color="#000" stop-opacity="0"/><stop offset="1" stop-color="#000" stop-opacity="0.06"/></linearGradient></defs><rect width="390" height="844" fill="#FFFFFF"/><g><text x="26" y="33" font-family="'Plus Jakarta Sans','Plus Jakarta Sans Variable',-apple-system,'Segoe UI',Roboto,sans-serif" font-size="15" font-weight="700" letter-spacing="0" text-anchor="start" fill="#0A0A0A">9:41</text><rect x="312" y="23" width="4" height="4" rx="1.2" ry="1.2" fill="#0A0A0A"/><rect x="318" y="20.6" width="4" height="6.4" rx="1.2" ry="1.2" fill="#0A0A0A"/><rect x="324" y="18.2" width="4" height="8.8" rx="1.2" ry="1.2" fill="#0A0A0A"/><rect x="330" y="15.8" width="4" height="11.2" rx="1.2" ry="1.2" fill="#0A0A0A"/><path d="M340 22 a8 8 0 0 1 11 0" fill="none" stroke="#0A0A0A" stroke-width="2" stroke-linecap="round" stroke-linejoin="round"/><path d="M342.6 25 a4.2 4.2 0 0 1 5.8 0" fill="none" stroke="#0A0A0A" stroke-width="2" stroke-linecap="round" stroke-linejoin="round"/><circle cx="345.5" cy="28" r="1.4" fill="#0A0A0A"/><rect x="360" y="19" width="20" height="10" rx="3" ry="3" fill="none" fill-opacity="0.45" stroke="#0A0A0A" stroke-width="1.2"/><rect x="362.5" y="21.2" width="13" height="5.6" rx="1.4" ry="1.4" fill="#0A0A0A"/><path d="M381 22 v4" fill="none" fill-opacity="0.45" stroke="#0A0A0A" stroke-width="1.8" stroke-linecap="round" stroke-linejoin="round"/></g><rect x="0" y="0" width="390" height="106" rx="0" ry="0" fill="#FFFFFF"/><g transform="translate(15,67) scale(0.92)"><g fill="none" stroke="#0A0A0A" stroke-width="1.85" stroke-linecap="round" stroke-linejoin="round"><polyline points="14,4 7,12 14,20"/></g></g><text x="195" y="82.6" font-family="'Plus Jakarta Sans','Plus Jakarta Sans Variable',-apple-system,'Segoe UI',Roboto,sans-serif" font-size="17" font-weight="700" letter-spacing="-0.4" text-anchor="middle" fill="#0A0A0A">Change Phone Number</text><circle cx="195" cy="176" r="40" fill="#EEEBFF"/><g transform="translate(179,160) scale(1.33)"><g fill="none" stroke="#5C4BFD" stroke-width="1.85" stroke-linecap="round" stroke-linejoin="round"><path d="M7 3.5 h3.4 l1.7 4.3 -2.4 1.7 a12 12 0 0 0 5.1 5.1 l1.7 -2.4 4.3 1.7 V19 a2 2 0 0 1 -2.2 2 A17.5 17.5 0 0 1 5 5.7 a2 2 0 0 1 2 -2.2 Z"/></g></g><text x="195" y="252.8" font-family="'Plus Jakarta Sans','Plus Jakarta Sans Variable',-apple-system,'Segoe UI',Roboto,sans-serif" font-size="21" font-weight="800" letter-spacing="-0.4" text-anchor="middle" fill="#0A0A0A">Update your phone number</text><text x="195" y="281.2" font-family="'Plus Jakarta Sans','Plus Jakarta Sans Variable',-apple-system,'Segoe UI',Roboto,sans-serif" font-size="14" font-weight="500" letter-spacing="-0.4" text-anchor="middle" fill="#6B7280">We&#x27;ll send a 6-digit verification code</text><text x="195" y="302.2" font-family="'Plus Jakarta Sans','Plus Jakarta Sans Variable',-apple-system,'Segoe UI',Roboto,sans-serif" font-size="14" font-weight="500" letter-spacing="-0.4" text-anchor="middle" fill="#6B7280">by SMS to your new number.</text><text x="20" y="337.2" font-family="'Plus Jakarta Sans','Plus Jakarta Sans Variable',-apple-system,'Segoe UI',Roboto,sans-serif" font-size="14" font-weight="500" letter-spacing="-0.4" text-anchor="start" fill="#374151">New Phone Number</text><rect x="20" y="348" width="90" height="54" rx="16" ry="16" fill="#FFFFFF" stroke="#E5E7EB" stroke-width="1"/><clipPath id="fl32_366"><rect x="32" y="366" width="24" height="17" rx="3.5"/></clipPath><g clip-path="url(#fl32_366)"><rect x="32" y="366" width="24" height="6.11" rx="0" ry="0" fill="#008751"/><rect x="32" y="371.61" width="24" height="6.28" rx="0" ry="0" fill="#fff"/><rect x="32" y="377.39" width="24" height="6.11" rx="0" ry="0" fill="#008751"/></g><rect x="32" y="366" width="24" height="17" rx="3.5" ry="3.5" fill="none" stroke="rgba(0,0,0,0.12)" stroke-width="1"/><text x="62" y="377.8" font-family="'Plus Jakarta Sans','Plus Jakarta Sans Variable',-apple-system,'Segoe UI',Roboto,sans-serif" font-size="13.5" font-weight="600" letter-spacing="-0.4" text-anchor="start" fill="#111827">+234</text><g transform="translate(89,368) scale(0.58)"><g fill="none" stroke="#9CA3AF" stroke-width="1.85" stroke-linecap="round" stroke-linejoin="round"><polyline points="4,9 12,17 20,9"/></g></g><rect x="120" y="348" width="250" height="54" rx="16" ry="16" fill="#FFFFFF" stroke="#E5E7EB" stroke-width="1"/><text x="136" y="378.2" font-family="'Plus Jakarta Sans','Plus Jakarta Sans Variable',-apple-system,'Segoe UI',Roboto,sans-serif" font-size="14" font-weight="400" letter-spacing="-0.4" text-anchor="start" fill="#6B7280">800 000 0000</text><rect x="20" y="428" width="350" height="54" rx="27" ry="27" fill="#5C4BFD"/><text x="195" y="459.8" font-family="'Plus Jakarta Sans','Plus Jakarta Sans Variable',-apple-system,'Segoe UI',Roboto,sans-serif" font-size="16" font-weight="600" letter-spacing="-0.4" text-anchor="middle" fill="#FFFFFF">Send verification code</text><rect x="128" y="835" width="134" height="5" rx="2.5" ry="2.5" fill="#0A0A0A" fill-opacity="0.85"/></svg>