<svg xmlns="http://www.w3.org/2000/svg" width="390" height="844" viewBox="0 0 390 844" font-family="'Plus Jakarta Sans','Plus Jakarta Sans Variable',-apple-system,'Segoe UI',Roboto,sans-serif"><defs><filter id="footShadow" x="-20%" y="-60%" width="140%" height="220%"><feGaussianBlur stdDeviation="6"/></filter><linearGradient id="footShadow" x1="0" y1="0" x2="0" y2="1"><stop offset="0" stop-color="#000" stop-opacity="0"/><stop offset="1" stop-color="#000" stop-opacity="0.06"/></linearGradient></defs><rect width="390" height="844" fill="#FFFFFF"/><g><text x="26" y="33" font-family="'Plus Jakarta Sans','Plus Jakarta Sans Variable',-apple-system,'Segoe UI',Roboto,sans-serif" font-size="15" font-weight="700" letter-spacing="0" text-anchor="start" fill="#0A0A0A">9:41</text><rect x="312" y="23" width="4" height="4" rx="1.2" ry="1.2" fill="#0A0A0A"/><rect x="318" y="20.6" width="4" height="6.4" rx="1.2" ry="1.2" fill="#0A0A0A"/><rect x="324" y="18.2" width="4" height="8.8" rx="1.2" ry="1.2" fill="#0A0A0A"/><rect x="330" y="15.8" width="4" height="11.2" rx="1.2" ry="1.2" fill="#0A0A0A"/><path d="M340 22 a8 8 0 0 1 11 0" fill="none" stroke="#0A0A0A" stroke-width="2" stroke-linecap="round" stroke-linejoin="round"/><path d="M342.6 25 a4.2 4.2 0 0 1 5.8 0" fill="none" stroke="#0A0A0A" stroke-width="2" stroke-linecap="round" stroke-linejoin="round"/><circle cx="345.5" cy="28" r="1.4" fill="#0A0A0A"/><rect x="360" y="19" width="20" height="10" rx="3" ry="3" fill="none" fill-opacity="0.45" stroke="#0A0A0A" stroke-width="1.2"/><rect x="362.5" y="21.2" width="13" height="5.6" rx="1.4" ry="1.4" fill="#0A0A0A"/><path d="M381 22 v4" fill="none" fill-opacity="0.45" stroke="#0A0A0A" stroke-width="1.8" stroke-linecap="round" stroke-linejoin="round"/></g><rect x="0" y="0" width="390" height="106" rx="0" ry="0" fill="#FFFFFF"/><g transform="translate(15,67) scale(0.92)"><g fill="none" stroke="#0A0A0A" stroke-width="1.85" stroke-linecap="round" stroke-linejoin="round"><polyline points="14,4 7,12 14,20"/></g></g><text x="58" y="83.4" font-family="'Plus Jakarta Sans','Plus Jakarta Sans Variable',-apple-system,'Segoe UI',Roboto,sans-serif" font-size="18" font-weight="700" letter-spacing="-0.4" text-anchor="start" fill="#0A0A0A">Change Password</text><text x="20" y="142.8" font-family="'Plus Jakarta Sans','Plus Jakarta Sans Variable',-apple-system,'Segoe UI',Roboto,sans-serif" font-size="21" font-weight="800" letter-spacing="-0.4" text-anchor="start" fill="#0A0A0A">Change Password</text><text x="20" y="172.5" font-family="'Plus Jakarta Sans','Plus Jakarta Sans Variable',-apple-system,'Segoe UI',Roboto,sans-serif" font-size="14" font-weight="400" letter-spacing="-0.4" text-anchor="start" fill="#6B7280">Choose a strong password you don&#x27;t use</text><text x="20" y="193.5" font-family="'Plus Jakarta Sans','Plus Jakarta Sans Variable',-apple-system,'Segoe UI',Roboto,sans-serif" font-size="14" font-weight="400" letter-spacing="-0.4" text-anchor="start" fill="#6B7280">elsewhere.</text><text x="20" y="236.5" font-family="'Plus Jakarta Sans','Plus Jakarta Sans Variable',-apple-system,'Segoe UI',Roboto,sans-serif" font-size="14" font-weight="500" letter-spacing="-0.4" text-anchor="start" fill="#374151">Current Password</text><rect x="20" y="247.3" width="350" height="54" rx="16" ry="16" fill="#FFFFFF" stroke="#E5E7EB" stroke-width="1"/><text x="36" y="278.9" font-family="'Plus Jakarta Sans','Plus Jakarta Sans Variable',-apple-system,'Segoe UI',Roboto,sans-serif" font-size="14.5" font-weight="500" letter-spacing="-0.4" text-anchor="start" fill="#111827">............</text><g transform="translate(338,264.3) scale(0.83)"><g fill="none" stroke="#9CA3AF" stroke-width="1.85" stroke-linecap="round" stroke-linejoin="round"><path d="M4 5 L20 19"/><path d="M9.2 9.5 A3.2 3.2 0 0 0 14.6 14.6"/><path d="M6.5 7.3 C3.7 8.7 2.5 12 2.5 12 C5.5 17.5 16 18.5 19.2 14.5 M16.8 8.4 C19 9.7 21.5 12 21.5 12 C21 13 20 14 19 14.7"/></g></g><text x="20" y="326.5" font-family="'Plus Jakarta Sans','Plus Jakarta Sans Variable',-apple-system,'Segoe UI',Roboto,sans-serif" font-size="14" font-weight="500" letter-spacing="-0.4" text-anchor="start" fill="#374151">New Password</text><rect x="20" y="337.3" width="350" height="54" rx="16" ry="16" fill="#FFFFFF" stroke="#E5E7EB" stroke-width="1"/><text x="36" y="368.9" font-family="'Plus Jakarta Sans','Plus Jakarta Sans Variable',-apple-system,'Segoe UI',Roboto,sans-serif" font-size="14.5" font-weight="500" letter-spacing="-0.4" text-anchor="start" fill="#111827">............</text><g transform="translate(338,354.3) scale(0.83)"><g fill="none" stroke="#9CA3AF" stroke-width="1.85" stroke-linecap="round" stroke-linejoin="round"><path d="M4 5 L20 19"/><path d="M9.2 9.5 A3.2 3.2 0 0 0 14.6 14.6"/><path d="M6.5 7.3 C3.7 8.7 2.5 12 2.5 12 C5.5 17.5 16 18.5 19.2 14.5 M16.8 8.4 C19 9.7 21.5 12 21.5 12 C21 13 20 14 19 14.7"/></g></g><text x="20" y="416.5" font-family="'Plus Jakarta Sans','Plus Jakarta Sans Variable',-apple-system,'Segoe UI',Roboto,sans-serif" font-size="14" font-weight="500" letter-spacing="-0.4" text-anchor="start" fill="#374151">Confirm New Password</text><rect x="20" y="427.3" width="350" height="54" rx="16" ry="16" fill="#FFFFFF" stroke="#E5E7EB" stroke-width="1"/><text x="36" y="458.9" font-family="'Plus Jakarta Sans','Plus Jakarta Sans Variable',-apple-system,'Segoe UI',Roboto,sans-serif" font-size="14.5" font-weight="500" letter-spacing="-0.4" text-anchor="start" fill="#111827">............</text><g transform="translate(338,444.3) scale(0.83)"><g fill="none" stroke="#9CA3AF" stroke-width="1.85" stroke-linecap="round" stroke-linejoin="round"><path d="M4 5 L20 19"/><path d="M9.2 9.5 A3.2 3.2 0 0 0 14.6 14.6"/><path d="M6.5 7.3 C3.7 8.7 2.5 12 2.5 12 C5.5 17.5 16 18.5 19.2 14.5 M16.8 8.4 C19 9.7 21.5 12 21.5 12 C21 13 20 14 19 14.7"/></g></g><rect x="20" y="503.3" width="350" height="54" rx="14" ry="14" fill="#5C4BFD"/><text x="195" y="535.1" font-family="'Plus Jakarta Sans','Plus Jakarta Sans Variable',-apple-system,'Segoe UI',Roboto,sans-serif" font-size="16" font-weight="600" letter-spacing="-0.4" text-anchor="middle" fill="#FFFFFF">Change Password</text><text x="195" y="581.7" font-family="'Plus Jakarta Sans','Plus Jakarta Sans Variable',-apple-system,'Segoe UI',Roboto,sans-serif" font-size="13" font-weight="600" letter-spacing="-0.4" text-anchor="middle" fill="#5C4BFD">Forgot current password? Reset it</text><rect x="128" y="835" width="134" height="5" rx="2.5" ry="2.5" fill="#0A0A0A" fill-opacity="0.85"/></svg>