<svg xmlns="http://www.w3.org/2000/svg" width="390" height="844" viewBox="0 0 390 844" font-family="'Plus Jakarta Sans','Plus Jakarta Sans Variable',-apple-system,'Segoe UI',Roboto,sans-serif"><defs><filter id="footShadow" x="-20%" y="-60%" width="140%" height="220%"><feGaussianBlur stdDeviation="6"/></filter><linearGradient id="footShadow" x1="0" y1="0" x2="0" y2="1"><stop offset="0" stop-color="#000" stop-opacity="0"/><stop offset="1" stop-color="#000" stop-opacity="0.06"/></linearGradient></defs><rect width="390" height="844" fill="#FFFFFF"/><g><text x="26" y="33" font-family="'Plus Jakarta Sans','Plus Jakarta Sans Variable',-apple-system,'Segoe UI',Roboto,sans-serif" font-size="15" font-weight="700" letter-spacing="0" text-anchor="start" fill="#0A0A0A">9:41</text><rect x="312" y="23" width="4" height="4" rx="1.2" ry="1.2" fill="#0A0A0A"/><rect x="318" y="20.6" width="4" height="6.4" rx="1.2" ry="1.2" fill="#0A0A0A"/><rect x="324" y="18.2" width="4" height="8.8" rx="1.2" ry="1.2" fill="#0A0A0A"/><rect x="330" y="15.8" width="4" height="11.2" rx="1.2" ry="1.2" fill="#0A0A0A"/><path d="M340 22 a8 8 0 0 1 11 0" fill="none" stroke="#0A0A0A" stroke-width="2" stroke-linecap="round" stroke-linejoin="round"/><path d="M342.6 25 a4.2 4.2 0 0 1 5.8 0" fill="none" stroke="#0A0A0A" stroke-width="2" stroke-linecap="round" stroke-linejoin="round"/><circle cx="345.5" cy="28" r="1.4" fill="#0A0A0A"/><rect x="360" y="19" width="20" height="10" rx="3" ry="3" fill="none" fill-opacity="0.45" stroke="#0A0A0A" stroke-width="1.2"/><rect x="362.5" y="21.2" width="13" height="5.6" rx="1.4" ry="1.4" fill="#0A0A0A"/><path d="M381 22 v4" fill="none" fill-opacity="0.45" stroke="#0A0A0A" stroke-width="1.8" stroke-linecap="round" stroke-linejoin="round"/></g><rect x="0" y="0" width="390" height="106" rx="0" ry="0" fill="#FFFFFF"/><g transform="translate(15,67) scale(0.92)"><g fill="none" stroke="#0A0A0A" stroke-width="1.85" stroke-linecap="round" stroke-linejoin="round"><polyline points="14,4 7,12 14,20"/></g></g><text x="58" y="83.4" font-family="'Plus Jakarta Sans','Plus Jakarta Sans Variable',-apple-system,'Segoe UI',Roboto,sans-serif" font-size="18" font-weight="700" letter-spacing="-0.4" text-anchor="start" fill="#0A0A0A">Payment Methods</text><rect x="334" y="60" width="36" height="36" rx="11" ry="11" fill="#5C4BFD"/><g transform="translate(342,68) scale(0.83)"><g fill="none" stroke="#FFFFFF" stroke-width="2.6" stroke-linecap="round" stroke-linejoin="round"><line x1="12" y1="5" x2="12" y2="19"/><line x1="5" y1="12" x2="19" y2="12"/></g></g><rect x="20" y="124" width="350" height="64" rx="16" ry="16" fill="#EEEBFF"/><rect x="36" y="144" width="38" height="24" rx="6" ry="6" fill="#1A1F71"/><text x="55" y="156.8" font-family="'Plus Jakarta Sans','Plus Jakarta Sans Variable',-apple-system,'Segoe UI',Roboto,sans-serif" font-size="8.5" font-weight="800" letter-spacing="-0.4" text-anchor="middle" fill="#FFFFFF">VISA</text><rect x="80" y="144" width="38" height="24" rx="6" ry="6" fill="#EB001B"/><text x="99" y="157.2" font-family="'Plus Jakarta Sans','Plus Jakarta Sans Variable',-apple-system,'Segoe UI',Roboto,sans-serif" font-size="9" font-weight="800" letter-spacing="-0.4" text-anchor="middle" fill="#FFFFFF">MC</text><text x="130" y="151.2" font-family="'Plus Jakarta Sans','Plus Jakarta Sans Variable',-apple-system,'Segoe UI',Roboto,sans-serif" font-size="11.5" font-weight="600" letter-spacing="-0.4" text-anchor="start" fill="#5C4BFD">Visa and Mastercard are supported</text><text x="130" y="166.2" font-family="'Plus Jakarta Sans','Plus Jakarta Sans Variable',-apple-system,'Segoe UI',Roboto,sans-serif" font-size="11.5" font-weight="600" letter-spacing="-0.4" text-anchor="start" fill="#5C4BFD">for your currency (NGN).</text><text x="22" y="213.2" font-family="'Plus Jakarta Sans','Plus Jakarta Sans Variable',-apple-system,'Segoe UI',Roboto,sans-serif" font-size="11.5" font-weight="800" letter-spacing="1.0" text-anchor="start" fill="#9CA3AF">SAVED CARDS</text><rect x="20" y="228" width="350" height="66" rx="14" ry="14" fill="#FFFFFF" stroke="#E5E7EB" stroke-width="1"/><rect x="36" y="249" width="40" height="26" rx="6" ry="6" fill="#1A1F71"/><text x="56" y="262.8" font-family="'Plus Jakarta Sans','Plus Jakarta Sans Variable',-apple-system,'Segoe UI',Roboto,sans-serif" font-size="8.5" font-weight="800" letter-spacing="-0.4" text-anchor="middle" fill="#FFFFFF">VISA</text><text x="88" y="254.8" font-family="'Plus Jakarta Sans','Plus Jakarta Sans Variable',-apple-system,'Segoe UI',Roboto,sans-serif" font-size="13.5" font-weight="700" letter-spacing="-0.4" text-anchor="start" fill="#0A0A0A">Visa  •••• 4242</text><text x="88" y="273.2" font-family="'Plus Jakarta Sans','Plus Jakarta Sans Variable',-apple-system,'Segoe UI',Roboto,sans-serif" font-size="11.5" font-weight="500" letter-spacing="-0.4" text-anchor="start" fill="#6B7280">Expires 08/27</text><g transform="translate(335,252) scale(0.75)"><g fill="none" stroke="#EF4444" stroke-width="1.85" stroke-linecap="round" stroke-linejoin="round"><polyline points="4,6.5 20,6.5"/><path d="M6.5 6.5 V20 H17.5 V6.5"/><path d="M9 6.5 V3.8 H15 V6.5"/><line x1="10" y1="10.5" x2="10" y2="16"/><line x1="14" y1="10.5" x2="14" y2="16"/></g></g><rect x="20" y="306" width="350" height="66" rx="14" ry="14" fill="#FFFFFF" stroke="#E5E7EB" stroke-width="1"/><rect x="36" y="327" width="40" height="26" rx="6" ry="6" fill="#EB001B"/><text x="56" y="340.8" font-family="'Plus Jakarta Sans','Plus Jakarta Sans Variable',-apple-system,'Segoe UI',Roboto,sans-serif" font-size="8.5" font-weight="800" letter-spacing="-0.4" text-anchor="middle" fill="#FFFFFF">MAST</text><text x="88" y="332.8" font-family="'Plus Jakarta Sans','Plus Jakarta Sans Variable',-apple-system,'Segoe UI',Roboto,sans-serif" font-size="13.5" font-weight="700" letter-spacing="-0.4" text-anchor="start" fill="#0A0A0A">Mastercard  •••• 8810</text><text x="88" y="351.2" font-family="'Plus Jakarta Sans','Plus Jakarta Sans Variable',-apple-system,'Segoe UI',Roboto,sans-serif" font-size="11.5" font-weight="500" letter-spacing="-0.4" text-anchor="start" fill="#6B7280">Expires 02/26</text><g transform="translate(335,330) scale(0.75)"><g fill="none" stroke="#EF4444" stroke-width="1.85" stroke-linecap="round" stroke-linejoin="round"><polyline points="4,6.5 20,6.5"/><path d="M6.5 6.5 V20 H17.5 V6.5"/><path d="M9 6.5 V3.8 H15 V6.5"/><line x1="10" y1="10.5" x2="10" y2="16"/><line x1="14" y1="10.5" x2="14" y2="16"/></g></g><rect x="20" y="388" width="350" height="52" rx="14" ry="14" fill="#EEEBFF"/><g transform="translate(105.2,404) scale(0.83)"><g fill="none" stroke="#5C4BFD" stroke-width="2" stroke-linecap="round" stroke-linejoin="round"><line x1="12" y1="5" x2="12" y2="19"/><line x1="5" y1="12" x2="19" y2="12"/></g></g><text x="131.2" y="418.8" font-family="'Plus Jakarta Sans','Plus Jakarta Sans Variable',-apple-system,'Segoe UI',Roboto,sans-serif" font-size="16" font-weight="600" letter-spacing="-0.4" text-anchor="start" fill="#5C4BFD">Add Another Card</text><rect x="128" y="835" width="134" height="5" rx="2.5" ry="2.5" fill="#0A0A0A" fill-opacity="0.85"/></svg>