<svg xmlns="http://www.w3.org/2000/svg" width="390" height="844" viewBox="0 0 390 844" font-family="'Plus Jakarta Sans','Plus Jakarta Sans Variable',-apple-system,'Segoe UI',Roboto,sans-serif"><defs><filter id="footShadow" x="-20%" y="-60%" width="140%" height="220%"><feGaussianBlur stdDeviation="6"/></filter><linearGradient id="footShadow" x1="0" y1="0" x2="0" y2="1"><stop offset="0" stop-color="#000" stop-opacity="0"/><stop offset="1" stop-color="#000" stop-opacity="0.06"/></linearGradient></defs><rect width="390" height="844" fill="#FFFFFF"/><g><text x="26" y="33" font-family="'Plus Jakarta Sans','Plus Jakarta Sans Variable',-apple-system,'Segoe UI',Roboto,sans-serif" font-size="15" font-weight="700" letter-spacing="0" text-anchor="start" fill="#0A0A0A">9:41</text><rect x="312" y="23" width="4" height="4" rx="1.2" ry="1.2" fill="#0A0A0A"/><rect x="318" y="20.6" width="4" height="6.4" rx="1.2" ry="1.2" fill="#0A0A0A"/><rect x="324" y="18.2" width="4" height="8.8" rx="1.2" ry="1.2" fill="#0A0A0A"/><rect x="330" y="15.8" width="4" height="11.2" rx="1.2" ry="1.2" fill="#0A0A0A"/><path d="M340 22 a8 8 0 0 1 11 0" fill="none" stroke="#0A0A0A" stroke-width="2" stroke-linecap="round" stroke-linejoin="round"/><path d="M342.6 25 a4.2 4.2 0 0 1 5.8 0" fill="none" stroke="#0A0A0A" stroke-width="2" stroke-linecap="round" stroke-linejoin="round"/><circle cx="345.5" cy="28" r="1.4" fill="#0A0A0A"/><rect x="360" y="19" width="20" height="10" rx="3" ry="3" fill="none" fill-opacity="0.45" stroke="#0A0A0A" stroke-width="1.2"/><rect x="362.5" y="21.2" width="13" height="5.6" rx="1.4" ry="1.4" fill="#0A0A0A"/><path d="M381 22 v4" fill="none" fill-opacity="0.45" stroke="#0A0A0A" stroke-width="1.8" stroke-linecap="round" stroke-linejoin="round"/></g><rect x="0" y="0" width="390" height="106" rx="0" ry="0" fill="#FFFFFF"/><g transform="translate(15,67) scale(0.92)"><g fill="none" stroke="#0A0A0A" stroke-width="1.85" stroke-linecap="round" stroke-linejoin="round"><polyline points="14,4 7,12 14,20"/></g></g><text x="58" y="83.4" font-family="'Plus Jakarta Sans','Plus Jakarta Sans Variable',-apple-system,'Segoe UI',Roboto,sans-serif" font-size="18" font-weight="700" letter-spacing="-0.4" text-anchor="start" fill="#0A0A0A">Payout Methods</text><rect x="20" y="122" width="350" height="118" rx="16" ry="16" fill="#EEEBFF"/><text x="36" y="148.8" font-family="'Plus Jakarta Sans','Plus Jakarta Sans Variable',-apple-system,'Segoe UI',Roboto,sans-serif" font-size="13.5" font-weight="800" letter-spacing="-0.4" text-anchor="start" fill="#4335E0">Where do you want your payouts?</text><rect x="36" y="164" width="153" height="50" rx="12" ry="12" fill="#FFFFFF"/><clipPath id="fl48_181"><rect x="48" y="181" width="22" height="16" rx="3.5"/></clipPath><g clip-path="url(#fl48_181)"><rect x="48" y="181" width="22" height="5.78" rx="0" ry="0" fill="#008751"/><rect x="48" y="186.28" width="22" height="5.94" rx="0" ry="0" fill="#fff"/><rect x="48" y="191.72" width="22" height="5.78" rx="0" ry="0" fill="#008751"/></g><rect x="48" y="181" width="22" height="16" rx="3.5" ry="3.5" fill="none" stroke="rgba(0,0,0,0.12)" stroke-width="1"/><text x="76" y="192" font-family="'Plus Jakarta Sans','Plus Jakarta Sans Variable',-apple-system,'Segoe UI',Roboto,sans-serif" font-size="12.5" font-weight="600" letter-spacing="-0.4" text-anchor="start" fill="#111827">Nigeria</text><rect x="201" y="164" width="153" height="50" rx="12" ry="12" fill="#FFFFFF"/><text x="217" y="192" font-family="'Plus Jakarta Sans','Plus Jakarta Sans Variable',-apple-system,'Segoe UI',Roboto,sans-serif" font-size="12.5" font-weight="600" letter-spacing="-0.4" text-anchor="start" fill="#111827">NGN  ₦</text><g transform="translate(335,182) scale(0.58)"><g fill="none" stroke="#9CA3AF" stroke-width="1.85" stroke-linecap="round" stroke-linejoin="round"><polyline points="4,9 12,17 20,9"/></g></g><text x="22" y="265.2" font-family="'Plus Jakarta Sans','Plus Jakarta Sans Variable',-apple-system,'Segoe UI',Roboto,sans-serif" font-size="11.5" font-weight="800" letter-spacing="1.0" text-anchor="start" fill="#9CA3AF">RECOMMENDED PROVIDERS</text><rect x="20" y="280" width="350" height="64" rx="14" ry="14" fill="#FFFFFF" stroke="#E5E7EB" stroke-width="1"/><rect x="20" y="280" width="350" height="64" rx="14" ry="14" fill="none" stroke="#5C4BFD" stroke-width="1.5"/><rect x="34" y="295" width="36" height="36" rx="10" ry="10" fill="#EEEBFF"/><g transform="translate(43,304) scale(0.75)"><g fill="none" stroke="#5C4BFD" stroke-width="1.85" stroke-linecap="round" stroke-linejoin="round"><polyline points="3.5,9.5 12,4 20.5,9.5"/><line x1="3.5" y1="9.5" x2="20.5" y2="9.5"/><line x1="6.5" y1="10" x2="6.5" y2="17"/><line x1="12" y1="10" x2="12" y2="17"/><line x1="17.5" y1="10" x2="17.5" y2="17"/><line x1="4" y1="19.5" x2="20" y2="19.5"/></g></g><text x="80" y="307.2" font-family="'Plus Jakarta Sans','Plus Jakarta Sans Variable',-apple-system,'Segoe UI',Roboto,sans-serif" font-size="14" font-weight="800" letter-spacing="-0.4" text-anchor="start" fill="#0A0A0A">Paystack</text><text x="80" y="325.2" font-family="'Plus Jakarta Sans','Plus Jakarta Sans Variable',-apple-system,'Segoe UI',Roboto,sans-serif" font-size="11.5" font-weight="500" letter-spacing="-0.4" text-anchor="start" fill="#6B7280">Bank transfer in NGN</text><g transform="translate(277.3,301)"><rect x="0" y="0" width="78.7" height="24" rx="12" ry="12" fill="#EEEBFF"/><text x="39.35" y="14.62" font-family="'Plus Jakarta Sans','Plus Jakarta Sans Variable',-apple-system,'Segoe UI',Roboto,sans-serif" font-size="10.5" font-weight="700" letter-spacing="-0.4" text-anchor="middle" fill="#5C4BFD">Suggested</text></g><rect x="20" y="356" width="350" height="64" rx="14" ry="14" fill="#FFFFFF" stroke="#E5E7EB" stroke-width="1"/><rect x="34" y="371" width="36" height="36" rx="10" ry="10" fill="#EEEBFF"/><g transform="translate(43,380) scale(0.75)"><g fill="none" stroke="#5C4BFD" stroke-width="1.85" stroke-linecap="round" stroke-linejoin="round"><path d="M4 7 a2.5 2.5 0 0 1 2.5 -2.5 H17 a1.5 1.5 0 0 1 1.5 1.5 V7"/><rect x="3.5" y="7" width="17" height="12.5" rx="2.6"/><circle cx="16.5" cy="13.2" r="1.7"/></g></g><text x="80" y="383.2" font-family="'Plus Jakarta Sans','Plus Jakarta Sans Variable',-apple-system,'Segoe UI',Roboto,sans-serif" font-size="14" font-weight="800" letter-spacing="-0.4" text-anchor="start" fill="#0A0A0A">PayPal</text><text x="80" y="401.2" font-family="'Plus Jakarta Sans','Plus Jakarta Sans Variable',-apple-system,'Segoe UI',Roboto,sans-serif" font-size="11.5" font-weight="500" letter-spacing="-0.4" text-anchor="start" fill="#6B7280">Global digital wallet</text><text x="22" y="441.2" font-family="'Plus Jakarta Sans','Plus Jakarta Sans Variable',-apple-system,'Segoe UI',Roboto,sans-serif" font-size="11.5" font-weight="800" letter-spacing="1.0" text-anchor="start" fill="#9CA3AF">PAYSTACK ACCOUNT</text><rect x="20" y="456" width="350" height="70" rx="14" ry="14" fill="#FFFFFF" stroke="#E5E7EB" stroke-width="1"/><rect x="34" y="472" width="38" height="38" rx="10" ry="10" fill="#FFF1E6"/><g transform="translate(43.5,481.5) scale(0.79)"><g fill="none" stroke="#F58220" stroke-width="1.85" stroke-linecap="round" stroke-linejoin="round"><polyline points="3.5,9.5 12,4 20.5,9.5"/><line x1="3.5" y1="9.5" x2="20.5" y2="9.5"/><line x1="6.5" y1="10" x2="6.5" y2="17"/><line x1="12" y1="10" x2="12" y2="17"/><line x1="17.5" y1="10" x2="17.5" y2="17"/><line x1="4" y1="19.5" x2="20" y2="19.5"/></g></g><text x="82" y="483.8" font-family="'Plus Jakarta Sans','Plus Jakarta Sans Variable',-apple-system,'Segoe UI',Roboto,sans-serif" font-size="13.5" font-weight="800" letter-spacing="-0.4" text-anchor="start" fill="#0A0A0A">Paystack Account</text><text x="82" y="501.2" font-family="'Plus Jakarta Sans','Plus Jakarta Sans Variable',-apple-system,'Segoe UI',Roboto,sans-serif" font-size="11.5" font-weight="500" letter-spacing="-0.4" text-anchor="start" fill="#6B7280">Not yet linked</text><rect x="254" y="478" width="100" height="30" rx="8" ry="8" fill="#5C4BFD"/><text x="304" y="495.6" font-family="'Plus Jakarta Sans','Plus Jakarta Sans Variable',-apple-system,'Segoe UI',Roboto,sans-serif" font-size="12" font-weight="700" letter-spacing="-0.4" text-anchor="middle" fill="#FFFFFF">Add Bank</text><rect x="128" y="835" width="134" height="5" rx="2.5" ry="2.5" fill="#0A0A0A" fill-opacity="0.85"/></svg>