<svg xmlns="http://www.w3.org/2000/svg" width="390" height="844" viewBox="0 0 390 844" font-family="'Plus Jakarta Sans','Plus Jakarta Sans Variable',-apple-system,'Segoe UI',Roboto,sans-serif"><defs><filter id="footShadow" x="-20%" y="-60%" width="140%" height="220%"><feGaussianBlur stdDeviation="6"/></filter><linearGradient id="footShadow" x1="0" y1="0" x2="0" y2="1"><stop offset="0" stop-color="#000" stop-opacity="0"/><stop offset="1" stop-color="#000" stop-opacity="0.06"/></linearGradient></defs><rect width="390" height="844" fill="#FFFFFF"/><g><text x="26" y="33" font-family="'Plus Jakarta Sans','Plus Jakarta Sans Variable',-apple-system,'Segoe UI',Roboto,sans-serif" font-size="15" font-weight="700" letter-spacing="0" text-anchor="start" fill="#0A0A0A">9:41</text><rect x="312" y="23" width="4" height="4" rx="1.2" ry="1.2" fill="#0A0A0A"/><rect x="318" y="20.6" width="4" height="6.4" rx="1.2" ry="1.2" fill="#0A0A0A"/><rect x="324" y="18.2" width="4" height="8.8" rx="1.2" ry="1.2" fill="#0A0A0A"/><rect x="330" y="15.8" width="4" height="11.2" rx="1.2" ry="1.2" fill="#0A0A0A"/><path d="M340 22 a8 8 0 0 1 11 0" fill="none" stroke="#0A0A0A" stroke-width="2" stroke-linecap="round" stroke-linejoin="round"/><path d="M342.6 25 a4.2 4.2 0 0 1 5.8 0" fill="none" stroke="#0A0A0A" stroke-width="2" stroke-linecap="round" stroke-linejoin="round"/><circle cx="345.5" cy="28" r="1.4" fill="#0A0A0A"/><rect x="360" y="19" width="20" height="10" rx="3" ry="3" fill="none" fill-opacity="0.45" stroke="#0A0A0A" stroke-width="1.2"/><rect x="362.5" y="21.2" width="13" height="5.6" rx="1.4" ry="1.4" fill="#0A0A0A"/><path d="M381 22 v4" fill="none" fill-opacity="0.45" stroke="#0A0A0A" stroke-width="1.8" stroke-linecap="round" stroke-linejoin="round"/></g><rect x="0" y="0" width="390" height="106" rx="0" ry="0" fill="#FFFFFF"/><g transform="translate(15,67) scale(0.92)"><g fill="none" stroke="#0A0A0A" stroke-width="1.85" stroke-linecap="round" stroke-linejoin="round"><polyline points="14,4 7,12 14,20"/></g></g><text x="195" y="82.6" font-family="'Plus Jakarta Sans','Plus Jakarta Sans Variable',-apple-system,'Segoe UI',Roboto,sans-serif" font-size="17" font-weight="700" letter-spacing="-0.4" text-anchor="middle" fill="#0A0A0A">Add Bank Account</text><rect x="20" y="122" width="350" height="60.08" rx="18" ry="18" fill="#ECFDF5"/><g transform="translate(38,138) scale(0.83)"><g fill="none" stroke="#047857" stroke-width="1.85" stroke-linecap="round" stroke-linejoin="round"><path d="M12 3 L19 6 V11 c0 5 -3.2 8.2 -7 10 c-3.8 -1.8 -7 -5 -7 -10 V6 Z"/><polyline points="8.8,11.8 11,14 15.2,9.5"/></g></g><text x="68" y="145.6" font-family="'Plus Jakarta Sans','Plus Jakarta Sans Variable',-apple-system,'Segoe UI',Roboto,sans-serif" font-size="12" font-weight="700" letter-spacing="-0.4" text-anchor="start" fill="#047857">Your bank details are encrypted and</text><text x="68" y="162.64" font-family="'Plus Jakarta Sans','Plus Jakarta Sans Variable',-apple-system,'Segoe UI',Roboto,sans-serif" font-size="12" font-weight="700" letter-spacing="-0.4" text-anchor="start" fill="#047857">used strictly for traveler payouts.</text><text x="22" y="207.28" font-family="'Plus Jakarta Sans','Plus Jakarta Sans Variable',-apple-system,'Segoe UI',Roboto,sans-serif" font-size="11.5" font-weight="800" letter-spacing="1.0" text-anchor="start" fill="#9CA3AF">ACCOUNT DETAILS</text><text x="20" y="233.28" font-family="'Plus Jakarta Sans','Plus Jakarta Sans Variable',-apple-system,'Segoe UI',Roboto,sans-serif" font-size="14" font-weight="500" letter-spacing="-0.4" text-anchor="start" fill="#374151">Select Bank</text><rect x="20" y="244.08" width="350" height="54" rx="14" ry="14" fill="#F3F4F6" stroke="#E5E7EB" stroke-width="1"/><g transform="translate(34.5,261.58) scale(0.79)"><g fill="none" stroke="#6B7280" stroke-width="1.85" stroke-linecap="round" stroke-linejoin="round"><polyline points="3.5,9.5 12,4 20.5,9.5"/><line x1="3.5" y1="9.5" x2="20.5" y2="9.5"/><line x1="6.5" y1="10" x2="6.5" y2="17"/><line x1="12" y1="10" x2="12" y2="17"/><line x1="17.5" y1="10" x2="17.5" y2="17"/><line x1="4" y1="19.5" x2="20" y2="19.5"/></g></g><text x="66" y="274.28" font-family="'Plus Jakarta Sans','Plus Jakarta Sans Variable',-apple-system,'Segoe UI',Roboto,sans-serif" font-size="14" font-weight="600" letter-spacing="-0.4" text-anchor="start" fill="#111827">Access Bank</text><g transform="translate(340,263.08) scale(0.67)"><g fill="none" stroke="#9CA3AF" stroke-width="1.85" stroke-linecap="round" stroke-linejoin="round"><polyline points="4,9 12,17 20,9"/></g></g><text x="20" y="323.28" font-family="'Plus Jakarta Sans','Plus Jakarta Sans Variable',-apple-system,'Segoe UI',Roboto,sans-serif" font-size="14" font-weight="500" letter-spacing="-0.4" text-anchor="start" fill="#374151">Account Number</text><rect x="20" y="334.08" width="350" height="54" rx="16" ry="16" fill="#F3F4F6" stroke="#E5E7EB" stroke-width="1"/><text x="36" y="365.68" font-family="'Plus Jakarta Sans','Plus Jakarta Sans Variable',-apple-system,'Segoe UI',Roboto,sans-serif" font-size="14.5" font-weight="500" letter-spacing="-0.4" text-anchor="start" fill="#111827">0123456789</text><rect x="20" y="402.08" width="350" height="56" rx="14" ry="14" fill="#EEEBFF"/><text x="36" y="420.68" font-family="'Plus Jakarta Sans','Plus Jakarta Sans Variable',-apple-system,'Segoe UI',Roboto,sans-serif" font-size="9.5" font-weight="800" letter-spacing="0.6" text-anchor="start" fill="#5C4BFD">ACCOUNT HOLDER NAME</text><text x="36" y="441.68" font-family="'Plus Jakarta Sans','Plus Jakarta Sans Variable',-apple-system,'Segoe UI',Roboto,sans-serif" font-size="14.5" font-weight="800" letter-spacing="-0.4" text-anchor="start" fill="#4335E0">DONNY ACE</text><g transform="translate(334,420.08) scale(0.83)"><g fill="none" stroke="#10B981" stroke-width="1.85" stroke-linecap="round" stroke-linejoin="round"><circle cx="12" cy="12" r="9"/><polyline points="8,12 11,15 16,9"/></g></g><rect x="20" y="474.08" width="350" height="54" rx="27" ry="27" fill="#5C4BFD"/><text x="195" y="505.88" font-family="'Plus Jakarta Sans','Plus Jakarta Sans Variable',-apple-system,'Segoe UI',Roboto,sans-serif" font-size="16" font-weight="600" letter-spacing="-0.4" text-anchor="middle" fill="#FFFFFF">Link Bank Account</text><text x="195" y="551.28" font-family="'Plus Jakarta Sans','Plus Jakarta Sans Variable',-apple-system,'Segoe UI',Roboto,sans-serif" font-size="11.5" font-weight="600" letter-spacing="-0.4" text-anchor="middle" fill="#9CA3AF">Protected by bank-grade encryption</text><rect x="128" y="835" width="134" height="5" rx="2.5" ry="2.5" fill="#0A0A0A" fill-opacity="0.85"/></svg>