<svg xmlns="http://www.w3.org/2000/svg" width="390" height="844" viewBox="0 0 390 844" font-family="'Plus Jakarta Sans','Plus Jakarta Sans Variable',-apple-system,'Segoe UI',Roboto,sans-serif"><defs><filter id="footShadow" x="-20%" y="-60%" width="140%" height="220%"><feGaussianBlur stdDeviation="6"/></filter><linearGradient id="footShadow" x1="0" y1="0" x2="0" y2="1"><stop offset="0" stop-color="#000" stop-opacity="0"/><stop offset="1" stop-color="#000" stop-opacity="0.06"/></linearGradient></defs><rect width="390" height="844" fill="#FFFFFF"/><g><text x="26" y="33" font-family="'Plus Jakarta Sans','Plus Jakarta Sans Variable',-apple-system,'Segoe UI',Roboto,sans-serif" font-size="15" font-weight="700" letter-spacing="0" text-anchor="start" fill="#0A0A0A">9:41</text><rect x="312" y="23" width="4" height="4" rx="1.2" ry="1.2" fill="#0A0A0A"/><rect x="318" y="20.6" width="4" height="6.4" rx="1.2" ry="1.2" fill="#0A0A0A"/><rect x="324" y="18.2" width="4" height="8.8" rx="1.2" ry="1.2" fill="#0A0A0A"/><rect x="330" y="15.8" width="4" height="11.2" rx="1.2" ry="1.2" fill="#0A0A0A"/><path d="M340 22 a8 8 0 0 1 11 0" fill="none" stroke="#0A0A0A" stroke-width="2" stroke-linecap="round" stroke-linejoin="round"/><path d="M342.6 25 a4.2 4.2 0 0 1 5.8 0" fill="none" stroke="#0A0A0A" stroke-width="2" stroke-linecap="round" stroke-linejoin="round"/><circle cx="345.5" cy="28" r="1.4" fill="#0A0A0A"/><rect x="360" y="19" width="20" height="10" rx="3" ry="3" fill="none" fill-opacity="0.45" stroke="#0A0A0A" stroke-width="1.2"/><rect x="362.5" y="21.2" width="13" height="5.6" rx="1.4" ry="1.4" fill="#0A0A0A"/><path d="M381 22 v4" fill="none" fill-opacity="0.45" stroke="#0A0A0A" stroke-width="1.8" stroke-linecap="round" stroke-linejoin="round"/></g><rect x="0" y="0" width="390" height="106" rx="0" ry="0" fill="#FFFFFF"/><g transform="translate(15,67) scale(0.92)"><g fill="none" stroke="#0A0A0A" stroke-width="1.85" stroke-linecap="round" stroke-linejoin="round"><polyline points="14,4 7,12 14,20"/></g></g><text x="58" y="83.4" font-family="'Plus Jakarta Sans','Plus Jakarta Sans Variable',-apple-system,'Segoe UI',Roboto,sans-serif" font-size="18" font-weight="700" letter-spacing="-0.4" text-anchor="start" fill="#0A0A0A">Ratings Left</text><rect x="24" y="122" width="342" height="112" rx="12" ry="12" fill="#F9FAFB"/><circle cx="60" cy="158" r="20" fill="#7B6EFE"/><text x="60" y="163.8" font-family="'Plus Jakarta Sans','Plus Jakarta Sans Variable',-apple-system,'Segoe UI',Roboto,sans-serif" font-size="16" font-weight="800" letter-spacing="-0.4" text-anchor="middle" fill="#FFFFFF">A</text><text x="90" y="151.2" font-family="'Plus Jakarta Sans','Plus Jakarta Sans Variable',-apple-system,'Segoe UI',Roboto,sans-serif" font-size="14" font-weight="700" letter-spacing="-0.4" text-anchor="start" fill="#0A0A0A">Alex M.</text><text x="90" y="169.2" font-family="'Plus Jakarta Sans','Plus Jakarta Sans Variable',-apple-system,'Segoe UI',Roboto,sans-serif" font-size="11.5" font-weight="500" letter-spacing="-0.4" text-anchor="start" fill="#6B7280">Oct 12, 2024</text><g transform="translate(269,143) scale(0.58)"><g fill="#FFC107" stroke="none"><path d="M12 2.5 l2.9 6 6.6 .9 -4.8 4.6 1.2 6.6 -5.9 -3.1 -5.9 3.1 1.2 -6.6 -4.8 -4.6 6.6 -.9 Z"/></g></g><g transform="translate(287,143) scale(0.58)"><g fill="#FFC107" stroke="none"><path d="M12 2.5 l2.9 6 6.6 .9 -4.8 4.6 1.2 6.6 -5.9 -3.1 -5.9 3.1 1.2 -6.6 -4.8 -4.6 6.6 -.9 Z"/></g></g><g transform="translate(305,143) scale(0.58)"><g fill="#FFC107" stroke="none"><path d="M12 2.5 l2.9 6 6.6 .9 -4.8 4.6 1.2 6.6 -5.9 -3.1 -5.9 3.1 1.2 -6.6 -4.8 -4.6 6.6 -.9 Z"/></g></g><g transform="translate(323,143) scale(0.58)"><g fill="#FFC107" stroke="none"><path d="M12 2.5 l2.9 6 6.6 .9 -4.8 4.6 1.2 6.6 -5.9 -3.1 -5.9 3.1 1.2 -6.6 -4.8 -4.6 6.6 -.9 Z"/></g></g><g transform="translate(341,143) scale(0.58)"><g fill="#FFC107" stroke="none"><path d="M12 2.5 l2.9 6 6.6 .9 -4.8 4.6 1.2 6.6 -5.9 -3.1 -5.9 3.1 1.2 -6.6 -4.8 -4.6 6.6 -.9 Z"/></g></g><text x="42" y="194" font-family="'Plus Jakarta Sans','Plus Jakarta Sans Variable',-apple-system,'Segoe UI',Roboto,sans-serif" font-size="12.5" font-weight="500" letter-spacing="-0.4" text-anchor="start" fill="#4B5563">Smooth handover and great communication</text><text x="42" y="211" font-family="'Plus Jakarta Sans','Plus Jakarta Sans Variable',-apple-system,'Segoe UI',Roboto,sans-serif" font-size="12.5" font-weight="500" letter-spacing="-0.4" text-anchor="start" fill="#4B5563">throughout the trip.</text><rect x="24" y="248" width="342" height="112" rx="12" ry="12" fill="#F9FAFB"/><circle cx="60" cy="284" r="20" fill="#7B6EFE"/><text x="60" y="289.8" font-family="'Plus Jakarta Sans','Plus Jakarta Sans Variable',-apple-system,'Segoe UI',Roboto,sans-serif" font-size="16" font-weight="800" letter-spacing="-0.4" text-anchor="middle" fill="#FFFFFF">S</text><text x="90" y="277.2" font-family="'Plus Jakarta Sans','Plus Jakarta Sans Variable',-apple-system,'Segoe UI',Roboto,sans-serif" font-size="14" font-weight="700" letter-spacing="-0.4" text-anchor="start" fill="#0A0A0A">Sarah J.</text><text x="90" y="295.2" font-family="'Plus Jakarta Sans','Plus Jakarta Sans Variable',-apple-system,'Segoe UI',Roboto,sans-serif" font-size="11.5" font-weight="500" letter-spacing="-0.4" text-anchor="start" fill="#6B7280">Sep 28, 2024</text><g transform="translate(269,269) scale(0.58)"><g fill="#FFC107" stroke="none"><path d="M12 2.5 l2.9 6 6.6 .9 -4.8 4.6 1.2 6.6 -5.9 -3.1 -5.9 3.1 1.2 -6.6 -4.8 -4.6 6.6 -.9 Z"/></g></g><g transform="translate(287,269) scale(0.58)"><g fill="#FFC107" stroke="none"><path d="M12 2.5 l2.9 6 6.6 .9 -4.8 4.6 1.2 6.6 -5.9 -3.1 -5.9 3.1 1.2 -6.6 -4.8 -4.6 6.6 -.9 Z"/></g></g><g transform="translate(305,269) scale(0.58)"><g fill="#FFC107" stroke="none"><path d="M12 2.5 l2.9 6 6.6 .9 -4.8 4.6 1.2 6.6 -5.9 -3.1 -5.9 3.1 1.2 -6.6 -4.8 -4.6 6.6 -.9 Z"/></g></g><g transform="translate(323,269) scale(0.58)"><g fill="#FFC107" stroke="none"><path d="M12 2.5 l2.9 6 6.6 .9 -4.8 4.6 1.2 6.6 -5.9 -3.1 -5.9 3.1 1.2 -6.6 -4.8 -4.6 6.6 -.9 Z"/></g></g><g transform="translate(341,269) scale(0.58)"><g fill="none" stroke="#D1D5DB" stroke-width="1.85" stroke-linecap="round" stroke-linejoin="round"><path d="M12 3.5 l2.7 5.6 6.1 .9 -4.4 4.3 1 6.1 -5.4 -2.8 -5.4 2.8 1 -6.1 -4.4 -4.3 6.1 -.9 Z"/></g></g><text x="42" y="320" font-family="'Plus Jakarta Sans','Plus Jakarta Sans Variable',-apple-system,'Segoe UI',Roboto,sans-serif" font-size="12.5" font-weight="500" letter-spacing="-0.4" text-anchor="start" fill="#4B5563">Package arrived safely, slightly later than</text><text x="42" y="337" font-family="'Plus Jakarta Sans','Plus Jakarta Sans Variable',-apple-system,'Segoe UI',Roboto,sans-serif" font-size="12.5" font-weight="500" letter-spacing="-0.4" text-anchor="start" fill="#4B5563">planned but all good.</text><rect x="24" y="374" width="342" height="112" rx="12" ry="12" fill="#F9FAFB"/><circle cx="60" cy="410" r="20" fill="#7B6EFE"/><text x="60" y="415.8" font-family="'Plus Jakarta Sans','Plus Jakarta Sans Variable',-apple-system,'Segoe UI',Roboto,sans-serif" font-size="16" font-weight="800" letter-spacing="-0.4" text-anchor="middle" fill="#FFFFFF">D</text><text x="90" y="403.2" font-family="'Plus Jakarta Sans','Plus Jakarta Sans Variable',-apple-system,'Segoe UI',Roboto,sans-serif" font-size="14" font-weight="700" letter-spacing="-0.4" text-anchor="start" fill="#0A0A0A">Daniel O.</text><text x="90" y="421.2" font-family="'Plus Jakarta Sans','Plus Jakarta Sans Variable',-apple-system,'Segoe UI',Roboto,sans-serif" font-size="11.5" font-weight="500" letter-spacing="-0.4" text-anchor="start" fill="#6B7280">Sep 02, 2024</text><g transform="translate(269,395) scale(0.58)"><g fill="#FFC107" stroke="none"><path d="M12 2.5 l2.9 6 6.6 .9 -4.8 4.6 1.2 6.6 -5.9 -3.1 -5.9 3.1 1.2 -6.6 -4.8 -4.6 6.6 -.9 Z"/></g></g><g transform="translate(287,395) scale(0.58)"><g fill="#FFC107" stroke="none"><path d="M12 2.5 l2.9 6 6.6 .9 -4.8 4.6 1.2 6.6 -5.9 -3.1 -5.9 3.1 1.2 -6.6 -4.8 -4.6 6.6 -.9 Z"/></g></g><g transform="translate(305,395) scale(0.58)"><g fill="#FFC107" stroke="none"><path d="M12 2.5 l2.9 6 6.6 .9 -4.8 4.6 1.2 6.6 -5.9 -3.1 -5.9 3.1 1.2 -6.6 -4.8 -4.6 6.6 -.9 Z"/></g></g><g transform="translate(323,395) scale(0.58)"><g fill="#FFC107" stroke="none"><path d="M12 2.5 l2.9 6 6.6 .9 -4.8 4.6 1.2 6.6 -5.9 -3.1 -5.9 3.1 1.2 -6.6 -4.8 -4.6 6.6 -.9 Z"/></g></g><g transform="translate(341,395) scale(0.58)"><g fill="#FFC107" stroke="none"><path d="M12 2.5 l2.9 6 6.6 .9 -4.8 4.6 1.2 6.6 -5.9 -3.1 -5.9 3.1 1.2 -6.6 -4.8 -4.6 6.6 -.9 Z"/></g></g><text x="42" y="446" font-family="'Plus Jakarta Sans','Plus Jakarta Sans Variable',-apple-system,'Segoe UI',Roboto,sans-serif" font-size="12.5" font-weight="500" letter-spacing="-0.4" text-anchor="start" fill="#4B5563">Excellent traveler — friendly, punctual and</text><text x="42" y="463" font-family="'Plus Jakarta Sans','Plus Jakarta Sans Variable',-apple-system,'Segoe UI',Roboto,sans-serif" font-size="12.5" font-weight="500" letter-spacing="-0.4" text-anchor="start" fill="#4B5563">very careful.</text><rect x="128" y="835" width="134" height="5" rx="2.5" ry="2.5" fill="#0A0A0A" fill-opacity="0.85"/></svg>