<svg xmlns="http://www.w3.org/2000/svg" width="390" height="844" viewBox="0 0 390 844" font-family="'Plus Jakarta Sans','Plus Jakarta Sans Variable',-apple-system,'Segoe UI',Roboto,sans-serif"><defs><filter id="footShadow" x="-20%" y="-60%" width="140%" height="220%"><feGaussianBlur stdDeviation="6"/></filter><linearGradient id="footShadow" x1="0" y1="0" x2="0" y2="1"><stop offset="0" stop-color="#000" stop-opacity="0"/><stop offset="1" stop-color="#000" stop-opacity="0.06"/></linearGradient></defs><rect width="390" height="844" fill="#FFFFFF"/><g><text x="26" y="33" font-family="'Plus Jakarta Sans','Plus Jakarta Sans Variable',-apple-system,'Segoe UI',Roboto,sans-serif" font-size="15" font-weight="700" letter-spacing="0" text-anchor="start" fill="#0A0A0A">9:41</text><rect x="312" y="23" width="4" height="4" rx="1.2" ry="1.2" fill="#0A0A0A"/><rect x="318" y="20.6" width="4" height="6.4" rx="1.2" ry="1.2" fill="#0A0A0A"/><rect x="324" y="18.2" width="4" height="8.8" rx="1.2" ry="1.2" fill="#0A0A0A"/><rect x="330" y="15.8" width="4" height="11.2" rx="1.2" ry="1.2" fill="#0A0A0A"/><path d="M340 22 a8 8 0 0 1 11 0" fill="none" stroke="#0A0A0A" stroke-width="2" stroke-linecap="round" stroke-linejoin="round"/><path d="M342.6 25 a4.2 4.2 0 0 1 5.8 0" fill="none" stroke="#0A0A0A" stroke-width="2" stroke-linecap="round" stroke-linejoin="round"/><circle cx="345.5" cy="28" r="1.4" fill="#0A0A0A"/><rect x="360" y="19" width="20" height="10" rx="3" ry="3" fill="none" fill-opacity="0.45" stroke="#0A0A0A" stroke-width="1.2"/><rect x="362.5" y="21.2" width="13" height="5.6" rx="1.4" ry="1.4" fill="#0A0A0A"/><path d="M381 22 v4" fill="none" fill-opacity="0.45" stroke="#0A0A0A" stroke-width="1.8" stroke-linecap="round" stroke-linejoin="round"/></g><rect x="0" y="0" width="390" height="106" rx="0" ry="0" fill="#FFFFFF"/><g transform="translate(15,67) scale(0.92)"><g fill="none" stroke="#0A0A0A" stroke-width="1.85" stroke-linecap="round" stroke-linejoin="round"><polyline points="14,4 7,12 14,20"/></g></g><text x="58" y="83.4" font-family="'Plus Jakarta Sans','Plus Jakarta Sans Variable',-apple-system,'Segoe UI',Roboto,sans-serif" font-size="18" font-weight="700" letter-spacing="-0.4" text-anchor="start" fill="#0A0A0A">Saved routes</text><rect x="24" y="122" width="342" height="116" rx="12" ry="12" fill="#F9FAFB"/><circle cx="46" cy="148" r="5" fill="#5C4BFD"/><line x1="46" y1="154" x2="46" y2="174" stroke="#D1D5DB" stroke-width="2" stroke-linecap="round"/><circle cx="46" cy="180" r="5" fill="#10B981"/><text x="64" y="152.6" font-family="'Plus Jakarta Sans','Plus Jakarta Sans Variable',-apple-system,'Segoe UI',Roboto,sans-serif" font-size="14.5" font-weight="800" letter-spacing="-0.4" text-anchor="start" fill="#0A0A0A">Madrid</text><text x="64" y="183.6" font-family="'Plus Jakarta Sans','Plus Jakarta Sans Variable',-apple-system,'Segoe UI',Roboto,sans-serif" font-size="14.5" font-weight="800" letter-spacing="-0.4" text-anchor="start" fill="#0A0A0A">Lisbon</text><g transform="translate(331.5,139.5) scale(0.71)"><g fill="none" stroke="#9CA3AF" stroke-width="1.85" stroke-linecap="round" stroke-linejoin="round"><polyline points="4,6.5 20,6.5"/><path d="M6.5 6.5 V20 H17.5 V6.5"/><path d="M9 6.5 V3.8 H15 V6.5"/><line x1="10" y1="10.5" x2="10" y2="16"/><line x1="14" y1="10.5" x2="14" y2="16"/></g></g><line x1="40" y1="200" x2="350" y2="200" stroke="#E5E7EB" stroke-width="1" stroke-linecap="round"/><rect x="40" y="210" width="55" height="24" rx="12" ry="12" fill="#EEEBFF"/><text x="67.5" y="224.75" font-family="'Plus Jakarta Sans','Plus Jakarta Sans Variable',-apple-system,'Segoe UI',Roboto,sans-serif" font-size="11" font-weight="700" letter-spacing="-0.4" text-anchor="middle" fill="#5C4BFD">Daily</text><text x="328" y="223.6" font-family="'Plus Jakarta Sans','Plus Jakarta Sans Variable',-apple-system,'Segoe UI',Roboto,sans-serif" font-size="12" font-weight="700" letter-spacing="-0.4" text-anchor="end" fill="#5C4BFD">Search Again</text><g transform="translate(335.5,214.5) scale(0.54)"><g fill="none" stroke="#5C4BFD" stroke-width="2.2" stroke-linecap="round" stroke-linejoin="round"><line x1="4" y1="12" x2="18.5" y2="12"/><polyline points="12,5 19,12 12,19"/></g></g><rect x="24" y="250" width="342" height="116" rx="12" ry="12" fill="#F9FAFB"/><circle cx="46" cy="276" r="5" fill="#5C4BFD"/><line x1="46" y1="282" x2="46" y2="302" stroke="#D1D5DB" stroke-width="2" stroke-linecap="round"/><circle cx="46" cy="308" r="5" fill="#10B981"/><text x="64" y="280.6" font-family="'Plus Jakarta Sans','Plus Jakarta Sans Variable',-apple-system,'Segoe UI',Roboto,sans-serif" font-size="14.5" font-weight="800" letter-spacing="-0.4" text-anchor="start" fill="#0A0A0A">Lagos</text><text x="64" y="311.6" font-family="'Plus Jakarta Sans','Plus Jakarta Sans Variable',-apple-system,'Segoe UI',Roboto,sans-serif" font-size="14.5" font-weight="800" letter-spacing="-0.4" text-anchor="start" fill="#0A0A0A">London</text><g transform="translate(331.5,267.5) scale(0.71)"><g fill="none" stroke="#9CA3AF" stroke-width="1.85" stroke-linecap="round" stroke-linejoin="round"><polyline points="4,6.5 20,6.5"/><path d="M6.5 6.5 V20 H17.5 V6.5"/><path d="M9 6.5 V3.8 H15 V6.5"/><line x1="10" y1="10.5" x2="10" y2="16"/><line x1="14" y1="10.5" x2="14" y2="16"/></g></g><line x1="40" y1="328" x2="350" y2="328" stroke="#E5E7EB" stroke-width="1" stroke-linecap="round"/><rect x="40" y="338" width="61.6" height="24" rx="12" ry="12" fill="#EEEBFF"/><text x="70.8" y="352.75" font-family="'Plus Jakarta Sans','Plus Jakarta Sans Variable',-apple-system,'Segoe UI',Roboto,sans-serif" font-size="11" font-weight="700" letter-spacing="-0.4" text-anchor="middle" fill="#5C4BFD">Weekly</text><text x="328" y="351.6" font-family="'Plus Jakarta Sans','Plus Jakarta Sans Variable',-apple-system,'Segoe UI',Roboto,sans-serif" font-size="12" font-weight="700" letter-spacing="-0.4" text-anchor="end" fill="#5C4BFD">Search Again</text><g transform="translate(335.5,342.5) scale(0.54)"><g fill="none" stroke="#5C4BFD" stroke-width="2.2" stroke-linecap="round" stroke-linejoin="round"><line x1="4" y1="12" x2="18.5" y2="12"/><polyline points="12,5 19,12 12,19"/></g></g><rect x="24" y="378" width="342" height="116" rx="12" ry="12" fill="#F9FAFB"/><circle cx="46" cy="404" r="5" fill="#5C4BFD"/><line x1="46" y1="410" x2="46" y2="430" stroke="#D1D5DB" stroke-width="2" stroke-linecap="round"/><circle cx="46" cy="436" r="5" fill="#10B981"/><text x="64" y="408.6" font-family="'Plus Jakarta Sans','Plus Jakarta Sans Variable',-apple-system,'Segoe UI',Roboto,sans-serif" font-size="14.5" font-weight="800" letter-spacing="-0.4" text-anchor="start" fill="#0A0A0A">Accra</text><text x="64" y="439.6" font-family="'Plus Jakarta Sans','Plus Jakarta Sans Variable',-apple-system,'Segoe UI',Roboto,sans-serif" font-size="14.5" font-weight="800" letter-spacing="-0.4" text-anchor="start" fill="#0A0A0A">New York</text><g transform="translate(331.5,395.5) scale(0.71)"><g fill="none" stroke="#9CA3AF" stroke-width="1.85" stroke-linecap="round" stroke-linejoin="round"><polyline points="4,6.5 20,6.5"/><path d="M6.5 6.5 V20 H17.5 V6.5"/><path d="M9 6.5 V3.8 H15 V6.5"/><line x1="10" y1="10.5" x2="10" y2="16"/><line x1="14" y1="10.5" x2="14" y2="16"/></g></g><line x1="40" y1="456" x2="350" y2="456" stroke="#E5E7EB" stroke-width="1" stroke-linecap="round"/><rect x="40" y="466" width="68.2" height="24" rx="12" ry="12" fill="#EEEBFF"/><text x="74.1" y="480.75" font-family="'Plus Jakarta Sans','Plus Jakarta Sans Variable',-apple-system,'Segoe UI',Roboto,sans-serif" font-size="11" font-weight="700" letter-spacing="-0.4" text-anchor="middle" fill="#5C4BFD">Monthly</text><text x="328" y="479.6" font-family="'Plus Jakarta Sans','Plus Jakarta Sans Variable',-apple-system,'Segoe UI',Roboto,sans-serif" font-size="12" font-weight="700" letter-spacing="-0.4" text-anchor="end" fill="#5C4BFD">Search Again</text><g transform="translate(335.5,470.5) scale(0.54)"><g fill="none" stroke="#5C4BFD" stroke-width="2.2" stroke-linecap="round" stroke-linejoin="round"><line x1="4" y1="12" x2="18.5" y2="12"/><polyline points="12,5 19,12 12,19"/></g></g><rect x="128" y="835" width="134" height="5" rx="2.5" ry="2.5" fill="#0A0A0A" fill-opacity="0.85"/></svg>