<svg xmlns="http://www.w3.org/2000/svg" width="390" height="844" viewBox="0 0 390 844" font-family="'Plus Jakarta Sans','Plus Jakarta Sans Variable',-apple-system,'Segoe UI',Roboto,sans-serif"><defs><filter id="footShadow" x="-20%" y="-60%" width="140%" height="220%"><feGaussianBlur stdDeviation="6"/></filter><linearGradient id="footShadow" x1="0" y1="0" x2="0" y2="1"><stop offset="0" stop-color="#000" stop-opacity="0"/><stop offset="1" stop-color="#000" stop-opacity="0.06"/></linearGradient></defs><rect width="390" height="844" fill="#FFFFFF"/><g><text x="26" y="33" font-family="'Plus Jakarta Sans','Plus Jakarta Sans Variable',-apple-system,'Segoe UI',Roboto,sans-serif" font-size="15" font-weight="700" letter-spacing="0" text-anchor="start" fill="#0A0A0A">9:41</text><rect x="312" y="23" width="4" height="4" rx="1.2" ry="1.2" fill="#0A0A0A"/><rect x="318" y="20.6" width="4" height="6.4" rx="1.2" ry="1.2" fill="#0A0A0A"/><rect x="324" y="18.2" width="4" height="8.8" rx="1.2" ry="1.2" fill="#0A0A0A"/><rect x="330" y="15.8" width="4" height="11.2" rx="1.2" ry="1.2" fill="#0A0A0A"/><path d="M340 22 a8 8 0 0 1 11 0" fill="none" stroke="#0A0A0A" stroke-width="2" stroke-linecap="round" stroke-linejoin="round"/><path d="M342.6 25 a4.2 4.2 0 0 1 5.8 0" fill="none" stroke="#0A0A0A" stroke-width="2" stroke-linecap="round" stroke-linejoin="round"/><circle cx="345.5" cy="28" r="1.4" fill="#0A0A0A"/><rect x="360" y="19" width="20" height="10" rx="3" ry="3" fill="none" fill-opacity="0.45" stroke="#0A0A0A" stroke-width="1.2"/><rect x="362.5" y="21.2" width="13" height="5.6" rx="1.4" ry="1.4" fill="#0A0A0A"/><path d="M381 22 v4" fill="none" fill-opacity="0.45" stroke="#0A0A0A" stroke-width="1.8" stroke-linecap="round" stroke-linejoin="round"/></g><rect x="0" y="0" width="390" height="106" rx="0" ry="0" fill="#FFFFFF"/><g transform="translate(15,67) scale(0.92)"><g fill="none" stroke="#0A0A0A" stroke-width="1.85" stroke-linecap="round" stroke-linejoin="round"><polyline points="14,4 7,12 14,20"/></g></g><text x="58" y="83.4" font-family="'Plus Jakarta Sans','Plus Jakarta Sans Variable',-apple-system,'Segoe UI',Roboto,sans-serif" font-size="18" font-weight="700" letter-spacing="-0.4" text-anchor="start" fill="#0A0A0A">Communication</text><text x="26" y="131.2" font-family="'Plus Jakarta Sans','Plus Jakarta Sans Variable',-apple-system,'Segoe UI',Roboto,sans-serif" font-size="11.5" font-weight="800" letter-spacing="1.0" text-anchor="start" fill="#9CA3AF">NOTIFICATION SETTINGS</text><rect x="24" y="146" width="342" height="74" rx="12" ry="12" fill="#FFFFFF" stroke="#E5E7EB" stroke-width="1"/><rect x="38" y="165" width="36" height="36" rx="10" ry="10" fill="#F9FAFB"/><g transform="translate(47,174) scale(0.75)"><g fill="none" stroke="#374151" stroke-width="1.85" stroke-linecap="round" stroke-linejoin="round"><path d="M6 17 V11 a6 6 0 0 1 12 0 V17 l1.8 2 H4.2 Z"/><path d="M9.7 20.2 a2.6 2.6 0 0 0 4.6 0"/></g></g><text x="84" y="174.8" font-family="'Plus Jakarta Sans','Plus Jakarta Sans Variable',-apple-system,'Segoe UI',Roboto,sans-serif" font-size="13.5" font-weight="800" letter-spacing="-0.4" text-anchor="start" fill="#0A0A0A">Push Notifications</text><text x="84" y="191.8" font-family="'Plus Jakarta Sans','Plus Jakarta Sans Variable',-apple-system,'Segoe UI',Roboto,sans-serif" font-size="11" font-weight="500" letter-spacing="-0.4" text-anchor="start" fill="#6B7280">Shipment updates, trip requests &amp;</text><text x="84" y="205.8" font-family="'Plus Jakarta Sans','Plus Jakarta Sans Variable',-apple-system,'Segoe UI',Roboto,sans-serif" font-size="11" font-weight="500" letter-spacing="-0.4" text-anchor="start" fill="#6B7280">chat alerts</text><rect x="306" y="170" width="44" height="26" rx="13" ry="13" fill="#5C4BFD"/><circle cx="337" cy="183" r="10" fill="#FFFFFF"/><rect x="24" y="232" width="342" height="74" rx="12" ry="12" fill="#FFFFFF" stroke="#E5E7EB" stroke-width="1"/><rect x="38" y="251" width="36" height="36" rx="10" ry="10" fill="#F9FAFB"/><g transform="translate(47,260) scale(0.75)"><g fill="none" stroke="#374151" stroke-width="1.85" stroke-linecap="round" stroke-linejoin="round"><rect x="3" y="5.5" width="18" height="13" rx="2.6"/><polyline points="3.8,7 12,12.5 20.2,7"/></g></g><text x="84" y="260.8" font-family="'Plus Jakarta Sans','Plus Jakarta Sans Variable',-apple-system,'Segoe UI',Roboto,sans-serif" font-size="13.5" font-weight="800" letter-spacing="-0.4" text-anchor="start" fill="#0A0A0A">Email Notifications</text><text x="84" y="277.8" font-family="'Plus Jakarta Sans','Plus Jakarta Sans Variable',-apple-system,'Segoe UI',Roboto,sans-serif" font-size="11" font-weight="500" letter-spacing="-0.4" text-anchor="start" fill="#6B7280">Booking confirmations and account</text><text x="84" y="291.8" font-family="'Plus Jakarta Sans','Plus Jakarta Sans Variable',-apple-system,'Segoe UI',Roboto,sans-serif" font-size="11" font-weight="500" letter-spacing="-0.4" text-anchor="start" fill="#6B7280">security</text><rect x="306" y="256" width="44" height="26" rx="13" ry="13" fill="#5C4BFD"/><circle cx="337" cy="269" r="10" fill="#FFFFFF"/><rect x="24" y="318" width="342" height="74" rx="12" ry="12" fill="#FFFFFF" stroke="#E5E7EB" stroke-width="1"/><rect x="38" y="337" width="36" height="36" rx="10" ry="10" fill="#F9FAFB"/><g transform="translate(47,346) scale(0.75)"><g fill="none" stroke="#374151" stroke-width="1.85" stroke-linecap="round" stroke-linejoin="round"><path d="M12 3 L19 6 V11 c0 5 -3.2 8.2 -7 10 c-3.8 -1.8 -7 -5 -7 -10 V6 Z"/></g></g><text x="84" y="346.8" font-family="'Plus Jakarta Sans','Plus Jakarta Sans Variable',-apple-system,'Segoe UI',Roboto,sans-serif" font-size="13.5" font-weight="800" letter-spacing="-0.4" text-anchor="start" fill="#0A0A0A">System Alerts</text><text x="84" y="363.8" font-family="'Plus Jakarta Sans','Plus Jakarta Sans Variable',-apple-system,'Segoe UI',Roboto,sans-serif" font-size="11" font-weight="500" letter-spacing="-0.4" text-anchor="start" fill="#6B7280">Critical updates about the Bago</text><text x="84" y="377.8" font-family="'Plus Jakarta Sans','Plus Jakarta Sans Variable',-apple-system,'Segoe UI',Roboto,sans-serif" font-size="11" font-weight="500" letter-spacing="-0.4" text-anchor="start" fill="#6B7280">service</text><rect x="306" y="342" width="44" height="26" rx="13" ry="13" fill="#5C4BFD"/><circle cx="337" cy="355" r="10" fill="#FFFFFF"/><rect x="128" y="835" width="134" height="5" rx="2.5" ry="2.5" fill="#0A0A0A" fill-opacity="0.85"/></svg>