<svg xmlns="http://www.w3.org/2000/svg" width="390" height="844" viewBox="0 0 390 844" font-family="'Plus Jakarta Sans','Plus Jakarta Sans Variable',-apple-system,'Segoe UI',Roboto,sans-serif"><defs><filter id="footShadow" x="-20%" y="-60%" width="140%" height="220%"><feGaussianBlur stdDeviation="6"/></filter><linearGradient id="footShadow" x1="0" y1="0" x2="0" y2="1"><stop offset="0" stop-color="#000" stop-opacity="0"/><stop offset="1" stop-color="#000" stop-opacity="0.06"/></linearGradient></defs><rect width="390" height="844" fill="#FFFFFF"/><g><text x="26" y="33" font-family="'Plus Jakarta Sans','Plus Jakarta Sans Variable',-apple-system,'Segoe UI',Roboto,sans-serif" font-size="15" font-weight="700" letter-spacing="0" text-anchor="start" fill="#0A0A0A">9:41</text><rect x="312" y="23" width="4" height="4" rx="1.2" ry="1.2" fill="#0A0A0A"/><rect x="318" y="20.6" width="4" height="6.4" rx="1.2" ry="1.2" fill="#0A0A0A"/><rect x="324" y="18.2" width="4" height="8.8" rx="1.2" ry="1.2" fill="#0A0A0A"/><rect x="330" y="15.8" width="4" height="11.2" rx="1.2" ry="1.2" fill="#0A0A0A"/><path d="M340 22 a8 8 0 0 1 11 0" fill="none" stroke="#0A0A0A" stroke-width="2" stroke-linecap="round" stroke-linejoin="round"/><path d="M342.6 25 a4.2 4.2 0 0 1 5.8 0" fill="none" stroke="#0A0A0A" stroke-width="2" stroke-linecap="round" stroke-linejoin="round"/><circle cx="345.5" cy="28" r="1.4" fill="#0A0A0A"/><rect x="360" y="19" width="20" height="10" rx="3" ry="3" fill="none" fill-opacity="0.45" stroke="#0A0A0A" stroke-width="1.2"/><rect x="362.5" y="21.2" width="13" height="5.6" rx="1.4" ry="1.4" fill="#0A0A0A"/><path d="M381 22 v4" fill="none" fill-opacity="0.45" stroke="#0A0A0A" stroke-width="1.8" stroke-linecap="round" stroke-linejoin="round"/></g><rect x="0" y="0" width="390" height="116" rx="0" ry="0" fill="#FFFFFF"/><rect x="16" y="64" width="40" height="40" rx="12" ry="12" fill="#F3F4F6"/><g transform="translate(26.5,74.5) scale(0.79)"><g fill="none" stroke="#0A0A0A" stroke-width="1.85" stroke-linecap="round" stroke-linejoin="round"><polyline points="13,5 6,12 13,19"/><line x1="6.5" y1="12" x2="20" y2="12"/></g></g><text x="195" y="88.6" font-family="'Plus Jakarta Sans','Plus Jakarta Sans Variable',-apple-system,'Segoe UI',Roboto,sans-serif" font-size="17" font-weight="800" letter-spacing="-0.4" text-anchor="middle" fill="#0A0A0A">Payments &amp; Refunds</text><g transform="translate(347,72) scale(0.92)"><g fill="none" stroke="#5C4BFD" stroke-width="1.85" stroke-linecap="round" stroke-linejoin="round"><line x1="12" y1="3.5" x2="12" y2="15"/><polyline points="7,10.5 12,15.5 17,10.5"/><path d="M4.5 19.5 H19.5"/></g></g><rect x="24" y="134" width="342" height="96" rx="22" ry="22" fill="#0D0E12"/><line x1="195" y1="152" x2="195" y2="212" stroke="#26272E" stroke-width="1" stroke-linecap="round"/><text x="48" y="164" font-family="'Plus Jakarta Sans','Plus Jakarta Sans Variable',-apple-system,'Segoe UI',Roboto,sans-serif" font-size="10" font-weight="800" letter-spacing="0.6" text-anchor="start" fill="#9CA3AF">AVAILABLE</text><text x="48" y="190.4" font-family="'Plus Jakarta Sans','Plus Jakarta Sans Variable',-apple-system,'Segoe UI',Roboto,sans-serif" font-size="18" font-weight="800" letter-spacing="-0.4" text-anchor="start" fill="#10B981">NGN 33,600</text><text x="219" y="164" font-family="'Plus Jakarta Sans','Plus Jakarta Sans Variable',-apple-system,'Segoe UI',Roboto,sans-serif" font-size="10" font-weight="800" letter-spacing="0.6" text-anchor="start" fill="#9CA3AF">IN ESCROW</text><text x="219" y="190.4" font-family="'Plus Jakarta Sans','Plus Jakarta Sans Variable',-apple-system,'Segoe UI',Roboto,sans-serif" font-size="18" font-weight="800" letter-spacing="-0.4" text-anchor="start" fill="#FFC107">NGN 12,000</text><rect x="24" y="246" width="342" height="64" rx="14" ry="14" fill="#F0FDFA"/><g transform="translate(41.5,267.5) scale(0.88)"><g fill="none" stroke="#0D9488" stroke-width="1.85" stroke-linecap="round" stroke-linejoin="round"><path d="M12 3 L19 6 V11 c0 5 -3.2 8.2 -7 10 c-3.8 -1.8 -7 -5 -7 -10 V6 Z"/><polyline points="8.8,11.8 11,14 15.2,9.5"/></g></g><text x="76" y="272.4" font-family="'Plus Jakarta Sans','Plus Jakarta Sans Variable',-apple-system,'Segoe UI',Roboto,sans-serif" font-size="13" font-weight="800" letter-spacing="-0.4" text-anchor="start" fill="#0F766E">Escrow Protection</text><text x="76" y="289.2" font-family="'Plus Jakarta Sans','Plus Jakarta Sans Variable',-apple-system,'Segoe UI',Roboto,sans-serif" font-size="11.5" font-weight="500" letter-spacing="-0.4" text-anchor="start" fill="#0D9488">Funds are released to you once delivery</text><text x="76" y="304.2" font-family="'Plus Jakarta Sans','Plus Jakarta Sans Variable',-apple-system,'Segoe UI',Roboto,sans-serif" font-size="11.5" font-weight="500" letter-spacing="-0.4" text-anchor="start" fill="#0D9488">is confirmed.</text><text x="26" y="333.2" font-family="'Plus Jakarta Sans','Plus Jakarta Sans Variable',-apple-system,'Segoe UI',Roboto,sans-serif" font-size="11.5" font-weight="800" letter-spacing="1.0" text-anchor="start" fill="#9CA3AF">TRANSACTION HISTORY</text><rect x="24" y="348" width="342" height="248" rx="14" ry="14" fill="#F3F4F6"/><rect x="38" y="362" width="34" height="34" rx="10" ry="10" fill="#FFFFFF"/><g transform="translate(46.5,370.5) scale(0.71)"><g fill="none" stroke="#10B981" stroke-width="1.85" stroke-linecap="round" stroke-linejoin="round"><line x1="12" y1="5" x2="12" y2="19"/><polyline points="5,12 12,19 19,12"/></g></g><text x="82" y="374.4" font-family="'Plus Jakarta Sans','Plus Jakarta Sans Variable',-apple-system,'Segoe UI',Roboto,sans-serif" font-size="13" font-weight="700" letter-spacing="-0.4" text-anchor="start" fill="#0A0A0A">Shipment Earning</text><text x="82" y="390.8" font-family="'Plus Jakarta Sans','Plus Jakarta Sans Variable',-apple-system,'Segoe UI',Roboto,sans-serif" font-size="11" font-weight="500" letter-spacing="-0.4" text-anchor="start" fill="#6B7280">Today</text><text x="352" y="382" font-family="'Plus Jakarta Sans','Plus Jakarta Sans Variable',-apple-system,'Segoe UI',Roboto,sans-serif" font-size="12.5" font-weight="800" letter-spacing="-0.4" text-anchor="end" fill="#10B981">+ NGN 8,400</text><line x1="38" y1="410" x2="352" y2="410" stroke="#E5E7EB" stroke-width="1" stroke-linecap="round"/><rect x="38" y="424" width="34" height="34" rx="10" ry="10" fill="#FFFFFF"/><g transform="translate(46.5,432.5) scale(0.71)"><g fill="none" stroke="#FFC107" stroke-width="1.85" stroke-linecap="round" stroke-linejoin="round"><rect x="4.5" y="10.5" width="15" height="10" rx="2.6"/><path d="M8 10.5 V7.6 a4 4 0 0 1 8 0 V10.5"/></g></g><text x="82" y="436.4" font-family="'Plus Jakarta Sans','Plus Jakarta Sans Variable',-apple-system,'Segoe UI',Roboto,sans-serif" font-size="13" font-weight="700" letter-spacing="-0.4" text-anchor="start" fill="#0A0A0A">Held in Escrow</text><text x="82" y="452.8" font-family="'Plus Jakarta Sans','Plus Jakarta Sans Variable',-apple-system,'Segoe UI',Roboto,sans-serif" font-size="11" font-weight="500" letter-spacing="-0.4" text-anchor="start" fill="#6B7280">Yesterday</text><text x="352" y="444" font-family="'Plus Jakarta Sans','Plus Jakarta Sans Variable',-apple-system,'Segoe UI',Roboto,sans-serif" font-size="12.5" font-weight="800" letter-spacing="-0.4" text-anchor="end" fill="#FFC107">NGN 12,000</text><line x1="38" y1="472" x2="352" y2="472" stroke="#E5E7EB" stroke-width="1" stroke-linecap="round"/><rect x="38" y="486" width="34" height="34" rx="10" ry="10" fill="#FFFFFF"/><g transform="translate(46.5,494.5) scale(0.71)"><g fill="none" stroke="#10B981" stroke-width="1.85" stroke-linecap="round" stroke-linejoin="round"><path d="M6 3.5 H18 V20.5 l-3 -1.8 -3 1.8 -3 -1.8 -3 1.8 Z"/><line x1="9" y1="8.5" x2="15" y2="8.5"/><line x1="9" y1="12.5" x2="15" y2="12.5"/></g></g><text x="82" y="498.4" font-family="'Plus Jakarta Sans','Plus Jakarta Sans Variable',-apple-system,'Segoe UI',Roboto,sans-serif" font-size="13" font-weight="700" letter-spacing="-0.4" text-anchor="start" fill="#0A0A0A">Refund Processed</text><text x="82" y="514.8" font-family="'Plus Jakarta Sans','Plus Jakarta Sans Variable',-apple-system,'Segoe UI',Roboto,sans-serif" font-size="11" font-weight="500" letter-spacing="-0.4" text-anchor="start" fill="#6B7280">18 May</text><text x="352" y="506" font-family="'Plus Jakarta Sans','Plus Jakarta Sans Variable',-apple-system,'Segoe UI',Roboto,sans-serif" font-size="12.5" font-weight="800" letter-spacing="-0.4" text-anchor="end" fill="#10B981">+ NGN 3,000</text><line x1="38" y1="534" x2="352" y2="534" stroke="#E5E7EB" stroke-width="1" stroke-linecap="round"/><rect x="38" y="548" width="34" height="34" rx="10" ry="10" fill="#FFFFFF"/><g transform="translate(46.5,556.5) scale(0.71)"><g fill="none" stroke="#10B981" stroke-width="1.85" stroke-linecap="round" stroke-linejoin="round"><line x1="12" y1="5" x2="12" y2="19"/><polyline points="5,12 12,19 19,12"/></g></g><text x="82" y="560.4" font-family="'Plus Jakarta Sans','Plus Jakarta Sans Variable',-apple-system,'Segoe UI',Roboto,sans-serif" font-size="13" font-weight="700" letter-spacing="-0.4" text-anchor="start" fill="#0A0A0A">Escrow Released</text><text x="82" y="576.8" font-family="'Plus Jakarta Sans','Plus Jakarta Sans Variable',-apple-system,'Segoe UI',Roboto,sans-serif" font-size="11" font-weight="500" letter-spacing="-0.4" text-anchor="start" fill="#6B7280">12 May</text><text x="352" y="568" font-family="'Plus Jakarta Sans','Plus Jakarta Sans Variable',-apple-system,'Segoe UI',Roboto,sans-serif" font-size="12.5" font-weight="800" letter-spacing="-0.4" text-anchor="end" fill="#10B981">+ NGN 15,200</text><rect x="128" y="835" width="134" height="5" rx="2.5" ry="2.5" fill="#0A0A0A" fill-opacity="0.85"/></svg>