<svg xmlns="http://www.w3.org/2000/svg" width="390" height="844" viewBox="0 0 390 844" font-family="'Plus Jakarta Sans','Plus Jakarta Sans Variable',-apple-system,'Segoe UI',Roboto,sans-serif"><defs><filter id="footShadow" x="-20%" y="-60%" width="140%" height="220%"><feGaussianBlur stdDeviation="6"/></filter><linearGradient id="footShadow" x1="0" y1="0" x2="0" y2="1"><stop offset="0" stop-color="#000" stop-opacity="0"/><stop offset="1" stop-color="#000" stop-opacity="0.06"/></linearGradient><linearGradient id="supG" x1="0" y1="0" x2="1" y2="1"><stop offset="0" stop-color="#6E5BFF"/><stop offset="1" stop-color="#4A3BD8"/></linearGradient></defs><rect width="390" height="844" fill="#F7F7FC"/><g><text x="26" y="33" font-family="'Plus Jakarta Sans','Plus Jakarta Sans Variable',-apple-system,'Segoe UI',Roboto,sans-serif" font-size="15" font-weight="700" letter-spacing="0" text-anchor="start" fill="#0A0A0A">9:41</text><rect x="312" y="23" width="4" height="4" rx="1.2" ry="1.2" fill="#0A0A0A"/><rect x="318" y="20.6" width="4" height="6.4" rx="1.2" ry="1.2" fill="#0A0A0A"/><rect x="324" y="18.2" width="4" height="8.8" rx="1.2" ry="1.2" fill="#0A0A0A"/><rect x="330" y="15.8" width="4" height="11.2" rx="1.2" ry="1.2" fill="#0A0A0A"/><path d="M340 22 a8 8 0 0 1 11 0" fill="none" stroke="#0A0A0A" stroke-width="2" stroke-linecap="round" stroke-linejoin="round"/><path d="M342.6 25 a4.2 4.2 0 0 1 5.8 0" fill="none" stroke="#0A0A0A" stroke-width="2" stroke-linecap="round" stroke-linejoin="round"/><circle cx="345.5" cy="28" r="1.4" fill="#0A0A0A"/><rect x="360" y="19" width="20" height="10" rx="3" ry="3" fill="none" fill-opacity="0.45" stroke="#0A0A0A" stroke-width="1.2"/><rect x="362.5" y="21.2" width="13" height="5.6" rx="1.4" ry="1.4" fill="#0A0A0A"/><path d="M381 22 v4" fill="none" fill-opacity="0.45" stroke="#0A0A0A" stroke-width="1.8" stroke-linecap="round" stroke-linejoin="round"/></g><rect x="0" y="0" width="390" height="116" rx="0" ry="0" fill="#FFFFFF"/><rect x="16" y="64" width="40" height="40" rx="12" ry="12" fill="#F3F4F6"/><g transform="translate(26.5,74.5) scale(0.79)"><g fill="none" stroke="#0A0A0A" stroke-width="1.85" stroke-linecap="round" stroke-linejoin="round"><polyline points="13,5 6,12 13,19"/><line x1="6.5" y1="12" x2="20" y2="12"/></g></g><text x="195" y="88.6" font-family="'Plus Jakarta Sans','Plus Jakarta Sans Variable',-apple-system,'Segoe UI',Roboto,sans-serif" font-size="17" font-weight="800" letter-spacing="-0.4" text-anchor="middle" fill="#0A0A0A">Help &amp; Support</text><rect x="20" y="132" width="350" height="110" rx="20" ry="20" fill="url(#supG)"/><rect x="38" y="150" width="44" height="44" rx="12" ry="12" fill="rgba(255,255,255,0.2)"/><g transform="translate(49,161) scale(0.92)"><g fill="none" stroke="#FFFFFF" stroke-width="1.85" stroke-linecap="round" stroke-linejoin="round"><path d="M5 4 H19 a2 2 0 0 1 2 2 V14 a2 2 0 0 1 -2 2 H10 l-4 4 V16 H5 a2 2 0 0 1 -2 -2 V6 a2 2 0 0 1 2 -2 Z"/></g></g><text x="96" y="168.8" font-family="'Plus Jakarta Sans','Plus Jakarta Sans Variable',-apple-system,'Segoe UI',Roboto,sans-serif" font-size="16" font-weight="800" letter-spacing="-0.4" text-anchor="start" fill="#FFFFFF">Support that feels</text><text x="96" y="188.8" font-family="'Plus Jakarta Sans','Plus Jakarta Sans Variable',-apple-system,'Segoe UI',Roboto,sans-serif" font-size="16" font-weight="800" letter-spacing="-0.4" text-anchor="start" fill="#FFFFFF">like a conversation</text><text x="38" y="221.2" font-family="'Plus Jakarta Sans','Plus Jakarta Sans Variable',-apple-system,'Segoe UI',Roboto,sans-serif" font-size="11.5" font-weight="600" letter-spacing="-0.4" text-anchor="start" fill="rgba(255,255,255,0.8)">Usually replies in minutes  •  Always synced</text><rect x="20" y="258" width="350" height="46" rx="13" ry="13" fill="#FFFFFF" stroke="#E5E7EB" stroke-width="1"/><g transform="translate(33,272) scale(0.75)"><g fill="none" stroke="#9CA3AF" stroke-width="1.85" stroke-linecap="round" stroke-linejoin="round"><circle cx="11" cy="11" r="7"/><line x1="16" y1="16" x2="21" y2="21"/></g></g><text x="62" y="283.8" font-family="'Plus Jakarta Sans','Plus Jakarta Sans Variable',-apple-system,'Segoe UI',Roboto,sans-serif" font-size="13.5" font-weight="500" letter-spacing="-0.4" text-anchor="start" fill="#9CA3AF">Search help articles</text><rect x="20" y="320" width="108.67" height="92" rx="16" ry="16" fill="#FFFFFF" stroke="#E5E7EB" stroke-width="1"/><rect x="55.33" y="336" width="38" height="38" rx="11" ry="11" fill="#EEEBFF"/><g transform="translate(64.83,345.5) scale(0.79)"><g fill="#5C4BFD" stroke="none"><path d="M13 2 L4 13.5 H10.5 L9.5 22 L19 9.5 H12.5 Z"/></g></g><text x="74.33" y="393.6" font-family="'Plus Jakarta Sans','Plus Jakarta Sans Variable',-apple-system,'Segoe UI',Roboto,sans-serif" font-size="12" font-weight="700" letter-spacing="-0.4" text-anchor="middle" fill="#1F2937">Live chat</text><rect x="140.67" y="320" width="108.67" height="92" rx="16" ry="16" fill="#FFFFFF" stroke="#E5E7EB" stroke-width="1"/><rect x="176" y="336" width="38" height="38" rx="11" ry="11" fill="#FEF3C7"/><g transform="translate(185.5,345.5) scale(0.79)"><g fill="none" stroke="#FFC107" stroke-width="1.85" stroke-linecap="round" stroke-linejoin="round"><path d="M5 19 H9 L19 9 L15 5 L5 15 Z"/><line x1="13" y1="7" x2="17" y2="11"/></g></g><text x="195" y="393.6" font-family="'Plus Jakarta Sans','Plus Jakarta Sans Variable',-apple-system,'Segoe UI',Roboto,sans-serif" font-size="12" font-weight="700" letter-spacing="-0.4" text-anchor="middle" fill="#1F2937">New ticket</text><rect x="261.33" y="320" width="108.67" height="92" rx="16" ry="16" fill="#FFFFFF" stroke="#E5E7EB" stroke-width="1"/><rect x="296.67" y="336" width="38" height="38" rx="11" ry="11" fill="#E0F7FA"/><g transform="translate(306.17,345.5) scale(0.79)"><g fill="none" stroke="#00BCD4" stroke-width="1.85" stroke-linecap="round" stroke-linejoin="round"><rect x="3" y="5" width="18" height="14" rx="2.5"/><path d="M3 13.5 H8 L10 16.5 H14 L16 13.5 H21"/></g></g><text x="315.67" y="393.6" font-family="'Plus Jakarta Sans','Plus Jakarta Sans Variable',-apple-system,'Segoe UI',Roboto,sans-serif" font-size="12" font-weight="700" letter-spacing="-0.4" text-anchor="middle" fill="#1F2937">Inbox</text><text x="22" y="439.2" font-family="'Plus Jakarta Sans','Plus Jakarta Sans Variable',-apple-system,'Segoe UI',Roboto,sans-serif" font-size="11.5" font-weight="800" letter-spacing="1.0" text-anchor="start" fill="#9CA3AF">HELP CENTER</text><rect x="23" y="459" width="344" height="200" rx="16" ry="16" fill="#000" fill-opacity="0.05"/><rect x="20" y="454" width="350" height="200" rx="16" ry="16" fill="#FFFFFF"/><text x="38" y="482.4" font-family="'Plus Jakarta Sans','Plus Jakarta Sans Variable',-apple-system,'Segoe UI',Roboto,sans-serif" font-size="13" font-weight="700" letter-spacing="-0.4" text-anchor="start" fill="#0A0A0A">How do I track my shipment?</text><g transform="translate(338,472) scale(0.67)"><g fill="none" stroke="#9CA3AF" stroke-width="1.85" stroke-linecap="round" stroke-linejoin="round"><polyline points="4,15 12,7 20,15"/></g></g><text x="38" y="507.2" font-family="'Plus Jakarta Sans','Plus Jakarta Sans Variable',-apple-system,'Segoe UI',Roboto,sans-serif" font-size="11.5" font-weight="500" letter-spacing="-0.4" text-anchor="start" fill="#6B7280">Yes — you can track every shipment in real time</text><text x="38" y="523.2" font-family="'Plus Jakarta Sans','Plus Jakarta Sans Variable',-apple-system,'Segoe UI',Roboto,sans-serif" font-size="11.5" font-weight="500" letter-spacing="-0.4" text-anchor="start" fill="#6B7280">from the tracking screen using your BAGO code.</text><line x1="36" y1="550" x2="354" y2="550" stroke="#F3F4F6" stroke-width="1" stroke-linecap="round"/><text x="38" y="578.4" font-family="'Plus Jakarta Sans','Plus Jakarta Sans Variable',-apple-system,'Segoe UI',Roboto,sans-serif" font-size="13" font-weight="700" letter-spacing="-0.4" text-anchor="start" fill="#0A0A0A">When do I get paid as a traveler?</text><g transform="translate(338,568) scale(0.67)"><g fill="none" stroke="#9CA3AF" stroke-width="1.85" stroke-linecap="round" stroke-linejoin="round"><polyline points="4,9 12,17 20,9"/></g></g><line x1="36" y1="602" x2="354" y2="602" stroke="#F3F4F6" stroke-width="1" stroke-linecap="round"/><text x="38" y="630.4" font-family="'Plus Jakarta Sans','Plus Jakarta Sans Variable',-apple-system,'Segoe UI',Roboto,sans-serif" font-size="13" font-weight="700" letter-spacing="-0.4" text-anchor="start" fill="#0A0A0A">What items are prohibited?</text><g transform="translate(338,620) scale(0.67)"><g fill="none" stroke="#9CA3AF" stroke-width="1.85" stroke-linecap="round" stroke-linejoin="round"><polyline points="4,9 12,17 20,9"/></g></g><rect x="128" y="835" width="134" height="5" rx="2.5" ry="2.5" fill="#0A0A0A" fill-opacity="0.85"/></svg>