<svg xmlns="http://www.w3.org/2000/svg" width="390" height="844" viewBox="0 0 390 844" font-family="'Plus Jakarta Sans','Plus Jakarta Sans Variable',-apple-system,'Segoe UI',Roboto,sans-serif"><defs><filter id="footShadow" x="-20%" y="-60%" width="140%" height="220%"><feGaussianBlur stdDeviation="6"/></filter><linearGradient id="footShadow" x1="0" y1="0" x2="0" y2="1"><stop offset="0" stop-color="#000" stop-opacity="0"/><stop offset="1" stop-color="#000" stop-opacity="0.06"/></linearGradient></defs><rect width="390" height="844" fill="#F7F7FC"/><g><text x="26" y="33" font-family="'Plus Jakarta Sans','Plus Jakarta Sans Variable',-apple-system,'Segoe UI',Roboto,sans-serif" font-size="15" font-weight="700" letter-spacing="0" text-anchor="start" fill="#0A0A0A">9:41</text><rect x="312" y="23" width="4" height="4" rx="1.2" ry="1.2" fill="#0A0A0A"/><rect x="318" y="20.6" width="4" height="6.4" rx="1.2" ry="1.2" fill="#0A0A0A"/><rect x="324" y="18.2" width="4" height="8.8" rx="1.2" ry="1.2" fill="#0A0A0A"/><rect x="330" y="15.8" width="4" height="11.2" rx="1.2" ry="1.2" fill="#0A0A0A"/><path d="M340 22 a8 8 0 0 1 11 0" fill="none" stroke="#0A0A0A" stroke-width="2" stroke-linecap="round" stroke-linejoin="round"/><path d="M342.6 25 a4.2 4.2 0 0 1 5.8 0" fill="none" stroke="#0A0A0A" stroke-width="2" stroke-linecap="round" stroke-linejoin="round"/><circle cx="345.5" cy="28" r="1.4" fill="#0A0A0A"/><rect x="360" y="19" width="20" height="10" rx="3" ry="3" fill="none" fill-opacity="0.45" stroke="#0A0A0A" stroke-width="1.2"/><rect x="362.5" y="21.2" width="13" height="5.6" rx="1.4" ry="1.4" fill="#0A0A0A"/><path d="M381 22 v4" fill="none" fill-opacity="0.45" stroke="#0A0A0A" stroke-width="1.8" stroke-linecap="round" stroke-linejoin="round"/></g><rect x="0" y="0" width="390" height="128" rx="0" ry="0" fill="#FFFFFF"/><rect x="16" y="64" width="40" height="40" rx="12" ry="12" fill="#F3F4F6"/><g transform="translate(26.5,74.5) scale(0.79)"><g fill="none" stroke="#0A0A0A" stroke-width="1.85" stroke-linecap="round" stroke-linejoin="round"><polyline points="13,5 6,12 13,19"/><line x1="6.5" y1="12" x2="20" y2="12"/></g></g><text x="68" y="81.6" font-family="'Plus Jakarta Sans','Plus Jakarta Sans Variable',-apple-system,'Segoe UI',Roboto,sans-serif" font-size="17" font-weight="800" letter-spacing="-0.4" text-anchor="start" fill="#0A0A0A">Support inbox</text><text x="68" y="99.6" font-family="'Plus Jakarta Sans','Plus Jakarta Sans Variable',-apple-system,'Segoe UI',Roboto,sans-serif" font-size="12" font-weight="500" letter-spacing="-0.4" text-anchor="start" fill="#6B7280">4 conversations</text><rect x="20" y="142" width="350" height="46" rx="13" ry="13" fill="#FFFFFF" stroke="#E5E7EB" stroke-width="1"/><g transform="translate(33,156) scale(0.75)"><g fill="none" stroke="#9CA3AF" stroke-width="1.85" stroke-linecap="round" stroke-linejoin="round"><circle cx="11" cy="11" r="7"/><line x1="16" y1="16" x2="21" y2="21"/></g></g><text x="62" y="167.8" font-family="'Plus Jakarta Sans','Plus Jakarta Sans Variable',-apple-system,'Segoe UI',Roboto,sans-serif" font-size="13.5" font-weight="500" letter-spacing="-0.4" text-anchor="start" fill="#9CA3AF">Search conversations</text><rect x="20" y="202" width="50.5" height="32" rx="16" ry="16" fill="#5C4BFD"/><text x="45.25" y="221" font-family="'Plus Jakarta Sans','Plus Jakarta Sans Variable',-apple-system,'Segoe UI',Roboto,sans-serif" font-size="12.5" font-weight="700" letter-spacing="-0.4" text-anchor="middle" fill="#FFFFFF">All</text><rect x="78.5" y="202" width="58" height="32" rx="16" ry="16" fill="#FFFFFF" stroke="#E5E7EB" stroke-width="1"/><text x="107.5" y="221" font-family="'Plus Jakarta Sans','Plus Jakarta Sans Variable',-apple-system,'Segoe UI',Roboto,sans-serif" font-size="12.5" font-weight="700" letter-spacing="-0.4" text-anchor="middle" fill="#4B5563">Open</text><rect x="144.5" y="202" width="80.5" height="32" rx="16" ry="16" fill="#FFFFFF" stroke="#E5E7EB" stroke-width="1"/><text x="184.75" y="221" font-family="'Plus Jakarta Sans','Plus Jakarta Sans Variable',-apple-system,'Segoe UI',Roboto,sans-serif" font-size="12.5" font-weight="700" letter-spacing="-0.4" text-anchor="middle" fill="#4B5563">Waiting</text><rect x="233" y="202" width="88" height="32" rx="16" ry="16" fill="#FFFFFF" stroke="#E5E7EB" stroke-width="1"/><text x="277" y="221" font-family="'Plus Jakarta Sans','Plus Jakarta Sans Variable',-apple-system,'Segoe UI',Roboto,sans-serif" font-size="12.5" font-weight="700" letter-spacing="-0.4" text-anchor="middle" fill="#4B5563">Resolved</text><rect x="20" y="250" width="350" height="94" rx="16" ry="16" fill="#FFFFFF" stroke="#E5E7EB" stroke-width="1"/><rect x="34" y="266" width="40" height="40" rx="11" ry="11" fill="#EEEBFF"/><g transform="translate(44,276) scale(0.83)"><g fill="none" stroke="#5C4BFD" stroke-width="1.85" stroke-linecap="round" stroke-linejoin="round"><circle cx="12" cy="9.5" r="3.7"/><path d="M5.5 20 c0 -3.8 2.9 -5.7 6.5 -5.7 s6.5 1.9 6.5 5.7"/><path d="M5 11 a7 7 0 0 1 14 0"/><rect x="3" y="11" width="3" height="5.4" rx="1.5"/><rect x="18" y="11" width="3" height="5.4" rx="1.5"/></g></g><text x="84" y="276.8" font-family="'Plus Jakarta Sans','Plus Jakarta Sans Variable',-apple-system,'Segoe UI',Roboto,sans-serif" font-size="13.5" font-weight="800" letter-spacing="-0.4" text-anchor="start" fill="#0A0A0A">Payment not received</text><rect x="312.8" y="264" width="43.2" height="20" rx="10" ry="10" fill="#FEF3C7"/><text x="334.4" y="277.4" font-family="'Plus Jakarta Sans','Plus Jakarta Sans Variable',-apple-system,'Segoe UI',Roboto,sans-serif" font-size="10.5" font-weight="700" letter-spacing="-0.4" text-anchor="middle" fill="#F59E0B">Open</text><text x="84" y="297.2" font-family="'Plus Jakarta Sans','Plus Jakarta Sans Variable',-apple-system,'Segoe UI',Roboto,sans-serif" font-size="11.5" font-weight="500" letter-spacing="-0.4" text-anchor="start" fill="#6B7280">We&#x27;re reviewing your transaction now.</text><text x="84" y="328.4" font-family="'Plus Jakarta Sans','Plus Jakarta Sans Variable',-apple-system,'Segoe UI',Roboto,sans-serif" font-size="10.5" font-weight="600" letter-spacing="-0.4" text-anchor="start" fill="#9CA3AF">Payment  •  2h ago</text><rect x="20" y="356" width="350" height="94" rx="16" ry="16" fill="#FFFFFF" stroke="#E5E7EB" stroke-width="1"/><rect x="34" y="372" width="40" height="40" rx="11" ry="11" fill="#EEEBFF"/><g transform="translate(44,382) scale(0.83)"><g fill="none" stroke="#5C4BFD" stroke-width="1.85" stroke-linecap="round" stroke-linejoin="round"><circle cx="12" cy="9.5" r="3.7"/><path d="M5.5 20 c0 -3.8 2.9 -5.7 6.5 -5.7 s6.5 1.9 6.5 5.7"/><path d="M5 11 a7 7 0 0 1 14 0"/><rect x="3" y="11" width="3" height="5.4" rx="1.5"/><rect x="18" y="11" width="3" height="5.4" rx="1.5"/></g></g><text x="84" y="382.8" font-family="'Plus Jakarta Sans','Plus Jakarta Sans Variable',-apple-system,'Segoe UI',Roboto,sans-serif" font-size="13.5" font-weight="800" letter-spacing="-0.4" text-anchor="start" fill="#0A0A0A">Package marked wrong</text><rect x="293.9" y="370" width="62.1" height="20" rx="10" ry="10" fill="#DBEAFE"/><text x="324.95" y="383.4" font-family="'Plus Jakarta Sans','Plus Jakarta Sans Variable',-apple-system,'Segoe UI',Roboto,sans-serif" font-size="10.5" font-weight="700" letter-spacing="-0.4" text-anchor="middle" fill="#3B82F6">Waiting</text><text x="84" y="403.2" font-family="'Plus Jakarta Sans','Plus Jakarta Sans Variable',-apple-system,'Segoe UI',Roboto,sans-serif" font-size="11.5" font-weight="500" letter-spacing="-0.4" text-anchor="start" fill="#6B7280">Thanks, could you share a photo?</text><text x="84" y="434.4" font-family="'Plus Jakarta Sans','Plus Jakarta Sans Variable',-apple-system,'Segoe UI',Roboto,sans-serif" font-size="10.5" font-weight="600" letter-spacing="-0.4" text-anchor="start" fill="#9CA3AF">Shipment  •  2h ago</text><rect x="20" y="462" width="350" height="94" rx="16" ry="16" fill="#FFFFFF" stroke="#E5E7EB" stroke-width="1"/><rect x="34" y="478" width="40" height="40" rx="11" ry="11" fill="#EEEBFF"/><g transform="translate(44,488) scale(0.83)"><g fill="none" stroke="#5C4BFD" stroke-width="1.85" stroke-linecap="round" stroke-linejoin="round"><circle cx="12" cy="9.5" r="3.7"/><path d="M5.5 20 c0 -3.8 2.9 -5.7 6.5 -5.7 s6.5 1.9 6.5 5.7"/><path d="M5 11 a7 7 0 0 1 14 0"/><rect x="3" y="11" width="3" height="5.4" rx="1.5"/><rect x="18" y="11" width="3" height="5.4" rx="1.5"/></g></g><text x="84" y="488.8" font-family="'Plus Jakarta Sans','Plus Jakarta Sans Variable',-apple-system,'Segoe UI',Roboto,sans-serif" font-size="13.5" font-weight="800" letter-spacing="-0.4" text-anchor="start" fill="#0A0A0A">Account verification</text><rect x="287.6" y="476" width="68.4" height="20" rx="10" ry="10" fill="#D1FAE5"/><text x="321.8" y="489.4" font-family="'Plus Jakarta Sans','Plus Jakarta Sans Variable',-apple-system,'Segoe UI',Roboto,sans-serif" font-size="10.5" font-weight="700" letter-spacing="-0.4" text-anchor="middle" fill="#10B981">Resolved</text><text x="84" y="509.2" font-family="'Plus Jakarta Sans','Plus Jakarta Sans Variable',-apple-system,'Segoe UI',Roboto,sans-serif" font-size="11.5" font-weight="500" letter-spacing="-0.4" text-anchor="start" fill="#6B7280">Your identity has been verified.</text><text x="84" y="540.4" font-family="'Plus Jakarta Sans','Plus Jakarta Sans Variable',-apple-system,'Segoe UI',Roboto,sans-serif" font-size="10.5" font-weight="600" letter-spacing="-0.4" text-anchor="start" fill="#9CA3AF">Account  •  2h ago</text><rect x="202" y="766" width="168" height="46" rx="23" ry="23" fill="#5C4BFD"/><g transform="translate(219,780) scale(0.75)"><g fill="none" stroke="#FFFFFF" stroke-width="2" stroke-linecap="round" stroke-linejoin="round"><path d="M5 19 H9 L19 9 L15 5 L5 15 Z"/><line x1="13" y1="7" x2="17" y2="11"/></g></g><text x="244" y="791.4" font-family="'Plus Jakarta Sans','Plus Jakarta Sans Variable',-apple-system,'Segoe UI',Roboto,sans-serif" font-size="13" font-weight="700" letter-spacing="-0.4" text-anchor="start" fill="#FFFFFF">New conversation</text><rect x="128" y="835" width="134" height="5" rx="2.5" ry="2.5" fill="#0A0A0A" fill-opacity="0.85"/></svg>