<svg xmlns="http://www.w3.org/2000/svg" width="390" height="844" viewBox="0 0 390 844" font-family="'Plus Jakarta Sans','Plus Jakarta Sans Variable',-apple-system,'Segoe UI',Roboto,sans-serif"><defs><filter id="footShadow" x="-20%" y="-60%" width="140%" height="220%"><feGaussianBlur stdDeviation="6"/></filter><linearGradient id="footShadow" x1="0" y1="0" x2="0" y2="1"><stop offset="0" stop-color="#000" stop-opacity="0"/><stop offset="1" stop-color="#000" stop-opacity="0.06"/></linearGradient></defs><rect width="390" height="844" fill="#F8F8FC"/><g><text x="26" y="33" font-family="'Plus Jakarta Sans','Plus Jakarta Sans Variable',-apple-system,'Segoe UI',Roboto,sans-serif" font-size="15" font-weight="700" letter-spacing="0" text-anchor="start" fill="#0A0A0A">9:41</text><rect x="312" y="23" width="4" height="4" rx="1.2" ry="1.2" fill="#0A0A0A"/><rect x="318" y="20.6" width="4" height="6.4" rx="1.2" ry="1.2" fill="#0A0A0A"/><rect x="324" y="18.2" width="4" height="8.8" rx="1.2" ry="1.2" fill="#0A0A0A"/><rect x="330" y="15.8" width="4" height="11.2" rx="1.2" ry="1.2" fill="#0A0A0A"/><path d="M340 22 a8 8 0 0 1 11 0" fill="none" stroke="#0A0A0A" stroke-width="2" stroke-linecap="round" stroke-linejoin="round"/><path d="M342.6 25 a4.2 4.2 0 0 1 5.8 0" fill="none" stroke="#0A0A0A" stroke-width="2" stroke-linecap="round" stroke-linejoin="round"/><circle cx="345.5" cy="28" r="1.4" fill="#0A0A0A"/><rect x="360" y="19" width="20" height="10" rx="3" ry="3" fill="none" fill-opacity="0.45" stroke="#0A0A0A" stroke-width="1.2"/><rect x="362.5" y="21.2" width="13" height="5.6" rx="1.4" ry="1.4" fill="#0A0A0A"/><path d="M381 22 v4" fill="none" fill-opacity="0.45" stroke="#0A0A0A" stroke-width="1.8" stroke-linecap="round" stroke-linejoin="round"/></g><rect x="0" y="0" width="390" height="110" rx="0" ry="0" fill="#FFFFFF"/><line x1="0" y1="110" x2="390" y2="110" stroke="#E5E7EB" stroke-width="1" stroke-linecap="round"/><rect x="16" y="60" width="40" height="40" rx="12" ry="12" fill="#F3F4F6"/><g transform="translate(26.5,70.5) scale(0.79)"><g fill="none" stroke="#0A0A0A" stroke-width="1.85" stroke-linecap="round" stroke-linejoin="round"><polyline points="13,5 6,12 13,19"/><line x1="6.5" y1="12" x2="20" y2="12"/></g></g><text x="68" y="75.6" font-family="'Plus Jakarta Sans','Plus Jakarta Sans Variable',-apple-system,'Segoe UI',Roboto,sans-serif" font-size="14.5" font-weight="800" letter-spacing="-0.4" text-anchor="start" fill="#0A0A0A">Payment not received</text><circle cx="72" cy="89" r="3.5" fill="#F59E0B"/><text x="82" y="92.2" font-family="'Plus Jakarta Sans','Plus Jakarta Sans Variable',-apple-system,'Segoe UI',Roboto,sans-serif" font-size="11.5" font-weight="700" letter-spacing="-0.4" text-anchor="start" fill="#F59E0B">Open</text><rect x="20" y="126" width="350" height="70" rx="14" ry="14" fill="#FFFFFF" stroke="#E5E7EB" stroke-width="1"/><rect x="34" y="141" width="40" height="40" rx="11" ry="11" fill="#EEEBFF"/><g transform="translate(44,151) scale(0.83)"><g fill="none" stroke="#5C4BFD" stroke-width="1.85" stroke-linecap="round" stroke-linejoin="round"><circle cx="12" cy="9.5" r="3.7"/><path d="M5.5 20 c0 -3.8 2.9 -5.7 6.5 -5.7 s6.5 1.9 6.5 5.7"/><path d="M5 11 a7 7 0 0 1 14 0"/><rect x="3" y="11" width="3" height="5.4" rx="1.5"/><rect x="18" y="11" width="3" height="5.4" rx="1.5"/></g></g><text x="84" y="152" font-family="'Plus Jakarta Sans','Plus Jakarta Sans Variable',-apple-system,'Segoe UI',Roboto,sans-serif" font-size="12.5" font-weight="800" letter-spacing="-0.4" text-anchor="start" fill="#0A0A0A">Conversation with Bago support</text><text x="84" y="167.8" font-family="'Plus Jakarta Sans','Plus Jakarta Sans Variable',-apple-system,'Segoe UI',Roboto,sans-serif" font-size="11" font-weight="500" letter-spacing="-0.4" text-anchor="start" fill="#6B7280">Category: Payment  •  Priority: High</text><text x="84" y="183.8" font-family="'Plus Jakarta Sans','Plus Jakarta Sans Variable',-apple-system,'Segoe UI',Roboto,sans-serif" font-size="11" font-weight="500" letter-spacing="-0.4" text-anchor="start" fill="#6B7280">Reviewing your transaction.</text><text x="195" y="220.8" font-family="'Plus Jakarta Sans','Plus Jakarta Sans Variable',-apple-system,'Segoe UI',Roboto,sans-serif" font-size="11" font-weight="600" letter-spacing="-0.4" text-anchor="middle" fill="#9CA3AF">Today</text><rect x="20" y="236" width="176.31" height="84" rx="15" ry="15" fill="#FFFFFF" stroke="#E5E7EB" stroke-width="1"/><text x="34" y="255" font-family="'Plus Jakarta Sans','Plus Jakarta Sans Variable',-apple-system,'Segoe UI',Roboto,sans-serif" font-size="12.5" font-weight="500" letter-spacing="-0.4" text-anchor="start" fill="#1F2937">Hi Donny, thanks for</text><text x="34" y="272" font-family="'Plus Jakarta Sans','Plus Jakarta Sans Variable',-apple-system,'Segoe UI',Roboto,sans-serif" font-size="12.5" font-weight="500" letter-spacing="-0.4" text-anchor="start" fill="#1F2937">reaching out. Can you</text><text x="34" y="289" font-family="'Plus Jakarta Sans','Plus Jakarta Sans Variable',-apple-system,'Segoe UI',Roboto,sans-serif" font-size="12.5" font-weight="500" letter-spacing="-0.4" text-anchor="start" fill="#1F2937">confirm the payment</text><text x="34" y="306" font-family="'Plus Jakarta Sans','Plus Jakarta Sans Variable',-apple-system,'Segoe UI',Roboto,sans-serif" font-size="12.5" font-weight="500" letter-spacing="-0.4" text-anchor="start" fill="#1F2937">reference?</text><rect x="151.31" y="332" width="218.69" height="33" rx="15" ry="15" fill="#5C4BFD"/><text x="165.31" y="351" font-family="'Plus Jakarta Sans','Plus Jakarta Sans Variable',-apple-system,'Segoe UI',Roboto,sans-serif" font-size="12.5" font-weight="500" letter-spacing="-0.4" text-anchor="start" fill="#FFFFFF">Sure — it&#x27;s BAGO-PAY-90241.</text><rect x="20" y="377" width="218.69" height="67" rx="15" ry="15" fill="#FFFFFF" stroke="#E5E7EB" stroke-width="1"/><text x="34" y="396" font-family="'Plus Jakarta Sans','Plus Jakarta Sans Variable',-apple-system,'Segoe UI',Roboto,sans-serif" font-size="12.5" font-weight="500" letter-spacing="-0.4" text-anchor="start" fill="#1F2937">Got it. We&#x27;re checking with</text><text x="34" y="413" font-family="'Plus Jakarta Sans','Plus Jakarta Sans Variable',-apple-system,'Segoe UI',Roboto,sans-serif" font-size="12.5" font-weight="500" letter-spacing="-0.4" text-anchor="start" fill="#1F2937">our payment partner and</text><text x="34" y="430" font-family="'Plus Jakarta Sans','Plus Jakarta Sans Variable',-apple-system,'Segoe UI',Roboto,sans-serif" font-size="12.5" font-weight="500" letter-spacing="-0.4" text-anchor="start" fill="#1F2937">will update you shortly.</text><rect x="0" y="760" width="390" height="92" rx="0" ry="0" fill="#FFFFFF"/><line x1="0" y1="760" x2="390" y2="760" stroke="#E5E7EB" stroke-width="1" stroke-linecap="round"/><circle cx="36" cy="792" r="18" fill="#F3F4F6"/><g transform="translate(28,784) scale(0.67)"><g fill="#4B5563" stroke="none"><path d="M13 2 L4 13.5 H10.5 L9.5 22 L19 9.5 H12.5 Z"/></g></g><rect x="60" y="772" width="272" height="40" rx="20" ry="20" fill="#F3F4F6"/><text x="76" y="794.4" font-family="'Plus Jakarta Sans','Plus Jakarta Sans Variable',-apple-system,'Segoe UI',Roboto,sans-serif" font-size="13" font-weight="500" letter-spacing="-0.4" text-anchor="start" fill="#9CA3AF">Reply to support…</text><circle cx="352" cy="792" r="20" fill="#5C4BFD"/><g transform="translate(343,783) scale(0.75)"><g fill="none" stroke="#FFFFFF" stroke-width="2.4" stroke-linecap="round" stroke-linejoin="round"><line x1="12" y1="19" x2="12" y2="5"/><polyline points="5,12 12,5 19,12"/></g></g><rect x="128" y="835" width="134" height="5" rx="2.5" ry="2.5" fill="#0A0A0A" fill-opacity="0.85"/></svg>