<svg xmlns="http://www.w3.org/2000/svg" width="390" height="844" viewBox="0 0 390 844" font-family="'Plus Jakarta Sans','Plus Jakarta Sans Variable',-apple-system,'Segoe UI',Roboto,sans-serif"><defs><filter id="footShadow" x="-20%" y="-60%" width="140%" height="220%"><feGaussianBlur stdDeviation="6"/></filter><linearGradient id="footShadow" x1="0" y1="0" x2="0" y2="1"><stop offset="0" stop-color="#000" stop-opacity="0"/><stop offset="1" stop-color="#000" stop-opacity="0.06"/></linearGradient></defs><rect width="390" height="844" fill="#F8F8FC"/><g><text x="26" y="33" font-family="'Plus Jakarta Sans','Plus Jakarta Sans Variable',-apple-system,'Segoe UI',Roboto,sans-serif" font-size="15" font-weight="700" letter-spacing="0" text-anchor="start" fill="#0A0A0A">9:41</text><rect x="312" y="23" width="4" height="4" rx="1.2" ry="1.2" fill="#0A0A0A"/><rect x="318" y="20.6" width="4" height="6.4" rx="1.2" ry="1.2" fill="#0A0A0A"/><rect x="324" y="18.2" width="4" height="8.8" rx="1.2" ry="1.2" fill="#0A0A0A"/><rect x="330" y="15.8" width="4" height="11.2" rx="1.2" ry="1.2" fill="#0A0A0A"/><path d="M340 22 a8 8 0 0 1 11 0" fill="none" stroke="#0A0A0A" stroke-width="2" stroke-linecap="round" stroke-linejoin="round"/><path d="M342.6 25 a4.2 4.2 0 0 1 5.8 0" fill="none" stroke="#0A0A0A" stroke-width="2" stroke-linecap="round" stroke-linejoin="round"/><circle cx="345.5" cy="28" r="1.4" fill="#0A0A0A"/><rect x="360" y="19" width="20" height="10" rx="3" ry="3" fill="none" fill-opacity="0.45" stroke="#0A0A0A" stroke-width="1.2"/><rect x="362.5" y="21.2" width="13" height="5.6" rx="1.4" ry="1.4" fill="#0A0A0A"/><path d="M381 22 v4" fill="none" fill-opacity="0.45" stroke="#0A0A0A" stroke-width="1.8" stroke-linecap="round" stroke-linejoin="round"/></g><rect x="0" y="0" width="390" height="116" rx="0" ry="0" fill="#FFFFFF"/><rect x="16" y="64" width="40" height="40" rx="12" ry="12" fill="#F3F4F6"/><g transform="translate(26.5,74.5) scale(0.79)"><g fill="none" stroke="#0A0A0A" stroke-width="1.85" stroke-linecap="round" stroke-linejoin="round"><polyline points="13,5 6,12 13,19"/><line x1="6.5" y1="12" x2="20" y2="12"/></g></g><text x="195" y="88.6" font-family="'Plus Jakarta Sans','Plus Jakarta Sans Variable',-apple-system,'Segoe UI',Roboto,sans-serif" font-size="17" font-weight="800" letter-spacing="-0.4" text-anchor="middle" fill="#0A0A0A">Submit a Ticket</text><rect x="20" y="132" width="350" height="80" rx="16" ry="16" fill="#F0FDF4"/><rect x="36" y="150" width="44" height="44" rx="12" ry="12" fill="#DCFCE7"/><g transform="translate(47,161) scale(0.92)"><g fill="none" stroke="#16A34A" stroke-width="1.85" stroke-linecap="round" stroke-linejoin="round"><path d="M6 3.5 H18 V20.5 l-3 -1.8 -3 1.8 -3 -1.8 -3 1.8 Z"/><line x1="9" y1="8.5" x2="15" y2="8.5"/><line x1="9" y1="12.5" x2="15" y2="12.5"/></g></g><text x="92" y="164.8" font-family="'Plus Jakarta Sans','Plus Jakarta Sans Variable',-apple-system,'Segoe UI',Roboto,sans-serif" font-size="13.5" font-weight="800" letter-spacing="-0.4" text-anchor="start" fill="#15803D">Submit a support ticket</text><text x="92" y="183.2" font-family="'Plus Jakarta Sans','Plus Jakarta Sans Variable',-apple-system,'Segoe UI',Roboto,sans-serif" font-size="11.5" font-weight="500" letter-spacing="-0.4" text-anchor="start" fill="#16A34A">We&#x27;ll email you a response within a</text><text x="92" y="198.2" font-family="'Plus Jakarta Sans','Plus Jakarta Sans Variable',-apple-system,'Segoe UI',Roboto,sans-serif" font-size="11.5" font-weight="500" letter-spacing="-0.4" text-anchor="start" fill="#16A34A">few hours.</text><text x="22" y="237.2" font-family="'Plus Jakarta Sans','Plus Jakarta Sans Variable',-apple-system,'Segoe UI',Roboto,sans-serif" font-size="11.5" font-weight="800" letter-spacing="1.0" text-anchor="start" fill="#9CA3AF">CATEGORY</text><rect x="20" y="252" width="101.6" height="36" rx="18" ry="18" fill="#EEEBFF" stroke="#5C4BFD" stroke-width="1.4"/><g transform="translate(30.5,262.5) scale(0.62)"><g fill="none" stroke="#5C4BFD" stroke-width="1.85" stroke-linecap="round" stroke-linejoin="round"><rect x="2.5" y="6.5" width="12" height="9.5" rx="1.6"/><path d="M14.5 10 H18.4 L21 13 V16 H14.5 Z"/><circle cx="7" cy="18" r="1.9"/><circle cx="17" cy="18" r="1.9"/></g></g><text x="50" y="272.6" font-family="'Plus Jakarta Sans','Plus Jakarta Sans Variable',-apple-system,'Segoe UI',Roboto,sans-serif" font-size="12" font-weight="700" letter-spacing="-0.4" text-anchor="start" fill="#5C4BFD">Shipment</text><rect x="129.6" y="252" width="94.4" height="36" rx="18" ry="18" fill="#FFFFFF" stroke="#E5E7EB" stroke-width="1"/><g transform="translate(140.1,262.5) scale(0.62)"><g fill="none" stroke="#6B7280" stroke-width="1.85" stroke-linecap="round" stroke-linejoin="round"><rect x="3" y="5.5" width="18" height="13" rx="2.6"/><line x1="3" y1="10" x2="21" y2="10"/><line x1="6.5" y1="14.5" x2="11" y2="14.5"/></g></g><text x="159.6" y="272.6" font-family="'Plus Jakarta Sans','Plus Jakarta Sans Variable',-apple-system,'Segoe UI',Roboto,sans-serif" font-size="12" font-weight="700" letter-spacing="-0.4" text-anchor="start" fill="#374151">Payment</text><rect x="232" y="252" width="94.4" height="36" rx="18" ry="18" fill="#FFFFFF" stroke="#E5E7EB" stroke-width="1"/><g transform="translate(242.5,262.5) scale(0.62)"><g fill="none" stroke="#6B7280" stroke-width="1.85" stroke-linecap="round" stroke-linejoin="round"><circle cx="12" cy="8" r="4"/><path d="M5 20 c0 -4.2 3.2 -6.3 7 -6.3 s7 2.1 7 6.3"/></g></g><text x="262" y="272.6" font-family="'Plus Jakarta Sans','Plus Jakarta Sans Variable',-apple-system,'Segoe UI',Roboto,sans-serif" font-size="12" font-weight="700" letter-spacing="-0.4" text-anchor="start" fill="#374151">Account</text><rect x="20" y="296" width="80" height="36" rx="18" ry="18" fill="#FFFFFF" stroke="#E5E7EB" stroke-width="1"/><g transform="translate(30.5,306.5) scale(0.62)"><g fill="none" stroke="#6B7280" stroke-width="1.85" stroke-linecap="round" stroke-linejoin="round"><circle cx="12" cy="12" r="8.5"/><path d="M9.4 9.4 a2.7 2.7 0 1 1 4 2.4 c-1.1 .6 -1.4 1.1 -1.4 2.3"/></g></g><text x="50" y="316.6" font-family="'Plus Jakarta Sans','Plus Jakarta Sans Variable',-apple-system,'Segoe UI',Roboto,sans-serif" font-size="12" font-weight="700" letter-spacing="-0.4" text-anchor="start" fill="#374151">Other</text><text x="20" y="359.2" font-family="'Plus Jakarta Sans','Plus Jakarta Sans Variable',-apple-system,'Segoe UI',Roboto,sans-serif" font-size="14" font-weight="500" letter-spacing="-0.4" text-anchor="start" fill="#374151">Subject</text><rect x="20" y="370" width="350" height="54" rx="16" ry="16" fill="#F3F4F6" stroke="#E5E7EB" stroke-width="1"/><text x="36" y="401.6" font-family="'Plus Jakarta Sans','Plus Jakarta Sans Variable',-apple-system,'Segoe UI',Roboto,sans-serif" font-size="14.5" font-weight="500" letter-spacing="-0.4" text-anchor="start" fill="#111827">Brief summary of your issue</text><text x="20" y="449.2" font-family="'Plus Jakarta Sans','Plus Jakarta Sans Variable',-apple-system,'Segoe UI',Roboto,sans-serif" font-size="14" font-weight="500" letter-spacing="-0.4" text-anchor="start" fill="#374151">Description</text><rect x="20" y="460" width="350" height="110" rx="14" ry="14" fill="#F3F4F6" stroke="#E5E7EB" stroke-width="1"/><text x="36" y="486.4" font-family="'Plus Jakarta Sans','Plus Jakarta Sans Variable',-apple-system,'Segoe UI',Roboto,sans-serif" font-size="13" font-weight="400" letter-spacing="-0.4" text-anchor="start" fill="#9CA3AF">Describe your issue in detail…</text><rect x="20" y="584" width="350" height="54" rx="14" ry="14" fill="#10B981"/><g transform="translate(119.6,601) scale(0.83)"><g fill="none" stroke="#FFFFFF" stroke-width="2" stroke-linecap="round" stroke-linejoin="round"><path d="M21 3.5 L3 11.2 L10.2 13.8 L12.8 21 Z"/><line x1="10.2" y1="13.8" x2="21" y2="3.5"/></g></g><text x="145.6" y="615.8" font-family="'Plus Jakarta Sans','Plus Jakarta Sans Variable',-apple-system,'Segoe UI',Roboto,sans-serif" font-size="16" font-weight="600" letter-spacing="-0.4" text-anchor="start" fill="#FFFFFF">Submit Ticket</text><rect x="128" y="835" width="134" height="5" rx="2.5" ry="2.5" fill="#0A0A0A" fill-opacity="0.85"/></svg>