<svg xmlns="http://www.w3.org/2000/svg" width="390" height="844" viewBox="0 0 390 844" font-family="'Plus Jakarta Sans','Plus Jakarta Sans Variable',-apple-system,'Segoe UI',Roboto,sans-serif"><defs><filter id="footShadow" x="-20%" y="-60%" width="140%" height="220%"><feGaussianBlur stdDeviation="6"/></filter><linearGradient id="footShadow" x1="0" y1="0" x2="0" y2="1"><stop offset="0" stop-color="#000" stop-opacity="0"/><stop offset="1" stop-color="#000" stop-opacity="0.06"/></linearGradient></defs><rect width="390" height="844" fill="#F8F8FC"/><g><text x="26" y="33" font-family="'Plus Jakarta Sans','Plus Jakarta Sans Variable',-apple-system,'Segoe UI',Roboto,sans-serif" font-size="15" font-weight="700" letter-spacing="0" text-anchor="start" fill="#0A0A0A">9:41</text><rect x="312" y="23" width="4" height="4" rx="1.2" ry="1.2" fill="#0A0A0A"/><rect x="318" y="20.6" width="4" height="6.4" rx="1.2" ry="1.2" fill="#0A0A0A"/><rect x="324" y="18.2" width="4" height="8.8" rx="1.2" ry="1.2" fill="#0A0A0A"/><rect x="330" y="15.8" width="4" height="11.2" rx="1.2" ry="1.2" fill="#0A0A0A"/><path d="M340 22 a8 8 0 0 1 11 0" fill="none" stroke="#0A0A0A" stroke-width="2" stroke-linecap="round" stroke-linejoin="round"/><path d="M342.6 25 a4.2 4.2 0 0 1 5.8 0" fill="none" stroke="#0A0A0A" stroke-width="2" stroke-linecap="round" stroke-linejoin="round"/><circle cx="345.5" cy="28" r="1.4" fill="#0A0A0A"/><rect x="360" y="19" width="20" height="10" rx="3" ry="3" fill="none" fill-opacity="0.45" stroke="#0A0A0A" stroke-width="1.2"/><rect x="362.5" y="21.2" width="13" height="5.6" rx="1.4" ry="1.4" fill="#0A0A0A"/><path d="M381 22 v4" fill="none" fill-opacity="0.45" stroke="#0A0A0A" stroke-width="1.8" stroke-linecap="round" stroke-linejoin="round"/></g><rect x="0" y="0" width="390" height="116" rx="0" ry="0" fill="#FFFFFF"/><rect x="16" y="64" width="40" height="40" rx="12" ry="12" fill="#F3F4F6"/><g transform="translate(26.5,74.5) scale(0.79)"><g fill="none" stroke="#0A0A0A" stroke-width="1.85" stroke-linecap="round" stroke-linejoin="round"><polyline points="13,5 6,12 13,19"/><line x1="6.5" y1="12" x2="20" y2="12"/></g></g><text x="195" y="88.6" font-family="'Plus Jakarta Sans','Plus Jakarta Sans Variable',-apple-system,'Segoe UI',Roboto,sans-serif" font-size="17" font-weight="800" letter-spacing="-0.4" text-anchor="middle" fill="#0A0A0A">Shipments Help</text><rect x="24" y="132" width="342" height="74" rx="16" ry="16" fill="#EEEBFF"/><rect x="40" y="150" width="38" height="38" rx="11" ry="11" fill="#FFFFFF"/><g transform="translate(49,159) scale(0.83)"><g fill="none" stroke="#5C4BFD" stroke-width="1.85" stroke-linecap="round" stroke-linejoin="round"><circle cx="12" cy="12" r="8.5"/><path d="M9.4 9.4 a2.7 2.7 0 1 1 4 2.4 c-1.1 .6 -1.4 1.1 -1.4 2.3"/></g></g><text x="88" y="163.2" font-family="'Plus Jakarta Sans','Plus Jakarta Sans Variable',-apple-system,'Segoe UI',Roboto,sans-serif" font-size="14" font-weight="800" letter-spacing="-0.4" text-anchor="start" fill="#4335E0">How can we help?</text><text x="88" y="181.2" font-family="'Plus Jakarta Sans','Plus Jakarta Sans Variable',-apple-system,'Segoe UI',Roboto,sans-serif" font-size="11.5" font-weight="500" letter-spacing="-0.4" text-anchor="start" fill="#5C4BFD">Find answers to common questions below.</text><text x="26" y="231.2" font-family="'Plus Jakarta Sans','Plus Jakarta Sans Variable',-apple-system,'Segoe UI',Roboto,sans-serif" font-size="11.5" font-weight="800" letter-spacing="1.0" text-anchor="start" fill="#9CA3AF">FREQUENTLY ASKED QUESTIONS</text><rect x="27" y="251" width="336" height="252" rx="16" ry="16" fill="#000" fill-opacity="0.05"/><rect x="24" y="246" width="342" height="252" rx="16" ry="16" fill="#FFFFFF"/><text x="42" y="274.4" font-family="'Plus Jakarta Sans','Plus Jakarta Sans Variable',-apple-system,'Segoe UI',Roboto,sans-serif" font-size="13" font-weight="700" letter-spacing="-0.4" text-anchor="start" fill="#0A0A0A">How do I create a shipment?</text><g transform="translate(334,264) scale(0.67)"><g fill="none" stroke="#9CA3AF" stroke-width="1.85" stroke-linecap="round" stroke-linejoin="round"><polyline points="4,15 12,7 20,15"/></g></g><text x="42" y="299.2" font-family="'Plus Jakarta Sans','Plus Jakarta Sans Variable',-apple-system,'Segoe UI',Roboto,sans-serif" font-size="11.5" font-weight="500" letter-spacing="-0.4" text-anchor="start" fill="#6B7280">Yes — you can track every shipment in real</text><text x="42" y="315.2" font-family="'Plus Jakarta Sans','Plus Jakarta Sans Variable',-apple-system,'Segoe UI',Roboto,sans-serif" font-size="11.5" font-weight="500" letter-spacing="-0.4" text-anchor="start" fill="#6B7280">time from the tracking screen using your BAGO</text><text x="42" y="331.2" font-family="'Plus Jakarta Sans','Plus Jakarta Sans Variable',-apple-system,'Segoe UI',Roboto,sans-serif" font-size="11.5" font-weight="500" letter-spacing="-0.4" text-anchor="start" fill="#6B7280">code.</text><line x1="40" y1="342" x2="350" y2="342" stroke="#F3F4F6" stroke-width="1" stroke-linecap="round"/><text x="42" y="370.4" font-family="'Plus Jakarta Sans','Plus Jakarta Sans Variable',-apple-system,'Segoe UI',Roboto,sans-serif" font-size="13" font-weight="700" letter-spacing="-0.4" text-anchor="start" fill="#0A0A0A">How is my package insured?</text><g transform="translate(334,360) scale(0.67)"><g fill="none" stroke="#9CA3AF" stroke-width="1.85" stroke-linecap="round" stroke-linejoin="round"><polyline points="4,9 12,17 20,9"/></g></g><line x1="40" y1="394" x2="350" y2="394" stroke="#F3F4F6" stroke-width="1" stroke-linecap="round"/><text x="42" y="422.4" font-family="'Plus Jakarta Sans','Plus Jakarta Sans Variable',-apple-system,'Segoe UI',Roboto,sans-serif" font-size="13" font-weight="700" letter-spacing="-0.4" text-anchor="start" fill="#0A0A0A">Can I cancel a shipment?</text><g transform="translate(334,412) scale(0.67)"><g fill="none" stroke="#9CA3AF" stroke-width="1.85" stroke-linecap="round" stroke-linejoin="round"><polyline points="4,9 12,17 20,9"/></g></g><line x1="40" y1="446" x2="350" y2="446" stroke="#F3F4F6" stroke-width="1" stroke-linecap="round"/><text x="42" y="474.4" font-family="'Plus Jakarta Sans','Plus Jakarta Sans Variable',-apple-system,'Segoe UI',Roboto,sans-serif" font-size="13" font-weight="700" letter-spacing="-0.4" text-anchor="start" fill="#0A0A0A">How do I track delivery?</text><g transform="translate(334,464) scale(0.67)"><g fill="none" stroke="#9CA3AF" stroke-width="1.85" stroke-linecap="round" stroke-linejoin="round"><polyline points="4,9 12,17 20,9"/></g></g><rect x="24" y="504" width="342" height="108" rx="16" ry="16" fill="#FFFFFF" stroke="#E5E7EB" stroke-width="1"/><text x="40" y="526.4" font-family="'Plus Jakarta Sans','Plus Jakarta Sans Variable',-apple-system,'Segoe UI',Roboto,sans-serif" font-size="10.5" font-weight="800" letter-spacing="0.6" text-anchor="start" fill="#9CA3AF">STILL NEED HELP?</text><g transform="translate(40.5,530.5) scale(0.79)"><g fill="none" stroke="#5C4BFD" stroke-width="1.85" stroke-linecap="round" stroke-linejoin="round"><path d="M5 4 H19 a2 2 0 0 1 2 2 V14 a2 2 0 0 1 -2 2 H10 l-4 4 V16 H5 a2 2 0 0 1 -2 -2 V6 a2 2 0 0 1 2 -2 Z"/></g></g><text x="70" y="541.4" font-family="'Plus Jakarta Sans','Plus Jakarta Sans Variable',-apple-system,'Segoe UI',Roboto,sans-serif" font-size="13" font-weight="700" letter-spacing="-0.4" text-anchor="start" fill="#0A0A0A">Live Chat</text><text x="340" y="540.8" font-family="'Plus Jakarta Sans','Plus Jakarta Sans Variable',-apple-system,'Segoe UI',Roboto,sans-serif" font-size="11" font-weight="500" letter-spacing="-0.4" text-anchor="end" fill="#6B7280">Avg response: 5 min</text><g transform="translate(348.5,532.5) scale(0.62)"><g fill="none" stroke="#9CA3AF" stroke-width="1.85" stroke-linecap="round" stroke-linejoin="round"><polyline points="9,4 17,12 9,20"/></g></g><g transform="translate(40.5,568.5) scale(0.79)"><g fill="none" stroke="#5C4BFD" stroke-width="1.85" stroke-linecap="round" stroke-linejoin="round"><rect x="3" y="5.5" width="18" height="13" rx="2.6"/><polyline points="3.8,7 12,12.5 20.2,7"/></g></g><text x="70" y="579.4" font-family="'Plus Jakarta Sans','Plus Jakarta Sans Variable',-apple-system,'Segoe UI',Roboto,sans-serif" font-size="13" font-weight="700" letter-spacing="-0.4" text-anchor="start" fill="#0A0A0A">Email Support</text><text x="340" y="578.8" font-family="'Plus Jakarta Sans','Plus Jakarta Sans Variable',-apple-system,'Segoe UI',Roboto,sans-serif" font-size="11" font-weight="500" letter-spacing="-0.4" text-anchor="end" fill="#6B7280">help@sendwithbago.com</text><g transform="translate(348.5,570.5) scale(0.62)"><g fill="none" stroke="#9CA3AF" stroke-width="1.85" stroke-linecap="round" stroke-linejoin="round"><polyline points="9,4 17,12 9,20"/></g></g><rect x="128" y="835" width="134" height="5" rx="2.5" ry="2.5" fill="#0A0A0A" fill-opacity="0.85"/></svg>