<svg xmlns="http://www.w3.org/2000/svg" width="390" height="844" viewBox="0 0 390 844" font-family="'Plus Jakarta Sans','Plus Jakarta Sans Variable',-apple-system,'Segoe UI',Roboto,sans-serif"><defs><filter id="footShadow" x="-20%" y="-60%" width="140%" height="220%"><feGaussianBlur stdDeviation="6"/></filter><linearGradient id="footShadow" x1="0" y1="0" x2="0" y2="1"><stop offset="0" stop-color="#000" stop-opacity="0"/><stop offset="1" stop-color="#000" stop-opacity="0.06"/></linearGradient></defs><rect width="390" height="844" fill="#F8F8FC"/><g><text x="26" y="33" font-family="'Plus Jakarta Sans','Plus Jakarta Sans Variable',-apple-system,'Segoe UI',Roboto,sans-serif" font-size="15" font-weight="700" letter-spacing="0" text-anchor="start" fill="#0A0A0A">9:41</text><rect x="312" y="23" width="4" height="4" rx="1.2" ry="1.2" fill="#0A0A0A"/><rect x="318" y="20.6" width="4" height="6.4" rx="1.2" ry="1.2" fill="#0A0A0A"/><rect x="324" y="18.2" width="4" height="8.8" rx="1.2" ry="1.2" fill="#0A0A0A"/><rect x="330" y="15.8" width="4" height="11.2" rx="1.2" ry="1.2" fill="#0A0A0A"/><path d="M340 22 a8 8 0 0 1 11 0" fill="none" stroke="#0A0A0A" stroke-width="2" stroke-linecap="round" stroke-linejoin="round"/><path d="M342.6 25 a4.2 4.2 0 0 1 5.8 0" fill="none" stroke="#0A0A0A" stroke-width="2" stroke-linecap="round" stroke-linejoin="round"/><circle cx="345.5" cy="28" r="1.4" fill="#0A0A0A"/><rect x="360" y="19" width="20" height="10" rx="3" ry="3" fill="none" fill-opacity="0.45" stroke="#0A0A0A" stroke-width="1.2"/><rect x="362.5" y="21.2" width="13" height="5.6" rx="1.4" ry="1.4" fill="#0A0A0A"/><path d="M381 22 v4" fill="none" fill-opacity="0.45" stroke="#0A0A0A" stroke-width="1.8" stroke-linecap="round" stroke-linejoin="round"/></g><rect x="0" y="0" width="390" height="116" rx="0" ry="0" fill="#FFFFFF"/><rect x="16" y="64" width="40" height="40" rx="12" ry="12" fill="#F3F4F6"/><g transform="translate(26.5,74.5) scale(0.79)"><g fill="none" stroke="#0A0A0A" stroke-width="1.85" stroke-linecap="round" stroke-linejoin="round"><polyline points="13,5 6,12 13,19"/><line x1="6.5" y1="12" x2="20" y2="12"/></g></g><text x="195" y="88.6" font-family="'Plus Jakarta Sans','Plus Jakarta Sans Variable',-apple-system,'Segoe UI',Roboto,sans-serif" font-size="17" font-weight="800" letter-spacing="-0.4" text-anchor="middle" fill="#0A0A0A">Group Shipping</text><rect x="20" y="130" width="350" height="60.08" rx="18" ry="18" fill="#F0FDF4"/><g transform="translate(38,146) scale(0.83)"><g fill="none" stroke="#16A34A" stroke-width="1.85" stroke-linecap="round" stroke-linejoin="round"><circle cx="9" cy="8.5" r="3.4"/><path d="M3 19 c0 -3.6 2.7 -5.4 6 -5.4 s6 1.8 6 5.4"/><path d="M16 5.6 a3.3 3.3 0 0 1 0 6.4"/><path d="M17 13.9 c2.7 .4 4 2.2 4 5.1"/></g></g><text x="68" y="153.6" font-family="'Plus Jakarta Sans','Plus Jakarta Sans Variable',-apple-system,'Segoe UI',Roboto,sans-serif" font-size="12" font-weight="700" letter-spacing="-0.4" text-anchor="start" fill="#16A34A">Pool your shipment with others going to</text><text x="68" y="170.64" font-family="'Plus Jakarta Sans','Plus Jakarta Sans Variable',-apple-system,'Segoe UI',Roboto,sans-serif" font-size="12" font-weight="700" letter-spacing="-0.4" text-anchor="start" fill="#16A34A">the same destination to split costs.</text><rect x="20" y="206.08" width="350" height="140" rx="16" ry="16" fill="#FFFFFF" stroke="#E5E7EB" stroke-width="1"/><text x="36" y="230.48" font-family="'Plus Jakarta Sans','Plus Jakarta Sans Variable',-apple-system,'Segoe UI',Roboto,sans-serif" font-size="10.5" font-weight="800" letter-spacing="0.6" text-anchor="start" fill="#9CA3AF">HOW IT WORKS</text><circle cx="44" cy="246.08" r="9" fill="#EEEBFF"/><text x="44" y="248.48" font-family="'Plus Jakarta Sans','Plus Jakarta Sans Variable',-apple-system,'Segoe UI',Roboto,sans-serif" font-size="10.5" font-weight="800" letter-spacing="-0.4" text-anchor="middle" fill="#5C4BFD">1</text><text x="62" y="248.68" font-family="'Plus Jakarta Sans','Plus Jakarta Sans Variable',-apple-system,'Segoe UI',Roboto,sans-serif" font-size="12" font-weight="600" letter-spacing="-0.4" text-anchor="start" fill="#374151">Create a group shipping request</text><circle cx="44" cy="270.08" r="9" fill="#EEEBFF"/><text x="44" y="272.48" font-family="'Plus Jakarta Sans','Plus Jakarta Sans Variable',-apple-system,'Segoe UI',Roboto,sans-serif" font-size="10.5" font-weight="800" letter-spacing="-0.4" text-anchor="middle" fill="#5C4BFD">2</text><text x="62" y="272.68" font-family="'Plus Jakarta Sans','Plus Jakarta Sans Variable',-apple-system,'Segoe UI',Roboto,sans-serif" font-size="12" font-weight="600" letter-spacing="-0.4" text-anchor="start" fill="#374151">Invite others with the same destination</text><circle cx="44" cy="294.08" r="9" fill="#EEEBFF"/><text x="44" y="296.48" font-family="'Plus Jakarta Sans','Plus Jakarta Sans Variable',-apple-system,'Segoe UI',Roboto,sans-serif" font-size="10.5" font-weight="800" letter-spacing="-0.4" text-anchor="middle" fill="#5C4BFD">3</text><text x="62" y="296.68" font-family="'Plus Jakarta Sans','Plus Jakarta Sans Variable',-apple-system,'Segoe UI',Roboto,sans-serif" font-size="12" font-weight="600" letter-spacing="-0.4" text-anchor="start" fill="#374151">Get matched with a carrier together</text><circle cx="44" cy="318.08" r="9" fill="#EEEBFF"/><text x="44" y="320.48" font-family="'Plus Jakarta Sans','Plus Jakarta Sans Variable',-apple-system,'Segoe UI',Roboto,sans-serif" font-size="10.5" font-weight="800" letter-spacing="-0.4" text-anchor="middle" fill="#5C4BFD">4</text><text x="62" y="320.68" font-family="'Plus Jakarta Sans','Plus Jakarta Sans Variable',-apple-system,'Segoe UI',Roboto,sans-serif" font-size="12" font-weight="600" letter-spacing="-0.4" text-anchor="start" fill="#374151">Share the cost — save up to 60%</text><text x="20" y="373.28" font-family="'Plus Jakarta Sans','Plus Jakarta Sans Variable',-apple-system,'Segoe UI',Roboto,sans-serif" font-size="14" font-weight="500" letter-spacing="-0.4" text-anchor="start" fill="#374151">Items to Ship</text><rect x="20" y="384.08" width="350" height="54" rx="16" ry="16" fill="#F3F4F6" stroke="#E5E7EB" stroke-width="1"/><text x="36" y="415.68" font-family="'Plus Jakarta Sans','Plus Jakarta Sans Variable',-apple-system,'Segoe UI',Roboto,sans-serif" font-size="14.5" font-weight="500" letter-spacing="-0.4" text-anchor="start" fill="#111827">List the items you want to ship</text><text x="20" y="463.28" font-family="'Plus Jakarta Sans','Plus Jakarta Sans Variable',-apple-system,'Segoe UI',Roboto,sans-serif" font-size="14" font-weight="500" letter-spacing="-0.4" text-anchor="start" fill="#374151">From</text><text x="201" y="463.28" font-family="'Plus Jakarta Sans','Plus Jakarta Sans Variable',-apple-system,'Segoe UI',Roboto,sans-serif" font-size="14" font-weight="500" letter-spacing="-0.4" text-anchor="start" fill="#374151">To</text><rect x="20" y="474.08" width="169" height="52" rx="16" ry="16" fill="#F3F4F6" stroke="#E5E7EB" stroke-width="1"/><text x="34" y="503.48" font-family="'Plus Jakarta Sans','Plus Jakarta Sans Variable',-apple-system,'Segoe UI',Roboto,sans-serif" font-size="13" font-weight="400" letter-spacing="-0.4" text-anchor="start" fill="#9CA3AF">Origin country</text><rect x="201" y="474.08" width="169" height="52" rx="16" ry="16" fill="#F3F4F6" stroke="#E5E7EB" stroke-width="1"/><text x="215" y="503.48" font-family="'Plus Jakarta Sans','Plus Jakarta Sans Variable',-apple-system,'Segoe UI',Roboto,sans-serif" font-size="13" font-weight="400" letter-spacing="-0.4" text-anchor="start" fill="#9CA3AF">Destination</text><rect x="20" y="540.08" width="350" height="54" rx="14" ry="14" fill="#5C4BFD"/><text x="195" y="571.88" font-family="'Plus Jakarta Sans','Plus Jakarta Sans Variable',-apple-system,'Segoe UI',Roboto,sans-serif" font-size="16" font-weight="600" letter-spacing="-0.4" text-anchor="middle" fill="#FFFFFF">Create Group Shipment</text><rect x="128" y="835" width="134" height="5" rx="2.5" ry="2.5" fill="#0A0A0A" fill-opacity="0.85"/></svg>